<svg width="548" height="206" viewBox="0 0 548 206" fill="none" xmlns="http://www.w3.org/2000/svg">
<path d="M31.5969 24.9261H20.7731C20.7163 24.2585 20.4819 23.6832 20.07 23.2003C19.658 22.7173 19.1254 22.348 18.4719 22.0923C17.8327 21.8224 17.1225 21.6875 16.3413 21.6875C15.3327 21.6875 14.4663 21.8722 13.7418 22.2415C13.0174 22.6108 12.6623 23.1364 12.6765 23.8182C12.6623 24.3011 12.8683 24.7486 13.2944 25.1605C13.7347 25.5724 14.5799 25.892 15.8299 26.1193L22.4776 27.3125C25.8299 27.9233 28.3228 28.9531 29.9563 30.402C31.604 31.8366 32.435 33.7614 32.4492 36.1761C32.435 38.5057 31.739 40.5298 30.3612 42.2486C28.9975 43.9531 27.1296 45.2741 24.7575 46.2116C22.3995 47.1349 19.7077 47.5966 16.6822 47.5966C11.6822 47.5966 7.76882 46.5739 4.94212 44.5284C2.12962 42.483 0.560014 39.7841 0.23331 36.4318H11.9094C12.0657 37.4687 12.5771 38.2713 13.4435 38.8395C14.3242 39.3935 15.4322 39.6705 16.7674 39.6705C17.8469 39.6705 18.7347 39.4858 19.4308 39.1165C20.141 38.7472 20.5032 38.2216 20.5174 37.5398C20.5032 36.9148 20.1907 36.4176 19.5799 36.0483C18.9833 35.679 18.0458 35.3807 16.7674 35.1534L10.9719 34.1307C7.63388 33.5483 5.13388 32.4403 3.47195 30.8068C1.81001 29.1733 0.986151 27.071 1.00036 24.5C0.986151 22.2273 1.58274 20.3026 2.79013 18.7259C4.01172 17.1349 5.75178 15.9276 8.0103 15.1037C10.283 14.2656 12.9748 13.8466 16.0856 13.8466C20.8157 13.8466 24.5444 14.8267 27.2717 16.7869C30.0131 18.7472 31.4549 21.4602 31.5969 24.9261ZM56.4727 14.2727V22.7955H34.9102V14.2727H56.4727ZM39.0863 6.43182H50.8477V36.4744C50.8477 36.929 50.9258 37.3125 51.082 37.625C51.2383 37.9233 51.4798 38.1506 51.8065 38.3068C52.1332 38.4489 52.5522 38.5199 53.0636 38.5199C53.4187 38.5199 53.8306 38.4773 54.2994 38.392C54.7823 38.3068 55.1374 38.2358 55.3647 38.179L57.0692 46.446C56.5437 46.6023 55.7908 46.794 54.8107 47.0213C53.8448 47.2486 52.6942 47.3977 51.359 47.4688C48.6602 47.6108 46.3945 47.3338 44.5621 46.6378C42.7298 45.9276 41.3519 44.8125 40.4286 43.2926C39.5053 41.7727 39.0579 39.8693 39.0863 37.5824V6.43182ZM61.272 47V14.2727H72.6925V20.4943H73.0334C73.63 18.1932 74.5746 16.5099 75.8672 15.4446C77.174 14.3793 78.701 13.8466 80.4482 13.8466C80.9595 13.8466 81.4638 13.8892 81.9609 13.9744C82.4723 14.0455 82.9624 14.152 83.4311 14.294V24.3295C82.8487 24.1307 82.1314 23.9815 81.2791 23.8821C80.4268 23.7827 79.6953 23.733 79.0845 23.733C77.9339 23.733 76.897 23.9957 75.9737 24.5213C75.0646 25.0327 74.3473 25.7571 73.8217 26.6946C73.2962 27.6179 73.0334 28.7045 73.0334 29.9545V47H61.272ZM101.094 47.5966C97.6001 47.5966 94.5888 46.929 92.0604 45.5938C89.5462 44.2443 87.6072 42.3125 86.2436 39.7983C84.8942 37.2699 84.2195 34.2443 84.2195 30.7216C84.2195 27.3409 84.9013 24.3864 86.2649 21.858C87.6286 19.3295 89.5533 17.3622 92.0391 15.956C94.5249 14.5497 97.4581 13.8466 100.839 13.8466C103.31 13.8466 105.548 14.2301 107.55 14.9972C109.553 15.7642 111.265 16.8793 112.685 18.3423C114.106 19.7912 115.2 21.5526 115.967 23.6264C116.734 25.7003 117.117 28.0369 117.117 30.6364V33.3636H87.8842V26.8864H106.293C106.279 25.9489 106.038 25.125 105.569 24.4148C105.114 23.6903 104.496 23.1293 103.715 22.7315C102.948 22.3196 102.075 22.1136 101.094 22.1136C100.143 22.1136 99.2692 22.3196 98.4737 22.7315C97.6783 23.1293 97.0391 23.6832 96.5561 24.3935C96.0874 25.1037 95.8388 25.9347 95.8104 26.8864V33.875C95.8104 34.9261 96.0305 35.8636 96.4709 36.6875C96.9112 37.5114 97.5433 38.1577 98.3672 38.6264C99.1911 39.0952 100.185 39.3295 101.35 39.3295C102.16 39.3295 102.898 39.2159 103.566 38.9886C104.248 38.7614 104.83 38.4347 105.313 38.0085C105.796 37.5682 106.151 37.0426 106.379 36.4318H117.117C116.748 38.7045 115.874 40.679 114.496 42.3551C113.119 44.017 111.293 45.3097 109.021 46.233C106.762 47.142 104.12 47.5966 101.094 47.5966ZM131.036 47.5114C128.948 47.5114 127.101 47.1705 125.496 46.4886C123.905 45.7926 122.655 44.7415 121.746 43.3352C120.837 41.929 120.382 40.1392 120.382 37.9659C120.382 36.1761 120.688 34.6491 121.299 33.3849C121.909 32.1065 122.762 31.0625 123.855 30.2528C124.949 29.4432 126.221 28.8253 127.669 28.3991C129.132 27.973 130.709 27.696 132.4 27.5682C134.232 27.4261 135.702 27.2557 136.81 27.0568C137.932 26.8437 138.742 26.5526 139.239 26.1832C139.736 25.7997 139.985 25.2955 139.985 24.6705V24.5852C139.985 23.733 139.658 23.0795 139.005 22.625C138.351 22.1705 137.513 21.9432 136.49 21.9432C135.368 21.9432 134.452 22.1918 133.742 22.6889C133.046 23.1719 132.627 23.9176 132.485 24.9261H121.661C121.803 22.9375 122.435 21.1051 123.557 19.429C124.694 17.7386 126.348 16.3892 128.522 15.3807C130.695 14.358 133.408 13.8466 136.661 13.8466C139.005 13.8466 141.107 14.1236 142.968 14.6776C144.828 15.2173 146.412 15.9773 147.719 16.9574C149.026 17.9233 150.02 19.0597 150.702 20.3665C151.398 21.6591 151.746 23.0653 151.746 24.5852V47H140.752V42.3977H140.496C139.843 43.6193 139.047 44.6065 138.11 45.3594C137.186 46.1122 136.128 46.6591 134.935 47C133.756 47.3409 132.456 47.5114 131.036 47.5114ZM134.871 40.0966C135.766 40.0966 136.604 39.9119 137.385 39.5426C138.181 39.1733 138.827 38.6406 139.324 37.9446C139.821 37.2486 140.07 36.4034 140.07 35.4091V32.6818C139.757 32.8097 139.424 32.9304 139.069 33.044C138.728 33.1577 138.358 33.2642 137.961 33.3636C137.577 33.4631 137.165 33.5554 136.725 33.6406C136.299 33.7259 135.851 33.804 135.382 33.875C134.473 34.017 133.728 34.2514 133.145 34.5781C132.577 34.8906 132.151 35.2812 131.867 35.75C131.597 36.2045 131.462 36.7159 131.462 37.2841C131.462 38.1932 131.782 38.8892 132.421 39.3722C133.06 39.8551 133.877 40.0966 134.871 40.0966ZM157.366 47V14.2727H168.531V20.4943H168.871C169.553 18.4489 170.718 16.8295 172.366 15.6364C174.013 14.4432 175.974 13.8466 178.246 13.8466C180.548 13.8466 182.529 14.4574 184.191 15.679C185.853 16.8864 186.854 18.4915 187.195 20.4943H187.536C188.09 18.4915 189.269 16.8864 191.073 15.679C192.877 14.4574 194.994 13.8466 197.423 13.8466C200.562 13.8466 203.104 14.8551 205.05 16.8722C207.011 18.8892 207.991 21.5739 207.991 24.9261V47H196.229V27.9091C196.229 26.4744 195.867 25.3523 195.143 24.5426C194.418 23.7187 193.445 23.3068 192.224 23.3068C191.016 23.3068 190.058 23.7187 189.347 24.5426C188.651 25.3523 188.303 26.4744 188.303 27.9091V47H177.053V27.9091C177.053 26.4744 176.691 25.3523 175.967 24.5426C175.242 23.7187 174.269 23.3068 173.048 23.3068C172.238 23.3068 171.542 23.4915 170.96 23.8608C170.377 24.2301 169.923 24.7628 169.596 25.4588C169.283 26.1406 169.127 26.9574 169.127 27.9091V47H157.366ZM225.553 3.36364V47H213.792V3.36364H225.553ZM231.545 47V14.2727H243.307V47H231.545ZM237.426 10.8636C235.835 10.8636 234.472 10.3381 233.335 9.28693C232.199 8.2358 231.631 6.97159 231.631 5.49432C231.631 4.01705 232.199 2.75284 233.335 1.7017C234.472 0.650568 235.835 0.125 237.426 0.125C239.031 0.125 240.395 0.650568 241.517 1.7017C242.653 2.75284 243.222 4.01705 243.222 5.49432C243.222 6.97159 242.653 8.2358 241.517 9.28693C240.395 10.3381 239.031 10.8636 237.426 10.8636ZM261.061 28.5909V47H249.299V14.2727H260.464V20.4943H260.805C261.515 18.4205 262.765 16.794 264.555 15.6151C266.359 14.4361 268.461 13.8466 270.862 13.8466C273.177 13.8466 275.187 14.3793 276.892 15.4446C278.61 16.4957 279.939 17.9446 280.876 19.7912C281.828 21.6378 282.297 23.7472 282.282 26.1193V47H270.521V28.5909C270.535 26.9716 270.123 25.7003 269.285 24.777C268.461 23.8537 267.311 23.392 265.833 23.392C264.868 23.392 264.022 23.6051 263.298 24.0312C262.588 24.4432 262.041 25.0398 261.657 25.821C261.274 26.5881 261.075 27.5114 261.061 28.5909ZM303.77 47.5966C300.276 47.5966 297.265 46.929 294.736 45.5938C292.222 44.2443 290.283 42.3125 288.919 39.7983C287.57 37.2699 286.895 34.2443 286.895 30.7216C286.895 27.3409 287.577 24.3864 288.941 21.858C290.304 19.3295 292.229 17.3622 294.715 15.956C297.201 14.5497 300.134 13.8466 303.515 13.8466C305.986 13.8466 308.223 14.2301 310.226 14.9972C312.229 15.7642 313.941 16.8793 315.361 18.3423C316.782 19.7912 317.875 21.5526 318.642 23.6264C319.409 25.7003 319.793 28.0369 319.793 30.6364V33.3636H290.56V26.8864H308.969C308.955 25.9489 308.713 25.125 308.245 24.4148C307.79 23.6903 307.172 23.1293 306.391 22.7315C305.624 22.3196 304.75 22.1136 303.77 22.1136C302.819 22.1136 301.945 22.3196 301.15 22.7315C300.354 23.1293 299.715 23.6832 299.232 24.3935C298.763 25.1037 298.515 25.9347 298.486 26.8864V33.875C298.486 34.9261 298.706 35.8636 299.147 36.6875C299.587 37.5114 300.219 38.1577 301.043 38.6264C301.867 39.0952 302.861 39.3295 304.026 39.3295C304.836 39.3295 305.574 39.2159 306.242 38.9886C306.924 38.7614 307.506 38.4347 307.989 38.0085C308.472 37.5682 308.827 37.0426 309.054 36.4318H319.793C319.424 38.7045 318.55 40.679 317.172 42.3551C315.794 44.017 313.969 45.3097 311.696 46.233C309.438 47.142 306.796 47.5966 303.77 47.5966ZM336.439 47.4261C334.109 47.4261 331.964 46.8153 330.004 45.5938C328.058 44.3722 326.496 42.5185 325.317 40.0327C324.152 37.5469 323.57 34.4148 323.57 30.6364C323.57 26.6875 324.18 23.4773 325.402 21.0057C326.638 18.5341 328.229 16.723 330.175 15.5724C332.135 14.4219 334.195 13.8466 336.354 13.8466C337.973 13.8466 339.393 14.1307 340.615 14.6989C341.837 15.2528 342.859 15.9986 343.683 16.9361C344.507 17.8594 345.132 18.875 345.558 19.983H345.729V3.36364H357.49V47H345.814V41.6307H345.558C345.104 42.7386 344.45 43.733 343.598 44.6136C342.76 45.4801 341.737 46.169 340.53 46.6804C339.337 47.1776 337.973 47.4261 336.439 47.4261ZM340.786 38.392C341.865 38.392 342.788 38.0795 343.555 37.4545C344.337 36.8153 344.933 35.9205 345.345 34.7699C345.771 33.6051 345.984 32.2273 345.984 30.6364C345.984 29.017 345.771 27.6321 345.345 26.4815C344.933 25.3168 344.337 24.429 343.555 23.8182C342.788 23.1932 341.865 22.8807 340.786 22.8807C339.706 22.8807 338.783 23.1932 338.016 23.8182C337.263 24.429 336.68 25.3168 336.268 26.4815C335.871 27.6321 335.672 29.017 335.672 30.6364C335.672 32.2557 335.871 33.6477 336.268 34.8125C336.68 35.9631 337.263 36.8509 338.016 37.4759C338.783 38.0866 339.706 38.392 340.786 38.392ZM386.979 28.5909V47H375.217V3.36364H386.553V20.4943H386.893C387.632 18.4062 388.861 16.7798 390.58 15.6151C392.298 14.4361 394.365 13.8466 396.78 13.8466C399.095 13.8466 401.105 14.3722 402.81 15.4233C404.528 16.4744 405.857 17.9233 406.794 19.7699C407.746 21.6165 408.214 23.733 408.2 26.1193V47H396.439V28.5909C396.453 26.9716 396.048 25.7003 395.224 24.777C394.415 23.8537 393.257 23.392 391.751 23.392C390.8 23.392 389.962 23.6051 389.237 24.0312C388.527 24.4432 387.973 25.0398 387.575 25.821C387.192 26.5881 386.993 27.5114 386.979 28.5909ZM414.006 47V14.2727H425.768V47H414.006ZM419.887 10.8636C418.296 10.8636 416.933 10.3381 415.796 9.28693C414.66 8.2358 414.092 6.97159 414.092 5.49432C414.092 4.01705 414.66 2.75284 415.796 1.7017C416.933 0.650568 418.296 0.125 419.887 0.125C421.492 0.125 422.856 0.650568 423.978 1.7017C425.114 2.75284 425.683 4.01705 425.683 5.49432C425.683 6.97159 425.114 8.2358 423.978 9.28693C422.856 10.3381 421.492 10.8636 419.887 10.8636ZM431.76 47V14.2727H443.181V20.4943H443.522C444.118 18.1932 445.063 16.5099 446.355 15.4446C447.662 14.3793 449.189 13.8466 450.936 13.8466C451.448 13.8466 451.952 13.8892 452.449 13.9744C452.961 14.0455 453.451 14.152 453.919 14.294V24.3295C453.337 24.1307 452.62 23.9815 451.767 23.8821C450.915 23.7827 450.184 23.733 449.573 23.733C448.422 23.733 447.385 23.9957 446.462 24.5213C445.553 25.0327 444.836 25.7571 444.31 26.6946C443.784 27.6179 443.522 28.7045 443.522 29.9545V47H431.76ZM457.776 47V14.2727H469.537V47H457.776ZM463.657 10.8636C462.066 10.8636 460.702 10.3381 459.566 9.28693C458.429 8.2358 457.861 6.97159 457.861 5.49432C457.861 4.01705 458.429 2.75284 459.566 1.7017C460.702 0.650568 462.066 0.125 463.657 0.125C465.262 0.125 466.625 0.650568 467.748 1.7017C468.884 2.75284 469.452 4.01705 469.452 5.49432C469.452 6.97159 468.884 8.2358 467.748 9.28693C466.625 10.3381 465.262 10.8636 463.657 10.8636ZM487.291 28.5909V47H475.53V14.2727H486.695V20.4943H487.036C487.746 18.4205 488.996 16.794 490.786 15.6151C492.589 14.4361 494.692 13.8466 497.092 13.8466C499.408 13.8466 501.418 14.3793 503.122 15.4446C504.841 16.4957 506.169 17.9446 507.107 19.7912C508.058 21.6378 508.527 23.7472 508.513 26.1193V47H496.751V28.5909C496.766 26.9716 496.354 25.7003 495.516 24.777C494.692 23.8537 493.541 23.392 492.064 23.392C491.098 23.392 490.253 23.6051 489.528 24.0312C488.818 24.4432 488.271 25.0398 487.888 25.821C487.504 26.5881 487.305 27.5114 487.291 28.5909ZM530.086 59.9545C526.805 59.9545 523.992 59.4858 521.648 58.5483C519.319 57.625 517.508 56.3466 516.215 54.7131C514.937 53.0938 514.219 51.233 514.063 49.1307H525.398C525.512 49.8267 525.796 50.3878 526.251 50.8139C526.705 51.2401 527.288 51.5455 527.998 51.7301C528.722 51.929 529.532 52.0284 530.427 52.0284C531.947 52.0284 533.204 51.6591 534.198 50.9205C535.207 50.1818 535.711 48.8466 535.711 46.9148V41.375H535.37C534.944 42.483 534.29 43.4276 533.41 44.2088C532.529 44.9759 531.471 45.5653 530.235 45.9773C528.999 46.375 527.643 46.5739 526.165 46.5739C523.836 46.5739 521.691 46.0341 519.731 44.9545C517.785 43.875 516.222 42.1634 515.043 39.8196C513.879 37.4759 513.296 34.4148 513.296 30.6364C513.296 26.6875 513.907 23.4773 515.129 21.0057C516.364 18.5341 517.955 16.723 519.901 15.5724C521.862 14.4219 523.921 13.8466 526.08 13.8466C527.7 13.8466 529.12 14.1307 530.342 14.6989C531.563 15.2528 532.586 15.9986 533.41 16.9361C534.234 17.8594 534.859 18.875 535.285 19.983H535.54V14.2727H547.302V46.9148C547.302 49.6847 546.585 52.0355 545.15 53.9673C543.729 55.9134 541.727 57.3977 539.141 58.4205C536.556 59.4432 533.538 59.9545 530.086 59.9545ZM530.512 38.2216C531.592 38.2216 532.515 37.9233 533.282 37.3267C534.063 36.7159 534.66 35.8494 535.072 34.7273C535.498 33.5909 535.711 32.2273 535.711 30.6364C535.711 29.017 535.498 27.6321 535.072 26.4815C534.66 25.3168 534.063 24.429 533.282 23.8182C532.515 23.1932 531.592 22.8807 530.512 22.8807C529.433 22.8807 528.509 23.1932 527.742 23.8182C526.989 24.429 526.407 25.3168 525.995 26.4815C525.597 27.6321 525.398 29.017 525.398 30.6364C525.398 32.2557 525.597 33.6335 525.995 34.7699C526.407 35.892 526.989 36.7514 527.742 37.348C528.509 37.9304 529.433 38.2216 530.512 38.2216ZM42.554 87.2727V95.7955H20.6506V87.2727H42.554ZM24.8267 120V86.3352C24.8267 83.6364 25.3097 81.3991 26.2756 79.6236C27.2415 77.848 28.6051 76.5199 30.3665 75.6392C32.1278 74.7585 34.2017 74.3182 36.5881 74.3182C38.0795 74.3182 39.5284 74.4318 40.9347 74.6591C42.3551 74.8864 43.4063 75.0852 44.0881 75.2557L42.3835 83.6932C41.9574 83.5653 41.4602 83.4659 40.892 83.3949C40.3239 83.3097 39.8267 83.267 39.4006 83.267C38.2926 83.267 37.5469 83.5014 37.1634 83.9702C36.7798 84.4389 36.5881 85.0568 36.5881 85.8239V120H24.8267ZM47.0923 120V87.2727H58.5128V93.4943H58.8537C59.4503 91.1932 60.3949 89.5099 61.6875 88.4446C62.9943 87.3793 64.5213 86.8466 66.2685 86.8466C66.7798 86.8466 67.2841 86.8892 67.7812 86.9744C68.2926 87.0455 68.7827 87.152 69.2514 87.294V97.3295C68.669 97.1307 67.9517 96.9815 67.0994 96.8821C66.2472 96.7827 65.5156 96.733 64.9048 96.733C63.7543 96.733 62.7173 96.9957 61.794 97.5213C60.8849 98.0327 60.1676 98.7571 59.642 99.6946C59.1165 100.618 58.8537 101.705 58.8537 102.955V120H47.0923ZM87 120.597C83.4489 120.597 80.4091 119.893 77.8807 118.487C75.3523 117.067 73.4134 115.092 72.0639 112.564C70.7145 110.021 70.0398 107.074 70.0398 103.722C70.0398 100.369 70.7145 97.429 72.0639 94.9006C73.4134 92.358 75.3523 90.3835 77.8807 88.9773C80.4091 87.5568 83.4489 86.8466 87 86.8466C90.5511 86.8466 93.5909 87.5568 96.1193 88.9773C98.6477 90.3835 100.587 92.358 101.936 94.9006C103.286 97.429 103.96 100.369 103.96 103.722C103.96 107.074 103.286 110.021 101.936 112.564C100.587 115.092 98.6477 117.067 96.1193 118.487C93.5909 119.893 90.5511 120.597 87 120.597ZM87.0852 111.903C88.0795 111.903 88.9389 111.57 89.6634 110.902C90.3878 110.234 90.9489 109.283 91.3466 108.047C91.7443 106.811 91.9432 105.341 91.9432 103.636C91.9432 101.918 91.7443 100.447 91.3466 99.2259C90.9489 97.9901 90.3878 97.0384 89.6634 96.3707C88.9389 95.7031 88.0795 95.3693 87.0852 95.3693C86.0341 95.3693 85.1321 95.7031 84.3793 96.3707C83.6264 97.0384 83.0511 97.9901 82.6534 99.2259C82.2557 100.447 82.0568 101.918 82.0568 103.636C82.0568 105.341 82.2557 106.811 82.6534 108.047C83.0511 109.283 83.6264 110.234 84.3793 110.902C85.1321 111.57 86.0341 111.903 87.0852 111.903ZM108.733 120V87.2727H119.898V93.4943H120.239C120.92 91.4489 122.085 89.8295 123.733 88.6364C125.381 87.4432 127.341 86.8466 129.614 86.8466C131.915 86.8466 133.896 87.4574 135.558 88.679C137.22 89.8864 138.222 91.4915 138.562 93.4943H138.903C139.457 91.4915 140.636 89.8864 142.44 88.679C144.244 87.4574 146.361 86.8466 148.79 86.8466C151.929 86.8466 154.472 87.8551 156.418 89.8722C158.378 91.8892 159.358 94.5739 159.358 97.9261V120H147.597V100.909C147.597 99.4744 147.234 98.3523 146.51 97.5426C145.786 96.7187 144.813 96.3068 143.591 96.3068C142.384 96.3068 141.425 96.7187 140.714 97.5426C140.018 98.3523 139.67 99.4744 139.67 100.909V120H128.42V100.909C128.42 99.4744 128.058 98.3523 127.334 97.5426C126.609 96.7187 125.636 96.3068 124.415 96.3068C123.605 96.3068 122.909 96.4915 122.327 96.8608C121.744 97.2301 121.29 97.7628 120.963 98.4588C120.651 99.1406 120.494 99.9574 120.494 100.909V120H108.733ZM196.629 87.2727V95.7955H175.066V87.2727H196.629ZM179.243 79.4318H191.004V109.474C191.004 109.929 191.082 110.312 191.238 110.625C191.395 110.923 191.636 111.151 191.963 111.307C192.289 111.449 192.708 111.52 193.22 111.52C193.575 111.52 193.987 111.477 194.456 111.392C194.939 111.307 195.294 111.236 195.521 111.179L197.225 119.446C196.7 119.602 195.947 119.794 194.967 120.021C194.001 120.249 192.85 120.398 191.515 120.469C188.816 120.611 186.551 120.334 184.718 119.638C182.886 118.928 181.508 117.812 180.585 116.293C179.662 114.773 179.214 112.869 179.243 110.582V79.4318ZM213.893 101.591V120H202.131V76.3636H213.467V93.4943H213.808C214.546 91.4062 215.775 89.7798 217.494 88.6151C219.212 87.4361 221.279 86.8466 223.694 86.8466C226.009 86.8466 228.019 87.3722 229.724 88.4233C231.442 89.4744 232.771 90.9233 233.708 92.7699C234.66 94.6165 235.129 96.733 235.114 99.1193V120H223.353V101.591C223.367 99.9716 222.962 98.7003 222.138 97.777C221.329 96.8537 220.171 96.392 218.665 96.392C217.714 96.392 216.876 96.6051 216.151 97.0312C215.441 97.4432 214.887 98.0398 214.489 98.821C214.106 99.5881 213.907 100.511 213.893 101.591ZM256.602 120.597C253.108 120.597 250.097 119.929 247.568 118.594C245.054 117.244 243.115 115.312 241.751 112.798C240.402 110.27 239.727 107.244 239.727 103.722C239.727 100.341 240.409 97.3864 241.773 94.858C243.136 92.3295 245.061 90.3622 247.547 88.956C250.033 87.5497 252.966 86.8466 256.347 86.8466C258.818 86.8466 261.055 87.2301 263.058 87.9972C265.061 88.7642 266.773 89.8793 268.193 91.3423C269.614 92.7912 270.707 94.5526 271.474 96.6264C272.241 98.7003 272.625 101.037 272.625 103.636V106.364H243.392V99.8864H261.801C261.787 98.9489 261.545 98.125 261.077 97.4148C260.622 96.6903 260.004 96.1293 259.223 95.7315C258.456 95.3196 257.582 95.1136 256.602 95.1136C255.651 95.1136 254.777 95.3196 253.982 95.7315C253.186 96.1293 252.547 96.6832 252.064 97.3935C251.595 98.1037 251.347 98.9347 251.318 99.8864V106.875C251.318 107.926 251.538 108.864 251.979 109.688C252.419 110.511 253.051 111.158 253.875 111.626C254.699 112.095 255.693 112.33 256.858 112.33C257.668 112.33 258.406 112.216 259.074 111.989C259.756 111.761 260.338 111.435 260.821 111.009C261.304 110.568 261.659 110.043 261.886 109.432H272.625C272.256 111.705 271.382 113.679 270.004 115.355C268.626 117.017 266.801 118.31 264.528 119.233C262.27 120.142 259.628 120.597 256.602 120.597ZM96.9609 193.597C93.4098 193.597 90.37 192.893 87.8416 191.487C85.3132 190.067 83.3743 188.092 82.0249 185.564C80.6754 183.021 80.0007 180.074 80.0007 176.722C80.0007 173.369 80.6754 170.429 82.0249 167.901C83.3743 165.358 85.3132 163.384 87.8416 161.977C90.37 160.557 93.4098 159.847 96.9609 159.847C100.512 159.847 103.552 160.557 106.08 161.977C108.609 163.384 110.548 165.358 111.897 167.901C113.246 170.429 113.921 173.369 113.921 176.722C113.921 180.074 113.246 183.021 111.897 185.564C110.548 188.092 108.609 190.067 106.08 191.487C103.552 192.893 100.512 193.597 96.9609 193.597ZM97.0462 184.903C98.0405 184.903 98.8999 184.57 99.6243 183.902C100.349 183.234 100.91 182.283 101.308 181.047C101.705 179.811 101.904 178.341 101.904 176.636C101.904 174.918 101.705 173.447 101.308 172.226C100.91 170.99 100.349 170.038 99.6243 169.371C98.8999 168.703 98.0405 168.369 97.0462 168.369C95.995 168.369 95.093 168.703 94.3402 169.371C93.5874 170.038 93.0121 170.99 92.6143 172.226C92.2166 173.447 92.0178 174.918 92.0178 176.636C92.0178 178.341 92.2166 179.811 92.6143 181.047C93.0121 182.283 93.5874 183.234 94.3402 183.902C95.093 184.57 95.995 184.903 97.0462 184.903ZM138.296 160.273V168.795H116.393V160.273H138.296ZM120.569 193V159.335C120.569 156.636 121.052 154.399 122.018 152.624C122.984 150.848 124.347 149.52 126.109 148.639C127.87 147.759 129.944 147.318 132.33 147.318C133.822 147.318 135.271 147.432 136.677 147.659C138.097 147.886 139.148 148.085 139.83 148.256L138.126 156.693C137.7 156.565 137.202 156.466 136.634 156.395C136.066 156.31 135.569 156.267 135.143 156.267C134.035 156.267 133.289 156.501 132.906 156.97C132.522 157.439 132.33 158.057 132.33 158.824V193H120.569ZM161.947 205.273C160.597 205.273 159.312 205.166 158.09 204.953C156.869 204.754 155.796 204.477 154.873 204.122L157.43 195.77C158.396 196.111 159.276 196.331 160.072 196.43C160.881 196.53 161.57 196.473 162.138 196.26C162.721 196.047 163.14 195.642 163.396 195.045L163.651 194.449L152.146 160.273H164.418L169.702 182.943H170.043L175.413 160.273H187.771L175.839 195.727C175.242 197.531 174.376 199.151 173.239 200.585C172.117 202.034 170.64 203.178 168.808 204.016C166.975 204.854 164.688 205.273 161.947 205.273ZM205.887 193.597C202.336 193.597 199.296 192.893 196.767 191.487C194.239 190.067 192.3 188.092 190.951 185.564C189.601 183.021 188.926 180.074 188.926 176.722C188.926 173.369 189.601 170.429 190.951 167.901C192.3 165.358 194.239 163.384 196.767 161.977C199.296 160.557 202.336 159.847 205.887 159.847C209.438 159.847 212.478 160.557 215.006 161.977C217.534 163.384 219.473 165.358 220.823 167.901C222.172 170.429 222.847 173.369 222.847 176.722C222.847 180.074 222.172 183.021 220.823 185.564C219.473 188.092 217.534 190.067 215.006 191.487C212.478 192.893 209.438 193.597 205.887 193.597ZM205.972 184.903C206.966 184.903 207.826 184.57 208.55 183.902C209.275 183.234 209.836 182.283 210.233 181.047C210.631 179.811 210.83 178.341 210.83 176.636C210.83 174.918 210.631 173.447 210.233 172.226C209.836 170.99 209.275 170.038 208.55 169.371C207.826 168.703 206.966 168.369 205.972 168.369C204.921 168.369 204.019 168.703 203.266 169.371C202.513 170.038 201.938 170.99 201.54 172.226C201.142 173.447 200.944 174.918 200.944 176.636C200.944 178.341 201.142 179.811 201.54 181.047C201.938 182.283 202.513 183.234 203.266 183.902C204.019 184.57 204.921 184.903 205.972 184.903ZM248.841 178.682V160.273H260.603V193H249.438V186.778H249.097C248.387 188.866 247.144 190.5 245.368 191.679C243.593 192.844 241.483 193.426 239.04 193.426C236.753 193.426 234.75 192.901 233.032 191.849C231.327 190.798 229.999 189.349 229.047 187.503C228.11 185.656 227.634 183.54 227.62 181.153V160.273H239.381V178.682C239.395 180.301 239.807 181.572 240.617 182.496C241.441 183.419 242.591 183.881 244.069 183.881C245.049 183.881 245.894 183.675 246.604 183.263C247.328 182.837 247.882 182.24 248.266 181.473C248.664 180.692 248.855 179.761 248.841 178.682ZM266.585 193V160.273H278.005V166.494H278.346C278.942 164.193 279.887 162.51 281.18 161.445C282.487 160.379 284.013 159.847 285.761 159.847C286.272 159.847 286.776 159.889 287.273 159.974C287.785 160.045 288.275 160.152 288.744 160.294V170.33C288.161 170.131 287.444 169.982 286.592 169.882C285.739 169.783 285.008 169.733 284.397 169.733C283.246 169.733 282.21 169.996 281.286 170.521C280.377 171.033 279.66 171.757 279.134 172.695C278.609 173.618 278.346 174.705 278.346 175.955V193H266.585ZM316.315 174.591V193H304.553V149.364H315.888V166.494H316.229C316.968 164.406 318.197 162.78 319.915 161.615C321.634 160.436 323.701 159.847 326.116 159.847C328.431 159.847 330.441 160.372 332.146 161.423C333.864 162.474 335.192 163.923 336.13 165.77C337.082 167.616 337.55 169.733 337.536 172.119V193H325.775V174.591C325.789 172.972 325.384 171.7 324.56 170.777C323.751 169.854 322.593 169.392 321.087 169.392C320.136 169.392 319.298 169.605 318.573 170.031C317.863 170.443 317.309 171.04 316.911 171.821C316.528 172.588 316.329 173.511 316.315 174.591ZM359.109 193.597C355.558 193.597 352.518 192.893 349.99 191.487C347.462 190.067 345.523 188.092 344.173 185.564C342.824 183.021 342.149 180.074 342.149 176.722C342.149 173.369 342.824 170.429 344.173 167.901C345.523 165.358 347.462 163.384 349.99 161.977C352.518 160.557 355.558 159.847 359.109 159.847C362.661 159.847 365.7 160.557 368.229 161.977C370.757 163.384 372.696 165.358 374.045 167.901C375.395 170.429 376.07 173.369 376.07 176.722C376.07 180.074 375.395 183.021 374.045 185.564C372.696 188.092 370.757 190.067 368.229 191.487C365.7 192.893 362.661 193.597 359.109 193.597ZM359.195 184.903C360.189 184.903 361.048 184.57 361.773 183.902C362.497 183.234 363.058 182.283 363.456 181.047C363.854 179.811 364.053 178.341 364.053 176.636C364.053 174.918 363.854 173.447 363.456 172.226C363.058 170.99 362.497 170.038 361.773 169.371C361.048 168.703 360.189 168.369 359.195 168.369C358.143 168.369 357.241 168.703 356.489 169.371C355.736 170.038 355.161 170.99 354.763 172.226C354.365 173.447 354.166 174.918 354.166 176.636C354.166 178.341 354.365 179.811 354.763 181.047C355.161 182.283 355.736 183.234 356.489 183.902C357.241 184.57 358.143 184.903 359.195 184.903ZM380.842 193V160.273H392.007V166.494H392.348C393.03 164.449 394.195 162.83 395.842 161.636C397.49 160.443 399.45 159.847 401.723 159.847C404.024 159.847 406.006 160.457 407.668 161.679C409.33 162.886 410.331 164.491 410.672 166.494H411.013C411.567 164.491 412.746 162.886 414.55 161.679C416.354 160.457 418.47 159.847 420.899 159.847C424.038 159.847 426.581 160.855 428.527 162.872C430.487 164.889 431.467 167.574 431.467 170.926V193H419.706V173.909C419.706 172.474 419.344 171.352 418.619 170.543C417.895 169.719 416.922 169.307 415.7 169.307C414.493 169.307 413.534 169.719 412.824 170.543C412.128 171.352 411.78 172.474 411.78 173.909V193H400.53V173.909C400.53 172.474 400.168 171.352 399.443 170.543C398.719 169.719 397.746 169.307 396.524 169.307C395.714 169.307 395.018 169.491 394.436 169.861C393.854 170.23 393.399 170.763 393.072 171.459C392.76 172.141 392.604 172.957 392.604 173.909V193H380.842ZM452.95 193.597C449.456 193.597 446.444 192.929 443.916 191.594C441.402 190.244 439.463 188.312 438.099 185.798C436.75 183.27 436.075 180.244 436.075 176.722C436.075 173.341 436.757 170.386 438.12 167.858C439.484 165.33 441.409 163.362 443.895 161.956C446.38 160.55 449.314 159.847 452.694 159.847C455.166 159.847 457.403 160.23 459.406 160.997C461.409 161.764 463.12 162.879 464.541 164.342C465.961 165.791 467.055 167.553 467.822 169.626C468.589 171.7 468.973 174.037 468.973 176.636V179.364H439.74V172.886H458.149C458.135 171.949 457.893 171.125 457.424 170.415C456.97 169.69 456.352 169.129 455.571 168.732C454.804 168.32 453.93 168.114 452.95 168.114C451.998 168.114 451.125 168.32 450.329 168.732C449.534 169.129 448.895 169.683 448.412 170.393C447.943 171.104 447.694 171.935 447.666 172.886V179.875C447.666 180.926 447.886 181.864 448.326 182.688C448.767 183.511 449.399 184.158 450.223 184.626C451.047 185.095 452.041 185.33 453.206 185.33C454.015 185.33 454.754 185.216 455.422 184.989C456.103 184.761 456.686 184.435 457.169 184.009C457.652 183.568 458.007 183.043 458.234 182.432H468.973C468.603 184.705 467.73 186.679 466.352 188.355C464.974 190.017 463.149 191.31 460.876 192.233C458.618 193.142 455.975 193.597 452.95 193.597Z" fill="#002D38"/>
<path d="M305.145 120.597C301.593 120.597 298.554 119.893 296.025 118.487C293.497 117.067 291.558 115.092 290.208 112.564C288.859 110.021 288.184 107.074 288.184 103.722C288.184 100.369 288.859 97.429 290.208 94.9006C291.558 92.358 293.497 90.3835 296.025 88.9773C298.554 87.5568 301.593 86.8466 305.145 86.8466C308.355 86.8466 311.132 87.429 313.475 88.5938C315.833 89.7443 317.659 91.3778 318.951 93.4943C320.244 95.5966 320.897 98.0682 320.912 100.909H310.002C309.846 99.1903 309.349 97.8835 308.511 96.9886C307.687 96.0795 306.622 95.625 305.315 95.625C304.292 95.625 303.397 95.9233 302.63 96.5199C301.863 97.1023 301.267 97.9901 300.841 99.1832C300.414 100.362 300.201 101.847 300.201 103.636C300.201 105.426 300.414 106.918 300.841 108.111C301.267 109.29 301.863 110.178 302.63 110.774C303.397 111.357 304.292 111.648 305.315 111.648C306.181 111.648 306.949 111.449 307.616 111.051C308.284 110.639 308.824 110.043 309.235 109.261C309.662 108.466 309.917 107.5 310.002 106.364H320.912C320.869 109.247 320.208 111.761 318.93 113.906C317.652 116.037 315.841 117.685 313.497 118.849C311.167 120.014 308.383 120.597 305.145 120.597ZM341.531 120.597C337.98 120.597 334.94 119.893 332.412 118.487C329.884 117.067 327.945 115.092 326.595 112.564C325.246 110.021 324.571 107.074 324.571 103.722C324.571 100.369 325.246 97.429 326.595 94.9006C327.945 92.358 329.884 90.3835 332.412 88.9773C334.94 87.5568 337.98 86.8466 341.531 86.8466C345.082 86.8466 348.122 87.5568 350.651 88.9773C353.179 90.3835 355.118 92.358 356.467 94.9006C357.817 97.429 358.491 100.369 358.491 103.722C358.491 107.074 357.817 110.021 356.467 112.564C355.118 115.092 353.179 117.067 350.651 118.487C348.122 119.893 345.082 120.597 341.531 120.597ZM341.616 111.903C342.611 111.903 343.47 111.57 344.195 110.902C344.919 110.234 345.48 109.283 345.878 108.047C346.276 106.811 346.474 105.341 346.474 103.636C346.474 101.918 346.276 100.447 345.878 99.2259C345.48 97.9901 344.919 97.0384 344.195 96.3707C343.47 95.7031 342.611 95.3693 341.616 95.3693C340.565 95.3693 339.663 95.7031 338.911 96.3707C338.158 97.0384 337.582 97.9901 337.185 99.2259C336.787 100.447 336.588 101.918 336.588 103.636C336.588 105.341 336.787 106.811 337.185 108.047C337.582 109.283 338.158 110.234 338.911 110.902C339.663 111.57 340.565 111.903 341.616 111.903ZM363.264 120V87.2727H374.429V93.4943H374.77C375.452 91.4489 376.616 89.8295 378.264 88.6364C379.912 87.4432 381.872 86.8466 384.145 86.8466C386.446 86.8466 388.428 87.4574 390.089 88.679C391.751 89.8864 392.753 91.4915 393.094 93.4943H393.435C393.989 91.4915 395.168 89.8864 396.972 88.679C398.776 87.4574 400.892 86.8466 403.321 86.8466C406.46 86.8466 409.003 87.8551 410.949 89.8722C412.909 91.8892 413.889 94.5739 413.889 97.9261V120H402.128V100.909C402.128 99.4744 401.766 98.3523 401.041 97.5426C400.317 96.7187 399.344 96.3068 398.122 96.3068C396.915 96.3068 395.956 96.7187 395.246 97.5426C394.55 98.3523 394.202 99.4744 394.202 100.909V120H382.952V100.909C382.952 99.4744 382.589 98.3523 381.865 97.5426C381.141 96.7187 380.168 96.3068 378.946 96.3068C378.136 96.3068 377.44 96.4915 376.858 96.8608C376.276 97.2301 375.821 97.7628 375.494 98.4588C375.182 99.1406 375.026 99.9574 375.026 100.909V120H363.264ZM439.292 87.2727V95.7955H417.389V87.2727H439.292ZM421.565 120V86.3352C421.565 83.6364 422.048 81.3991 423.014 79.6236C423.98 77.848 425.343 76.5199 427.105 75.6392C428.866 74.7585 430.94 74.3182 433.326 74.3182C434.818 74.3182 436.267 74.4318 437.673 74.6591C439.093 74.8864 440.145 75.0852 440.826 75.2557L439.122 83.6932C438.696 83.5653 438.199 83.4659 437.63 83.3949C437.062 83.3097 436.565 83.267 436.139 83.267C435.031 83.267 434.285 83.5014 433.902 83.9702C433.518 84.4389 433.326 85.0568 433.326 85.8239V120H421.565ZM458.602 120.597C455.05 120.597 452.011 119.893 449.482 118.487C446.954 117.067 445.015 115.092 443.665 112.564C442.316 110.021 441.641 107.074 441.641 103.722C441.641 100.369 442.316 97.429 443.665 94.9006C445.015 92.358 446.954 90.3835 449.482 88.9773C452.011 87.5568 455.05 86.8466 458.602 86.8466C462.153 86.8466 465.192 87.5568 467.721 88.9773C470.249 90.3835 472.188 92.358 473.538 94.9006C474.887 97.429 475.562 100.369 475.562 103.722C475.562 107.074 474.887 110.021 473.538 112.564C472.188 115.092 470.249 117.067 467.721 118.487C465.192 119.893 462.153 120.597 458.602 120.597ZM458.687 111.903C459.681 111.903 460.54 111.57 461.265 110.902C461.989 110.234 462.55 109.283 462.948 108.047C463.346 106.811 463.545 105.341 463.545 103.636C463.545 101.918 463.346 100.447 462.948 99.2259C462.55 97.9901 461.989 97.0384 461.265 96.3707C460.54 95.7031 459.681 95.3693 458.687 95.3693C457.636 95.3693 456.734 95.7031 455.981 96.3707C455.228 97.0384 454.653 97.9901 454.255 99.2259C453.857 100.447 453.658 101.918 453.658 103.636C453.658 105.341 453.857 106.811 454.255 108.047C454.653 109.283 455.228 110.234 455.981 110.902C456.734 111.57 457.636 111.903 458.687 111.903ZM480.335 120V87.2727H491.755V93.4943H492.096C492.692 91.1932 493.637 89.5099 494.93 88.4446C496.237 87.3793 497.763 86.8466 499.511 86.8466C500.022 86.8466 500.526 86.8892 501.023 86.9744C501.535 87.0455 502.025 87.152 502.494 87.294V97.3295C501.911 97.1307 501.194 96.9815 500.342 96.8821C499.489 96.7827 498.758 96.733 498.147 96.733C496.996 96.733 495.96 96.9957 495.036 97.5213C494.127 98.0327 493.41 98.7571 492.884 99.6946C492.359 100.618 492.096 101.705 492.096 102.955V120H480.335ZM527.215 87.2727V95.7955H505.652V87.2727H527.215ZM509.828 79.4318H521.59V109.474C521.59 109.929 521.668 110.312 521.824 110.625C521.98 110.923 522.222 111.151 522.549 111.307C522.875 111.449 523.294 111.52 523.806 111.52C524.161 111.52 524.573 111.477 525.042 111.392C525.525 111.307 525.88 111.236 526.107 111.179L527.811 119.446C527.286 119.602 526.533 119.794 525.553 120.021C524.587 120.249 523.436 120.398 522.101 120.469C519.402 120.611 517.137 120.334 515.304 119.638C513.472 118.928 512.094 117.812 511.171 116.293C510.248 114.773 509.8 112.869 509.828 110.582V79.4318Z" fill="#62EFB4"/>
</svg>
