<svg width="20" height="20" viewBox="0 0 20 20" fill="none" xmlns="http://www.w3.org/2000/svg">
<circle cx="10" cy="10" r="10" fill="#62EFB4"/>
<path d="M8.38488 11.6667C6.92143 11.6667 4 12.4111 4 13.8889V15H12.7698V13.8889C12.7698 12.4111 9.84834 11.6667 8.38488 11.6667ZM15.5651 7.13333C15.5706 7.07222 15.5761 7.01111 15.5761 6.94445C15.5761 6.87778 15.5706 6.81667 15.5597 6.75556L15.9653 6.43333C16.0036 6.40556 16.0091 6.35 15.9872 6.31111L15.6035 5.63889C15.5816 5.59445 15.5268 5.58333 15.4884 5.59445L15.017 5.78889C14.9184 5.71111 14.8087 5.65 14.6936 5.6L14.6224 5.08333C14.6182 5.05989 14.6061 5.03868 14.588 5.02344C14.57 5.00819 14.5472 4.99989 14.5237 5H13.7564C13.707 5 13.6687 5.03333 13.6632 5.08333L13.5919 5.6C13.4768 5.65 13.3672 5.71667 13.2685 5.78889L12.7917 5.59445C12.7478 5.57778 12.6985 5.59445 12.6766 5.63889L12.2929 6.31111C12.271 6.35556 12.2765 6.40556 12.3148 6.43333L12.7204 6.75556C12.6986 6.88051 12.6986 7.00838 12.7204 7.13333L12.3148 7.45556C12.2765 7.48333 12.271 7.53889 12.2929 7.57778L12.6766 8.25C12.6985 8.29445 12.7533 8.30556 12.7917 8.29445L13.2685 8.1C13.3672 8.17778 13.4768 8.23889 13.5919 8.28889L13.6632 8.80556C13.6687 8.85556 13.707 8.88889 13.7564 8.88889H14.5237C14.5731 8.88889 14.6114 8.85556 14.6169 8.80556L14.6882 8.28889C14.8033 8.23889 14.9129 8.17222 15.0115 8.1L15.4884 8.29445C15.5322 8.31111 15.5816 8.29445 15.6035 8.25L15.9872 7.57778C16.0091 7.53333 16.0036 7.48333 15.9653 7.45556L15.5651 7.13333ZM14.14 7.63889C13.9583 7.63889 13.7841 7.56573 13.6556 7.43549C13.5271 7.30526 13.4549 7.12862 13.4549 6.94445C13.4549 6.76027 13.5271 6.58363 13.6556 6.4534C13.7841 6.32317 13.9583 6.25 14.14 6.25C14.3218 6.25 14.496 6.32317 14.6245 6.4534C14.753 6.58363 14.8252 6.76027 14.8252 6.94445C14.8252 7.12862 14.753 7.30526 14.6245 7.43549C14.496 7.56573 14.3218 7.63889 14.14 7.63889ZM14.3703 9.82222L14.0962 9.33889C14.0798 9.30556 14.0414 9.29445 14.014 9.30556L13.6741 9.44445C13.6029 9.38889 13.5262 9.34445 13.4439 9.31111L13.3946 8.94445C13.389 8.92832 13.3786 8.91435 13.3649 8.90441C13.3512 8.89447 13.3347 8.88905 13.3179 8.88889H12.7698C12.7369 8.88889 12.7095 8.91111 12.704 8.95L12.6547 9.31667C12.5724 9.35 12.4957 9.4 12.4245 9.45L12.0846 9.31111C12.0517 9.3 12.0189 9.31111 12.0024 9.34445L11.7284 9.82778C11.7119 9.86111 11.7174 9.89445 11.7448 9.91667L12.0353 10.1444C12.0298 10.1889 12.0243 10.2333 12.0243 10.2778C12.0243 10.3222 12.0298 10.3722 12.0353 10.4111L11.7448 10.6389C11.7174 10.6611 11.7119 10.7 11.7284 10.7278L12.0024 11.2111C12.0189 11.2444 12.0572 11.2556 12.0846 11.2444L12.4245 11.1056C12.4957 11.1611 12.5724 11.2056 12.6547 11.2389L12.704 11.6056C12.7095 11.6444 12.7369 11.6667 12.7698 11.6667H13.3179C13.3508 11.6667 13.3837 11.6444 13.3837 11.6056L13.433 11.2389C13.5152 11.2056 13.5919 11.1556 13.6632 11.1056L14.003 11.2444C14.0359 11.2556 14.0688 11.2444 14.0852 11.2111L14.3593 10.7278C14.3757 10.6944 14.3703 10.6611 14.3428 10.6389L14.0578 10.4111C14.0633 10.3667 14.0688 10.3222 14.0688 10.2778C14.0688 10.2333 14.0633 10.1833 14.0578 10.1444L14.3483 9.91667C14.3757 9.89445 14.3812 9.85556 14.3703 9.82222ZM13.0438 10.7389C12.7917 10.7389 12.5889 10.5278 12.5889 10.2778C12.5889 10.0222 12.7972 9.81667 13.0438 9.81667C13.2905 9.81667 13.4988 10.0278 13.4988 10.2778C13.4988 10.5333 13.296 10.7389 13.0438 10.7389ZM6.04993 8.33333H10.7253C10.8733 8.33333 10.9939 8.21111 10.9939 8.06111V8.05C10.9939 7.9778 10.9656 7.90856 10.9152 7.85751C10.8649 7.80646 10.7965 7.77778 10.7253 7.77778H10.5773C10.5773 6.95556 10.1334 6.25 9.4811 5.86111V6.38889C9.4811 6.54445 9.36052 6.66667 9.20705 6.66667C9.05358 6.66667 8.93299 6.54445 8.93299 6.38889V5.63333C8.7576 5.58889 8.57672 5.55556 8.38488 5.55556C8.19305 5.55556 8.01217 5.58889 7.83677 5.63333V6.38889C7.83677 6.54445 7.71619 6.66667 7.56272 6.66667C7.40925 6.66667 7.28866 6.54445 7.28866 6.38889V5.86111C6.63641 6.25 6.19244 6.95556 6.19244 7.77778H6.04993C6.01466 7.77778 5.97974 7.78482 5.94715 7.7985C5.91457 7.81218 5.88496 7.83223 5.86002 7.85751C5.83508 7.88279 5.8153 7.9128 5.8018 7.94583C5.78831 7.97885 5.78136 8.01425 5.78136 8.05V8.06667C5.78136 8.21111 5.90194 8.33333 6.04993 8.33333ZM8.38488 10.5556C9.40437 10.5556 10.2539 9.84445 10.5006 8.88889H6.26918C6.51583 9.84445 7.3654 10.5556 8.38488 10.5556Z" fill="#002D38"/>
</svg>
