<svg xmlns="http://www.w3.org/2000/svg" viewBox="0 0 750 500"><defs><style>.cls-1,.cls-8{isolation:isolate;}.cls-2{fill:#413f56;}.cls-3{fill:#fff;}.cls-4{fill:#e4e4e4;}.cls-10,.cls-5{fill:#1c313a;}.cls-5{mix-blend-mode:multiply;}.cls-6{fill:#ecb4b4;}.cls-7{fill:#323242;}.cls-8{opacity:0.1;}.cls-9{fill:#8f6169;}.cls-11{fill:#99ebb2;}</style></defs><title>Illustrations</title><g class="cls-1"><g id="Speech_Bubble" data-name="Speech Bubble"><path class="cls-2" d="M261,249.66a2.05,2.05,0,0,0-2.05,2.05v16.4a2.05,2.05,0,0,0,4.1,0v-16.4A2.05,2.05,0,0,0,261,249.66Z"/><path class="cls-3" d="M494.2,67.16H309.79A37.86,37.86,0,0,0,271.93,105V430.9a37.86,37.86,0,0,0,37.86,37.86H494.2a37.86,37.86,0,0,0,37.87-37.86V105A37.86,37.86,0,0,0,494.2,67.16Z"/><path class="cls-2" d="M494.2,471.54H309.79A38.81,38.81,0,0,1,271,432.78V106.91a38.81,38.81,0,0,1,38.76-38.77H494.2A38.81,38.81,0,0,1,533,106.91V432.78a38.81,38.81,0,0,1-38.77,38.76ZM309.79,69.94a37,37,0,0,0-37,37V432.78a37,37,0,0,0,37,37H494.2a37,37,0,0,0,37-37V106.91a37,37,0,0,0-37-37Z"/><path class="cls-4" d="M507.56,146.57H433.44a5.71,5.71,0,0,1,0-11.41h74.12a5.71,5.71,0,0,1,0,11.41Z"/><path class="cls-5" d="M438,191.41H366a3.3,3.3,0,0,1,0-6.59h72a3.3,3.3,0,1,1,0,6.59Z"/><rect class="cls-4" x="294.77" y="81.29" width="41.69" height="5.35" rx="0.19"/><circle class="cls-4" cx="474.75" cy="82.36" r="4.28"/><circle class="cls-4" cx="486.5" cy="82.36" r="4.28"/><circle class="cls-4" cx="498.26" cy="82.36" r="4.28"/><path class="cls-2" d="M309.34,209a1.07,1.07,0,0,0,1.07,1.07H493.59a1.07,1.07,0,0,0,0-2.14H310.41A1.07,1.07,0,0,0,309.34,209Z"/><path class="cls-2" d="M454.62,360a1.06,1.06,0,0,0,1.07,1.07H638.86a1.07,1.07,0,1,0,0-2.13H455.69a1.06,1.06,0,0,0-1.07,1.06Z"/><path class="cls-5" d="M476,292.9H366.09a3.29,3.29,0,1,1,0-6.58H476a3.29,3.29,0,0,1,0,6.58Z"/><circle class="cls-5" cx="332.75" cy="289.2" r="8.07"/><path class="cls-2" d="M331.85,302.65v-1.79a12.11,12.11,0,1,0,0-24.21v-1.79a13.9,13.9,0,1,1,0,27.79Z"/><path id="uuid-9e40be56-d004-4de8-84cd-e8041855938b-304" class="cls-6" d="M235.74,256.66c3.29-3.35,7.69-4.37,9.82-2.27s1.19,6.5-2.11,9.86a11.79,11.79,0,0,1-4.67,3l-14.13,14-6.43-6.77,14.61-13.1a11.57,11.57,0,0,1,2.91-4.73Z"/><path class="cls-4" d="M190.56,245.09,205.37,278,229,265.14l8.47,4.5S218.15,302,204.91,298.28s-36.74-37-32.51-47.34,18.16-5.85,18.16-5.85Z"/><path class="cls-2" d="M126.29,470.44a.74.74,0,0,0,.75.74H583.71a.74.74,0,0,0,.75-.74.75.75,0,0,0-.75-.75H127A.75.75,0,0,0,126.29,470.44Z"/><ellipse class="cls-5" cx="263" cy="270.02" rx="40.64" ry="39.78"/><polygon class="cls-6" points="184.06 464.07 194.86 464.07 200 422.42 184.06 422.42 184.06 464.07"/><path class="cls-7" d="M221.07,463.83h0a9.43,9.43,0,0,1,.51,3.05h0a3.67,3.67,0,0,1-3.67,3.67H184.47a2.5,2.5,0,0,1-2.5-2.5v-1.4s-1.66-4.18,1.75-9.34c0,0,4.23,4,10.56-2.29l1.86-3.38,13.51,9.88,7.48.92c1.64.2,3.09,0,3.94,1.39Z"/><polygon class="cls-6" points="192.24 247.19 192.46 232.63 183.47 227.03 173.7 238.98 192.24 247.19"/><polygon class="cls-8" points="192.24 247.19 192.82 232.99 183.47 227.03 186.65 244.61 192.24 247.19"/><path class="cls-7" d="M214.05,343.52,199.17,444.79H180.5L183,387l1.31-30.4-3.79-14.46a64,64,0,0,1-3.18-7.12c-1.65-4.4-2.94-9.67-1-12.17.71-.92,2.55-1.61,5-2.11a50.46,50.46,0,0,1,5.23-.75c11-1.09,26.75-.41,26.75-.41l.4,13.18.22,7.35.1,3.43Z"/><polygon class="cls-6" points="165.04 459.12 175.72 460.69 186.87 420.23 171.1 417.91 165.04 459.12"/><path class="cls-7" d="M201.68,464.26h0a9.47,9.47,0,0,1,.07,3.1h0a3.67,3.67,0,0,1-4.16,3.09l-33.09-4.86a2.51,2.51,0,0,1-2.11-2.84l.2-1.38s-1-4.38,3.09-9c0,0,3.6,4.61,10.78-.73l2.34-3.07,11.92,11.74,7.28,2c1.59.43,3.06.42,3.68,1.94Z"/><path class="cls-7" d="M214.29,326.63l-2,17.58-11.13,37-18.32,61-18.47-2.72,16.58-86.71-1.65-14.87s-.53-1.48-1.14-3.64c-1.22-4.28-2.75-11.25-1.07-14.81a4.13,4.13,0,0,1,.87-1.24,6.92,6.92,0,0,1,3.8-1.24c7.51-.85,23,1.58,29.87,2.77l2.71,6.85Z"/><path class="cls-4" d="M175.76,235.9l18.15,8.71s19.23,57,19.23,59.89,5.45,4.72,2.18,8,6.08,6,1.05,8.65-36.46,16.88-40,15.59c-9.64-3.55.41-16.59.41-16.59s-7.24-5.83-6.15-8.74S164.14,253,164.14,253Z"/><path id="uuid-73aedec7-8a7b-498d-9bbc-62d5085a8040-305" class="cls-6" d="M231.06,286.11c4.5-1.33,8.84-.09,9.69,2.78s-2.12,6.27-6.63,7.6a11.81,11.81,0,0,1-5.54.35l-19.15,5.39-2.34-9,19.13-4.36a11.75,11.75,0,0,1,4.84-2.72Z"/><path class="cls-4" d="M197.18,254.06l-3,35.92,26.89.29,5.22,8s-32.6,18.88-42.39,9.23-14.14-50.22-5.44-57.17,18.72,3.7,18.72,3.7Z"/><circle class="cls-6" cx="191.86" cy="221.31" r="15.55"/><path class="cls-7" d="M183.47,221.37s2.45-4,3.8-6.12a11,11,0,0,0,1.34-5.13s12.49-.26,16.65,3.29,7.1-9.55,3.06-14.08c0,0-1.71,2-1.34,2.7l.36.73s-2.08-8.32-8.08-9.91c0,0-3.33,1.72-2.4,2.69s-7.14-5.88-9.59-1.84c0,0-6-.12-5.27,2.08l-.36,1.35s-5.15-1.59-5.51,2.2a4.55,4.55,0,0,1,2.81,1c1,1-3.55,3.8-3.55,3.8s-5.26,14.44,1.84,20.32c0,0,.06-7,2.88-5.33A23.39,23.39,0,0,1,183.47,221.37Z"/><polygon class="cls-7" points="198.27 230.55 197.71 232.02 201.9 232.14 202.18 230.79 198.27 230.55"/><path class="cls-7" d="M202.45,225.29s-6.28-1.72-10,3.42l-.84,1s-8-8.93-7.26-12.24l-1.67.12L181,226.14s5.31,9.18,12.7,9.55c0,0,7.12,1.72,8.66-1.22s4.17-7.27,4.17-7.27Zm-1.14,8.2h-4.16c-1,0-3.49-3.55-3.49-3.55,1.4-2.21,5.58-2.33,5.58-2.33h4.55l.34,1.35-2.82,4.53Z"/><polygon class="cls-9" points="505.51 465.26 498.69 463.78 501.13 436.75 511.2 438.93 505.51 465.26"/><path class="cls-7" d="M482.16,460.05h0a5.94,5.94,0,0,0-.74,1.86h0a2.37,2.37,0,0,0,1.81,2.82l21.14,4.56a1.62,1.62,0,0,0,1.93-1.24l.19-.88s1.61-2.41.17-6.14c0,0-3.23,2-6.37-2.89l-.71-2.39-9.89,4.4-4.86-.44c-1.06-.1-1.94-.44-2.67.34Z"/><polygon class="cls-9" points="493.3 463.19 487.61 459.15 500.49 435.26 508.89 441.22 493.3 463.19"/><path class="cls-7" d="M473.88,449.21h0a6.13,6.13,0,0,0-1.41,1.42h0a2.36,2.36,0,0,0,.56,3.3l17.64,12.52a1.61,1.61,0,0,0,2.25-.38l.52-.74s2.44-1.58,2.58-5.58c0,0-3.75.55-4.72-5.16l.28-2.48-10.81.16L476.48,450c-.94-.5-1.62-1.17-2.6-.74Z"/><path class="cls-7" d="M575.35,329.54S586,344,564.73,360.21l-43.37-13.85,15.49-32.3,13.72-7.53,24.78,23Z"/><polyline class="cls-7" points="521.36 346.36 504.55 379.1 493.93 447.25 507.2 448.13 520.48 383.53 543.93 348.57 527.56 341.05"/><path class="cls-7" d="M564.73,349.93v10.28l-30.09,33.05s0,24.78-11.51,36.29L509.86,449.9l-11.51-6.19,16.82-59.3,30.09-38.94Z"/><path class="cls-9" d="M543.34,248l4.57,21.61,17.39-4.25s-8.6-17.89-6.89-25Z"/><path class="cls-8" d="M543.34,248l4.57,21.61,17.39-4.25s-8.6-17.89-6.89-25Z"/><path class="cls-4" d="M559.86,251.22l-13.28,6.2s-6.83,4.17-7,6.95.76,16.06.76,16.06-5.31,5.31-1.77,15.93l-1.77,17.7,39.82,21.23-3.54-37.16,1.77-34.52-15-12.39Z"/><path id="uuid-8e851e4b-a66f-4616-8a31-24a5e3f3093d-306" class="cls-9" d="M571.77,351.93c-1.55,3.57-4.65,5.66-6.92,4.67s-2.85-4.68-1.29-8.25a9.79,9.79,0,0,1,2.73-3.7l6.77-15,7,3.33-7.42,14.46a9.61,9.61,0,0,1-.86,4.52Z"/><path class="cls-4" d="M564.73,265.82s9.73-6.19,13.27.89,11.51,43.36,11.51,43.36L578,344.59l-10.62-4.43L576.67,303l-11.94-37.2Z"/><path id="uuid-35301953-803a-439b-9845-5bf97a98fdf5-307" class="cls-9" d="M514.83,346.36c-2.76,2.75-6.41,3.55-8.15,1.79s-.93-5.4,1.83-8.15a9.78,9.78,0,0,1,3.91-2.43l11.83-11.47,5.27,5.67-12.23,10.71a9.74,9.74,0,0,1-2.46,3.88Z"/><path class="cls-4" d="M540,263.71s17-.69,17.66,7.19S546.74,314,546.74,314l-23.41,27.85-8.25-8,22.33-31.11,2.59-39Z"/><path class="cls-10" d="M589,357.17l-108.53-17.5a3.3,3.3,0,0,1,1-6.51l108.53,17.51a3.29,3.29,0,0,1-1,6.5Z"/><circle class="cls-10" cx="448.16" cy="330.7" r="8.07" transform="translate(49.94 720.1) rotate(-80.78)"/><path class="cls-11" d="M445.13,343.84l.29-1.77a12.1,12.1,0,0,0,3.85-23.9l.29-1.77a13.9,13.9,0,0,1-4.43,27.44Z"/><circle class="cls-9" cx="545.08" cy="239.19" r="13.37"/><path class="cls-7" d="M553,239.19s-8.34-7.58-13.69-4.9a83.5,83.5,0,0,0-8,4.45,9.43,9.43,0,0,1,2.23-12.47s-13.6-6-3.68-15.23,18.83-5.71,18.83-5.71,12,5.34,3.56,16c0,0,12.33,7.82,5.95,20.61,0,0-.6-8.14-2.38-5.91a27.58,27.58,0,0,1-2.8,3.12Z"/><path class="cls-3" d="M277,285l-15.33-37.68a1.89,1.89,0,0,0-3.61,0,166.21,166.21,0,0,0-9.93,40.92c-.27,2.39,3.47,2.37,3.74,0a160.79,160.79,0,0,1,2.72-16.31,39.47,39.47,0,0,0,12.52-1.37q3.14,7.71,6.28,15.44C274.26,288.19,277.87,287.23,277,285Zm-21.56-16.76q1.89-7.74,4.52-15.26l5.73,14.09a36.2,36.2,0,0,1-10.25,1.17Z"/><circle class="cls-3" cx="284.17" cy="284.38" r="3.76"/><circle class="cls-3" cx="244.72" cy="251.19" r="3.76"/></g></g></svg>