<svg xmlns="http://www.w3.org/2000/svg" viewBox="0 0 750 500"><defs><style>.cls-1{fill:#e4e4e4;}.cls-2{fill:#fff;}.cls-3{fill:#ecb6b6;}.cls-4{fill:#99ebb2;}.cls-5{fill:#323242;}.cls-6{fill:#1c313a;}.cls-7{fill:#413f56;}.cls-8{fill:#cacaca;}</style></defs><title>Illustrations</title><g id="Speech_Bubble" data-name="Speech Bubble"><path class="cls-1" d="M459.74,237.16q-1,5.44-2.48,10.78c-.1.41-.22.82-.34,1.23H443.49a4.31,4.31,0,0,0-4.31,4.31v38.29L438,294c-2.13,3.88-4.35,7.72-6.62,11.51A437.69,437.69,0,0,1,281.15,455.63l3.65-8.24-4-.27c-29.11-2-58.33-4.2-86.76-10.74-29.75-6.85-58.85-18.73-82.16-38.42s-40.42-47.82-42.79-78.25a89.23,89.23,0,0,1,3.13-31.06c5.46-19.43,17.4-36.9,34.64-47.24,27.06-16.24,62.37-12.93,90.9.57s51.75,35.86,74.42,57.82a287.41,287.41,0,0,0-93-97.07c-12.67-8.11-26.12-15.33-36.89-25.84s-18.71-25.22-16.81-40.14c2.17-16.93,16-29.77,29.91-39.67,5.55-4,11.27-7.71,17.18-11.16,16.65-9.76,34.67-17.13,53.7-19.86C252,62.36,279.87,68,299.64,84.94c22.26,19.11,31.39,49.93,30.52,79.41,13.72-19.94,34.88-35.21,58.77-35.85,24.8-.67,48.38,15,60.81,36.48S464.38,212.79,459.74,237.16Z"/><path class="cls-2" d="M302.81,320c14.53-1.28,27.95-2.77,42-6.76,13.64-3.86,26.77-10.32,36.49-20.88,10.45-11.35,16.09-26.09,20.07-40.77,2.21-8.18,4-16.48,5.76-24.78q2.79-13.5,5-27.13,4.33-27.14,6.19-54.58.21-3.33.41-6.66c.07-1.37-2.06-1.37-2.14,0q-1.51,27-5.47,53.9c-2.6,17.58-5.93,35.08-10.15,52.35-3.58,14.63-8.21,29.48-17.38,41.66-8.61,11.42-21,18.88-34.45,23.34-13.65,4.54-28,6.35-42.31,7.7-1.75.17-2.27.32-4,.48-1.36.12-1.37,2.25,0,2.13Z"/><path class="cls-2" d="M73.43,290.22a231.18,231.18,0,0,1,54,9.52,234,234,0,0,1,50.34,21.91,227.64,227.64,0,0,1,42.38,31.92A233.29,233.29,0,0,1,253.3,393,230.93,230.93,0,0,1,277,439c.75,2,1.48,4,2.17,6,.45,1.28,2.51.73,2.06-.57a233.17,233.17,0,0,0-22.64-47.08,236.83,236.83,0,0,0-32.47-40.91,230.79,230.79,0,0,0-41.46-33.09,235.35,235.35,0,0,0-104.5-34.74q-3.36-.29-6.72-.46c-1.37-.08-1.37,2.06,0,2.13Z"/><path class="cls-2" d="M173.12,88.42a125.5,125.5,0,0,1,33,16.11,155,155,0,0,1,28.15,25,207.4,207.4,0,0,1,23.3,32.12,274.23,274.23,0,0,1,18.54,37.68,342.75,342.75,0,0,1,13.49,41,382.57,382.57,0,0,1,8.63,42.81,380.89,380.89,0,0,1,3.71,43.06,340.91,340.91,0,0,1-1.22,41.3,261.67,261.67,0,0,1-6.2,38,179,179,0,0,1-11.19,32.88c-1.1,2.4-2.28,4.77-3.52,7.1-.65,1.21,1.19,2.29,1.84,1.08a164.75,164.75,0,0,0,12.59-31.7,244,244,0,0,0,7.51-37.28,324.5,324.5,0,0,0,2.48-41.22A377.8,377.8,0,0,0,301.62,293a391.94,391.94,0,0,0-7.51-43.28,354.09,354.09,0,0,0-12.56-42.15,293.37,293.37,0,0,0-17.47-38.79A224.44,224.44,0,0,0,241.69,135a166.67,166.67,0,0,0-27.36-27.11A132.09,132.09,0,0,0,182.24,89.4q-4.22-1.68-8.55-3C172.38,86,171.82,88,173.12,88.42Z"/><path class="cls-3" d="M434.35,260.13a7,7,0,0,0-.14,1l-26.48,15.28-6.43-3.71-6.86,9,13.77,9.81,30.2-23.82a6.47,6.47,0,1,0-3.83-8.31c-.09.25-.16.5-.23.76Z"/><path class="cls-4" d="M374.06,269.5l20.85,14.86,9.32-11.69L384,256.41a8.2,8.2,0,0,0-11.54,1.27c-.1.12-.2.24-.29.37h0a8.21,8.21,0,0,0,1.92,11.45Z"/><polygon class="cls-3" points="331.04 439.01 338.35 440.93 349.21 413.65 338.42 410.82 331.04 439.01"/><polygon class="cls-3" points="396 444.22 403.44 442.89 401.86 413.57 390.88 415.53 396 444.22"/><path class="cls-5" d="M381.36,228.6c1.83.44,3.32,2.31,4.22,4.47a31.5,31.5,0,0,1,1.66,7c.71,4.47,1.38,9.31-.07,13.45-1.71,4.86-6.25,7.4-10.19,6.2s-7.08-5.68-8.15-10.84a26.22,26.22,0,0,1,1.8-15.46c1.12-2.55,2.66-4.9,4.71-6.05a4.66,4.66,0,0,1,6.21,1.29"/><path class="cls-6" d="M391.73,309.56l14.16,126.82-11.7,4.44-21.57-85-30,77.76-12.8.71s17.56-121,30.57-123.74Z"/><circle class="cls-3" cx="379.84" cy="229.64" r="15.14" transform="translate(92.31 567.79) rotate(-80.78)"/><path class="cls-4" d="M386.33,251.13,370,249s-10.66,12.8-10,34.84-1.78,28.8-1.78,28.8l34.1.62C387.41,306.48,408,267.55,386.33,251.13Z"/><path class="cls-3" d="M395.12,316.34a5.86,5.86,0,0,0-1,.09l-20.92-22.28,2.13-7.11L365,282.42l-6.4,15.65L388.7,322a6.47,6.47,0,1,0,7.22-5.62,7.16,7.16,0,0,0-.8-.05Z"/><path class="cls-4" d="M372.2,259.8l-9.69,23.69,13.51,6.4,11.19-23.45a8.22,8.22,0,0,0-3.87-10.95l-.43-.18h0a8.21,8.21,0,0,0-10.71,4.49Z"/><path class="cls-6" d="M375.88,243.4c2.37-1.36,2.62-4.66,2.3-7.38s-.86-5.75.74-8c1.9-2.65,5.74-2.7,9-2.79s7.25-1,8.09-4.2c.56-2.08-.63-4.32-2.35-5.63a16.57,16.57,0,0,0-6-2.44c-4.68-1.23-9.5-2.47-14.28-1.79a18.2,18.2,0,0,0-15.51,20.32c.78,6.07,1.9,8.72,1.16,11.4-1.37,5-7.29,8.19-7.41,13.36-.09,4,3.48,7.16,7,9.21a23.51,23.51,0,0,0,8.93,3.4,11.39,11.39,0,0,0,9-2.51c3.06-2.79,3.82-7.44,2.94-11.48s-3.13-7.64-5.36-11.13"/><path class="cls-7" d="M662.26,247.94H443.49a5.54,5.54,0,0,0-5.54,5.54V394a5.55,5.55,0,0,0,5.54,5.55H662.26a5.57,5.57,0,0,0,5.55-5.55V253.48A5.55,5.55,0,0,0,662.26,247.94ZM666.58,394a4.33,4.33,0,0,1-4.32,4.31H443.49a4.31,4.31,0,0,1-4.31-4.31V253.48a4.31,4.31,0,0,1,4.31-4.31H662.26a4.33,4.33,0,0,1,4.32,4.31Z"/><path class="cls-6" d="M490.19,317.88H455.68a5.25,5.25,0,0,1-5.24-5.24V278.13a5.26,5.26,0,0,1,5.24-5.24h34.51a5.25,5.25,0,0,1,5.24,5.24v34.51A5.25,5.25,0,0,1,490.19,317.88Z"/><path class="cls-8" d="M650.87,354.55h-196a4,4,0,0,1,0-8h196a4,4,0,1,1,0,8Z"/><path class="cls-8" d="M651,335.14H455a4,4,0,0,1,0-8H651a4,4,0,1,1,0,8Z"/><path class="cls-8" d="M554.25,308.64h-29a4,4,0,0,1,0-8h29a4,4,0,0,1,0,8Z"/><path class="cls-8" d="M651,288.92H525.29a4,4,0,1,1,0-8H651a4,4,0,1,1,0,8Z"/><path class="cls-8" d="M549.32,374.27H454.9a4,4,0,0,1,0-8h94.42a4,4,0,0,1,0,8Z"/></g></svg>