<svg xmlns="http://www.w3.org/2000/svg" viewBox="0 0 750 500"><defs><style>.cls-1,.cls-2{fill:#ebebeb;}.cls-1,.cls-4{opacity:0.5;}.cls-3,.cls-38,.cls-8{fill:#9aedb4;}.cls-10,.cls-5{fill:#fff;}.cls-6,.cls-7{fill:#1c313a;}.cls-31,.cls-7{opacity:0.91;}.cls-30,.cls-8{opacity:0.6;}.cls-9{opacity:0.4;}.cls-10,.cls-12{font-size:12px;font-family:Montserrat-Bold, Montserrat;font-weight:700;}.cls-11{letter-spacing:-0.02em;}.cls-13{letter-spacing:0em;}.cls-14{letter-spacing:-0.01em;}.cls-15{letter-spacing:0.01em;}.cls-16{letter-spacing:0.03em;}.cls-17{letter-spacing:-0.02em;}.cls-18{letter-spacing:0em;}.cls-19{letter-spacing:-0.02em;}.cls-20{letter-spacing:0em;}.cls-21{letter-spacing:-0.01em;}.cls-22{letter-spacing:-0.03em;}.cls-23{letter-spacing:0.01em;}.cls-24{letter-spacing:-0.05em;}.cls-25{letter-spacing:-0.04em;}.cls-26{letter-spacing:-0.01em;}.cls-27{letter-spacing:0em;}.cls-28{letter-spacing:-0.02em;}.cls-29{fill:#263238;}.cls-32{fill:#c7c7c7;}.cls-33{fill:#a6a6a6;}.cls-34{opacity:0.7;}.cls-35{fill:#ad6359;}.cls-36{fill:#37474f;}.cls-37{fill:#455a64;}.cls-38,.cls-41{opacity:0.1;}.cls-39{fill:#ff9cbd;}.cls-40{fill:#eb9481;}</style></defs><title>Illustrations</title><g id="Background_Complete" data-name="Background Complete"><path class="cls-1" d="M72.27,321.46,67,341l6,1.6a4.8,4.8,0,0,1,3.44,3.68,29.94,29.94,0,0,0,.78,2.92,4.8,4.8,0,0,1-1.14,4.89l-4.37,4.38L86,372.73l4.37-4.38a4.81,4.81,0,0,1,4.9-1.14,27.23,27.23,0,0,0,2.91.79,4.8,4.8,0,0,1,3.69,3.44l1.59,6L123,372.18l-1.62-6a4.81,4.81,0,0,1,1.49-4.81c.37-.33.73-.67,1.08-1s.69-.71,1-1.07a4.79,4.79,0,0,1,4.79-1.49l6,1.61L141,339.88l-6-1.61a4.8,4.8,0,0,1-3.44-3.68,27.12,27.12,0,0,0-.77-2.91,4.79,4.79,0,0,1,1.14-4.89l4.37-4.38L122,308.12l-4.38,4.38a4.8,4.8,0,0,1-4.89,1.14,29.75,29.75,0,0,0-2.91-.78,4.79,4.79,0,0,1-3.68-3.43l-1.61-6-19.51,5.23,1.6,6a4.81,4.81,0,0,1-1.48,4.8c-.37.33-.73.68-1.09,1s-.69.72-1,1.08a4.83,4.83,0,0,1-4.82,1.49Zm20,7.26a16.55,16.55,0,1,1,0,23.41A16.54,16.54,0,0,1,92.32,328.72Z"/><path class="cls-1" d="M433,402.54l-5.23,19.51,6,1.6a4.79,4.79,0,0,1,3.44,3.68c.21,1,.47,1.95.78,2.92a4.76,4.76,0,0,1-1.14,4.89l-4.37,4.37,14.29,14.29,4.37-4.37a4.82,4.82,0,0,1,4.9-1.14,25.17,25.17,0,0,0,2.92.78,4.82,4.82,0,0,1,3.68,3.44l1.6,6,19.51-5.24-1.61-6a4.78,4.78,0,0,1,1.48-4.81c.37-.33.73-.68,1.08-1s.7-.71,1-1.08a4.79,4.79,0,0,1,4.79-1.48l6,1.61L501.75,421l-6-1.61a4.8,4.8,0,0,1-3.43-3.69,28.82,28.82,0,0,0-.78-2.9,4.81,4.81,0,0,1,1.14-4.9l4.38-4.37L482.78,389.2l-4.37,4.37a4.82,4.82,0,0,1-4.9,1.15,26.39,26.39,0,0,0-2.9-.78,4.79,4.79,0,0,1-3.69-3.44l-1.61-6-19.51,5.23,1.61,6a4.8,4.8,0,0,1-1.49,4.8c-.37.33-.73.68-1.08,1s-.7.71-1,1.08a4.81,4.81,0,0,1-4.81,1.49Zm20.05,7.26a16.55,16.55,0,1,1,0,23.4A16.55,16.55,0,0,1,453.06,409.8Z"/><path class="cls-2" d="M564.88,52.78l-5.23,19.51,6,1.6a4.8,4.8,0,0,1,3.44,3.68,29.2,29.2,0,0,0,.78,2.92,4.81,4.81,0,0,1-1.14,4.9l-4.37,4.37,14.29,14.29L583,99.68a4.81,4.81,0,0,1,4.9-1.14,29.75,29.75,0,0,0,2.91.78,4.82,4.82,0,0,1,3.69,3.44l1.59,6,19.52-5.24-1.62-6a4.83,4.83,0,0,1,1.49-4.82q.56-.5,1.08-1t1-1.08a4.8,4.8,0,0,1,4.79-1.48l6,1.61,5.24-19.51-6-1.61a4.82,4.82,0,0,1-3.44-3.69,27.12,27.12,0,0,0-.77-2.91,4.8,4.8,0,0,1,1.14-4.89l4.37-4.37L614.65,39.45l-4.38,4.37A4.8,4.8,0,0,1,605.38,45a27.12,27.12,0,0,0-2.91-.77,4.81,4.81,0,0,1-3.69-3.44l-1.6-6L577.67,40l1.6,6a4.81,4.81,0,0,1-1.48,4.8c-.37.33-.73.67-1.09,1s-.69.71-1,1.08a4.83,4.83,0,0,1-4.82,1.49Zm20,7.27a16.55,16.55,0,1,1,0,23.4A16.54,16.54,0,0,1,584.93,60.05Z"/><path class="cls-1" d="M650.42,132.5l4.58,7.94,2.43-1.4a2.17,2.17,0,0,1,2.29.07,12.55,12.55,0,0,0,1.18.69,2.16,2.16,0,0,1,1.21,1.94v2.8h9.17v-2.8a2.17,2.17,0,0,1,1.2-1.94,12.71,12.71,0,0,0,1.19-.69A2.16,2.16,0,0,1,676,139l2.43,1.4L683,132.5l-2.44-1.4a2.19,2.19,0,0,1-1.06-2c0-.22,0-.45,0-.67s0-.45,0-.68a2.14,2.14,0,0,1,1.06-2L683,124.3l-4.58-7.94-2.43,1.4a2.17,2.17,0,0,1-2.29-.08,12.47,12.47,0,0,0-1.18-.68,2.18,2.18,0,0,1-1.2-1.94v-2.8h-9.17v2.8A2.17,2.17,0,0,1,660.9,117c-.4.21-.8.43-1.18.68a2.16,2.16,0,0,1-2.28.08l-2.44-1.4-4.58,7.94,2.44,1.4a2.19,2.19,0,0,1,1.06,2c0,.22,0,.45,0,.68s0,.45,0,.67a2.19,2.19,0,0,1-1.07,2Zm8.76-4.1a7.51,7.51,0,1,1,7.51,7.51A7.51,7.51,0,0,1,659.18,128.4Z"/><path class="cls-1" d="M279.56,133l4.58,7.94,2.43-1.41a2.18,2.18,0,0,1,2.28.08c.39.25.78.48,1.19.69a2.18,2.18,0,0,1,1.21,1.93V145h9.16v-2.81a2.18,2.18,0,0,1,1.21-1.93c.41-.21.8-.44,1.19-.69a2.18,2.18,0,0,1,2.28-.08l2.43,1.41L312.1,133l-2.44-1.41a2.19,2.19,0,0,1-1.07-2c0-.22,0-.45,0-.67s0-.45,0-.68a2.17,2.17,0,0,1,1.06-2l2.45-1.42-4.58-7.93-2.44,1.4a2.18,2.18,0,0,1-2.28-.08,11.61,11.61,0,0,0-1.18-.68,2.2,2.2,0,0,1-1.21-1.94V112.7h-9.16v2.81a2.2,2.2,0,0,1-1.21,1.94,11.61,11.61,0,0,0-1.18.68,2.18,2.18,0,0,1-2.28.08l-2.44-1.4-4.58,7.93,2.44,1.41a2.18,2.18,0,0,1,1.06,2c0,.22,0,.45,0,.68s0,.45,0,.67a2.17,2.17,0,0,1-1.07,2Zm8.76-4.1a7.51,7.51,0,1,1,7.51,7.51A7.51,7.51,0,0,1,288.32,128.85Z"/><path class="cls-2" d="M137.08,281.2l4.58,7.94,2.43-1.4a2.18,2.18,0,0,1,2.28.08,12.63,12.63,0,0,0,1.19.68,2.19,2.19,0,0,1,1.2,1.94v2.8h9.17v-2.8a2.2,2.2,0,0,1,1.21-1.94c.41-.21.8-.43,1.19-.68a2.18,2.18,0,0,1,2.28-.08l2.43,1.4,4.58-7.94-2.44-1.4a2.18,2.18,0,0,1-1.07-2c0-.23,0-.45,0-.68s0-.45,0-.67a2.19,2.19,0,0,1,1.06-2l2.45-1.41L165,265.06l-2.44,1.41a2.18,2.18,0,0,1-2.28-.08c-.38-.25-.78-.48-1.18-.69a2.16,2.16,0,0,1-1.21-1.93V261h-9.17v2.81a2.17,2.17,0,0,1-1.2,1.93,12.55,12.55,0,0,0-1.18.69,2.2,2.2,0,0,1-2.29.08l-2.43-1.41L137.08,273l2.44,1.41a2.17,2.17,0,0,1,1.06,2c0,.23,0,.45,0,.68s0,.45,0,.68a2.18,2.18,0,0,1-1.07,2Zm8.76-4.1a7.51,7.51,0,1,1,7.51,7.51A7.5,7.5,0,0,1,145.84,277.1Z"/></g><g id="Gear"><path class="cls-3" d="M479.78,257.21l.89-30.37-23.19-2.5a88.17,88.17,0,0,0-12.77-31.49l15.34-16.91-20.86-22.13-18.08,14.61a88,88,0,0,0-31.42-13.86l-1.06-22.15-30.37-.89-2.38,22a88.81,88.81,0,0,0-33.12,12.58l-15.42-14L285.23,173l13,16.19a87.52,87.52,0,0,0-14.93,33.44l-19.55.93-.89,30.39,19.71,2.12a87.64,87.64,0,0,0,13.8,34.62l-12.89,14.18,20.84,22.09,15.51-12.5A87.63,87.63,0,0,0,354,328.6l1,19.78,30.37.89,2.25-20.88a88.92,88.92,0,0,0,33-13.94l15.64,14.2,22.12-20.84-14.07-17.47a87.74,87.74,0,0,0,13.15-32ZM371.65,285.58a45.19,45.19,0,1,1,45.33-45A45.2,45.2,0,0,1,371.65,285.58Z"/><path class="cls-3" d="M371.68,278.92a38.53,38.53,0,1,1,38.64-38.41A38.57,38.57,0,0,1,371.68,278.92Zm.21-73.24A34.71,34.71,0,1,0,406.5,240.5,34.75,34.75,0,0,0,371.89,205.68Z"/><g class="cls-4"><path class="cls-5" d="M479.78,257.21l.89-30.37-23.19-2.5a88.17,88.17,0,0,0-12.77-31.49l15.34-16.91-20.86-22.13-18.08,14.61a88,88,0,0,0-31.42-13.86l-1.06-22.15-30.37-.89-2.38,22a88.81,88.81,0,0,0-33.12,12.58l-15.42-14L285.23,173l13,16.19a87.52,87.52,0,0,0-14.93,33.44l-19.55.93-.89,30.39,19.71,2.12a87.64,87.64,0,0,0,13.8,34.62l-12.89,14.18,20.84,22.09,15.51-12.5A87.63,87.63,0,0,0,354,328.6l1,19.78,30.37.89,2.25-20.88a88.92,88.92,0,0,0,33-13.94l15.64,14.2,22.12-20.84-14.07-17.47a87.74,87.74,0,0,0,13.15-32ZM371.65,285.58a45.19,45.19,0,1,1,45.33-45A45.2,45.2,0,0,1,371.65,285.58Z"/><path class="cls-5" d="M371.68,278.92a38.53,38.53,0,1,1,38.64-38.41A38.57,38.57,0,0,1,371.68,278.92Zm.21-73.24A34.71,34.71,0,1,0,406.5,240.5,34.75,34.75,0,0,0,371.89,205.68Z"/></g></g><g id="Graphic"><path class="cls-6" d="M683.1,434.12l-39,31.34H372.22c-111.77,0-203.2-88.83-207.38-199.59l30.94,25.95,31.77-26.28c4,76.34,67.35,137.25,144.67,137.25h271.9Z"/><path class="cls-7" d="M258.21,119.47l42.23,12.6a144.89,144.89,0,0,0-73.09,125.87v1.28l-31.54,26.09L164.7,259.23h0v-6.51h.07A207.43,207.43,0,0,1,271.58,76.42Z"/><path class="cls-3" d="M423.29,86.37l9.27,39.81a145.33,145.33,0,0,0-125.23,2.19l-1.06.53-41.78-12.46L278,73l1.24-.62a205.36,205.36,0,0,1,93-22,208.3,208.3,0,0,1,89.09,20.05Z"/><path class="cls-8" d="M547.58,223.26l-30.7,26.91a144.64,144.64,0,0,0-77.49-120.64l-1-.55-9.23-39.63L467.24,73.4c.42.21.84.42,1.25.64a207,207,0,0,1,111.1,176Z"/><g class="cls-9"><path class="cls-3" d="M579.74,256.64v6.52h-.07c0,.87,0,1.75-.08,2.62-.07,1.75-.15,3.49-.26,5.22l-.18,2.6a2.46,2.46,0,0,1,0,.28c-.13,1.63-.27,3.26-.43,4.88l-.18,1.74c-.12,1.14-.25,2.27-.4,3.39-.11.85-.22,1.7-.34,2.55-.08.65-.18,1.29-.27,1.93q-.79,5.38-1.86,10.69c-.15.69-.29,1.39-.44,2.09-.2,1-.41,1.91-.63,2.86s-.38,1.65-.58,2.47-.37,1.53-.56,2.3l-.06.22c-.2.79-.41,1.59-.62,2.38s-.44,1.63-.66,2.43-.46,1.62-.7,2.43-.47,1.6-.72,2.4-.49,1.6-.75,2.4q-1.14,3.58-2.42,7.12c-.27.75-.55,1.51-.83,2.26-.44,1.18-.89,2.36-1.36,3.53-.27.7-.55,1.4-.84,2.09-.2.51-.41,1-.62,1.51-.3.73-.61,1.47-.93,2.2-.23.54-.46,1.07-.7,1.61s-.54,1.22-.82,1.83l-.63,1.38c-.3.66-.61,1.31-.92,2s-.66,1.39-1,2.08q-3.36,6.88-7.21,13.49c-.36.63-.73,1.25-1.1,1.87l-1.28,2.11c-.43.71-.86,1.4-1.3,2.1-.77,1.22-1.54,2.42-2.33,3.61l-1.3,2c-.74,1.09-1.48,2.16-2.24,3.23-.32.47-.65.94-1,1.4q-5.65,7.92-12,15.27c-.54.63-1.09,1.25-1.64,1.87q-1.7,1.9-3.42,3.76t-3.37,3.54q-7,7.13-14.58,13.57c-1.18,1-2.36,2-3.56,2.95q-3.09,2.49-6.27,4.87l-1.94,1.43c-1.54,1.13-3.11,2.24-4.68,3.32l-1.45,1-2.08,1.39L484,432.72c-1.46.94-2.93,1.85-4.42,2.75-.65.4-1.31.8-2,1.19l-2.16,1.26-2.1,1.19-2.28,1.26-2.21,1.19c-.74.39-1.48.78-2.23,1.16l-2.24,1.13L462.12,445,459.84,446c-.82.39-1.64.76-2.46,1.13l-2.14.95c-.77.34-1.54.68-2.32,1-2,.85-4,1.67-6.05,2.46l-2,.77-1.71.63c-.66.25-1.33.49-2,.72q-4.41,1.56-8.89,2.91c-.49.16-1,.3-1.48.45l-1.78.51c-.68.2-1.36.39-2.05.57-1,.27-1.93.53-2.89.77l-2.29.58-1.68.4-1.71.4-2.75.61-2.22.46c-1.48.3-3,.58-4.47.85l-2.56.44c-1.58.27-3.16.51-4.75.73-2.82.41-5.66.75-8.51,1l-2.58.24q-9,.79-18.29.8h-305V402.79H372.22c79.88,0,144.86-65,144.86-144.85v-1.3l30.58-26.8,32.07,26.79Z"/><path class="cls-3" d="M584.74,257.94v10.22h-.25l0,.5c0-.88.08-1.77.12-2.65s.07-1.83.09-2.71C584.72,261.6,584.74,259.85,584.74,257.94Z"/><path class="cls-3" d="M579.74,256.64v6.52h-.07c0,.87,0,1.75-.08,2.62-.07,1.75-.15,3.49-.26,5.22l-.18,2.6a2.46,2.46,0,0,1,0,.28c-.13,1.63-.27,3.26-.43,4.88l-.18,1.74c-.12,1.14-.25,2.27-.4,3.39-.11.85-.22,1.7-.34,2.55-.08.65-.18,1.29-.27,1.93q-.79,5.38-1.86,10.69c-.15.69-.29,1.39-.44,2.09-.2,1-.41,1.91-.63,2.86s-.38,1.65-.58,2.47-.37,1.53-.56,2.3l-.06.22c-.2.79-.41,1.59-.62,2.38s-.44,1.63-.66,2.43-.46,1.62-.7,2.43-.47,1.6-.72,2.4-.49,1.6-.75,2.4q-1.14,3.58-2.42,7.12c-.27.75-.55,1.51-.83,2.26-.44,1.18-.89,2.36-1.36,3.53-.27.7-.55,1.4-.84,2.09-.2.51-.41,1-.62,1.51-.3.73-.61,1.47-.93,2.2-.23.54-.46,1.07-.7,1.61s-.54,1.22-.82,1.83l-.63,1.38c-.3.66-.61,1.31-.92,2s-.66,1.39-1,2.08q-3.36,6.88-7.21,13.49c-.36.63-.73,1.25-1.1,1.87l-1.28,2.11c-.43.71-.86,1.4-1.3,2.1-.77,1.22-1.54,2.42-2.33,3.61l-1.3,2c-.74,1.09-1.48,2.16-2.24,3.23-.32.47-.65.94-1,1.4q-5.65,7.92-12,15.27c-.54.63-1.09,1.25-1.64,1.87q-1.7,1.9-3.42,3.76t-3.37,3.54q-7,7.13-14.58,13.57c-1.18,1-2.36,2-3.56,2.95q-3.09,2.49-6.27,4.87l-1.94,1.43c-1.54,1.13-3.11,2.24-4.68,3.32l-1.45,1-2.08,1.39L484,432.72c-1.46.94-2.93,1.85-4.42,2.75-.65.4-1.31.8-2,1.19l-2.16,1.26-2.1,1.19-2.28,1.26-2.21,1.19c-.74.39-1.48.78-2.23,1.16l-2.24,1.13L462.12,445,459.84,446c-.82.39-1.64.76-2.46,1.13l-2.14.95c-.77.34-1.54.68-2.32,1-2,.85-4,1.67-6.05,2.46l-2,.77-1.71.63c-.66.25-1.33.49-2,.72q-4.41,1.56-8.89,2.91c-.49.16-1,.3-1.48.45l-1.78.51c-.68.2-1.36.39-2.05.57-1,.27-1.93.53-2.89.77l-2.29.58-1.68.4-1.71.4-2.75.61-2.22.46c-1.48.3-3,.58-4.47.85l-2.56.44c-1.58.27-3.16.51-4.75.73-2.82.41-5.66.75-8.51,1l-2.58.24q-9,.79-18.29.8h-305V402.79H372.22c79.88,0,144.86-65,144.86-144.85v-1.3l30.58-26.8,32.07,26.79Z"/><path class="cls-3" d="M579.74,256.64v6.52h-.07c0,.87,0,1.75-.08,2.62-.07,1.75-.15,3.49-.26,5.22l-.18,2.6a2.46,2.46,0,0,1,0,.28c-.13,1.63-.27,3.26-.43,4.88l-.18,1.74c-.12,1.14-.25,2.27-.4,3.39-.11.85-.22,1.7-.34,2.55-.08.65-.18,1.29-.27,1.93q-.79,5.38-1.86,10.69c-.15.69-.29,1.39-.44,2.09-.2,1-.41,1.91-.63,2.86s-.38,1.65-.58,2.47-.37,1.53-.56,2.3l-.06.22c-.2.79-.41,1.59-.62,2.38s-.44,1.63-.66,2.43-.46,1.62-.7,2.43-.47,1.6-.72,2.4-.49,1.6-.75,2.4q-1.14,3.58-2.42,7.12c-.27.75-.55,1.51-.83,2.26-.44,1.18-.89,2.36-1.36,3.53-.27.7-.55,1.4-.84,2.09-.2.51-.41,1-.62,1.51-.3.73-.61,1.47-.93,2.2-.23.54-.46,1.07-.7,1.61s-.54,1.22-.82,1.83l-.63,1.38c-.3.66-.61,1.31-.92,2s-.66,1.39-1,2.08q-3.36,6.88-7.21,13.49c-.36.63-.73,1.25-1.1,1.87l-1.28,2.11c-.43.71-.86,1.4-1.3,2.1-.77,1.22-1.54,2.42-2.33,3.61l-1.3,2c-.74,1.09-1.48,2.16-2.24,3.23-.32.47-.65.94-1,1.4q-5.65,7.92-12,15.27c-.54.63-1.09,1.25-1.64,1.87q-1.7,1.9-3.42,3.76t-3.37,3.54q-7,7.13-14.58,13.57c-1.18,1-2.36,2-3.56,2.95q-3.09,2.49-6.27,4.87l-1.94,1.43c-1.54,1.13-3.11,2.24-4.68,3.32l-1.45,1-2.08,1.39L484,432.72c-1.46.94-2.93,1.85-4.42,2.75-.65.4-1.31.8-2,1.19l-2.16,1.26-2.1,1.19-2.28,1.26-2.21,1.19c-.74.39-1.48.78-2.23,1.16l-2.24,1.13L462.12,445,459.84,446c-.82.39-1.64.76-2.46,1.13l-2.14.95c-.77.34-1.54.68-2.32,1-2,.85-4,1.67-6.05,2.46l-2,.77-1.71.63c-.66.25-1.33.49-2,.72q-4.41,1.56-8.89,2.91c-.49.16-1,.3-1.48.45l-1.78.51c-.68.2-1.36.39-2.05.57-1,.27-1.93.53-2.89.77l-2.29.58-1.68.4-1.71.4-2.75.61-2.22.46c-1.48.3-3,.58-4.47.85l-2.56.44c-1.58.27-3.16.51-4.75.73-2.82.41-5.66.75-8.51,1l-2.58.24q-9,.79-18.29.8h-305V402.79H372.22c79.88,0,144.86-65,144.86-144.85v-1.3l30.58-26.8,32.07,26.79Z"/><path class="cls-3" d="M579.74,256.64v1.3c0,1.74,0,3.48-.07,5.22,0,.87,0,1.75-.08,2.62-.07,1.75-.15,3.49-.26,5.22l-.18,2.6a2.46,2.46,0,0,1,0,.28c-.13,1.63-.27,3.26-.43,4.88l-.18,1.74c-.12,1.14-.25,2.27-.4,3.39-.11.85-.22,1.7-.34,2.55-.08.65-.18,1.29-.27,1.93q-.79,5.38-1.86,10.69c-.15.69-.29,1.39-.44,2.09-.2,1-.41,1.91-.63,2.86s-.38,1.65-.58,2.47-.37,1.53-.56,2.3l-.06.22c-.2.79-.41,1.59-.62,2.38s-.44,1.63-.66,2.43-.46,1.62-.7,2.43-.47,1.6-.72,2.4-.49,1.6-.75,2.4q-1.14,3.58-2.42,7.12c-.27.75-.55,1.51-.83,2.26-.44,1.18-.89,2.36-1.36,3.53-.27.7-.55,1.4-.84,2.09-.2.51-.41,1-.62,1.51-.3.73-.61,1.47-.93,2.2-.23.54-.46,1.07-.7,1.61s-.54,1.22-.82,1.83l-.63,1.38c-.3.66-.61,1.31-.92,2s-.66,1.39-1,2.08q-3.36,6.88-7.21,13.49c-.36.63-.73,1.25-1.1,1.87l-1.28,2.11c-.43.71-.86,1.4-1.3,2.1-.77,1.22-1.54,2.42-2.33,3.61l-1.3,2c-.74,1.09-1.48,2.16-2.24,3.23-.32.47-.65.94-1,1.4q-5.65,7.92-12,15.27c-.54.63-1.09,1.25-1.64,1.87q-1.7,1.9-3.42,3.76t-3.37,3.54q-7,7.13-14.58,13.57c-1.18,1-2.36,2-3.56,2.95q-3.09,2.49-6.27,4.87l-1.94,1.43c-1.54,1.13-3.11,2.24-4.68,3.32l-1.45,1-2.08,1.39L484,432.72c-1.46.94-2.93,1.85-4.42,2.75-.65.4-1.31.8-2,1.19l-2.16,1.26-2.1,1.19-2.28,1.26-2.21,1.19c-.74.39-1.48.78-2.23,1.16l-2.24,1.13L462.12,445,459.84,446c-.82.39-1.64.76-2.46,1.13l-2.14.95c-.77.34-1.54.68-2.32,1-2,.85-4,1.67-6.05,2.46l-2,.77-1.71.63c-.66.25-1.33.49-2,.72q-4.41,1.56-8.89,2.91c-.49.16-1,.3-1.48.45l-1.78.51c-.68.2-1.36.39-2.05.57-1,.27-1.93.53-2.89.77l-2.29.58-1.68.4-1.71.4-2.75.61-2.22.46c-1.48.3-3,.58-4.47.85l-2.56.44c-1.58.27-3.16.51-4.75.73-2.82.41-5.66.75-8.51,1l-2.58.24q-9,.79-18.29.8h-305V402.79H372.22c79.88,0,144.86-65,144.86-144.85v-1.3l30.58-26.8,32.07,26.79Z"/></g><text class="cls-10" transform="translate(523.05 440.32)">SU<tspan class="cls-11" x="17.11" y="0">C</tspan><tspan x="25.73" y="0">CESS</tspan></text><text class="cls-12" transform="matrix(0.61, 0.79, -0.79, 0.61, 489.81, 118.37)">SEL<tspan class="cls-13" x="22.96" y="0">E</tspan><tspan class="cls-14" x="30.98" y="0">C</tspan><tspan x="39.7" y="0">T A </tspan><tspan x="-20.02" y="12.4">SKIL</tspan><tspan class="cls-15" x="7.7" y="12.4">L</tspan><tspan class="cls-16" x="15.02" y="12.4">A</tspan><tspan class="cls-17" x="24.57" y="12.4">/</tspan><tspan class="cls-18" x="29.03" y="12.4">SER</tspan><tspan class="cls-19" x="53.56" y="12.4">V</tspan><tspan x="62.33" y="12.4">ICE</tspan></text><text class="cls-12" transform="translate(315.56 87.47) rotate(-1.67)">N<tspan class="cls-20" x="9.7" y="0">E</tspan><tspan x="17.72" y="0">G</tspan><tspan class="cls-21" x="26.98" y="0">O</tspan><tspan x="36.98" y="0">TI</tspan><tspan class="cls-22" x="48.34" y="0">A</tspan><tspan x="57.11" y="0">TE</tspan><tspan class="cls-11" x="-4.94" y="12.4">W</tspan><tspan x="8.84" y="12.4">ITH SKIL</tspan><tspan class="cls-23" x="61" y="12.4">L</tspan><tspan x="68.32" y="12.4">A</tspan></text><text class="cls-10" transform="matrix(0.45, -0.9, 0.9, 0.45, 207.23, 201.3)">MAKE<tspan class="cls-24" x="-11.99" y="10.4">P</tspan><tspan class="cls-25" x="-3.75" y="10.4">A</tspan><tspan class="cls-14" x="4.93" y="10.4">Y</tspan><tspan x="12.95" y="10.4">MENT</tspan></text><text class="cls-10" transform="translate(248.13 387.76) rotate(-116.81)"><tspan class="cls-26">S</tspan><tspan class="cls-22" x="7.54" y="0">T</tspan><tspan class="cls-27" x="14.53" y="0">A</tspan><tspan class="cls-26" x="23.72" y="0">R</tspan><tspan x="32.42" y="0">T </tspan><tspan class="cls-28" x="43.24" y="0">W</tspan><tspan x="56.92" y="0">ORK</tspan></text><text class="cls-12" transform="translate(535.1 340.43) rotate(-70.56)">SIGN UP</text></g><g id="Light_bulb" data-name="Light bulb"><path class="cls-29" d="M129.67,53.64a51.49,51.49,0,0,1-.23-14.51,51.12,51.12,0,0,1,.23,14.51Z"/><path class="cls-29" d="M96.54,62.77a51.15,51.15,0,0,1-7.45-12.44,51.66,51.66,0,0,1,7.45,12.44Z"/><path class="cls-29" d="M72.41,87.26A51.46,51.46,0,0,1,59.74,80.2a51.1,51.1,0,0,1,12.67,7.06Z"/><path class="cls-29" d="M63.76,120.52a51.42,51.42,0,0,1-14.5.23,51.05,51.05,0,0,1,14.5-.23Z"/><path class="cls-29" d="M72.9,153.65a51.34,51.34,0,0,1-12.44,7.45,51.34,51.34,0,0,1,12.44-7.45Z"/><path class="cls-29" d="M187.9,152.81a51.07,51.07,0,0,1,12.67,7.05,51.43,51.43,0,0,1-12.67-7.05Z"/><path class="cls-29" d="M196.55,119.54a51.12,51.12,0,0,1,14.51-.22,51.49,51.49,0,0,1-14.51.22Z"/><path class="cls-29" d="M187.41,86.41A51,51,0,0,1,199.86,79a51.17,51.17,0,0,1-12.45,7.44Z"/><path class="cls-29" d="M162.93,62.29A51.1,51.1,0,0,1,170,49.62a51.46,51.46,0,0,1-7.06,12.67Z"/><g class="cls-30"><path class="cls-3" d="M187.52,124.63c-2.94,35.54-32.6,46.18-32.6,46.18-2.19,5.39-5.7,21.53-5.7,21.53l-38.71-.11s-3-16.16-5.16-21.57c0,0-29.59-10.81-32.33-46.37-1.9-24.71,15.8-61.18,57.22-61.07h.43C172.08,63.35,189.57,99.93,187.52,124.63Z"/><path class="cls-3" d="M187.52,124.63c-1.36,20.17-13.92,38.56-32.53,46.21-2.59,7-3.9,14.56-5.77,21.6l-38.83-.06c-1.06-5.49-2.19-11-3.58-16.37a49.65,49.65,0,0,0-1.63-5.28l.11.1a50.76,50.76,0,0,1-13.22-8.12C79.91,152.78,73,137.36,72.66,121.77,72.43,101.1,83.49,80.1,101.78,70c9.08-5.1,19.6-7.16,29.94-6.89a54.89,54.89,0,0,1,49.76,31.42,59.38,59.38,0,0,1,6,30.07Zm0,0a59.41,59.41,0,0,0-6.11-30c-11.93-25-38.65-35.54-65.07-29.76C90.51,70.1,72.58,96,73.14,121.76c.52,21.27,12.79,40.35,32.38,48.83,2.43,7,3.68,14.35,5.14,21.61-.88-.26,38.75.08,38.56,0a158.29,158.29,0,0,1,5.65-21.48c18.72-7.68,31.27-26.06,32.65-46.12Z"/></g><g class="cls-31"><rect class="cls-6" x="112.66" y="130.55" width="3" height="65.68" transform="translate(-27.64 23.31) rotate(-10.41)"/><rect class="cls-6" x="113.32" y="161.98" width="65.68" height="3" transform="translate(-41.67 276.64) rotate(-79.27)"/><path class="cls-6" d="M130.21,152.6h0c-3.66,0-7-3.41-9.38-7.78a4.87,4.87,0,0,1-3.47,1.9h0c-6.07,0-8.47-12.54-8.57-13.07l1-.19c0,.13,2.33,12.25,7.58,12.26h0a4.25,4.25,0,0,0,3-1.85,27.63,27.63,0,0,1-3-11.48c0-3.5,1.33-5.51,3.62-5.51h0a3.67,3.67,0,0,1,3.33,1.91c1.82,3.17.46,9.74-2,13.88a13.48,13.48,0,0,1-.85,1.31c2.2,4.24,5.34,7.61,8.71,7.62h0c2.52,0,5.06-2,7.15-5.58.18-.3.35-.62.52-.94-2.37-2.61-3.7-6.84-3.69-10.86,0-4.5,1.7-7.29,4.41-7.29h0a2.87,2.87,0,0,1,2.55,1.58c1.79,3.12.77,10.57-2.08,16.42a5.92,5.92,0,0,0,4.09,1.7h0c3.73,0,7-8.87,8-12.29l1,.27c-.15.53-3.72,13-9,13h0a6.84,6.84,0,0,1-4.55-1.82c-.13.24-.26.48-.4.72C136.61,149.3,133.92,152.6,130.21,152.6Zm8.39-24.67c-2.51,0-3.41,3.39-3.41,6.29,0,3.17,1,7.32,3.15,9.92,2.57-5.47,3.54-12.37,1.95-15.14a1.89,1.89,0,0,0-1.68-1.07ZM121,127.88c-2.26,0-2.61,2.83-2.62,4.51A26.51,26.51,0,0,0,121,143c.16-.25.33-.51.49-.79,2.22-3.82,3.56-10,1.94-12.88a2.65,2.65,0,0,0-2.46-1.41Z"/></g><rect class="cls-32" x="104.35" y="192.28" width="51.37" height="28.27" transform="translate(0.61 -0.38) rotate(0.17)"/><path class="cls-32" d="M149.85,220.61c-3,5.35-8.84,10.13-19.89,10.09s-16.83-4.84-19.83-10.2Z"/><path class="cls-33" d="M149.85,220.61a19.09,19.09,0,0,1-3.34,4.34l-35.36-2.82a16.87,16.87,0,0,1-1-1.63Z"/><polygon class="cls-33" points="157.25 197.75 102.85 202.62 102.86 200.16 157.25 195.29 157.25 197.75"/><polygon class="cls-33" points="157.22 205.22 102.83 210.09 102.84 207.62 157.23 202.75 157.22 205.22"/><polygon class="cls-33" points="157.2 212.68 102.81 217.55 102.82 215.08 157.21 210.22 157.2 212.68"/><g class="cls-34"><path class="cls-5" d="M83.74,112.35c1.88.32,4.35-9.39,14.84-20.61,4.65-5,22.29-11.19,21-17s-17,.11-24.91,9.25C81.94,98.73,82,112.05,83.74,112.35Z"/><path class="cls-5" d="M177.83,118.27c3.46,0,3.49-5.37,0-5.38S174.36,118.26,177.83,118.27Z"/><path class="cls-5" d="M161,159.9c1.89,1.44,11.11-7,15.28-17.12,3.47-8.39,4.09-19,1.78-19.63s-3.86,13.94-6.65,19.3C167.82,149.21,158.93,158.35,161,159.9Z"/></g></g><g id="Character_2" data-name="Character 2"><path class="cls-35" d="M559.29,465.19c2.52.83,74.21.62,76.94-1.11,1-.65,1.62-11.1,2-23.74.07-2.73.13-5.54.17-8.41.06-3.39.1-6.82.12-10.16.09-15-.12-28.16-.12-28.16H591.69l0,28.16v10.16l.24,8.41s-27.41,12.36-30.2,14.59S556.79,464.37,559.29,465.19Z"/><path class="cls-29" d="M559.3,465.18c2.5.84,74.2.63,76.93-1.1,1-.61,1.54-9.71,1.87-21.16-5.74,2.66-55.32,12.84-67,13-11.21.11,6.64-8.93,9.49-10.33-7.89,3.66-17.25,8.12-18.81,9.37C559,457.15,556.8,464.37,559.3,465.18Z"/><path class="cls-29" d="M663.57,179.53S639.1,302.4,637.38,311.47c-.4,2.07,4.73,121.25,4.73,121.25H588.59s0-105.27,2.16-123.39,29.89-129.8,29.89-129.8Z"/><path class="cls-36" d="M663.57,179.54s-11.9,59.8-19.7,99l-23.23-99Z"/><path class="cls-37" d="M597.48,419.56c.2-36.05.28-72.07,1.21-108.12,4.95-27,11.19-55.63,17-82.38l-4.55,23.59c-3.29,17.17-8.41,41.78-11.46,58.89-.84,29.57-1.46,78.36-2.19,108Z"/><path class="cls-35" d="M620.9,465.7c2.52.81,74.21-.09,76.93-1.85,1-.66,1.5-11.12,1.72-23.76.05-2.73-1.78-46.48-1.78-46.48l-45.17.2.73,46.73s-27.3,12.62-30.06,14.88S618.39,464.9,620.9,465.7Z"/><path class="cls-29" d="M620.9,465.7c2.52.81,74.22-.09,76.93-1.85.91-.59,1.38-8.91,1.63-19.62-10.38,3.12-54.69,11.14-65.62,11-9.92-.1,3-6.89,8.15-9.4-7.85,3.73-17.16,8.28-18.72,9.55C620.51,457.66,618.39,464.9,620.9,465.7Z"/><path class="cls-29" d="M649.58,433.68h54.51S693.77,353.16,693,339.63c-.42-6.9-4.82-81.83-8.82-115a63.57,63.57,0,0,0-6.61-45.12H620.6s.9,24.59,7.43,41a100,100,0,0,1,14.83,6.61s2.87,102.35,3.78,119.93C647.8,369.35,649.58,433.68,649.58,433.68Z"/><path class="cls-37" d="M657.29,427.4c-2-32.67-5.2-77.8-6.35-110.67-.57-26.66-1.11-59.5-1.36-86.2.86,26.72,1.68,59.5,2.31,86.18,1.23,32.89,4.16,77.94,5.4,110.69Z"/><path class="cls-29" d="M659.26,123a4.64,4.64,0,0,0,5.72-6.18,4.3,4.3,0,0,0,4.87-1.9,4.1,4.1,0,0,0-1.26-5.29s0,0,0,0a4.19,4.19,0,0,1,1,5.09,3.75,3.75,0,0,1-3.76,1.82,5.16,5.16,0,0,0,3.24-2.51,4,4,0,0,0-.51-4.37,5.89,5.89,0,0,0,2.29-4.74,4,4,0,0,0-2.61-3.5,4.45,4.45,0,0,0-3.71-7.29A3.73,3.73,0,0,0,662,88.39a2.52,2.52,0,0,0-.46-2.68,4.17,4.17,0,0,0-3-1.22,3,3,0,0,0-1.75-2.3,2.72,2.72,0,0,0-3.35,1.11,7.55,7.55,0,0,0-4.91-2.13,3.91,3.91,0,0,0-3.59,2.4,5.4,5.4,0,0,0-7.76,2.26,3.81,3.81,0,0,0-3.66,1,5.54,5.54,0,0,0-1.5,2.26,2.84,2.84,0,0,0-3,1.41,3.76,3.76,0,0,0-.11,3.21,2.29,2.29,0,0,1-.41.87,4.91,4.91,0,0,0-.83,4.59,3.37,3.37,0,0,0-.53,5,3.79,3.79,0,0,0,.68,5.28,5.52,5.52,0,0,0-.65,4.55,3.2,3.2,0,0,0,2.52,2.44,1.93,1.93,0,0,0,1,2.39,4.67,4.67,0,0,0,1,.42,4,4,0,0,1,1.29.46c.36.27.45.78.64,1.16a4.75,4.75,0,0,0,.5.76,5,5,0,0,0,6.16,1.2c.75,1.46,2.49,1.9,4,1.8a8.3,8.3,0,0,0,1.49-.26,2.24,2.24,0,0,1,1.33,0c.28.1.54.26.82.36a3.42,3.42,0,0,0,2.73-.4C652.75,128.15,657.93,126.79,659.26,123ZM629.09,91.15A3,3,0,0,1,632,89.21l0,.15s-.4.11-.59.19a4,4,0,0,0-1,.56A4,4,0,0,0,629.12,92a3.86,3.86,0,0,0-.15,1s0,.09,0,.13A3.57,3.57,0,0,1,629.09,91.15Zm27.84-8a2.88,2.88,0,0,0-3.3.27l-.08-.06c.82-.93,1.82-1.56,3.13-1a2.52,2.52,0,0,1,1.48,2h0A3.21,3.21,0,0,0,656.93,83.2Zm-6.16,41.05,0,0a5.22,5.22,0,0,0,7.27.14C656,126.57,653,127.29,650.77,124.25Z"/><path class="cls-29" d="M625.25,73.14s-4.25,1.4-5.39,4.28C618,82.13,619.08,90,619.08,90Z"/><path class="cls-35" d="M644,124.36c-4.94,13.42-30.85,45.28-41.6,48-7.77,1.94-37.85-14.16-48.66-22.41-4.06-3.1,14.63-25.39,19.84-22.23,7.36,4.46,23.68,14.59,26.82,14.53,2.2,0,14.15-8.69,32.3-24.17C642.7,109.49,646.91,116.35,644,124.36Z"/><path class="cls-35" d="M567.91,124.37c5.64,1.89,12.23,9.68,12.23,9.68l-18.22,20.16s-12.06-5.3-17-6.75c-1.43-.42-9-4.69-16.28-6.67-8.29-2.25-16.7-5.66-17.25-6.54-1.06-1.68,1.08-4.24,7-4s17.46,2.57,18.18,2.54a5.35,5.35,0,0,0,.71-.18h0c.27-.18,4-7.76,7.72-8.42S567.05,123.71,567.91,124.37Z"/><path class="cls-35" d="M547.18,137.45s-14.23,2.63-17,1.38-20.34-6.23-21.44-7.89,1.08-4.24,7-4,17.45,2.58,18.19,2.54,12.72-4.36,13.94-4.42S547.18,137.45,547.18,137.45Z"/><path class="cls-29" d="M539.38,140.07c-1.59-.07-3.17-.2-4.75-.32-.79-.07-1.58-.15-2.37-.25-.4-.05-.79-.1-1.19-.17-.19,0-.4-.07-.6-.11s-.43-.11-.6-.17c-3-1-6-2-9-3s-6-2-9-3.14a10.17,10.17,0,0,1-2.15-1.16,4.35,4.35,0,0,1-.91-.86,2.07,2.07,0,0,1-.48-1.21,1.65,1.65,0,0,1,.53-1.18,3.65,3.65,0,0,1,1-.69,8.82,8.82,0,0,1,2.29-.66A11,11,0,0,0,510,128a3.4,3.4,0,0,0-.89.7,1.27,1.27,0,0,0-.35,1,2.49,2.49,0,0,0,1.28,1.66,9.58,9.58,0,0,0,2.07,1c3,1,6,2,9,3s6,2,9,3.16a11.38,11.38,0,0,0,2.25.54c.77.14,1.56.25,2.34.37Z"/><path class="cls-35" d="M549.14,134.83s-15.62,2.82-18.36,1.57-20.34-6.23-21.44-7.9,1.08-4.23,7-4S533.81,127,534.54,127s12.74-3,14-3.07S549.14,134.83,549.14,134.83Z"/><path class="cls-29" d="M541.78,138.33c-1.94-.17-3.87-.41-5.8-.65-1-.13-1.93-.28-2.89-.44l-1.44-.28a10.89,10.89,0,0,1-1.44-.41q-5.51-1.86-11-3.78l-5.49-2-1.37-.5a14.68,14.68,0,0,1-1.39-.58,6,6,0,0,1-1.28-.86,2.64,2.64,0,0,1-.87-1.39,1.54,1.54,0,0,1,.09-.9,2.21,2.21,0,0,1,.51-.68,4.31,4.31,0,0,1,1.34-.77,12.79,12.79,0,0,1,2.88-.72,17,17,0,0,1,5.83.2,18.22,18.22,0,0,0-5.76.2,13.12,13.12,0,0,0-2.74.8,3.94,3.94,0,0,0-1.15.72,1.07,1.07,0,0,0-.38,1,2.09,2.09,0,0,0,.71,1,5.74,5.74,0,0,0,1.15.73c.82.39,1.79.67,2.69,1l5.51,1.91c3.66,1.29,7.33,2.57,11,3.94a10.18,10.18,0,0,0,1.35.45c.46.12.93.22,1.41.33.94.2,1.89.38,2.85.56Z"/><path class="cls-35" d="M549.11,135.34s-14.13-.73-16.68-1.89-14.78-3.81-15.8-5.36,1-3.94,6.53-3.76,12.09.41,12.77.37,11.44-.71,12.58-.77S549.11,135.34,549.11,135.34Z"/><path class="cls-29" d="M545.29,136.31c-2.49-.29-5-.61-7.46-.93q-1.86-.24-3.72-.51l-.93-.14a7.48,7.48,0,0,1-.94-.2c-.61-.16-1.21-.35-1.81-.54-2.39-.77-4.76-1.59-7.1-2.49-1.17-.45-2.33-.92-3.49-1.4-.58-.25-1.16-.5-1.73-.77a10.36,10.36,0,0,1-1.72-.93,1.55,1.55,0,0,1-.66-1,1.59,1.59,0,0,1,.33-1.16,4.63,4.63,0,0,1,1.59-1.29,8.12,8.12,0,0,1,3.8-1c2.51,0,5,.08,7.51.14s5,.14,7.49.24c1.23,0,2.49-.06,3.74-.1s2.5-.06,3.76,0c-2.49.36-5,.64-7.48.85l-7.52-.17c-2.5,0-5-.09-7.5-.08a7.38,7.38,0,0,0-3.41.84,3.87,3.87,0,0,0-1.32,1,.67.67,0,0,0,.14,1.08,10.74,10.74,0,0,0,1.58.86c.55.27,1.12.52,1.69.77,1.15.49,2.3,1,3.47,1.42,2.32.91,4.65,1.82,7,2.63.59.21,1.18.41,1.77.58a12.88,12.88,0,0,0,1.81.37l3.7.63Z"/><path class="cls-3" d="M572.33,127.49l-11.87,36s31.87,15.48,41.29,12.7,33.09-30.82,41.21-47.75c4.94-10.31-1.21-17.07-12.91-7.83-12,9.5-28.91,22.65-30.21,23.13S572.33,127.49,572.33,127.49Z"/><path class="cls-38" d="M643,128.46c-8.13,16.93-31.79,45-41.2,47.75-2.89.85-7.88,0-13.41-1.61l48.91-58h0a8.5,8.5,0,0,1,1-.23,5,5,0,0,1,.5-.07,6.5,6.5,0,0,1,1.15,0,4.19,4.19,0,0,1,.5,0l.48.08a4.7,4.7,0,0,1,2,.93,4.41,4.41,0,0,1,.72.77C645.15,120.21,645.09,124,643,128.46Z"/><path class="cls-3" d="M568.82,164c.2-1.26.64-2.49,1-3.73s.7-2.47,1.07-3.7q1.1-3.54,2.25-7.06c.77-2.35,1.55-4.7,2.32-7s1.51-4.93,2.5-7.28a.09.09,0,1,1,.17,0c-.54,2.5-1.41,5-2.14,7.39s-1.45,4.83-2.19,7.24-1.48,4.81-2.27,7.21c-.38,1.18-.78,2.34-1.21,3.5a35.86,35.86,0,0,1-1.31,3.5C568.93,164.17,568.8,164.09,568.82,164Z"/><g class="cls-31"><path class="cls-6" d="M616.91,184.74l64.37-.3S668.51,130.55,654.91,116c-6.18-6.61-12.23-5.6-17.36-1.35-1.28,1.07-17.13,22.12-18.47,29.13-1.19,6.2,3.85,13.08,3.85,13.08Z"/><path class="cls-6" d="M630.68,154.61a47.7,47.7,0,0,1,7,1.15c1.15.3,2.27.64,3.4,1,.56.19,1.12.35,1.69.51a7.43,7.43,0,0,0,1.81.35,0,0,0,0,1,0,.08,12.78,12.78,0,0,1-1.75,0,11.59,11.59,0,0,1-1.66-.32c-1.17-.28-2.32-.62-3.48-.92-2.34-.6-4.69-1.21-7.07-1.64C630.54,154.78,630.57,154.6,630.68,154.61Z"/><path class="cls-6" d="M624.82,156.71a52.5,52.5,0,0,1,5.88-.29c1,0,2,.08,2.93.18.47,0,.94.1,1.4.16s1,.2,1.53.25c.05,0,.05.09,0,.09-.49,0-1,0-1.47,0l-1.46,0-2.94-.07c-2-.07-3.91-.11-5.87-.11C624.71,156.87,624.72,156.72,624.82,156.71Z"/></g><polygon class="cls-29" points="628.6 210.04 587.69 213.08 575.66 155.76 616.57 152.72 628.6 210.04"/><polygon class="cls-37" points="626.59 210.19 585.68 213.23 573.65 155.91 614.56 152.87 626.59 210.19"/><path class="cls-5" d="M594.56,180.91a4.43,4.43,0,0,0,4.62,3.66,3.6,3.6,0,0,0,3.34-4.25,4.46,4.46,0,0,0-4.63-3.66A3.6,3.6,0,0,0,594.56,180.91Z"/><path class="cls-35" d="M655.9,116.93c12.6,13.58,41.79,49.84,35.69,58.37-10,14-36.41,27.95-44.76,31.31-3.61,1.45-19.36-24.27-16.07-26.8,4-3.05,30.8-14.59,30.42-17.1-.21-1.43-5.27-16.54-9.62-31.66C646.51,113.52,651.58,112.27,655.9,116.93Z"/><path class="cls-35" d="M644.09,176.68s-11.6-2.28-19.26-3.4c-4.27-.63-11.69-1.06-15-.09-5,1.46-25,10.74-22.89,15.65,1.94,4.44,18.13-5.73,18.13-5.73s-17.24,8.81-13.92,13.73,20.09-9,20.09-9-17.52,9.45-13.29,14c3.2,3.42,19.1-8.33,19.1-8.33s-15,8.23-11.87,11.89c3.46,4,18.82-5.88,18.82-5.88,9.53,8,17.33,8.7,22.87,7.11C648.13,206.24,644.09,176.68,644.09,176.68Z"/><path class="cls-29" d="M610,180.13c-13.2,5.52-18,12.27-17.82,12.11,3.86-3.63,10.85-7.82,12.83-9s3.07-1.94,5-3.08C610.1,180.17,610.05,180.11,610,180.13Z"/><path class="cls-29" d="M615.06,186.73a48.55,48.55,0,0,0-14.89,8.69c-.16.16-.06.19.13.07,2.47-1.52,12.26-7.31,14.79-8.71C615.13,186.76,615.1,186.71,615.06,186.73Z"/><path class="cls-29" d="M619.79,192.11a36.26,36.26,0,0,0-11.33,7.08c-.16.14,0,.19.19.06,3.72-2.42,6.62-4.35,11.21-7A.08.08,0,0,0,619.79,192.11Z"/><path class="cls-3" d="M646.54,170.76l17.08,29.6s28.78-17.18,29.85-28.44S663.76,124.1,658,118.21c-1.64-1.67-6-5.39-7.92-4.74-2.15.73-1.64,3.94-.84,11.4,1.07,9.94,11.35,36.61,10.85,37.78S646.54,170.76,646.54,170.76Z"/><path class="cls-3" d="M668.71,194.83c-.8-1-1.42-2.13-2.13-3.19s-1.37-2.15-2-3.24q-1.9-3.15-3.76-6.35l-3.69-6.38c-1.27-2.2-2.67-4.39-3.76-6.68a.09.09,0,0,1,.15-.09c1.5,2,2.75,4.32,4.08,6.48s2.62,4.28,3.92,6.42,2.59,4.29,3.85,6.45c.62,1.07,1.23,2.13,1.81,3.22s1.26,2.15,1.73,3.29C668.91,194.86,668.77,194.9,668.71,194.83Z"/><path class="cls-3" d="M660.51,162.58a15.6,15.6,0,0,0-.9-3.45c-.81-2.42-3.66-11.48-4.52-13.88-1-2.68-1.89-5.37-3-8,0-.07-.13,0-.11,0,.45,1.62,1.1,3.76,1.8,6-.15-.24-.3-.48-.46-.72a14.36,14.36,0,0,1-1.31-2.25s0,0,0,0a16.79,16.79,0,0,0,1,2.34c.19.38.43.74.66,1.11a6.49,6.49,0,0,0,.45.62c1.68,5.34,5.59,17.51,5.66,17.71s-11.2,7-13.65,8.47c-.1.07.32.59.55.87a.09.09,0,0,0,.15-.09,2.17,2.17,0,0,0-.31-.53C650.83,168.92,660.4,163.12,660.51,162.58Z"/><path class="cls-35" d="M649,115.1c-.33,1.14-5.1,7.12-10.4,6.62-1.72-.17-2.36-8.33-2.36-8.33l-.12-.7-1.72-9.89L646.19,96l1.71-.89s.29,2.73.62,6.14c0,.16,0,.32.05.49l.06.55c0,.51.11,1,.15,1.55s.07.78.09,1.19.06.82.09,1.24A65,65,0,0,1,649,115.1Z"/><path class="cls-29" d="M648.52,101.23a20.18,20.18,0,0,1-12.45,11.46l-1.72-9.89L646.19,96l1.71-.89S648.19,97.82,648.52,101.23Z"/><path class="cls-35" d="M619.65,88.45c-1.58,17.53,8.75,20.45,12.53,20.79,3.43.3,15.16.9,18.54-16.38s-4.28-23.55-12.1-24.66S621.22,70.91,619.65,88.45Z"/><path class="cls-29" d="M623.68,85.14a9.71,9.71,0,0,0,1.2-.21,2,2,0,0,0,1.18-.46.63.63,0,0,0,0-.76,1.57,1.57,0,0,0-1.52-.41,2.28,2.28,0,0,0-1.46.77A.67.67,0,0,0,623.68,85.14Z"/><path class="cls-29" d="M636,85.54c-.41-.06-.78-.19-1.19-.29a2,2,0,0,1-1.15-.52.62.62,0,0,1,0-.76,1.53,1.53,0,0,1,1.54-.32,2.3,2.3,0,0,1,1.41.84A.68.68,0,0,1,636,85.54Z"/><path class="cls-29" d="M633.05,89.78s.09.06.08.11c-.1,1.19,0,2.58,1.06,3,0,0,0,.08,0,.07C632.86,92.74,632.76,90.89,633.05,89.78Z"/><path class="cls-29" d="M634.18,88.58c1.93,0,1.89,3.83.1,3.87S632.56,88.62,634.18,88.58Z"/><path class="cls-29" d="M634.94,88.8c.33.22.66.61,1.07.66s.83-.35,1.14-.74c0,0,.07,0,.07,0,0,.74-.3,1.5-1.09,1.6s-1.24-.57-1.42-1.32C634.68,88.91,634.8,88.71,634.94,88.8Z"/><path class="cls-29" d="M625.93,89.34s-.09.06-.09.11c0,1.2-.13,2.57-1.22,3,0,0,0,.07,0,.06C626,92.3,626.16,90.47,625.93,89.34Z"/><path class="cls-29" d="M624.87,88.08c-1.93-.15-2.1,3.72-.31,3.86S626.48,88.21,624.87,88.08Z"/><path class="cls-29" d="M624.05,88.3c-.31.2-.63.55-1,.56s-.72-.42-1-.83c0,0-.06,0-.06,0,0,.74.16,1.52.86,1.69s1.15-.46,1.35-1.19C624.27,88.44,624.18,88.23,624.05,88.3Z"/><path class="cls-29" d="M632.54,99.72c-.27.3-.52.71-1,.78a3.22,3.22,0,0,1-1.3-.2s-.08,0,0,.06a1.63,1.63,0,0,0,1.57.54,1.3,1.3,0,0,0,.86-1.13C632.67,99.7,632.58,99.68,632.54,99.72Z"/><path class="cls-29" d="M627.2,95.34S627,97.14,627,98c0,.08.21.11.49.12h0a4,4,0,0,0,3.87-1.57c.06-.09,0-.17-.13-.12a6.06,6.06,0,0,1-3.65,1.12c-.06-.24.48-3.06.34-3.07a7.48,7.48,0,0,0-1.91.47c.34-3.75,1.28-7.42,1.56-11.16a.11.11,0,0,0-.22,0,60.54,60.54,0,0,0-2.19,12C625.14,96.16,626.87,95.49,627.2,95.34Z"/><path class="cls-29" d="M627.85,98a4.62,4.62,0,0,0,1.87,1.41,2.15,2.15,0,0,0,1.26.06c.91-.25.92-1.09.75-1.81a5.36,5.36,0,0,0-.43-1.09A6,6,0,0,1,627.85,98Z"/><path class="cls-39" d="M629.72,99.39a2.15,2.15,0,0,0,1.26.06c.91-.25.92-1.09.75-1.81A2.15,2.15,0,0,0,629.72,99.39Z"/><path class="cls-29" d="M651.38,92.47c-2,.14-6.73.45-9.68-2-1.64-1.36-3.07-3.66-3.93-7.78-1.51-7.2-6.5-11.86-14.18-7.65,0,0-1.55-6.45,3-9.09s9.12,1.53,9.12,1.53,10-1,15.31,6.55S651.38,92.47,651.38,92.47Z"/><path class="cls-35" d="M649.66,99.39a4.13,4.13,0,0,1-.82.21,2.93,2.93,0,0,1-.83,0,2.51,2.51,0,0,1-1-.33,3.3,3.3,0,0,1-.67-.52,3.39,3.39,0,0,1-.66-1l1-4.7S650.52,87.6,653,89,652.59,98.31,649.66,99.39Z"/><path class="cls-29" d="M652.12,91.23s0,.06,0,.08c-2,.82-3.14,2.72-3.9,4.7a1.64,1.64,0,0,1,2.46-.45.07.07,0,0,1-.06.11,1.83,1.83,0,0,0-2,.64,7.81,7.81,0,0,0-1,1.62c-.1.19-.43.09-.36-.12,0,0,0,0,0,0C647.26,95.14,649.31,91.49,652.12,91.23Z"/><path class="cls-5" d="M649.41,98.65a.81.81,0,1,1-.63-1A.82.82,0,0,1,649.41,98.65Z"/><path class="cls-5" d="M651.09,97.42a.58.58,0,1,1-1.13-.23.59.59,0,0,1,.68-.45A.57.57,0,0,1,651.09,97.42Z"/></g><g id="Character_1" data-name="Character 1"><path class="cls-2" d="M520.86,462.77c-3,.06-80.55-23.91-82.93-26.69-.25-.31,1-11.79,3-20.91.09-.43-27.54-36.64-27.54-36.64l50-19.44,23.91,49.53,6.21,12.88s25.88,26,28.17,29.34S523.85,462.7,520.86,462.77Z"/><path class="cls-37" d="M523,463.2c-3.12.09-84.08-24.63-86.58-27.52-.95-1.1.5-6.1,4.43-20.51l53.08,6.4s27.4,25.72,29.79,29.19S526.16,463.12,523,463.2Z"/><path class="cls-29" d="M522.87,459.61C509.4,455.13,454.64,438.35,441,435c-.11,0-.14.05,0,.08,13.25,4.73,68.14,21.07,81.84,24.8C523.09,459.91,523.15,459.7,522.87,459.61Z"/><path class="cls-29" d="M519.44,446.26a11.37,11.37,0,0,0-9.13.83,11,11,0,0,0-5.24,6.32c0,.08.12.13.16,0a13.17,13.17,0,0,1,14.16-7C519.5,446.45,519.55,446.29,519.44,446.26Z"/><path class="cls-29" d="M499.45,426.92c-5.41-1.73-12.29-1.74-17,1.67-.18.14,0,.39.19.36a78.75,78.75,0,0,1,16.72-1.33A.36.36,0,0,0,499.45,426.92Z"/><path class="cls-29" d="M503.15,429.84c-5.41-1.74-12.29-1.74-17,1.67-.18.13,0,.39.2.36A78.06,78.06,0,0,1,503,430.53.35.35,0,0,0,503.15,429.84Z"/><path class="cls-29" d="M506.84,432.75c-5.41-1.73-12.29-1.74-17,1.67-.19.14,0,.39.19.36a78.75,78.75,0,0,1,16.72-1.33A.36.36,0,0,0,506.84,432.75Z"/><path class="cls-29" d="M510.54,435.67c-5.41-1.74-12.29-1.74-17,1.67-.18.13,0,.39.2.36a78,78,0,0,1,16.72-1.34A.35.35,0,0,0,510.54,435.67Z"/><path class="cls-29" d="M509.75,414.22c-2.05-3.12-6.2-2-8.62-.1A29.77,29.77,0,0,0,492,426.5a.15.15,0,0,0,.12.21c0,.42.36.89.84.74,4.69-1.5,9.88-2.52,14-5.4C509.27,420.36,511.69,417.17,509.75,414.22Zm-10.19,9.51c-2.29.79-4.6,1.46-6.85,2.34a87.94,87.94,0,0,1,5.52-7.12,33.17,33.17,0,0,1,3.1-3.06c1.73-1.43,8.44-4.34,7.18,1.73C507.81,421,502.28,422.78,499.56,423.73Z"/><path class="cls-29" d="M477.85,424.4c4.5,2.17,9.79,2.31,14.66,3a.7.7,0,0,0,.71-.87.14.14,0,0,0,.09-.22,29.87,29.87,0,0,0-11.11-10.7c-2.69-1.42-7-1.89-8.48,1.53C472.3,420.38,475.21,423.13,477.85,424.4Zm-2.34-4.1c-2.25-5.78,4.85-4,6.8-2.89a31.21,31.21,0,0,1,3.56,2.5,88.88,88.88,0,0,1,6.62,6.1c-2.37-.49-4.76-.77-7.14-1.17C482.5,424.36,476.75,423.49,475.51,420.3Z"/><path class="cls-29" d="M489.74,410.93l-55.08,8.14s-30.05-54.58-42.19-68.16l0,0a19.21,19.21,0,0,0-2.22-2.17h0a11.46,11.46,0,0,0-4-1h0c-16.29-2-71.1,3.35-109,.9L294.91,325l7.84-10.49c42.67-4.87,95-22.31,118.67-10.46C447.08,316.9,489.74,410.93,489.74,410.93Z"/><path class="cls-36" d="M482.84,401.58c-9.36,1.2-6.69.73-16,2-4.57.64-27.58,3.8-31.75,5.1a.09.09,0,0,0,0,.18c4.37,0,27.3-3.61,31.86-4.33,9.32-1.48,6.63-1.15,15.94-2.73A.13.13,0,1,0,482.84,401.58Z"/><path class="cls-36" d="M435,407.94c-6.24-10.42-34.62-61.86-40.27-63.88-5.14-1.85-108,.29-109.53.3-.11,0-.12.17,0,.17,12.18-.16,106.21-.49,108.89.57,5.58,2.21,39.51,61.88,40.35,63.12C434.6,408.56,435.16,408.3,435,407.94Z"/><path class="cls-29" d="M248.45,327.1s-3.25,31,12.49,46.45c18.83,18.46,143.14,13.8,162.41,7.57s19.86-37.31-1.2-44.51c-20-6.85-108.85-10.79-110.95-11.63s-8.27-10.67-8.27-10.67Z"/><path class="cls-36" d="M274.75,326.23c0-.15-.25-.1-.25,0a17.07,17.07,0,0,1-4,11c-2.95,3.4-7.3,5.31-11.24,7.3-.38.19-.09.79.3.67a34.58,34.58,0,0,0,7-3,16.81,16.81,0,0,0,5.24-4.35A15,15,0,0,0,274.75,326.23Z"/><path class="cls-36" d="M310.35,323c-.88-1.12-1.84-2.19-2.76-3.28-2.17-2.58-4.35-5.18-6.62-7.67-.22-.23-.64.1-.44.36,1.53,2,3.15,3.94,4.75,5.89q1.22,1.5,2.46,3a18.4,18.4,0,0,1,2.3,2.91c.59,1.11-.19,2.06-1.34,2.19a4,4,0,0,1-2.77-1,37.33,37.33,0,0,1-4.7-5c-.91-1-1.83-2.05-2.76-3.07s-2-2.1-3-3.18c-.06-.07-.18,0-.13.1.86,1.18,1.66,2.41,2.52,3.6s1.73,2.35,2.62,3.51,1.71,2.17,2.61,3.22a10.69,10.69,0,0,0,2.65,2.37c1.65,1,4.51,1.18,5.38-.95A3,3,0,0,0,310.35,323Z"/><path class="cls-36" d="M420.71,381.24c-6.63.12-13.26.51-19.89.65s-13.16.18-19.75.12q-19.81-.19-39.61-1.54c-13.33-.93-27.7-2.25-40.94-4.09-6.33-.87-12.75-1.6-19-2.95a30,30,0,0,1-15-7.66c-8.57-8.32-11.9-20.54-13.27-32.22-.18-1.57-.34-3.14-.46-4.71a.09.09,0,0,0-.17,0c.78,12,2.64,24.47,10.17,34.09a29.93,29.93,0,0,0,12.27,9.53c5.93,2.38,12.51,2.93,18.77,3.78,13.29,1.8,27.72,3.2,41.08,4.23s26.94,1.7,40.43,1.9,27,0,40.46-.66c1.64-.08,3.28-.18,4.93-.32A.08.08,0,0,0,420.71,381.24Z"/><path class="cls-36" d="M438.42,352.25a21.35,21.35,0,0,0-8.88-12.71c-4.78-3.26-10.49-4.74-16.14-5.56-6.4-.93-12.87-1.41-19.3-2q-19.8-1.92-39.62-3.55c-13.2-1.09-41.65-3.3-43.25-3.36a.13.13,0,0,0,0,.25c12.74,1.41,24.34,2.63,37.11,3.79s25.67,2.39,38.5,3.66q9.58.94,19.17,1.93c5.92.61,12,1.21,17.56,3.5,4.76,2,9,5.11,11.47,9.75a22.89,22.89,0,0,1,1.91,14.75,26.05,26.05,0,0,1-6.17,12.47,22.15,22.15,0,0,1-11.54,7c-1.17.25-2.58.43-3.66.64-.08,0-.16.19-.08.19,9.55.25,18.38-6.73,21.83-15.45A25.54,25.54,0,0,0,438.42,352.25Z"/><path class="cls-40" d="M298.64,256c5.21,22.92,16,50.41,20.67,54.87,5.87,5.65,42.29,13.15,44.23,13.37,4.81.49,11.61-30.2,8.78-30.23-7.87-.11-33-4.42-34.72-6.16s-13.68-16.93-25.93-34C303.22,242.11,295.41,241.82,298.64,256Z"/><path class="cls-40" d="M360.82,323.81A94,94,0,0,0,373,329c3.33,1,13,3.52,14.44,0,1-2.43-4.52-4.6-8.39-6.22-2-.85-4.54-3-3.93-4.3,1.05-2.29,6.29,0,9.73,2,6.66,3.89,15.53,10.88,19.61,7.51,1.54-1.28-.24-3.61-2.85-5.9,4.24,2.67,8.76,4.87,10.53,3.52,1-.77,1.06-1.83.5-3a3,3,0,0,0,3.28-.5c1.38-1.44.72-3.57-.79-5.76a1.67,1.67,0,0,0,1.26-.82c2.93-4.45-11.66-17.27-16.72-18.48-14.87-3.58-30.55-3-30.55-3C363.29,298.74,360.81,323.8,360.82,323.81Z"/><path class="cls-29" d="M382.73,310.16a25.34,25.34,0,0,1,9.92,3.85c3.76,2.49,6.26,5.41,9.42,8.36.08.07,0,.2-.12.13-1.51-1.4-7.74-6.66-9.36-7.86a24,24,0,0,0-9.87-4.42S382.69,310.16,382.73,310.16Z"/><path class="cls-29" d="M385.52,303.86a59.55,59.55,0,0,1,11.54,4c4,2,7.06,5.34,10.11,8.53q2.74,2.86,5.37,5.85c.07.08,0,.22-.12.13q-4.65-4.93-9.58-9.58a31.68,31.68,0,0,0-10.51-6.66c-2.24-.86-4.53-1.54-6.83-2.23C385.46,303.91,385.47,303.84,385.52,303.86Z"/><path class="cls-29" d="M389.71,298.34c3.8.79,7.11,1.47,10.47,3.51,4.45,2.71,8.74,7.26,10.24,8.87,1.66,1.79,3.26,3.62,4.84,5.48.06.08-.07.19-.14.12a125.58,125.58,0,0,0-11.56-11.51,25.17,25.17,0,0,0-6.47-4.23,45.89,45.89,0,0,0-7.39-2.21S389.69,298.34,389.71,298.34Z"/><path class="cls-37" d="M368.81,290.5l-12.05,37.88s-32.38-9.33-38.28-15.72-16.75-39.39-19.93-55.38,4.9-15.57,12.31-5.48,25.82,34.55,26.86,35.08S368.81,290.5,368.81,290.5Z"/><path class="cls-29" d="M353.69,311.53c1.46-4.46,2.95-8.92,4.25-13.44.73-2.57,1.48-5.13,2.19-7.71,0-.1-.13-.15-.17-.06-1.64,4.43-3.28,8.87-4.72,13.36s-2.9,8.94-4.27,13.44c-.79,2.55-1.49,5.12-2.11,7.73,0,0,.07.08.09,0C350.74,320.51,352.22,316,353.69,311.53Z"/><path class="cls-41" d="M340.43,323.13l-1.43-.51c-2.7-1-5.45-2-8-3.07l-1-.41-1.55-.66-.75-.33-.27-.13-.77-.36c-1-.47-2-1-2.91-1.43l-.63-.33a22,22,0,0,1-4-2.64l-.33-.3-.3-.3c-5.91-6.4-16.75-39.39-19.93-55.38,0-.19-.07-.37-.11-.55s0-.08,0-.12c-.22-1.21-.4-2.72-.56-4.34v0c-.44-7.95,3.33-9.24,8-5.74C317.43,271.43,335.08,312.56,340.43,323.13Z"/><path class="cls-3" d="M246.86,332.32c.18.22,76.22-10,77-10.8,1.06-1.14-7.65-58.4-20.35-76.33-3.18-4.48-14.41-5.11-19.78-1.3C257.12,262.8,246.21,331.54,246.86,332.32Z"/><path class="cls-37" d="M282.51,244.39s11.37,21.15,12.8,29.66,3.33,51,3,52.63a5.06,5.06,0,0,1-1.6,2.62v4.09l-51.24,4.35v-3.58s-2.43-1.27-1.85-8.56S266.2,251.56,282.51,244.39Z"/><path class="cls-36" d="M248.17,334.23c15.05-2,30.27-3.34,45.43-4-15,2-30.26,3.34-45.43,4Z"/><path class="cls-37" d="M303.5,245.19s2.68,22,3.05,26,6.27,51.88,6.85,53.18S315,327.5,315,327.5l.4,2.73,10-2.2-.36-2.91s2.09-1.46,1.78-5.29S314.65,254.44,303.5,245.19Z"/><path class="cls-36" d="M316.08,327.54a16.9,16.9,0,0,1,8.07-1.88,16.87,16.87,0,0,1-8.07,1.88Z"/><path class="cls-40" d="M274.33,250.17c-14.71,9.5-54.71,49.51-47.94,60.35s59.29,11.74,74.89,8.61c4.64-.94-4.61-30.74-9.33-32.56C288,285,264.9,289.32,264.6,288c-.34-1.52,5.46-10.64,15-27.4C290.55,241.25,280.82,246,274.33,250.17Z"/><path class="cls-40" d="M313.48,285c10.06,1.09,12.48,2.91,21.45-.68,5.89-2.35,9.92.4,5.64,5.42-7,8.2-20.28,9.52-25,8.65Z"/><path class="cls-40" d="M285.32,287.82s12.44-3.31,23.28-3.21c7.49.07,23.77,2,34.95,21.4,2.65,4.59,3.17,13-3.88,7.09-5-4.21-6.92-8.4-10.28-10.32,0,0-.61,10.8-5.31,13.28a100.67,100.67,0,0,1-12.76,5.6,21.85,21.85,0,0,1-1.26-2.3s-4.61,1.9-11.76-.64Z"/><path class="cls-40" d="M315.73,285.82c2.94,2.6,9.06,8.24,12.47,14.59,3.79,7.06,9.18,21.67,3.94,24.41-3.84,2-6.39-3.39-6.39-3.39s.95,6.51-2.91,7.56c-3.52,1-5.24-3.33-5.24-3.33s-.1,4-3.68,4.32c-4.29.33-3.38-8.2-8-11.63C304.86,317.58,315.73,285.82,315.73,285.82Z"/><path class="cls-29" d="M320.08,303.17c2.36,2.9,6,10.88,5.76,18.12,0,.16-.13.25-.16.1A78.25,78.25,0,0,0,320,303.2S320.05,303.13,320.08,303.17Z"/><path class="cls-29" d="M313.07,307.19c1.77,2.72,5.18,11.11,4.67,18.44,0,.16-.15.24-.17.09A83.86,83.86,0,0,0,313,307.23C313,307.18,313.05,307.16,313.07,307.19Z"/><path class="cls-29" d="M329.41,302.72c2.93,1.73,4.6,3.8,6.8,6.33a46.76,46.76,0,0,0,3.43,3.61c1.12,1,2.75,2.55,4.4,1.8a2.67,2.67,0,0,0,1.24-2.44,13.18,13.18,0,0,0-.84-4c0-.05.07-.08.09,0a18.38,18.38,0,0,1,1.09,3.69,4.34,4.34,0,0,1-.33,2.54c-.91,1.63-3,1.34-4.36.49a13.63,13.63,0,0,1-2.19-1.83c-.66-.63-1.28-1.3-1.89-2-1.25-1.39-2.42-2.86-3.65-4.27a43.16,43.16,0,0,0-3.87-3.78C329.28,302.77,329.35,302.69,329.41,302.72Z"/><path class="cls-29" d="M333.24,315.53a103.1,103.1,0,0,0-3.92-12.75s.05-.1.08,0c1.88,3,4.29,10.18,4.71,12.4s.84,5,.29,7.17c-.83,3.31-3.18,3.38-4,3.34a4.44,4.44,0,0,1-2.7-1.17,8.83,8.83,0,0,1-1.94-3,0,0,0,1,1,.08,0c.81,1.59,2.4,3.35,4.25,3.57a3.12,3.12,0,0,0,2.33-.59,4.07,4.07,0,0,0,1.2-2.53A18.87,18.87,0,0,0,333.24,315.53Z"/><path class="cls-37" d="M285.44,286.37l7.48,37.39s-65.6-1.66-68.25-13.82,32.12-48.4,46.08-58c16.19-11.11,16.57-5.85,10.62,6.11-6.24,12.52-16.67,30.27-16.67,30.27Z"/><path class="cls-29" d="M243.59,292.48a75.51,75.51,0,0,1,10.4-3.05,72.61,72.61,0,0,1,10.6-1.44c2-.15,4.07-.2,6.11-.26.06,0,.06.09,0,.1A91.12,91.12,0,0,0,260,289.17q-5.28.91-10.5,2c-2,.42-3.93.93-5.89,1.42A.07.07,0,0,1,243.59,292.48Z"/><path class="cls-29" d="M285.3,286.23c-.33,0-18.72,1.35-19.35,1.46.14-.23,5.45-8.5,6.24-9.71l.23-.36c.46-.51.92-1,1.36-1.55l1.67-2.05a0,0,0,0,0,0,0l-1.76,2q-.41.46-.78.93c.53-.85,1.05-1.72,1.58-2.59.83-1.38,1.62-2.79,2.4-4.2,0-.05,0-.08-.07,0-1.56,2.41-3.2,4.76-4.77,7.17s-7.5,11.21-7.47,11.21,20.36-1.9,20.76-2A.13.13,0,0,0,285.3,286.23Z"/><path class="cls-29" d="M281,308.31c-.81-4.17-1.59-8.34-2.55-12.48-.55-2.35-1.09-4.71-1.66-7.05,0-.09-.18-.07-.16,0,.65,4.21,1.31,8.44,2.15,12.62s1.63,8.33,2.52,12.49q.76,3.54,1.74,7s.09,0,.08,0C282.58,316.69,281.78,312.5,281,308.31Z"/><path class="cls-29" d="M293.59,324.49c-.36-1.19-.77-2.87-1.19-4-.11-.3-.32-.3-.25,0,.24,1.06.36,2.2.59,3.28-.91-.05-1.83-.11-2.75-.15l-3.17-.12c-2.08-.09-4.15-.2-6.23-.33-4.19-.27-8.39-.63-12.57-1.07a242.62,242.62,0,0,1-25-3.85q-3.47-.74-6.89-1.63a68.5,68.5,0,0,1-6.67-2c-.06,0-.1.08,0,.11a39,39,0,0,0,5.68,2.24c2.05.62,4.11,1.19,6.19,1.68,4.14,1,8.33,1.76,12.54,2.42,8.33,1.3,16.73,2.24,25.15,2.84q3.54.25,7.08.43c1.19.05,2.38.11,3.58.14S293.65,324.69,293.59,324.49Z"/><rect class="cls-37" x="303.7" y="331" width="80.16" height="3.23"/><rect class="cls-33" x="303.7" y="331" width="44.36" height="3.23"/><polygon class="cls-33" points="346.71 334.23 416.97 334.23 426.89 286.51 356.63 286.51 346.71 334.23"/><polygon class="cls-32" points="349.89 334.23 420.15 334.23 430.08 286.51 359.82 286.51 349.89 334.23"/><path class="cls-2" d="M385.3,311.43a4.15,4.15,0,0,0,4.19,4.69,5.33,5.33,0,0,0,5.18-4.69,4.14,4.14,0,0,0-4.19-4.68A5.34,5.34,0,0,0,385.3,311.43Z"/><path class="cls-3" d="M297.33,261.55s-13.42-12.89-22-12.52l-8.77,6s-3-1.47-3.78-3c-1.87-3.75-.18-10,7.6-15.94,7.12-5.48,18.87-5.18,28.68-2.69,9.43,2.39,17.65,8.56,14.82,14.72S297.33,261.55,297.33,261.55Z"/><path class="cls-41" d="M298.25,258.66S309,250.86,310,246.27s-8.11-8.86-14-10.51c-9.16-2.57-15.38-1.92-20.46,3S298.25,258.66,298.25,258.66Z"/><path class="cls-40" d="M297,258.25c-3.39-.53-9.1-8.22-10.75-14.07-.11-.4,1.29-4,2.79-8.51.9-2.73,1.84-5.79,2.49-8.64l16.89,8.44A46.92,46.92,0,0,0,304.17,246a6.45,6.45,0,0,0-.15,1.2.79.79,0,0,1,0,.2C303.86,249.73,302.29,259.08,297,258.25Z"/><path class="cls-29" d="M304,247.23c0,.05,0,.12,0,.2a11.53,11.53,0,0,1-1.87-.33c-10.12-2.56-9.77-15.52-9.41-19.46l15.68,7.83A47,47,0,0,0,304.16,246,7.25,7.25,0,0,0,304,247.23Z"/><path class="cls-40" d="M283.53,212.57c-.6,6.78,6.64,24.47,12,27.62,7.82,4.56,18.69,2.86,22.08-6.09,3.28-8.69-6.56-31.57-12.4-34.23C296.63,196,284.42,202.56,283.53,212.57Z"/><path class="cls-29" d="M301.53,219.13a15.36,15.36,0,0,0,1.46-.89c.55-.35,1-.57,1.31-1.19a.87.87,0,0,0-.36-1,2.19,2.19,0,0,0-2.2.24,3.19,3.19,0,0,0-1.51,1.74A.93.93,0,0,0,301.53,219.13Z"/><path class="cls-29" d="M313.24,215.44a13.94,13.94,0,0,1-1.71,0,2.66,2.66,0,0,1-1.73-.35.87.87,0,0,1-.21-1,2.2,2.2,0,0,1,2-.92,3.24,3.24,0,0,1,2.19.72A.93.93,0,0,1,313.24,215.44Z"/><path class="cls-29" d="M306.33,232.79a2,2,0,0,0,1.25.42,3.4,3.4,0,0,0,1.24-.7,0,0,0,0,1,.07.05,1.75,1.75,0,0,1-1.38,1.13,1.4,1.4,0,0,1-1.29-.81C306.18,232.81,306.27,232.76,306.33,232.79Z"/><path class="cls-29" d="M306.55,228.71a4.38,4.38,0,0,0,3.36,1,5.18,5.18,0,0,0,1.53-.37l.28-.11.26-.12a.34.34,0,0,0,.17-.35h0a.26.26,0,0,0-.05-.12h0l0-.11c-.25-1-.76-2.38-.76-2.38.39.07,2.4.36,2.23-.13a66.31,66.31,0,0,0-5.33-12.27.12.12,0,0,0-.22.1c1.23,3.94,3.15,7.64,4.44,11.58a7.87,7.87,0,0,0-2.16,0c-.12.08,1,2.73,1.12,3.17a.12.12,0,0,1,0,.05,6,6,0,0,1-4.75-.09C306.52,228.52,306.45,228.63,306.55,228.71Z"/><path class="cls-29" d="M304.79,220.92s-.08.09-.06.14c.42,1.21.7,2.66-.27,3.42,0,0,0,.08,0,.06C305.78,223.93,305.38,222,304.79,220.92Z"/><path class="cls-29" d="M303.29,220c-2,.47-.91,4.45.95,4S305,219.6,303.29,220Z"/><path class="cls-29" d="M311.71,218.67s.11,0,.12.09c.29,1.24.84,2.62,2.06,2.74a0,0,0,0,1,0,.07C312.49,221.74,311.79,219.9,311.71,218.67Z"/><path class="cls-29" d="M312.47,217.09c1.95-.68,3.16,3.27,1.36,3.89S310.84,217.66,312.47,217.09Z"/><path class="cls-29" d="M310.69,229.49a5.23,5.23,0,0,1-1.71,2,2.33,2.33,0,0,1-1.36.36c-1.05-.07-1.25-1-1.22-1.79a5.43,5.43,0,0,1,.21-1.29A6.68,6.68,0,0,0,310.69,229.49Z"/><path class="cls-39" d="M309,231.45a2.33,2.33,0,0,1-1.36.36c-1.05-.07-1.25-1-1.22-1.79A2.38,2.38,0,0,1,309,231.45Z"/><path class="cls-29" d="M288.47,231c2.9-.2,4.63-5.14,4.72-7s-3.52-10-3.11-12.93,3.8-5.23,6.2-5.36,6,1.81,7.59,1.1.45-3.85,1.57-4.24c2.45-.87,5.88,4.75,7.27,7.28,0,0-3.5-14.2-17.09-10.76-11.85,3-13.1,10.89-12.88,14.7C283.17,221.05,288.47,231,288.47,231Z"/><path class="cls-40" d="M292.48,226.71s-4.62-5.81-7.28-4.13,1.07,10.29,4.38,11.29a3.29,3.29,0,0,0,4.29-2Z"/><path class="cls-29" d="M286.33,225a0,0,0,0,0,0,.09c2.32.78,3.65,2.81,4.61,4.94a1.8,1.8,0,0,0-2.74-.33c-.06,0,0,.13.07.11a2.05,2.05,0,0,1,2.27.57,9.81,9.81,0,0,1,1.17,1.74c.12.19.48.06.39-.17a.08.08,0,0,1,0-.05C292,229,289.45,225.12,286.33,225Z"/><path class="cls-8" d="M298.25,258.66s-10.83-18-24.17-19.62l1.21,10s7.95-.05,22,12.52Z"/><path class="cls-29" d="M271.7,249.25a16.87,16.87,0,0,1,7.16.89,31.19,31.19,0,0,1,6.57,3,52.63,52.63,0,0,1,6,4.06l2.81,2.31,2.7,2.44.3.28.34-.18a61.28,61.28,0,0,0,7.14-4.39,35.77,35.77,0,0,0,3.29-2.6c1-.94,5.32-5,6.19-7.94-1.54,2.85-7.58,8.44-9.89,9.92-1.17.74-2.37,1.43-3.58,2.09s-2.42,1.33-3.65,1.92l.64.1L295,258.63c-.93-.81-1.89-1.59-2.85-2.37s-2-1.47-3-2.15-2.08-1.34-3.19-1.9a29,29,0,0,0-6.91-2.72,18.35,18.35,0,0,0-1.82-.38c-.61-.07-1.23-.16-1.85-.18A10.54,10.54,0,0,0,271.7,249.25Z"/><path class="cls-29" d="M266.52,255a43.92,43.92,0,0,0,4.63-2.77,38.53,38.53,0,0,0,4.14-3.19,42.34,42.34,0,0,0-4.63,2.78A38.75,38.75,0,0,0,266.52,255Z"/><path class="cls-29" d="M292.8,255.49a73.56,73.56,0,0,0-1.05,12.63c0,2.95,1.3,13.51,4.58,13.07s-2.19-7.17-3.22-12.74.39-9.68.53-13Z"/><path class="cls-29" d="M304.45,255.87a107.14,107.14,0,0,1,2.65,12.23c.4,2.65.64,12.3-2.36,12.35s1-6.73,1.18-11.86-1.66-9.68-2.24-12.66Z"/></g><g id="Speech_Bubble" data-name="Speech Bubble"><path class="cls-5" d="M373.28,187a25.63,25.63,0,0,1-42.83,16.21l-12.82,1.88L324,194a25.64,25.64,0,1,1,49.24-7Z"/><path class="cls-29" d="M373.28,187a25.91,25.91,0,0,1-5.17,13,23.66,23.66,0,0,1-5,5A25.85,25.85,0,0,1,350,210.07a23.49,23.49,0,0,1-3.56.07,22.38,22.38,0,0,1-3.55-.37,25.84,25.84,0,0,1-12.68-6.26l.31.09-12.82,2-.93.14.48-.82,6.37-11.1,0,.43a25.94,25.94,0,0,1,32.14-34.43,26.21,26.21,0,0,1,9.89,6.07A25.79,25.79,0,0,1,373.28,187Zm0,0A25.71,25.71,0,0,0,365.5,166a26,26,0,0,0-9.89-5.83,25.46,25.46,0,0,0-22,3.33,26.44,26.44,0,0,0-7.67,8.36,25.28,25.28,0,0,0-1.44,22l.09.22-.12.21L318,205.35l-.46-.68,12.84-1.8.18,0,.12.12A25.29,25.29,0,0,0,343,209.29a21.22,21.22,0,0,0,3.47.42,24.19,24.19,0,0,0,3.51,0,25.24,25.24,0,0,0,6.85-1.51,24,24,0,0,0,6.18-3.33,29.23,29.23,0,0,0,2.71-2.26A28,28,0,0,0,368,200,25.79,25.79,0,0,0,373.28,187Z"/><polygon class="cls-6" points="344.54 198.98 333.59 187.9 337.27 184.26 343.66 190.73 356.95 169.9 361.31 172.68 344.54 198.98"/></g></svg>