<svg width="177" height="262" viewBox="0 0 177 262" fill="none" xmlns="http://www.w3.org/2000/svg">
<path d="M166 153L165.55 152.781L166 153ZM108 199L107.528 198.835L108 199ZM0.699936 258.4C0.479019 258.234 0.43425 257.921 0.599945 257.7L3.29994 254.1C3.46562 253.879 3.77902 253.834 3.99994 254C4.22086 254.166 4.26562 254.479 4.09995 254.7L1.69994 257.9L4.89993 260.3C5.12085 260.466 5.16562 260.779 4.99994 261C4.83426 261.221 4.52086 261.266 4.29994 261.1L0.699936 258.4ZM122.335 0.628803C122.577 0.847248 122.821 1.06882 123.066 1.29349L122.39 2.03056C122.147 1.80766 121.905 1.58786 121.665 1.3712L122.335 0.628803ZM124.553 2.67844C125.032 3.1316 125.516 3.59587 126.005 4.07107L125.307 4.78786C124.822 4.31592 124.341 3.85492 123.866 3.40506L124.553 2.67844ZM127.457 5.50379C127.924 5.96997 128.394 6.44561 128.866 6.93054L128.151 7.62872C127.681 7.14681 127.214 6.67419 126.75 6.21103L127.457 5.50379ZM130.282 8.39991C130.737 8.87879 131.195 9.36594 131.655 9.8612L130.923 10.5418C130.465 10.0494 130.01 9.56516 129.557 9.08914L130.282 8.39991ZM133.032 11.3602C133.478 11.8517 133.925 12.3506 134.375 12.8567L133.627 13.5204C133.18 13.0171 132.735 12.521 132.291 12.0323L133.032 11.3602ZM135.712 14.381C136.149 14.885 136.588 15.3958 137.027 15.913L136.265 16.5602C135.828 16.0457 135.392 15.5377 134.957 15.0364L135.712 14.381ZM138.326 17.4599C138.755 17.9763 139.184 18.4989 139.614 19.0274L138.838 19.6581C138.41 19.1324 137.983 18.6126 137.557 18.0989L138.326 17.4599ZM140.875 20.5954C141.295 21.1237 141.715 21.6577 142.135 22.1972L141.346 22.8115C140.928 22.2747 140.51 21.7435 140.092 21.2179L140.875 20.5954ZM143.359 23.7859C143.766 24.3205 144.173 24.8602 144.579 25.405L143.778 26.0027C143.373 25.4608 142.969 24.9238 142.563 24.392L143.359 23.7859ZM145.778 27.0301C146.173 27.571 146.566 28.1166 146.959 28.6668L146.145 29.2477C145.754 28.7003 145.363 28.1576 144.97 27.6195L145.778 27.0301ZM148.131 30.3267C148.513 30.874 148.893 31.4255 149.273 31.9814L148.447 32.5451C148.069 31.9922 147.691 31.4435 147.311 30.8991L148.131 30.3267ZM150.407 33.6616C150.779 34.2195 151.149 34.7815 151.518 35.3476L150.681 35.8936C150.314 35.3306 149.945 34.7715 149.575 34.2165L150.407 33.6616ZM152.612 37.0445C152.974 37.6138 153.335 38.187 153.693 38.7639L152.844 39.2917C152.487 38.7179 152.129 38.1478 151.768 37.5816L152.612 37.0445ZM154.746 40.4786C155.095 41.0538 155.442 41.6326 155.786 42.215L154.925 42.7241C154.583 42.1449 154.238 41.5693 153.891 40.9972L154.746 40.4786ZM156.806 43.9623C157.141 44.5435 157.474 45.128 157.804 45.7159L156.932 46.2055C156.604 45.6209 156.273 45.0397 155.94 44.4617L156.806 43.9623ZM158.786 47.4893C159.108 48.0783 159.427 48.6705 159.744 49.2658L158.861 49.7351C158.546 49.1433 158.229 48.5545 157.909 47.9688L158.786 47.4893ZM160.682 51.0562C160.991 51.6555 161.298 52.2578 161.601 52.863L160.707 53.3111C160.406 52.7095 160.101 52.1108 159.793 51.515L160.682 51.0562ZM162.494 54.6714C162.788 55.277 163.08 55.8855 163.368 56.4967L162.463 56.9228C162.177 56.3153 161.887 55.7106 161.595 55.1086L162.494 54.6714ZM164.218 58.3328C164.497 58.9445 164.772 59.5589 165.044 60.1759L164.129 60.5789C163.859 59.9659 163.585 59.3554 163.308 58.7475L164.218 58.3328ZM165.848 62.0345C166.111 62.6538 166.371 63.2757 166.627 63.9L165.701 64.2789C165.447 63.6587 165.189 63.0409 164.928 62.4256L165.848 62.0345ZM167.38 65.776C167.627 66.4037 167.871 67.0337 168.11 67.6661L167.174 68.0198C166.937 67.3917 166.695 66.7659 166.45 66.1424L167.38 65.776ZM168.811 69.5605C169.04 70.194 169.266 70.8296 169.486 71.4675L168.542 71.7947C168.322 71.1614 168.099 70.5302 167.871 69.9011L168.811 69.5605ZM170.135 73.3859C170.346 74.025 170.553 74.6663 170.755 75.3095L169.801 75.609C169.6 74.9705 169.395 74.3339 169.186 73.6994L170.135 73.3859ZM171.347 77.2452C171.539 77.8914 171.726 78.5395 171.909 79.1896L170.946 79.4601C170.765 78.815 170.579 78.1717 170.388 77.5304L171.347 77.2452ZM172.441 81.1405C172.613 81.7927 172.781 82.4467 172.943 83.1024L171.972 83.3426C171.811 82.692 171.645 82.0432 171.474 81.3961L172.441 81.1405ZM173.413 85.0704C173.564 85.7271 173.71 86.3856 173.851 87.0456L172.873 87.2541C172.734 86.5994 172.589 85.9464 172.439 85.2949L173.413 85.0704ZM174.257 89.0306C174.386 89.6918 174.51 90.3546 174.629 91.0189L173.644 91.1942C173.527 90.5356 173.404 89.8784 173.275 89.2227L174.257 89.0306ZM174.966 93.0147C175.073 93.6813 175.174 94.3495 175.27 95.019L174.28 95.1599C174.185 94.4962 174.085 93.8339 173.979 93.173L174.966 93.0147ZM175.537 97.0231C175.62 97.6924 175.697 98.3631 175.768 99.035L174.773 99.1402C174.703 98.4743 174.627 97.8097 174.544 97.1463L175.537 97.0231ZM175.962 101.052C176.021 101.723 176.073 102.395 176.119 103.069L175.121 103.137C175.076 102.47 175.024 101.804 174.966 101.139L175.962 101.052ZM176.238 105.092C176.271 105.765 176.298 106.44 176.318 107.116L175.319 107.146C175.299 106.477 175.272 105.808 175.239 105.141L176.238 105.092ZM176.359 109.138C176.366 109.813 176.367 110.489 176.36 111.166L175.36 111.157C175.367 110.487 175.366 109.817 175.359 109.149L176.359 109.138ZM176.321 113.191C176.302 113.864 176.275 114.538 176.242 115.213L175.243 115.163C175.276 114.495 175.302 113.828 175.322 113.162L176.321 113.191ZM176.121 117.239C176.074 117.91 176.021 118.583 175.96 119.256L174.964 119.166C175.024 118.499 175.077 117.834 175.124 117.169L176.121 117.239ZM175.757 121.269C175.682 121.941 175.6 122.613 175.511 123.286L174.52 123.155C174.608 122.489 174.689 121.823 174.763 121.158L175.757 121.269ZM175.225 125.287C175.123 125.952 175.013 126.618 174.897 127.284L173.912 127.112C174.027 126.452 174.135 125.793 174.237 125.135L175.225 125.287ZM174.524 129.284C174.395 129.942 174.258 130.601 174.113 131.261L173.136 131.047C173.279 130.394 173.415 129.742 173.543 129.09L174.524 129.284ZM173.659 133.233C173.501 133.891 173.335 134.549 173.161 135.207L172.194 134.952C172.366 134.301 172.53 133.65 172.687 132.999L173.659 133.233ZM172.626 137.152C172.441 137.799 172.249 138.445 172.049 139.092L171.093 138.796C171.291 138.156 171.482 137.517 171.665 136.877L172.626 137.152ZM171.427 141.032C171.215 141.667 170.997 142.303 170.771 142.939L169.829 142.604C170.052 141.975 170.269 141.345 170.478 140.716L171.427 141.032ZM170.074 144.837C169.834 145.469 169.587 146.102 169.332 146.734L168.405 146.361C168.657 145.735 168.901 145.109 169.139 144.482L170.074 144.837ZM168.559 148.599C168.296 149.216 168.026 149.832 167.748 150.448L166.837 150.037C167.111 149.427 167.379 148.817 167.639 148.207L168.559 148.599ZM166.894 152.296C166.747 152.604 166.599 152.911 166.449 153.219L165.55 152.781C165.699 152.476 165.845 152.172 165.99 151.867L166.894 152.296ZM166.449 153.219C166.3 153.526 166.15 153.83 165.999 154.132L165.104 153.685C165.254 153.386 165.403 153.085 165.55 152.781L166.449 153.219ZM165.083 155.92C164.774 156.508 164.462 157.087 164.147 157.657L163.272 157.174C163.583 156.609 163.892 156.037 164.197 155.455L165.083 155.92ZM163.176 159.373C162.835 159.96 162.492 160.537 162.145 161.104L161.292 160.583C161.635 160.022 161.974 159.451 162.311 158.872L163.176 159.373ZM161.094 162.78C160.735 163.338 160.373 163.887 160.008 164.427L159.18 163.866C159.541 163.333 159.899 162.791 160.253 162.239L161.094 162.78ZM158.857 166.08C158.471 166.62 158.081 167.152 157.688 167.673L156.89 167.071C157.277 166.556 157.662 166.032 158.044 165.498L158.857 166.08ZM156.472 169.242C156.052 169.77 155.628 170.288 155.201 170.794L154.436 170.15C154.857 169.65 155.275 169.14 155.69 168.619L156.472 169.242ZM153.911 172.283C153.462 172.786 153.011 173.279 152.556 173.76L151.829 173.073C152.277 172.599 152.722 172.114 153.165 171.618L153.911 172.283ZM151.164 175.188C150.694 175.657 150.222 176.113 149.746 176.559L149.062 175.829C149.53 175.391 149.996 174.941 150.459 174.48L151.164 175.188ZM148.255 177.913C147.755 178.352 147.253 178.779 146.748 179.195L146.112 178.423C146.609 178.014 147.103 177.594 147.595 177.161L148.255 177.913ZM145.182 180.442C144.651 180.85 144.117 181.247 143.581 181.631L142.999 180.818C143.526 180.44 144.05 180.051 144.572 179.649L145.182 180.442ZM141.948 182.759C141.387 183.133 140.825 183.493 140.26 183.841L139.735 182.99C140.29 182.648 140.843 182.294 141.394 181.927L141.948 182.759ZM138.559 184.849C137.972 185.183 137.383 185.503 136.793 185.811L136.33 184.925C136.91 184.622 137.488 184.307 138.065 183.979L138.559 184.849ZM135.019 186.696C134.41 186.986 133.801 187.262 133.192 187.525L132.795 186.607C133.394 186.349 133.992 186.078 134.588 185.793L135.019 186.696ZM131.352 188.28C130.726 188.523 130.1 188.753 129.474 188.97L129.146 188.025C129.761 187.812 130.376 187.587 130.99 187.348L131.352 188.28ZM127.58 189.587C126.939 189.783 126.298 189.965 125.658 190.135L125.402 189.168C126.03 189.002 126.659 188.823 127.288 188.631L127.58 189.587ZM123.723 190.61C123.069 190.757 122.416 190.891 121.765 191.013L121.582 190.03C122.221 189.91 122.861 189.779 123.503 189.634L123.723 190.61ZM119.8 191.342C119.137 191.44 118.476 191.525 117.817 191.598L117.707 190.604C118.353 190.533 119.002 190.449 119.653 190.352L119.8 191.342ZM115.834 191.78C115.165 191.829 114.499 191.865 113.836 191.889L113.8 190.89C114.45 190.866 115.104 190.831 115.761 190.783L115.834 191.78ZM111.848 191.924C111.175 191.923 110.507 191.91 109.845 191.885L109.883 190.886C110.533 190.91 111.189 190.923 111.849 190.924L111.848 191.924ZM107.864 191.773C107.191 191.722 106.524 191.659 105.864 191.585L105.977 190.591C106.624 190.664 107.278 190.726 107.939 190.776L107.864 191.773ZM103.892 191.324C103.226 191.224 102.568 191.111 101.919 190.987L102.106 190.005C102.743 190.126 103.388 190.237 104.041 190.335L103.892 191.324ZM99.9644 190.575C99.3111 190.424 98.6674 190.262 98.0338 190.089L98.2974 189.124C98.9182 189.294 99.5491 189.453 100.19 189.601L99.9644 190.575ZM96.1084 189.52C95.4683 189.317 94.8401 189.102 94.2246 188.878L94.5677 187.938C95.1698 188.158 95.7846 188.368 96.4113 188.567L96.1084 189.52ZM92.358 188.149C91.731 187.888 91.1194 187.615 90.5241 187.334L90.9521 186.43C91.5329 186.705 92.13 186.97 92.7427 187.226L92.358 188.149ZM88.7448 186.436C88.144 186.113 87.5629 185.78 87.003 185.437L87.5246 184.584C88.0682 184.917 88.6331 185.241 89.218 185.555L88.7448 186.436ZM85.3145 184.333C84.7518 183.939 84.2155 183.534 83.7074 183.122L84.3377 182.346C84.8266 182.743 85.344 183.132 85.8883 183.514L85.3145 184.333ZM82.1978 181.792C81.6972 181.312 81.2337 180.823 80.8101 180.326L81.5707 179.677C81.9713 180.146 82.4117 180.612 82.89 181.071L82.1978 181.792ZM79.5837 178.701C79.1934 178.108 78.8601 177.507 78.5887 176.901L79.5013 176.492C79.7488 177.045 80.0555 177.599 80.4191 178.152L79.5837 178.701ZM77.9312 174.924C77.7805 174.225 77.7175 173.525 77.7495 172.83L78.7485 172.876C78.7206 173.479 78.775 174.093 78.9087 174.713L77.9312 174.924ZM78.1402 170.762C78.2532 170.43 78.3906 170.101 78.5527 169.776L79.4472 170.224C79.305 170.508 79.1853 170.795 79.0871 171.084L78.1402 170.762ZM78.5527 169.776C78.7146 169.453 78.8846 169.14 79.0626 168.838L79.9243 169.345C79.7581 169.627 79.5989 169.92 79.4472 170.224L78.5527 169.776ZM80.2632 167.1C80.7184 166.537 81.2066 166.024 81.7236 165.562L82.3901 166.307C81.9138 166.733 81.4627 167.207 81.041 167.728L80.2632 167.1ZM83.425 164.282C84.0308 163.902 84.6629 163.578 85.3156 163.309L85.6964 164.234C85.095 164.482 84.5133 164.78 83.9562 165.129L83.425 164.282ZM87.3389 162.664C88.024 162.505 88.7237 162.399 89.4328 162.345L89.509 163.342C88.8487 163.393 88.1992 163.491 87.565 163.638L87.3389 162.664ZM91.5479 162.334C92.2422 162.379 92.9405 162.47 93.6381 162.606L93.4465 163.587C92.7899 163.459 92.1343 163.374 91.484 163.332L91.5479 162.334ZM95.6733 163.132C96.3322 163.345 96.9868 163.597 97.633 163.889L97.2218 164.8C96.609 164.524 95.9892 164.285 95.3663 164.084L95.6733 163.132ZM99.4981 164.853C100.094 165.202 100.679 165.585 101.25 166.002L100.66 166.81C100.116 166.412 99.5593 166.047 98.9928 165.716L99.4981 164.853ZM102.876 167.318C103.39 167.776 103.888 168.265 104.367 168.783L103.633 169.462C103.176 168.968 102.7 168.501 102.21 168.063L102.876 167.318ZM105.714 170.381C106.133 170.927 106.532 171.498 106.909 172.095L106.064 172.629C105.703 172.058 105.321 171.511 104.921 170.99L105.714 170.381ZM107.946 173.908C108.26 174.517 108.552 175.149 108.821 175.802L107.896 176.182C107.638 175.556 107.358 174.95 107.057 174.366L107.946 173.908ZM109.533 177.762C109.739 178.413 109.923 179.083 110.083 179.771L109.109 179.997C108.955 179.335 108.778 178.691 108.58 178.064L109.533 177.762ZM110.476 181.815C110.579 182.489 110.659 183.178 110.716 183.883L109.719 183.962C109.664 183.282 109.587 182.617 109.487 181.967L110.476 181.815ZM110.81 185.962C110.819 186.645 110.804 187.34 110.767 188.047L109.769 187.994C109.805 187.308 109.818 186.635 109.811 185.974L110.81 185.962ZM110.597 190.104C110.521 190.776 110.425 191.458 110.307 192.15L109.321 191.983C109.436 191.309 109.529 190.645 109.603 189.992L110.597 190.104ZM109.906 194.184C109.757 194.849 109.588 195.523 109.4 196.206L108.436 195.939C108.62 195.273 108.785 194.614 108.93 193.965L109.906 194.184ZM108.809 198.168C108.701 198.499 108.589 198.831 108.472 199.165L107.528 198.835C107.643 198.507 107.753 198.182 107.858 197.858L108.809 198.168ZM108.472 199.165C108.362 199.479 108.248 199.792 108.129 200.103L107.195 199.747C107.31 199.445 107.421 199.14 107.528 198.835L108.472 199.165ZM107.367 201.955C107.097 202.563 106.812 203.165 106.51 203.762L105.618 203.312C105.912 202.729 106.19 202.142 106.452 201.55L107.367 201.955ZM105.566 205.525C105.239 206.102 104.898 206.674 104.542 207.241L103.695 206.709C104.043 206.155 104.377 205.596 104.696 205.032L105.566 205.525ZM103.444 208.908C103.068 209.454 102.679 209.994 102.277 210.53L101.477 209.93C101.871 209.405 102.253 208.875 102.621 208.34L103.444 208.908ZM101.053 212.1C100.636 212.615 100.207 213.126 99.7662 213.632L99.0118 212.975C99.4446 212.478 99.8663 211.976 100.276 211.47L101.053 212.1ZM98.4392 215.107C97.9868 215.594 97.5242 216.076 97.0518 216.554L96.3407 215.851C96.8061 215.38 97.2616 214.905 97.7067 214.426L98.4392 215.107ZM95.6411 217.94C95.1618 218.397 94.6736 218.851 94.1769 219.3L93.5061 218.559C93.9963 218.115 94.4779 217.668 94.9504 217.216L95.6411 217.94ZM92.6906 220.611C92.1898 221.041 91.6813 221.468 91.1654 221.89L90.5317 221.117C91.0416 220.699 91.5441 220.278 92.0387 219.852L92.6906 220.611ZM89.6132 223.133C89.0948 223.539 88.5697 223.94 88.0383 224.339L87.4387 223.538C87.9646 223.144 88.4842 222.747 88.997 222.345L89.6132 223.133ZM86.4299 225.519C85.8967 225.902 85.3578 226.281 84.8135 226.657L84.2452 225.834C84.7845 225.462 85.3183 225.086 85.8463 224.707L86.4299 225.519ZM83.1647 227.774C82.6167 228.139 82.0636 228.5 81.506 228.857L80.9664 228.015C81.5194 227.661 82.0678 227.303 82.6111 226.942L83.1647 227.774ZM79.8267 229.915C79.2648 230.262 78.6986 230.606 78.1285 230.947L77.6153 230.089C78.1811 229.751 78.743 229.409 79.3005 229.064L79.8267 229.915ZM76.4223 231.951C75.8499 232.282 75.274 232.61 74.6948 232.935L74.2059 232.063C74.7811 231.74 75.3531 231.415 75.9214 231.086L76.4223 231.951ZM72.9614 233.892C72.3814 234.207 71.7986 234.519 71.2132 234.828L70.7466 233.943C71.3284 233.637 71.9076 233.326 72.4838 233.013L72.9614 233.892ZM69.4527 235.743C68.8655 236.044 68.276 236.342 67.6846 236.636L67.2388 235.741C67.8269 235.448 68.4129 235.152 68.9967 234.853L69.4527 235.743ZM65.9046 237.51C65.3101 237.798 64.7138 238.083 64.1162 238.365L63.6898 237.461C64.2843 237.18 64.8773 236.897 65.4687 236.61L65.9046 237.51ZM62.3198 239.201C61.7192 239.477 61.1174 239.749 60.5149 240.019L60.1065 239.106C60.7062 238.838 61.305 238.566 61.9026 238.292L62.3198 239.201ZM58.7013 240.82C58.0961 241.084 57.4905 241.344 56.8846 241.602L56.4932 240.682C57.0963 240.425 57.6992 240.166 58.3015 239.903L58.7013 240.82ZM55.0546 242.371C54.4438 242.624 53.8332 242.875 53.2229 243.122L52.8474 242.195C53.4552 241.949 54.0632 241.7 54.6713 241.447L55.0546 242.371ZM51.385 243.858C50.768 244.102 50.1518 244.342 49.5366 244.58L49.1762 243.647C49.789 243.411 50.4028 243.171 51.0172 242.928L51.385 243.858ZM47.6942 245.283C47.0713 245.519 46.4497 245.75 45.8299 245.979L45.4839 245.041C46.1014 244.813 46.7206 244.582 47.3412 244.348L47.6942 245.283ZM43.9731 246.656C43.3486 246.881 42.7262 247.103 42.1063 247.321L41.774 246.378C42.3918 246.16 43.0119 245.939 43.634 245.715L43.9731 246.656ZM40.2333 247.973C39.6087 248.188 38.9869 248.4 38.3683 248.608L38.0492 247.661C38.6656 247.453 39.2852 247.242 39.9077 247.028L40.2333 247.973ZM36.4775 249.238C35.8509 249.444 35.2281 249.647 34.6094 249.846L34.303 248.894C34.9196 248.696 35.5404 248.494 36.1649 248.288L36.4775 249.238ZM32.7073 250.451C32.0754 250.65 31.4485 250.845 30.8268 251.036L30.5328 250.081C31.1524 249.89 31.7774 249.696 32.4072 249.497L32.7073 250.451ZM28.9232 251.615C28.286 251.807 27.6552 251.994 27.0312 252.178L26.7493 251.218C27.3713 251.036 28.0001 250.849 28.6352 250.658L28.9232 251.615ZM25.1244 252.732C24.4826 252.916 23.8489 253.095 23.224 253.271L22.9541 252.308C23.5771 252.133 24.2088 251.954 24.8485 251.77L25.1244 252.732ZM21.3097 253.801C20.6649 253.977 20.0307 254.148 19.4076 254.314L19.1498 253.348C19.7709 253.183 20.4032 253.012 21.0459 252.836L21.3097 253.801ZM17.4789 254.822C16.8348 254.99 16.2045 255.151 15.5888 255.307L15.3435 254.338C15.9571 254.183 16.5853 254.021 17.2273 253.855L17.4789 254.822ZM13.6375 255.794C12.9784 255.956 12.3393 256.111 11.7212 256.258L11.4892 255.286C12.1051 255.139 12.742 254.985 13.3987 254.823L13.6375 255.794ZM9.81029 256.707C9.12532 256.865 8.47253 257.012 7.85403 257.15L7.63737 256.173C8.25314 256.037 8.90323 255.89 9.58551 255.732L9.81029 256.707ZM5.90936 257.572C5.1955 257.723 4.54584 257.856 3.96539 257.972L3.77025 256.991C4.34637 256.876 4.99197 256.744 5.70207 256.593L5.90936 257.572ZM2.04808 258.335C1.64043 258.407 1.31223 258.46 1.07065 258.495L0.92923 257.505C1.15561 257.473 1.47188 257.421 1.87395 257.35L2.04808 258.335Z" fill="black"/>
</svg>
