<svg width="9" height="8" viewBox="0 0 9 8" fill="none" xmlns="http://www.w3.org/2000/svg">
<path d="M0.710232 4.88816C0.527746 4.88824 0.352291 4.95418 0.220222 5.07231C0.088151 5.19045 0.00959206 5.35172 0.000822067 5.5227C-0.00794697 5.69369 0.0537443 5.86129 0.173115 5.99077C0.292484 6.12025 0.460382 6.20168 0.642016 6.2182L0.710232 6.22131H6.57443L5.89227 6.86123C5.76305 6.98201 5.6883 7.14477 5.68348 7.31582C5.67867 7.48688 5.74416 7.65312 5.8664 7.78012C5.98864 7.90713 6.15827 7.98517 6.34015 7.9981C6.52204 8.01102 6.70226 7.95783 6.8435 7.84954L6.8975 7.80377L8.71138 6.10177C9.17279 5.66894 8.87245 4.93882 8.24192 4.89082L8.1756 4.88816H0.710232ZM3.10726 0.195447C2.98297 0.0787495 2.81697 0.00943039 2.64135 0.000893778C2.46574 -0.00764284 2.29298 0.0452095 2.1565 0.149231L2.1025 0.195002L0.28862 1.897C-0.172785 2.32983 0.127554 3.05996 0.758078 3.10795L0.824398 3.11062H8.28977C8.47225 3.11053 8.64771 3.04459 8.77978 2.92646C8.91185 2.80833 8.99041 2.64706 8.99918 2.47607C9.00795 2.30508 8.94626 2.13749 8.82689 2.00801C8.70752 1.87853 8.53962 1.79709 8.35799 1.78057L8.28977 1.77746H2.42558L3.10773 1.13754C3.2408 1.01256 3.31555 0.843139 3.31555 0.666495C3.31555 0.489851 3.24033 0.32043 3.10726 0.195447Z" fill="black"/>
</svg>
