<svg width="14" height="8" viewBox="0 0 14 8" fill="none" xmlns="http://www.w3.org/2000/svg">
<path id="Vector" d="M6.17135 7.6625L0.342824 1.95767C0.234136 1.85129 0.147919 1.72499 0.0890974 1.586C0.0302755 1.447 -5.67387e-08 1.29803 -5.01624e-08 1.14758C-3.68811e-08 0.843741 0.123318 0.552344 0.342824 0.337496C0.451513 0.231114 0.580545 0.146726 0.722554 0.0891529C0.864563 0.0315794 1.01677 0.00194732 1.17048 0.00194733C1.48091 0.00194734 1.77862 0.122648 1.99813 0.337496L6.99901 5.24365L11.9999 0.337496C12.1083 0.230555 12.2372 0.145674 12.3792 0.0877481C12.5213 0.0298228 12.6736 5.53983e-07 12.8275 5.60709e-07C12.9814 5.67436e-07 13.1338 0.0298228 13.2758 0.0877482C13.4179 0.145674 13.5468 0.230555 13.6552 0.337496C13.7644 0.443564 13.8512 0.569756 13.9103 0.708793C13.9695 0.84783 14 0.996962 14 1.14758C14 1.2982 13.9695 1.44734 13.9103 1.58637C13.8512 1.72541 13.7644 1.8516 13.6552 1.95767L7.82666 7.6625C7.71829 7.76944 7.58936 7.85433 7.44731 7.91225C7.30526 7.97018 7.15289 8 6.999 8C6.84512 8 6.69275 7.97018 6.5507 7.91225C6.40865 7.85433 6.27972 7.76944 6.17135 7.6625Z" fill="black"/>
</svg>
