<svg width="18" height="19" viewBox="0 0 18 19" fill="none" xmlns="http://www.w3.org/2000/svg">
<path d="M6.30257 19.0011C5.47639 18.9972 4.65925 18.8289 3.89871 18.5061C3.13818 18.1834 2.44943 17.7126 1.87257 17.1211C1.30003 16.5785 0.840122 15.9283 0.51915 15.2077C0.198178 14.4871 0.0224476 13.7103 0.00201353 12.9218C-0.0184205 12.1332 0.116844 11.3483 0.400065 10.6121C0.683287 9.87586 1.10891 9.2027 1.65257 8.63113L9.01257 1.20113C9.40561 0.808809 9.87408 0.500208 10.3897 0.293961C10.9053 0.0877138 11.4574 -0.0119005 12.0126 0.00113201C12.6073 0.00315715 13.1956 0.123571 13.7433 0.355351C14.291 0.587131 14.7871 0.925639 15.2026 1.35113C16.0296 2.14737 16.5091 3.23765 16.5372 4.38531C16.5653 5.53297 16.1396 6.6454 15.3526 7.48113L7.95257 14.9111C7.71555 15.1498 7.4335 15.3389 7.12279 15.4677C6.81208 15.5964 6.4789 15.6622 6.14257 15.6611C5.77924 15.6616 5.41951 15.5893 5.08459 15.4485C4.74967 15.3076 4.44636 15.1011 4.19257 14.8411C3.6853 14.35 3.39234 13.6785 3.37736 12.9726C3.36238 12.2667 3.62659 11.5834 4.11257 11.0711L10.9426 4.21113C11.137 4.08204 11.3704 4.02498 11.6024 4.04985C11.8344 4.07471 12.0504 4.17994 12.213 4.34729C12.3756 4.51465 12.4746 4.7336 12.4928 4.96624C12.511 5.19888 12.4472 5.43054 12.3126 5.62113L5.48257 12.4811C5.36868 12.6183 5.31324 12.7948 5.32821 12.9725C5.34317 13.1502 5.42733 13.3149 5.56257 13.4311C5.70328 13.5728 5.89297 13.6551 6.09257 13.6611C6.1665 13.6622 6.23992 13.6486 6.30857 13.6211C6.37722 13.5937 6.43976 13.5529 6.49257 13.5011L13.8826 6.07113C14.2974 5.61031 14.5142 5.00476 14.4861 4.38538C14.458 3.766 14.1874 3.18254 13.7326 2.76113C13.3102 2.32257 12.7357 2.06259 12.1275 2.03469C11.5192 2.00679 10.9234 2.21309 10.4626 2.61113L3.07257 10.0011C2.71321 10.3871 2.43373 10.8403 2.2502 11.3347C2.06666 11.8291 1.9827 12.3549 2.00315 12.8819C2.0236 13.4089 2.14805 13.9266 2.36934 14.4053C2.59063 14.884 2.90439 15.3142 3.29257 15.6711C3.68185 16.0747 4.14764 16.3966 4.66273 16.6181C5.17783 16.8396 5.73189 16.9562 6.29257 16.9611C6.77599 16.9651 7.25542 16.8734 7.70332 16.6915C8.15123 16.5096 8.55878 16.241 8.90257 15.9011L16.2926 8.47113C16.3852 8.37789 16.4952 8.3038 16.6164 8.25309C16.7376 8.20238 16.8676 8.17604 16.999 8.17558C17.1304 8.17511 17.2606 8.20053 17.3822 8.25039C17.5038 8.30024 17.6143 8.37355 17.7076 8.46613C17.8008 8.55871 17.8749 8.66875 17.9256 8.78997C17.9763 8.91119 18.0027 9.0412 18.0031 9.1726C18.0036 9.30399 17.9782 9.43419 17.9283 9.55576C17.8785 9.67733 17.8052 9.78789 17.7126 9.88113L10.3226 17.3111C9.79788 17.8451 9.1723 18.2695 8.48219 18.5596C7.79207 18.8497 7.05118 18.9998 6.30257 19.0011Z" fill="#787878"/>
</svg>
