<svg width="25" height="25" viewBox="0 0 25 25" fill="none" xmlns="http://www.w3.org/2000/svg">
<path d="M8.25007 0.672093C5.77151 1.53193 3.634 3.16392 2.15151 5.32836C0.669027 7.49281 -0.0802999 10.0756 0.0135986 12.6974C0.107497 15.3192 1.03967 17.8418 2.6732 19.8946C4.30673 21.9474 6.55551 23.4223 9.08923 24.1027C11.1434 24.6327 13.2955 24.656 15.3606 24.1705C17.2314 23.7503 18.961 22.8514 20.3801 21.5619C21.857 20.1789 22.929 18.4194 23.4809 16.4727C24.0806 14.3557 24.1873 12.1295 23.7929 9.96486H12.2579V14.7498H18.9382C18.8047 15.513 18.5186 16.2414 18.097 16.8914C17.6754 17.5414 17.1271 18.0997 16.4847 18.5328C15.669 19.0726 14.7494 19.4357 13.785 19.5987C12.8179 19.7786 11.8258 19.7786 10.8586 19.5987C9.87829 19.3963 8.95093 18.9917 8.13572 18.4107C6.82592 17.4835 5.84243 16.1664 5.32561 14.6471C4.80019 13.0994 4.80019 11.4215 5.32561 9.87377C5.69349 8.78891 6.30165 7.80114 7.1047 6.9842C8.02369 6.03214 9.18716 5.35161 10.4675 5.01726C11.7478 4.68292 13.0954 4.70767 14.3626 5.08882C15.3525 5.39255 16.2577 5.92348 17.006 6.63923C17.7592 5.88987 18.5112 5.13857 19.2619 4.38532C19.6495 3.98028 20.0719 3.59461 20.4537 3.17988C19.3113 2.11692 17.9705 1.28975 16.5079 0.745737C13.8445 -0.22135 10.9303 -0.24734 8.25007 0.672093Z" fill="white"/>
<path d="M8.25017 0.672058C10.9302 -0.248 13.8444 -0.222694 16.508 0.743765C17.9708 1.29147 19.3111 2.12262 20.4519 3.18954C20.0643 3.60427 19.6554 3.99187 19.26 4.39498C18.5081 5.14564 17.7568 5.89371 17.0061 6.6392C16.2578 5.92345 15.3526 5.39252 14.3627 5.08879C13.0959 4.7063 11.7483 4.68011 10.4677 5.01309C9.18705 5.34607 8.02287 6.02535 7.10287 6.97641C6.29982 7.79335 5.69166 8.78112 5.32377 9.86599L1.30627 6.75548C2.7443 3.90381 5.23414 1.72251 8.25017 0.672058Z" fill="#E33629"/>
<path d="M0.240308 9.83681C0.456085 8.76658 0.814591 7.73018 1.30621 6.75537L5.32371 9.87363C4.7983 11.4214 4.7983 13.0992 5.32371 14.647C3.98519 15.6806 2.64603 16.7193 1.30621 17.7633C0.0758689 15.3142 -0.299365 12.5239 0.240308 9.83681Z" fill="#F8BD00"/>
<path d="M12.2579 9.96289H23.793C24.1874 12.1275 24.0806 14.3538 23.481 16.4707C22.9291 18.4174 21.8571 20.1769 20.3802 21.56C19.0836 20.5483 17.7813 19.5444 16.4847 18.5328C17.1275 18.0992 17.6762 17.5403 18.0978 16.8896C18.5194 16.2389 18.8052 15.5098 18.9383 14.7459H12.2579C12.256 13.1529 12.2579 11.5579 12.2579 9.96289Z" fill="#587DBD"/>
<path d="M1.30432 17.7633C2.64413 16.7297 3.9833 15.6909 5.32182 14.647C5.83967 16.1668 6.82456 17.484 8.13581 18.4106C8.95356 18.9888 9.88292 19.3901 10.8645 19.5889C11.8317 19.7688 12.8238 19.7688 13.7909 19.5889C14.7553 19.4259 15.6749 19.0628 16.4906 18.523C17.7871 19.5346 19.0895 20.5385 20.386 21.5502C18.9672 22.8404 17.2375 23.7399 15.3665 24.1607C13.3014 24.6462 11.1493 24.6229 9.09513 24.0928C7.4705 23.6591 5.95298 22.8944 4.6377 21.8467C3.24568 20.7413 2.10866 19.3484 1.30432 17.7633Z" fill="#319F43"/>
</svg>
