<svg width="172" height="50" viewBox="0 0 172 50" fill="none" xmlns="http://www.w3.org/2000/svg">
<g id="Group 215">
<g id="Group 210">
<g id="killas">
<path d="M53.703 32.0743L53.7212 22.7908H54.8476L63.7859 12.1992H72.6697L60.6611 26.2244H58.8262L53.703 32.0743ZM46.6904 40.1043V2.89755H54.4297V40.1043H46.6904ZM64.1311 40.1043L55.9194 27.9503L61.079 22.482L73.1966 40.1043H64.1311Z" fill="black"/>
<path d="M76.4667 40.1043V12.1992H84.206V40.1043H76.4667ZM80.3545 8.6021C79.2039 8.6021 78.2168 8.22059 77.3932 7.45756C76.5818 6.68242 76.176 5.75588 76.176 4.67795C76.176 3.61213 76.5818 2.69771 77.3932 1.93469C78.2168 1.15954 79.2039 0.771973 80.3545 0.771973C81.5051 0.771973 82.4862 1.15954 83.2976 1.93469C84.1212 2.69771 84.533 3.61213 84.533 4.67795C84.533 5.75588 84.1212 6.68242 83.2976 7.45756C82.4862 8.22059 81.5051 8.6021 80.3545 8.6021Z" fill="black"/>
<path d="M98.1449 2.89755V40.1043H90.4056V2.89755H98.1449Z" fill="black"/>
<path d="M112.084 2.89755V40.1043H104.345V2.89755H112.084Z" fill="black"/>
<path d="M126.241 40.6311C124.46 40.6311 122.874 40.3223 121.481 39.7046C120.088 39.0748 118.986 38.1483 118.174 36.925C117.375 35.6896 116.975 34.1514 116.975 32.3105C116.975 30.7602 117.26 29.4582 117.829 28.4045C118.398 27.3508 119.174 26.503 120.155 25.8611C121.136 25.2192 122.25 24.7347 123.497 24.4077C124.757 24.0807 126.077 23.8506 127.458 23.7173C129.081 23.5478 130.389 23.3903 131.382 23.245C132.375 23.0875 133.096 22.8574 133.544 22.5546C133.992 22.2518 134.216 21.8037 134.216 21.2102V21.1012C134.216 19.9506 133.853 19.0604 133.126 18.4306C132.412 17.8008 131.394 17.4859 130.074 17.4859C128.681 17.4859 127.573 17.7948 126.749 18.4125C125.926 19.018 125.381 19.7811 125.114 20.7016L117.956 20.1202C118.32 18.4246 119.034 16.9591 120.1 15.7237C121.166 14.4762 122.541 13.5194 124.224 12.8533C125.92 12.175 127.882 11.8359 130.11 11.8359C131.661 11.8359 133.144 12.0176 134.561 12.3809C135.991 12.7443 137.256 13.3074 138.358 14.0705C139.473 14.8335 140.351 15.8145 140.993 17.0136C141.634 18.2005 141.955 19.6236 141.955 21.2829V40.1043H134.616V36.2346H134.398C133.95 37.1067 133.35 37.8758 132.599 38.5419C131.848 39.1959 130.946 39.7107 129.892 40.0861C128.839 40.4495 127.621 40.6311 126.241 40.6311ZM128.457 35.2899C129.596 35.2899 130.601 35.0659 131.473 34.6177C132.345 34.1575 133.029 33.5398 133.526 32.7647C134.022 31.9895 134.271 31.1114 134.271 30.1304V27.1691C134.028 27.3266 133.695 27.4719 133.271 27.6052C132.86 27.7263 132.393 27.8413 131.873 27.9503C131.352 28.0472 130.831 28.1381 130.31 28.2228C129.789 28.2955 129.317 28.3621 128.893 28.4227C127.985 28.5559 127.191 28.7679 126.513 29.0585C125.835 29.3492 125.308 29.7428 124.933 30.2394C124.557 30.7239 124.369 31.3295 124.369 32.0562C124.369 33.1099 124.751 33.9153 125.514 34.4724C126.289 35.0174 127.27 35.2899 128.457 35.2899Z" fill="black"/>
<path d="M171.178 20.1565L164.092 20.5926C163.971 19.987 163.711 19.442 163.311 18.9575C162.911 18.4609 162.385 18.0673 161.731 17.7766C161.089 17.4738 160.32 17.3224 159.423 17.3224C158.224 17.3224 157.213 17.5768 156.389 18.0855C155.566 18.582 155.154 19.2482 155.154 20.0839C155.154 20.75 155.42 21.3132 155.953 21.7734C156.486 22.2337 157.401 22.6031 158.697 22.8816L163.747 23.899C166.46 24.4561 168.483 25.3524 169.815 26.5878C171.147 27.8232 171.813 29.4461 171.813 31.4566C171.813 33.2855 171.275 34.8903 170.197 36.271C169.131 37.6517 167.665 38.7296 165.8 39.5048C163.947 40.2678 161.809 40.6493 159.387 40.6493C155.693 40.6493 152.75 39.8802 150.558 38.3421C148.378 36.7918 147.1 34.6844 146.724 32.0198L154.337 31.6201C154.567 32.7465 155.124 33.6064 156.008 34.1999C156.892 34.7812 158.024 35.0719 159.405 35.0719C160.762 35.0719 161.852 34.8115 162.675 34.2907C163.511 33.7578 163.935 33.0735 163.947 32.2378C163.935 31.5354 163.638 30.9601 163.057 30.5119C162.475 30.0517 161.579 29.7004 160.368 29.4582L155.536 28.4953C152.81 27.9503 150.782 27.0056 149.449 25.6612C148.129 24.3169 147.469 22.6031 147.469 20.5199C147.469 18.7274 147.954 17.1831 148.923 15.8872C149.904 14.5913 151.278 13.5921 153.047 12.8896C154.827 12.1871 156.91 11.8359 159.296 11.8359C162.821 11.8359 165.594 12.5808 167.617 14.0705C169.652 15.5602 170.839 17.5889 171.178 20.1565Z" fill="black"/>
</g>
<path id="Vector" d="M43.6047 0C36.8462 5.31023 31.3767 9.26635 27.5871 11.9166C22.7307 15.3104 19.7352 17.2027 19.2911 20.6061C18.8083 24.2267 21.5335 27.2149 19.7738 29.7059C19.4181 30.1974 18.9577 30.6038 18.426 30.896C17.8942 31.1881 17.3043 31.3588 16.6987 31.3955C12.6654 31.5283 7.10895 24.2388 8.13479 17.3476C8.9965 11.5691 14.1426 8.38292 16.5515 7.19053C17.2105 6.86651 17.9013 6.61171 18.6128 6.43021L43.6047 0Z" fill="#002D38"/>
<path id="Vector_2" d="M0 49.2693C6.75848 43.9591 12.2256 40.003 16.0176 37.3551C20.874 33.9589 23.8695 32.0666 24.3136 28.6656C24.7964 25.045 22.0712 22.0568 23.8309 19.5658C24.1866 19.0743 24.647 18.6679 25.1787 18.3757C25.7105 18.0836 26.3004 17.913 26.906 17.8762C30.9369 17.7434 36.4958 25.0329 35.4675 31.9266C34.3645 39.344 26.1915 42.4915 25.8126 42.6267L0 49.2693Z" fill="#002D38"/>
</g>
</g>
</svg>
