<svg width="427" height="123" viewBox="0 0 427 123" fill="none" xmlns="http://www.w3.org/2000/svg">
<path d="M133.211 79.5612L133.256 56.5332H136.05L158.222 30.2606H180.258L150.471 65.0504H145.919L133.211 79.5612ZM115.816 99.4797V7.18759H135.014V99.4797H115.816ZM159.078 99.4797L138.709 69.3315L151.507 55.7671L181.565 99.4797H159.078Z" fill="white"/>
<path d="M189.677 99.4797V30.2606H208.874V99.4797H189.677ZM199.321 21.3378C196.467 21.3378 194.018 20.3915 191.975 18.4988C189.962 16.576 188.956 14.2777 188.956 11.6039C188.956 8.96012 189.962 6.69188 191.975 4.79917C194.018 2.87642 196.467 1.91504 199.321 1.91504C202.175 1.91504 204.608 2.87642 206.621 4.79917C208.664 6.69188 209.686 8.96012 209.686 11.6039C209.686 14.2777 208.664 16.576 206.621 18.4988C204.608 20.3915 202.175 21.3378 199.321 21.3378Z" fill="white"/>
<path d="M243.45 7.18759V99.4797H224.253V7.18759H243.45Z" fill="white"/>
<path d="M278.026 7.18759V99.4797H258.828V7.18759H278.026Z" fill="white"/>
<path d="M313.142 100.787C308.726 100.787 304.79 100.02 301.335 98.4883C297.881 96.926 295.147 94.6277 293.134 91.5934C291.151 88.529 290.159 84.7135 290.159 80.147C290.159 76.3015 290.865 73.0719 292.278 70.4581C293.69 67.8444 295.612 65.7414 298.046 64.1491C300.479 62.5568 303.243 61.3551 306.338 60.5439C309.462 59.7328 312.737 59.162 316.162 58.8315C320.187 58.4109 323.432 58.0203 325.896 57.6598C328.359 57.2693 330.147 56.6984 331.258 55.9474C332.37 55.1963 332.926 54.0847 332.926 52.6126V52.3422C332.926 49.4881 332.024 47.28 330.222 45.7177C328.449 44.1555 325.926 43.3744 322.651 43.3744C319.196 43.3744 316.447 44.1405 314.404 45.6727C312.361 47.1748 311.009 49.0675 310.348 51.3508L292.593 49.9087C293.494 45.7027 295.267 42.0675 297.911 39.0031C300.554 35.9087 303.964 33.5353 308.14 31.8829C312.346 30.2005 317.213 29.3593 322.741 29.3593C326.587 29.3593 330.267 29.81 333.782 30.7113C337.327 31.6125 340.466 33.0095 343.2 34.9022C345.964 36.795 348.142 39.2284 349.735 42.2027C351.327 45.1469 352.123 48.677 352.123 52.7929V99.4797H333.917V89.8809H333.376C332.265 92.044 330.778 93.9518 328.915 95.6041C327.052 97.2265 324.814 98.5033 322.2 99.4346C319.587 100.336 316.567 100.787 313.142 100.787ZM318.64 87.5376C321.464 87.5376 323.958 86.9818 326.121 85.8702C328.284 84.7286 329.981 83.1964 331.213 81.2736C332.445 79.3509 333.061 77.1728 333.061 74.7393V67.3938C332.46 67.7843 331.634 68.1448 330.582 68.4753C329.561 68.7757 328.404 69.0611 327.112 69.3315C325.821 69.5719 324.529 69.7972 323.237 70.0075C321.945 70.1878 320.773 70.353 319.722 70.5032C317.469 70.8337 315.501 71.3594 313.818 72.0805C312.136 72.8015 310.829 73.7779 309.898 75.0097C308.966 76.2114 308.501 77.7135 308.501 79.5161C308.501 82.1298 309.447 84.1277 311.34 85.5097C313.263 86.8616 315.696 87.5376 318.64 87.5376Z" fill="white"/>
<path d="M424.609 49.9989L407.034 51.0804C406.734 49.5783 406.088 48.2263 405.096 47.0246C404.105 45.7928 402.798 44.8164 401.176 44.0954C399.584 43.3443 397.676 42.9688 395.453 42.9688C392.478 42.9688 389.97 43.5997 387.927 44.8615C385.884 46.0933 384.863 47.7456 384.863 49.8186C384.863 51.471 385.523 52.868 386.845 54.0096C388.167 55.1512 390.436 56.0675 393.65 56.7585L406.178 59.2821C412.908 60.6641 417.925 62.8873 421.23 65.9517C424.534 69.0161 426.187 73.0418 426.187 78.029C426.187 82.5655 424.85 86.5462 422.176 89.9711C419.532 93.396 415.897 96.0698 411.27 97.9925C406.674 99.8853 401.371 100.832 395.363 100.832C386.199 100.832 378.899 98.9239 373.461 95.1084C368.053 91.2629 364.884 86.0354 363.953 79.426L382.835 78.4345C383.405 81.2285 384.787 83.3616 386.981 84.8337C389.174 86.2758 391.983 86.9968 395.408 86.9968C398.772 86.9968 401.476 86.3509 403.519 85.059C405.592 83.7371 406.644 82.0397 406.674 79.9667C406.644 78.2243 405.908 76.7972 404.466 75.6856C403.024 74.544 400.8 73.6727 397.796 73.0719L385.809 70.6835C379.049 69.3315 374.017 66.9882 370.712 63.6534C367.438 60.3186 365.8 56.0675 365.8 50.9001C365.8 46.4538 367.002 42.6233 369.405 39.4087C371.839 36.1941 375.249 33.7156 379.635 31.9731C384.051 30.2306 389.219 29.3593 395.137 29.3593C403.88 29.3593 410.76 31.207 415.777 34.9022C420.824 38.5975 423.768 43.6297 424.609 49.9989Z" fill="white"/>
<path d="M108.161 0C91.3967 13.1721 77.8294 22.9854 68.4292 29.5595C56.3827 37.9777 48.9524 42.6717 47.8508 51.1139C46.6533 60.0949 53.413 67.5072 49.0482 73.6862C48.1657 74.9052 47.0238 75.9134 45.7048 76.6381C44.3858 77.3629 42.9226 77.7861 41.4204 77.8773C31.4155 78.2066 17.6327 60.1248 20.1773 43.031C22.3148 28.6973 35.0798 20.794 41.0551 17.8363C42.6898 17.0325 44.4033 16.4005 46.1683 15.9503L108.161 0Z" fill="white"/>
<path d="M0 122.214C16.7645 109.041 30.3259 99.2282 39.732 92.6601C51.7785 84.236 59.2088 79.5419 60.3104 71.1057C61.5079 62.1247 54.7482 54.7124 59.113 48.5335C59.9955 47.3144 61.1374 46.3062 62.4564 45.5814C63.7754 44.8567 65.2386 44.4335 66.7408 44.3423C76.7397 44.013 90.5286 62.0948 87.978 79.1946C85.2418 97.5937 64.9686 105.401 64.0286 105.736L0 122.214Z" fill="white"/>
</svg>
