<svg width="43" height="32" viewBox="0 0 43 32" fill="none" xmlns="http://www.w3.org/2000/svg">
<path d="M6.66667 0C4.89856 0 3.20286 0.702379 1.95262 1.95262C0.702379 3.20286 0 4.89856 0 6.66667V8H42.6596V6.66667C42.6596 4.89856 41.9572 3.20286 40.7069 1.95262C39.4567 0.702379 37.761 0 35.9929 0H6.66667ZM0 25.3333V10.6667H42.6596V25.3333C42.6596 27.1014 41.9572 28.7971 40.7069 30.0474C39.4567 31.2976 37.761 32 35.9929 32H6.66844C4.90033 32 3.20464 31.2976 1.9544 30.0474C0.704157 28.7971 0.00177807 27.1014 0.00177807 25.3333H0ZM28.8818 20.4444C28.5282 20.4444 28.189 20.5849 27.939 20.835C27.6889 21.085 27.5484 21.4242 27.5484 21.7778C27.5484 22.1314 27.6889 22.4705 27.939 22.7206C28.189 22.9706 28.5282 23.1111 28.8818 23.1111H35.104C35.4576 23.1111 35.7968 22.9706 36.0468 22.7206C36.2969 22.4705 36.4373 22.1314 36.4373 21.7778C36.4373 21.4242 36.2969 21.085 36.0468 20.835C35.7968 20.5849 35.4576 20.4444 35.104 20.4444H28.8818Z" fill="#333333"/>
</svg>
