<svg width="20" height="20" viewBox="0 0 20 20" fill="none" xmlns="http://www.w3.org/2000/svg">
<circle cx="10" cy="10" r="10" fill="#62EFB4"/>
<path d="M14.4722 10.5C14.1849 10.5 13.9094 10.3859 13.7062 10.1827C13.503 9.97953 13.3889 9.70398 13.3889 9.41667C13.3889 9.12935 13.503 8.8538 13.7062 8.65063C13.9094 8.44747 14.1849 8.33333 14.4722 8.33333C14.7595 8.33333 15.0351 8.44747 15.2383 8.65063C15.4414 8.8538 15.5556 9.12935 15.5556 9.41667C15.5556 9.70398 15.4414 9.97953 15.2383 10.1827C15.0351 10.3859 14.7595 10.5 14.4722 10.5ZM12.3056 7.61111C12.0182 7.61111 11.7427 7.49697 11.5395 7.29381C11.3364 7.09065 11.2222 6.8151 11.2222 6.52778C11.2222 6.24046 11.3364 5.96491 11.5395 5.76175C11.7427 5.55858 12.0182 5.44444 12.3056 5.44444C12.5929 5.44444 12.8684 5.55858 13.0716 5.76175C13.2748 5.96491 13.3889 6.24046 13.3889 6.52778C13.3889 6.8151 13.2748 7.09065 13.0716 7.29381C12.8684 7.49697 12.5929 7.61111 12.3056 7.61111ZM8.69444 7.61111C8.40713 7.61111 8.13158 7.49697 7.92841 7.29381C7.72525 7.09065 7.61111 6.8151 7.61111 6.52778C7.61111 6.24046 7.72525 5.96491 7.92841 5.76175C8.13158 5.55858 8.40713 5.44444 8.69444 5.44444C8.98176 5.44444 9.25731 5.55858 9.46048 5.76175C9.66364 5.96491 9.77778 6.24046 9.77778 6.52778C9.77778 6.8151 9.66364 7.09065 9.46048 7.29381C9.25731 7.49697 8.98176 7.61111 8.69444 7.61111ZM6.52778 10.5C6.24046 10.5 5.96491 10.3859 5.76175 10.1827C5.55858 9.97953 5.44444 9.70398 5.44444 9.41667C5.44444 9.12935 5.55858 8.8538 5.76175 8.65063C5.96491 8.44747 6.24046 8.33333 6.52778 8.33333C6.8151 8.33333 7.09065 8.44747 7.29381 8.65063C7.49697 8.8538 7.61111 9.12935 7.61111 9.41667C7.61111 9.70398 7.49697 9.97953 7.29381 10.1827C7.09065 10.3859 6.8151 10.5 6.52778 10.5ZM10.5 4C8.77609 4 7.12279 4.68482 5.90381 5.90381C4.68482 7.12279 4 8.77609 4 10.5C4 12.2239 4.68482 13.8772 5.90381 15.0962C7.12279 16.3152 8.77609 17 10.5 17C10.7873 17 11.0629 16.8859 11.266 16.6827C11.4692 16.4795 11.5833 16.204 11.5833 15.9167C11.5833 15.635 11.475 15.3822 11.3017 15.1944C11.1356 14.9994 11.0272 14.7467 11.0272 14.4722C11.0272 14.1849 11.1414 13.9094 11.3445 13.7062C11.5477 13.503 11.8232 13.3889 12.1106 13.3889H13.3889C14.3466 13.3889 15.2651 13.0084 15.9423 12.3312C16.6195 11.654 17 10.7355 17 9.77778C17 6.58556 14.0894 4 10.5 4Z" fill="#002D38"/>
</svg>
