<svg width="20" height="20" viewBox="0 0 20 20" fill="none" xmlns="http://www.w3.org/2000/svg">
<circle cx="10" cy="10" r="10" fill="#62EFB4"/>
<path d="M15.6071 11.4286H15.2143V6.28571C15.2143 5.94472 15.0901 5.6177 14.8691 5.37658C14.6481 5.13546 14.3483 5 14.0357 5H6.96429C6.65171 5 6.35193 5.13546 6.13091 5.37658C5.90988 5.6177 5.78571 5.94472 5.78571 6.28571V11.4286H5.39286C5.28866 11.4286 5.18874 11.4737 5.11507 11.5541C5.04139 11.6345 5 11.7435 5 11.8571V12.7143C5 13.0553 5.12417 13.3823 5.3452 13.6234C5.56622 13.8645 5.86599 14 6.17857 14H14.8214C15.134 14 15.4338 13.8645 15.6548 13.6234C15.8758 13.3823 16 13.0553 16 12.7143V11.8571C16 11.7435 15.9586 11.6345 15.8849 11.5541C15.8113 11.4737 15.7113 11.4286 15.6071 11.4286ZM9.71429 6.28571H11.2857C11.3899 6.28571 11.4898 6.33087 11.5635 6.41124C11.6372 6.49161 11.6786 6.60062 11.6786 6.71429C11.6786 6.82795 11.6372 6.93696 11.5635 7.01733C11.4898 7.0977 11.3899 7.14286 11.2857 7.14286H9.71429C9.61009 7.14286 9.51017 7.0977 9.43649 7.01733C9.36282 6.93696 9.32143 6.82795 9.32143 6.71429C9.32143 6.60062 9.36282 6.49161 9.43649 6.41124C9.51017 6.33087 9.61009 6.28571 9.71429 6.28571ZM15.2143 12.7143C15.2143 12.828 15.1729 12.937 15.0992 13.0173C15.0255 13.0977 14.9256 13.1429 14.8214 13.1429H6.17857C6.07438 13.1429 5.97445 13.0977 5.90078 13.0173C5.8271 12.937 5.78571 12.828 5.78571 12.7143V12.2857H15.2143V12.7143Z" fill="#002D38"/>
</svg>
