<svg xmlns="http://www.w3.org/2000/svg" viewBox="0 0 750 500"><defs><style>.cls-1,.cls-11,.cls-6,.cls-9{isolation:isolate;}.cls-2{fill:#413f56;}.cls-3{fill:#99ebb2;}.cls-13,.cls-4{fill:#1c313a;}.cls-4{mix-blend-mode:multiply;}.cls-5{fill:#f1f1f1;}.cls-6{opacity:0.03;}.cls-7{fill:none;stroke:#413f56;stroke-miterlimit:10;stroke-width:2.13px;}.cls-8{fill:#7cb693;}.cls-9{opacity:0.1;}.cls-10{fill:#64637e;}.cls-11{opacity:0.2;}.cls-12{fill:#eabcbc;}</style></defs><title>Illustrations</title><g class="cls-1"><g id="Speech_Bubble" data-name="Speech Bubble"><path class="cls-2" d="M150.4,383.25a13.15,13.15,0,0,0,1.74-6.68c0-6-3.73-10.93-8.35-10.93s-8.34,4.89-8.34,10.93a13,13,0,0,0,1.74,6.68,13.69,13.69,0,0,0,0,13.36,13.69,13.69,0,0,0,0,13.36,13.69,13.69,0,0,0,0,13.36,13,13,0,0,0-1.74,6.68c0,6,3.73,10.93,8.34,10.93s8.35-4.89,8.35-10.93a13.11,13.11,0,0,0-1.74-6.67,13.71,13.71,0,0,0,0-13.37,13.69,13.69,0,0,0,0-13.36,13.69,13.69,0,0,0,0-13.36Z"/><ellipse class="cls-2" cx="143.77" cy="363.21" rx="8.35" ry="10.93"/><ellipse class="cls-2" cx="143.77" cy="349.85" rx="8.35" ry="10.93"/><path class="cls-3" d="M112.51,258.43a41.45,41.45,0,0,1-3.11-4.58l21.94-3.61-23.73.18a40.08,40.08,0,0,1-.76-31.69l31.83,16.51-29.36-21.58a40,40,0,1,1,66.06,44.75,40.48,40.48,0,0,1,4.56,7.29l-28.48,14.81,30.37-10.19a40,40,0,0,1-6.45,37.56,40,40,0,1,1-62.86,0,40,40,0,0,1,0-49.45Z"/><path class="cls-4" d="M184,283.16a39.85,39.85,0,0,1-8.55,24.72,40,40,0,1,1-62.87,0C107.15,301.08,184,278.67,184,283.16Z"/><path class="cls-2" d="M580.34,397.3a10,10,0,0,0,1.32-5.08c0-4.59-2.84-8.31-6.35-8.31s-6.35,3.73-6.35,8.31a9.94,9.94,0,0,0,1.33,5.08,10.4,10.4,0,0,0,0,10.17,10.38,10.38,0,0,0,0,10.16,10.38,10.38,0,0,0,0,10.16,10.07,10.07,0,0,0-1.33,5.08c0,4.59,2.85,8.32,6.35,8.32s6.35-3.73,6.35-8.32a10.06,10.06,0,0,0-1.32-5.08,10.44,10.44,0,0,0,0-10.16,10.44,10.44,0,0,0,0-10.16A10.45,10.45,0,0,0,580.34,397.3Z"/><ellipse class="cls-2" cx="575.31" cy="382.06" rx="6.35" ry="8.32"/><ellipse class="cls-2" cx="575.31" cy="371.9" rx="6.35" ry="8.32"/><path class="cls-3" d="M551.54,302.36a30.59,30.59,0,0,1-2.37-3.49l16.69-2.74-18.05.14a30.48,30.48,0,0,1-.58-24.11l24.21,12.56-22.33-16.41a30.42,30.42,0,0,1,52.64,30.52,30.08,30.08,0,0,1-2.39,3.54,30,30,0,0,1,3.47,5.54l-21.66,11.26,23.11-7.77A30.44,30.44,0,0,1,599.37,340a30.42,30.42,0,1,1-47.82,0,30.43,30.43,0,0,1,0-37.62Z"/><path class="cls-4" d="M605.87,321.17A30.29,30.29,0,0,1,599.36,340a30.42,30.42,0,1,1-47.82,0C547.46,334.8,605.87,317.75,605.87,321.17Z"/><path class="cls-5" d="M527.92,132.15H421.26V109.08a5.52,5.52,0,0,0-5.51-5.52H384.42V79a3.48,3.48,0,0,0-3.48-3.48H340.58A3.48,3.48,0,0,0,337.11,79v24.57H300.3a5.52,5.52,0,0,0-5.53,5.5v23.07H193.08a1.12,1.12,0,0,0-1.12,1.12V439.52a1.12,1.12,0,0,0,1.12,1.12h67.59a1.13,1.13,0,0,0,1.13-1.12V398.3a1.13,1.13,0,0,1,1.12-1.13h28.55a1.13,1.13,0,0,1,1.12,1.13v41.2a1.12,1.12,0,0,0,1.12,1.12H427.29a1.12,1.12,0,0,0,1.12-1.12V398.3a1.13,1.13,0,0,1,1.11-1.13h28.56a1.13,1.13,0,0,1,1.12,1.13v41.2a1.12,1.12,0,0,0,1.12,1.12h67.6A1.12,1.12,0,0,0,529,439.5V133.27A1.12,1.12,0,0,0,527.92,132.15ZM249.69,382.89a1.11,1.11,0,0,1-1.11,1.11H206.83a1.11,1.11,0,0,1-1.12-1.11h0V368.63a1.11,1.11,0,0,1,1.11-1.13h41.76a1.12,1.12,0,0,1,1.11,1.13Zm0-36.85a1.12,1.12,0,0,1-1.11,1.12H206.83a1.12,1.12,0,0,1-1.12-1.12h0V331.79a1.12,1.12,0,0,1,1.11-1.13h41.76a1.12,1.12,0,0,1,1.11,1.13h0Zm0-36.84a1.11,1.11,0,0,1-1.11,1.12H206.83a1.12,1.12,0,0,1-1.12-1.12V295a1.1,1.1,0,0,1,1.11-1.12h41.76a1.11,1.11,0,0,1,1.11,1.12Zm0-36.85a1.1,1.1,0,0,1-1.1,1.12H206.83a1.11,1.11,0,0,1-1.12-1.11h0V258.1a1.1,1.1,0,0,1,1.1-1.12h41.77a1.11,1.11,0,0,1,1.11,1.11h0Zm0-36.84a1.11,1.11,0,0,1-1.11,1.12H206.83a1.12,1.12,0,0,1-1.12-1.12h0V221.25a1.1,1.1,0,0,1,1.11-1.11h41.76a1.11,1.11,0,0,1,1.11,1.11Zm0-36.84a1.12,1.12,0,0,1-1.11,1.12H206.83a1.12,1.12,0,0,1-1.12-1.11h0V184.41a1.12,1.12,0,0,1,1.12-1.12h41.75a1.11,1.11,0,0,1,1.11,1.12Zm0-36.85a1.12,1.12,0,0,1-1.11,1.13H206.83a1.12,1.12,0,0,1-1.12-1.12h0V147.57a1.11,1.11,0,0,1,1.11-1.12h41.76a1.11,1.11,0,0,1,1.11,1.12h0Zm99,221.08a1.12,1.12,0,0,1-1.11,1.12H305.8a1.13,1.13,0,0,1-1.12-1.12V368.63a1.13,1.13,0,0,1,1.12-1.13h41.75a1.12,1.12,0,0,1,1.12,1.12h0Zm0-36.85a1.11,1.11,0,0,1-1.11,1.13H305.8a1.13,1.13,0,0,1-1.12-1.13V331.79a1.13,1.13,0,0,1,1.12-1.13h41.75a1.12,1.12,0,0,1,1.12,1.12h0Zm0-36.83a1.12,1.12,0,0,1-1.12,1.12H305.8a1.12,1.12,0,0,1-1.12-1.12V295a1.12,1.12,0,0,1,1.12-1.12h41.75a1.12,1.12,0,0,1,1.12,1.11h0Zm0-36.85a1.12,1.12,0,0,1-1.11,1.12H305.8a1.12,1.12,0,0,1-1.12-1.12h0V258.1A1.12,1.12,0,0,1,305.8,257h41.75a1.11,1.11,0,0,1,1.12,1.11h0Zm0-36.84a1.11,1.11,0,0,1-1.11,1.12H305.8a1.12,1.12,0,0,1-1.12-1.12V221.25a1.12,1.12,0,0,1,1.12-1.11h41.75a1.1,1.1,0,0,1,1.12,1.1h0Zm0-36.84a1.11,1.11,0,0,1-1.11,1.11H305.8a1.13,1.13,0,0,1-1.12-1.11V184.41a1.12,1.12,0,0,1,1.12-1.12h41.75a1.12,1.12,0,0,1,1.12,1.12Zm0-36.85a1.1,1.1,0,0,1-1.11,1.12H305.8a1.12,1.12,0,0,1-1.12-1.12V147.57a1.12,1.12,0,0,1,1.12-1.12h41.75a1.12,1.12,0,0,1,1.12,1.12h0Zm67.66,221.08A1.12,1.12,0,0,1,415.2,384H373.44a1.12,1.12,0,0,1-1.12-1.11V368.63a1.13,1.13,0,0,1,1.12-1.13h41.75a1.12,1.12,0,0,1,1.12,1.13Zm0-36.85a1.12,1.12,0,0,1-1.12,1.12H373.44a1.12,1.12,0,0,1-1.12-1.12V331.79a1.13,1.13,0,0,1,1.12-1.13h41.75a1.12,1.12,0,0,1,1.12,1.12h0Zm0-36.84a1.13,1.13,0,0,1-1.13,1.12H373.44a1.12,1.12,0,0,1-1.12-1.12V295a1.12,1.12,0,0,1,1.12-1.12h41.75a1.12,1.12,0,0,1,1.12,1.12Zm0-36.85a1.12,1.12,0,0,1-1.12,1.12H373.44a1.12,1.12,0,0,1-1.12-1.12V258.1a1.12,1.12,0,0,1,1.12-1.12h41.75a1.11,1.11,0,0,1,1.12,1.11h0Zm0-36.84a1.14,1.14,0,0,1-1.13,1.13H373.44a1.13,1.13,0,0,1-1.12-1.13V221.25a1.11,1.11,0,0,1,1.12-1.11h41.75a1.1,1.1,0,0,1,1.12,1.11h0Zm0-36.84a1.13,1.13,0,0,1-1.13,1.12H373.44a1.12,1.12,0,0,1-1.12-1.12V184.41a1.12,1.12,0,0,1,1.12-1.12h41.75a1.12,1.12,0,0,1,1.12,1.12Zm0-36.84a1.12,1.12,0,0,1-1.12,1.12H373.44a1.12,1.12,0,0,1-1.12-1.12V147.57a1.12,1.12,0,0,1,1.12-1.12h41.75a1.11,1.11,0,0,1,1.12,1.11h0Zm99,221a1.12,1.12,0,0,1-1.12,1.11H472.42a1.12,1.12,0,0,1-1.12-1.11h0V368.63a1.12,1.12,0,0,1,1.12-1.13h41.75a1.13,1.13,0,0,1,1.14,1.12h0Zm0-36.85a1.12,1.12,0,0,1-1.12,1.12H472.42a1.11,1.11,0,0,1-1.12-1.11h0V331.79a1.12,1.12,0,0,1,1.11-1.13h41.76a1.14,1.14,0,0,1,1.13,1.13Zm0-36.84a1.12,1.12,0,0,1-1.12,1.12H472.42a1.12,1.12,0,0,1-1.12-1.12V295a1.12,1.12,0,0,1,1.12-1.12h41.75a1.11,1.11,0,0,1,1.14,1.11h0Zm0-36.85a1.12,1.12,0,0,1-1.12,1.12H472.42a1.12,1.12,0,0,1-1.12-1.11h0V258.1a1.12,1.12,0,0,1,1.12-1.12h41.75a1.12,1.12,0,0,1,1.13,1.11h0Zm0-36.84a1.12,1.12,0,0,1-1.12,1.12H472.42a1.12,1.12,0,0,1-1.12-1.12V221.25a1.11,1.11,0,0,1,1.12-1.11h41.75a1.12,1.12,0,0,1,1.13,1.11Zm0-36.84a1.12,1.12,0,0,1-1.12,1.12H472.42a1.12,1.12,0,0,1-1.12-1.12h0V184.41a1.12,1.12,0,0,1,1.12-1.12h41.75a1.12,1.12,0,0,1,1.14,1.12h0Zm0-36.85a1.13,1.13,0,0,1-1.12,1.13H472.42a1.12,1.12,0,0,1-1.12-1.12h0V147.57a1.12,1.12,0,0,1,1.11-1.12h41.76a1.13,1.13,0,0,1,1.13,1.12Z"/><path class="cls-5" d="M254.54,45.1l-9.13,5.81L251,40.84a9,9,0,0,0-5.52-2h-.14a11,11,0,0,1-1.9-.14l-3.09,2,1.32-2.41a11,11,0,0,1-5.41-4.11l-5.53,3.51,3.49-6.36a16.16,16.16,0,0,0-12.39-6.27c-5.75,0-10.88,3.42-14.19,8.76a10.62,10.62,0,0,1-9.39,5.06h-.31c-6.35,0-11.51,7.2-11.51,16.1s5.16,16.09,11.51,16.09a8.63,8.63,0,0,0,4-1,16.69,16.69,0,0,1,13.93-.27,14.52,14.52,0,0,0,11.85,0,16.65,16.65,0,0,1,13.8.27,8.6,8.6,0,0,0,4,1C251.8,71.06,257,63.86,257,55A20.59,20.59,0,0,0,254.54,45.1Z"/><path class="cls-6" d="M237.33,68.68a17.08,17.08,0,0,0-9.86,1.06,14.54,14.54,0,0,1-11.84,0A16.61,16.61,0,0,0,201.7,70a8.64,8.64,0,0,1-4,1c-5.65,0-10.34-5.69-11.32-13.19a10.79,10.79,0,0,0,2.82-3c3.31-5.32,8.44-8.76,14.2-8.76s10.82,3.35,14.13,8.64a10.89,10.89,0,0,0,9.38,5.16h.15C231.55,59.81,235.44,63.42,237.33,68.68Z"/><path class="cls-5" d="M568,85,561.52,89l3.91-7.1a6.29,6.29,0,0,0-3.89-1.39h-.1a7.5,7.5,0,0,1-1.34-.11l-2.18,1.39.93-1.7a7.73,7.73,0,0,1-3.81-2.9l-3.9,2.51,2.46-4.48a11.37,11.37,0,0,0-8.74-4.42c-4.06,0-7.67,2.41-10,6.17a7.45,7.45,0,0,1-6.61,3.57H528c-4.48,0-8.11,5.08-8.11,11.34s3.63,11.35,8.11,11.35a6.12,6.12,0,0,0,2.83-.71,11.75,11.75,0,0,1,9.81-.19,10.21,10.21,0,0,0,8.35,0,11.72,11.72,0,0,1,9.73.19,6,6,0,0,0,2.8.69c4.48,0,8.11-5.08,8.11-11.35A14.45,14.45,0,0,0,568,85Z"/><path class="cls-6" d="M555.83,101.57a12,12,0,0,0-6.92.75,10.21,10.21,0,0,1-8.35,0,11.74,11.74,0,0,0-9.82.2,6,6,0,0,1-2.82.7c-4,0-7.3-4-8-9.3a7.59,7.59,0,0,0,2-2.13c2.34-3.76,6-6.17,10-6.17s7.63,2.38,10,6.1a7.69,7.69,0,0,0,6.62,3.64h.1C551.75,95.3,554.49,97.84,555.83,101.57Z"/><path class="cls-5" d="M487.49,46.7,483,49.56l2.73-5a4.47,4.47,0,0,0-2.72-1h-.08a4.17,4.17,0,0,1-.93-.07l-1.53,1,.66-1.19a5.42,5.42,0,0,1-2.67-2L475.72,43l1.73-3.14a8,8,0,0,0-6.12-3.1,8.39,8.39,0,0,0-7,4.33,5.25,5.25,0,0,1-4.63,2.5h-.15c-3.14,0-5.68,3.56-5.68,7.94s2.53,7.94,5.67,7.94a4.16,4.16,0,0,0,2-.5,8.17,8.17,0,0,1,6.87-.13,7.29,7.29,0,0,0,2.94.63,7.06,7.06,0,0,0,2.9-.62A8.28,8.28,0,0,1,481,59a4.16,4.16,0,0,0,2,.49c3.13,0,5.68-3.56,5.68-7.94A10.24,10.24,0,0,0,487.49,46.7Z"/><path class="cls-6" d="M479,58.3a8.47,8.47,0,0,0-4.87.53,7.21,7.21,0,0,1-5.86,0,8.21,8.21,0,0,0-6.87.14,4.27,4.27,0,0,1-2,.49c-2.79,0-5.1-2.81-5.58-6.51a5.24,5.24,0,0,0,1.39-1.5,7.84,7.84,0,0,1,14-.06,5.39,5.39,0,0,0,4.63,2.55h.07C476.15,53.93,478.06,55.71,479,58.3Z"/><path class="cls-7" d="M177.8,437.75c1.09-2-.15-4.51-1.6-6.32s-3.17-3.68-3.13-6c.05-3.31,3.56-5.26,6.39-7a30.92,30.92,0,0,0,5.73-4.6,8.24,8.24,0,0,0,1.75-2.35,9.71,9.71,0,0,0,.54-4.19q-.19-7.08-.71-14.15"/><path class="cls-8" d="M192.11,392.87a5.14,5.14,0,0,0-2.58-4.23l-1.15,2.28,0-2.76a5.18,5.18,0,1,0,3.7,4.71Z"/><path class="cls-8" d="M182.9,427.81a5.17,5.17,0,1,1,.25-4.17l-3.23,2.63,3.55-.82A5.23,5.23,0,0,1,182.9,427.81Z"/><path class="cls-8" d="M180.35,417.78a5.15,5.15,0,0,1-5.39-4.91h0a5,5,0,0,1,.45-2.35,5.13,5.13,0,0,1,3.31-2.86v2.13l1.17-2.31h0a5.15,5.15,0,0,1,5.39,4.91h0a5,5,0,0,1-.22,1.76A5.14,5.14,0,0,1,180.35,417.78Z"/><path class="cls-8" d="M192.89,409.45a5.17,5.17,0,1,1,2.26-9.67l-.91,2.51,1.87-1.81a5.12,5.12,0,0,1,1.67,3.57,5.26,5.26,0,0,1-.13,1.42A5.15,5.15,0,0,1,192.89,409.45Z"/><path class="cls-9" d="M191.42,394.24c-1.19.14-2.35.5-3.55.58a3.84,3.84,0,0,1-3.26-1.14,14,14,0,0,1-1-1.68,3.54,3.54,0,0,0-1.3-1.22,5.16,5.16,0,0,0,9.2,4.68,4.74,4.74,0,0,0,.45-1.26Z"/><path class="cls-9" d="M192.89,409.45a5.17,5.17,0,0,1-4.91-7.37,3.93,3.93,0,0,1,1,1.07,17.38,17.38,0,0,0,1,1.7,4.26,4.26,0,0,0,3.42,1.2c1.25-.05,2.45-.42,3.69-.53a2.41,2.41,0,0,0,.53,0A5.15,5.15,0,0,1,192.89,409.45Z"/><path class="cls-9" d="M180.35,417.78a5.15,5.15,0,0,1-5.39-4.91h0a5,5,0,0,1,.45-2.35,4.39,4.39,0,0,1,1.09,1.06,17.74,17.74,0,0,0,1.12,1.74,4.68,4.68,0,0,0,3.65,1.28c1.32,0,2.51-.34,3.78-.44A5.13,5.13,0,0,1,180.35,417.78Z"/><path class="cls-9" d="M182.9,427.81a5.17,5.17,0,0,1-9.42-4.22,5,5,0,0,1,1.14,1,19.92,19.92,0,0,0,1.38,1.83,6.44,6.44,0,0,0,4.26,1.5A23.32,23.32,0,0,0,182.9,427.81Z"/><path class="cls-10" d="M170,436.89a42.06,42.06,0,0,0,5.33-2.47c1.25-.87,6.27-1.92,6.58-.53s6.09,7,1.51,7-10.69.75-11.92,0S170,436.89,170,436.89Z"/><path class="cls-11" d="M183.49,440.43c-4.6,0-10.68.75-11.91,0-.93-.57-1.3-2.62-1.43-3.56H170s.26,3.29,1.49,4,7.31,0,11.91,0c1.33,0,1.79-.48,1.77-1.18C185,440.15,184.49,440.42,183.49,440.43Z"/><path class="cls-7" d="M462.14,438c-.74-1.36.1-3,1.06-4.26s2.13-2.48,2.1-4c0-2.22-2.39-3.53-4.26-4.71A20.81,20.81,0,0,1,457.2,422a5.44,5.44,0,0,1-1.18-1.6,6.4,6.4,0,0,1-.36-2.81q.12-4.76.47-9.5"/><path class="cls-8" d="M452.53,407.89a3.44,3.44,0,0,1,1.73-2.84l.78,1.53,0-1.86a3.39,3.39,0,0,1,1.14-.13,3.47,3.47,0,1,1-3.62,3.3Z"/><path class="cls-8" d="M458.71,431.36a3.46,3.46,0,1,0,1.49-4.66,3.42,3.42,0,0,0-1.66,1.87l2.17,1.76-2.39-.53A3.53,3.53,0,0,0,458.71,431.36Z"/><path class="cls-8" d="M460.44,424.63a3.46,3.46,0,0,0,3.62-3.3h0a3.38,3.38,0,0,0-.29-1.6,3.47,3.47,0,0,0-2.23-1.92v1.43l-.79-1.56h0a3.49,3.49,0,0,0-3.63,3.31,3.9,3.9,0,0,0,.15,1.18A3.47,3.47,0,0,0,460.44,424.63Z"/><path class="cls-8" d="M452,419a3.47,3.47,0,1,0-1.53-6.49l.61,1.68L449.83,413a3.46,3.46,0,0,0,2.17,6Z"/><path class="cls-9" d="M453,408.82c.8.09,1.6.34,2.39.39a2.6,2.6,0,0,0,2.2-.79,11.35,11.35,0,0,0,.64-1.13,2.53,2.53,0,0,1,.87-.82,3.47,3.47,0,1,1-6.48,2.3A2.65,2.65,0,0,0,453,408.82Z"/><path class="cls-9" d="M452,419a3.47,3.47,0,0,0,3.63-3.29,3.35,3.35,0,0,0-.33-1.65,2.6,2.6,0,0,0-.72.72,9,9,0,0,1-.69,1.15,2.81,2.81,0,0,1-2.29.8c-.84,0-1.65-.28-2.48-.35h-.35A3.46,3.46,0,0,0,452,419Z"/><path class="cls-9" d="M460.44,424.63a3.46,3.46,0,0,0,3.62-3.3h0a3.38,3.38,0,0,0-.29-1.6,2.71,2.71,0,0,0-.73.7,10.19,10.19,0,0,1-.76,1.17,3.18,3.18,0,0,1-2.45.86c-.86,0-1.69-.23-2.54-.29A3.47,3.47,0,0,0,460.44,424.63Z"/><path class="cls-9" d="M458.71,431.36a3.47,3.47,0,0,0,6.32-2.83,3.53,3.53,0,0,0-.76.68,14.16,14.16,0,0,1-.93,1.23,4.29,4.29,0,0,1-2.87,1A12.89,12.89,0,0,1,458.71,431.36Z"/><path class="cls-10" d="M467.37,437.09a17,17,0,0,1-3.57-1.29c-.82-.58-4.2-1.29-4.41-.35s-4.11,4.69-1,4.71,7.18.14,8-.36S467.37,437.09,467.37,437.09Z"/><path class="cls-11" d="M458.31,439.85c3.09,0,7.18.14,8-.36.63-.38.88-1.76,1-2.38h.11s-.18,2.21-1,2.71-4.91.38-8,.36c-.89,0-1.2-.32-1.18-.79C457.31,439.65,457.65,439.85,458.31,439.85Z"/><rect class="cls-2" x="208.04" y="440.16" width="271.15" height="1.07"/><rect class="cls-2" x="488.78" y="440.16" width="143.83" height="1.07"/><rect class="cls-2" x="108.42" y="440.16" width="90.03" height="1.07"/><path class="cls-3" d="M351.05,279.51h0a12.48,12.48,0,0,1,15.81,7.84l5,14.85A12.48,12.48,0,0,1,364,318h0a12.48,12.48,0,0,1-15.81-7.84l-5-14.85A12.48,12.48,0,0,1,351.05,279.51Z"/><path class="cls-12" d="M351.41,295.41s4.63,6.66,0,8.39-6.4,6.66-6.4,6.66-1.45,5.79,1.74,6.93,15.34-5.5,17.08-7.24,0-6.39,0-6.39-4.63-6.39-4.34-10.42S351.41,295.41,351.41,295.41Z"/><path class="cls-9" d="M351.41,295.41s4.63,6.66,0,8.39-6.4,6.66-6.4,6.66-1.45,5.79,1.74,6.93,15.34-5.5,17.08-7.24,0-6.39,0-6.39-4.63-6.39-4.34-10.42S351.41,295.41,351.41,295.41Z"/><path class="cls-13" d="M363.85,346.94s10.42,21.71,13.9,23.16,12.74.58,9.84,8.68-5.79,4.35-3.19,10.13,13,14.18,4.63,10.7S370.79,388,365.29,389.19s-19.29-3.5-22.37-2.91S341,373.56,341,373.56l8.68-12.73Z"/><path class="cls-12" d="M353.72,369.23s-4.36,15.9-2,18.24c.29.29,8.1,2.31,13.32,8.11A36.23,36.23,0,0,0,376.3,404l-4.63,4.92s-10.12-8.1-16.51-9.55-13-6.4-13-8.11,4.34-23.44,4.34-23.44Z"/><path class="cls-9" d="M353.72,369.23s-4.36,15.9-2,18.24c.29.29,8.1,2.31,13.32,8.11A36.23,36.23,0,0,0,376.3,404l-4.63,4.92s-10.12-8.1-16.51-9.55-13-6.4-13-8.11,4.34-23.44,4.34-23.44Z"/><path class="cls-13" d="M372.54,400.79s2.61-1.74,4.35.58,9.26,5.78,9.26,5.78,3.48,0,1.74,3.77l-1.74,3.76L385,414.1s-1.15,11.58-7.52,12.74c0,0-2,0-.29-5.21,0,0,2.6-2.32-2-6.93,0,0-4.34-.58-4.34-2,0,0-3.48-.87-2.32-3.2S374.57,404,372.54,400.79Z"/><path class="cls-12" d="M338.67,375.31s-1.16,5.79-2,6.66-.86,3.76,0,6.93,1.45,21.42-1.45,30.39,4.06,4.92,4.06,4.92,9-22.29,7.81-33,10.13-22.3,10.13-22.3l-13.89-2.56Z"/><path class="cls-13" d="M336,416.32s-2.22,1.54-2.51,2.7a3.11,3.11,0,0,1-1.16,1.74s-2.32,4.05-2.32,7.52-7.23,8.69-7.23,8.69-7.82,4,2.89,3.48S339,439.29,339,439.29v1.16s4.63.28,4.34-3.2-.59-11.57-.59-11.57,3.47-3.47,2.32-6.08-3.2-2.5-3.2-2.5-1.75,5.69-3.19,5.39S336.17,418.26,336,416.32Z"/><path class="cls-12" d="M340.12,324.65l-7.82,28.08s-4.05,9.84-.87,9.55,4.63-10.42,4.63-10.42L342.15,338l.86-11Z"/><circle class="cls-12" cx="354.16" cy="289.77" r="7.81"/><path class="cls-13" d="M347.64,313.36s-1.18-6.13,2.31-8.85c0,0-4.33-.41-5.2.74,0,0-5.21.29-5.21,3.77a37.89,37.89,0,0,1-.87,8.39c-.3.58-1.45,3.2.29,9.26s4.8,8.84,3,12a21.71,21.71,0,0,0-1.35,3.49,45.57,45.57,0,0,0-1.94,16.16c.31,5.17.13,12.56-2.66,17.25-4.63,7.81,28.37-4.63,28.95-7.24s1.44-9.55.29-13.31a18.79,18.79,0,0,1-.58-7.53S367,337.09,361,331.3l8.1-24s-3.47-3.76-6.08-3.48S347.64,313.36,347.64,313.36Z"/><path class="cls-12" d="M365.3,314.23l-.13.4c-.93,2.8-6.25,19.36-3.34,23.34,0,0,3.47.87,4.63-3.77s4.92-22.58,3.47-24S365.3,314.23,365.3,314.23Z"/><path class="cls-9" d="M365.3,314.23l-.13.4c-.93,2.8-6.25,19.36-3.34,23.34,0,0,3.47.87,4.63-3.77s4.92-22.58,3.47-24S365.3,314.23,365.3,314.23Z"/><path class="cls-13" d="M369.06,307a2.75,2.75,0,0,1,1.74,3.2c-.58,2.32-6.92,6.65-6.92,6.65l-.58-4.92Z"/><path class="cls-3" d="M358.8,280.42a5.29,5.29,0,0,0-1.81.22,5.26,5.26,0,1,0-4.62,7.77h.27a2.55,2.55,0,0,1,2,.81,5.26,5.26,0,1,0,4.13-8.8Z"/><path class="cls-12" d="M361.83,331.89s7.53-9.85,8.4-13.61-5.51-13.61-.87-13,5.78,8.69,5.78,8.69.87,1.45-1.15,6.95-5.21,13.32-6.93,15.05S360.38,342.6,361.83,331.89Z"/></g></g></svg>