<svg xmlns="http://www.w3.org/2000/svg" viewBox="0 0 750 500"><defs><style>.cls-1{fill:#e0e1e2;}.cls-2{fill:#1c313a;}.cls-3{fill:#8e6169;}.cls-4{fill:#323244;}</style></defs><title>Illustrations</title><g id="Speech_Bubble" data-name="Speech Bubble"><path class="cls-1" d="M342.11,143.44H169.24a12,12,0,1,1,0-23.91H342.11a12,12,0,1,1,0,23.91ZM169.24,121a10.48,10.48,0,0,0,0,21H342.11a10.48,10.48,0,0,0,0-21Z"/><path class="cls-2" d="M342.11,283.39H169.24a11.59,11.59,0,0,1,0-23.18H342.11a11.59,11.59,0,0,1,0,23.18Z"/><path class="cls-1" d="M285.46,96.3H166.39a11.59,11.59,0,0,1,0-23.18H285.46a11.59,11.59,0,1,1,0,23.18Z"/><path class="cls-1" d="M342.11,190.21H169.24a12,12,0,1,1,0-23.91H342.11a12,12,0,1,1,0,23.91ZM169.24,167.77a10.48,10.48,0,0,0,0,21H342.11a10.48,10.48,0,0,0,0-21Z"/><path class="cls-1" d="M342.11,237H169.24a12,12,0,1,1,0-23.92H342.11a12,12,0,0,1,0,23.92ZM169.24,214.55a10.48,10.48,0,0,0,0,21H342.11a10.48,10.48,0,0,0,0-21Z"/><path class="cls-1" d="M163.3,110.94h45.3a2,2,0,0,1,2,2h0a2,2,0,0,1-2,1.95H163.3a2,2,0,0,1-2-1.95h0A2,2,0,0,1,163.3,110.94Z"/><path class="cls-1" d="M163.3,158.82h45.3a2,2,0,0,1,2,2h0a2,2,0,0,1-2,2H163.3a2,2,0,0,1-2-2h0A2,2,0,0,1,163.3,158.82Z"/><path class="cls-1" d="M163.3,206.7h45.3a2,2,0,0,1,2,2h0a2,2,0,0,1-2,2H163.3a2,2,0,0,1-2-2h0A2,2,0,0,1,163.3,206.7Z"/><polygon class="cls-3" points="485.24 170.87 468.71 176.31 468.71 152.52 483.71 152.52 485.24 170.87"/><circle class="cls-3" cx="470.76" cy="142.64" r="16.47"/><path class="cls-2" d="M475.28,141c-2.76-.08-4.57-2.86-5.64-5.41s-2.17-5.46-4.73-6.51c-2.09-.86-5.78,4.95-7.43,3.4s0-9.88,1.78-11.37,4.33-1.77,6.68-1.88a68.43,68.43,0,0,1,17.13,1.37c3.48.73,7.06,1.82,9.57,4.34,3.18,3.19,4,8,4.22,12.5s0,9.42-2.27,13.45-6.92,7-11.42,6c-.45-2.43,0-4.94.19-7.42s0-5.15-1.52-7.13-4.75-2.75-6.51-1"/><path class="cls-4" d="M495.54,146.71c1.65-1.21,3.62-2.22,5.65-2a5.7,5.7,0,0,1,4.6,4.21,7.32,7.32,0,0,1-1.43,6.23,10.29,10.29,0,0,1-5.5,3.47,5.7,5.7,0,0,1-3.76,0,3.82,3.82,0,0,1-2-4.71"/><path id="uuid-00bc58e7-734f-4d7c-a085-03c0cd267642-552" class="cls-3" d="M432.52,301.64c-1.1,5.41.92,10.36,4.5,11.05s7.37-3.15,8.46-8.56a13.45,13.45,0,0,0-.21-6.52l13.62-84.81-17-3.21-6.58,86.1a13.79,13.79,0,0,0-2.75,6h0Z"/><path class="cls-1" d="M468.53,165.39H456.91c-8.22,1.25-10.45,5.64-12.32,13.74-2.86,12.35-6.5,28.81-5.78,29.05,1.16.38,21,9.7,31.05,7.57l-1.33-50.36Z"/><rect class="cls-3" x="464.3" y="435.54" width="15.48" height="21.96"/><path class="cls-2" d="M449.23,470.78c-1.63,0-3.08,0-4.17-.14-4.11-.37-8-3.41-10-5.18a2.8,2.8,0,0,1-.71-3.17h0a2.78,2.78,0,0,1,1.81-1.6L447,457.58l17.59-11.87.2.36a31.72,31.72,0,0,1,2.38,5.34,2.39,2.39,0,0,1-.17,2,1.88,1.88,0,0,1-.82.68c.32.34,1.32,1,4.39,1.5,4.49.71,5.44-3.94,5.47-4.13l0-.15.14-.09c2.13-1.38,3.45-2,3.9-1.87.28.08.75.23,2,12.89a13,13,0,0,1,.42,6.1c-.66,3-13.91,2-16.56,1.75-.07,0-10,.71-16.79.71Z"/><rect class="cls-3" x="515.35" y="420.72" width="15.48" height="21.96" transform="translate(-149.2 342.2) rotate(-31.95)"/><path class="cls-2" d="M506.4,467.78a28.56,28.56,0,0,1-4.68-.43,2.82,2.82,0,0,1-2.27-2.31h0a2.78,2.78,0,0,1,.69-2.32l7.57-8.38L516.36,435l.35.19a31.32,31.32,0,0,1,4.85,3.28,2.31,2.31,0,0,1,.9,1.77,1.81,1.81,0,0,1-.33,1c.44.12,1.65.17,4.52-1,4.18-1.76,2.52-6.21,2.45-6.4l-.06-.14.07-.15c1.08-2.29,1.86-3.52,2.32-3.65.29-.08.76-.2,8.54,9.87a13,13,0,0,1,3.58,4.95c1,2.92-10.75,9.05-13.12,10.25-.07.06-12.41,9-17.48,11.57a14.78,14.78,0,0,1-6.55,1.32Z"/><path class="cls-2" d="M491.17,251.91H447.84l-3.93,40.31,17.2,148.94h22.12l-8.84-86,35.88,77.66L529.93,419l-28-72.5s10-63.17,2.14-78.9-12.88-15.73-12.88-15.73Z"/><polygon class="cls-1" points="512.73 254.37 443.91 254.37 464.56 165.39 494.54 165.39 512.73 254.37"/><path id="uuid-ece83039-1aa0-468e-a846-e0cb6ecd6032-553" class="cls-3" d="M518.92,301.64c1.1,5.41-.91,10.36-4.49,11.05s-7.37-3.15-8.46-8.56a13.45,13.45,0,0,1,.21-6.52L492.56,212.8l17-3.21,6.57,86.1a13.56,13.56,0,0,1,2.75,6h0Z"/><path class="cls-1" d="M482.92,165.39h11.62c8.22,1.25,10.45,5.64,12.32,13.74,2.85,12.35,6.5,28.81,5.77,29.05-1.16.38-20.95,9.7-31,7.57l1.33-50.36Z"/></g></svg>