<svg xmlns="http://www.w3.org/2000/svg" viewBox="0 0 750 500"><defs><style>.cls-1{isolation:isolate;}.cls-2{fill:#f1f1f1;}.cls-3{fill:#fff;}.cls-4{fill:#413f56;}.cls-5{fill:#99ebb2;}.cls-6{fill:#323242;}.cls-7{fill:#1c313a;mix-blend-mode:multiply;}.cls-8{fill:#6963fa;}.cls-9{fill:#cacaca;}.cls-10{fill:#df6581;}.cls-11{fill:#e4e4e4;}</style></defs><title>Illustrations</title><g class="cls-1"><g id="Speech_Bubble" data-name="Speech Bubble"><path class="cls-2" d="M431.12,440.69c5.2-11.24,10.4-22.65,12.66-34.83s1.31-25.39-5.16-35.95-19.2-17.73-31.36-15.34c-10,2-18,9.82-22.68,18.85s-6.58,19.2-8.41,29.21c-.59-11.37-1.21-22.92-5-33.66s-11.21-20.75-21.81-24.9-24.38-.89-30,9c-7.87,14,2.56,33.58-6.48,46.82-1.56-13.28-15.45-23.78-28.65-21.64s-23.07,16.47-20.36,29.57c1.62,7.79,6.94,14.42,13.29,19.2s13.75,10.34,21.06,13.48Z"/><path class="cls-3" d="M270.84,387.66c10.49,3.67,21.07,7.37,30.65,13.1,8.58,5.14,16.22,12.06,21,20.91a37,37,0,0,1,4.6,15.45c.07,1.13,1.85,1.14,1.78,0-.62-10.1-5.55-19.34-12.36-26.65-7.47-8-17.16-13.49-27.15-17.74-5.93-2.52-12-4.66-18.08-6.78-1.08-.38-1.55,1.34-.48,1.71Z"/><path class="cls-3" d="M331.33,345.83A159.79,159.79,0,0,1,346.7,380a161.42,161.42,0,0,1,7.09,36.75,158.1,158.1,0,0,1,.17,21c-.06,1.14,1.71,1.14,1.78,0A161.9,161.9,0,0,0,353.46,400a163.7,163.7,0,0,0-10.89-36.16,158.3,158.3,0,0,0-9.71-18.91.89.89,0,0,0-1.53.9Z"/><path class="cls-3" d="M418.16,356a258.68,258.68,0,0,0-19.08,64.17q-1.5,9.33-2.32,18.74c-.09,1.14,1.68,1.13,1.78,0a257.34,257.34,0,0,1,14.2-64.67q3.15-8.81,6.95-17.35C420.15,355.88,418.62,355,418.16,356Z"/><path class="cls-2" d="M164.41,439.36a83.83,83.83,0,0,1-62.71-82.43c.07-4.68.56-9.46,2.53-13.7s5.62-7.92,10.19-8.93c5-1.09,10.25,1.15,14,4.65s6.16,8.13,8.4,12.71c13.5,27.64,23.77,57.29,27.61,87.81Z"/><path class="cls-3" d="M112.15,335.23l9.47,21.5,9.46,21.51c3,6.81,6,13.62,9.09,20.39s6.25,13.36,9.64,19.92,7,13,10.88,19.22l1.47,2.33c.35.53,1.2,0,.86-.5-4-6.2-7.64-12.6-11.08-19.11s-6.66-13.17-9.76-19.86-6.11-13.51-9.1-20.29q-4.71-10.72-9.43-21.43l-9.46-21.51L113,334.73c-.26-.59-1.11-.08-.86.5Z"/><path class="cls-2" d="M160.46,439.51a49.06,49.06,0,0,1-54.81-25.87,19.68,19.68,0,0,1-2.39-7.79,9.1,9.1,0,0,1,2.88-7.39c2.3-1.91,5.64-2.17,8.51-1.35a24.7,24.7,0,0,1,7.79,4.33c14.47,10.7,27.81,23.33,38,38.13Z"/><path class="cls-3" d="M105.22,399.55l10.72,8.61,10.72,8.61c3.39,2.73,6.79,5.46,10.22,8.14s6.85,5.25,10.38,7.74,7.13,4.85,10.84,7l1.4.81c.32.18.63-.3.3-.49-3.74-2.15-7.37-4.48-10.91-6.93s-7-5-10.43-7.68-6.81-5.36-10.2-8.08l-10.68-8.58-10.72-8.61-1.33-1.07c-.29-.23-.6.26-.31.49Z"/><path class="cls-4" d="M616.72,440.89H127.51a.71.71,0,0,1,0-1.41H616.72a.71.71,0,0,1,0,1.41Z"/><path class="cls-4" d="M603.87,370.35H570.75a1.48,1.48,0,0,1-1.48,1.48H536.76a7.34,7.34,0,0,0-3,5.91v1.18a7.39,7.39,0,0,0,7.39,7.39h62.68a7.39,7.39,0,0,0,7.39-7.39v-1.18A7.39,7.39,0,0,0,603.87,370.35Z"/><rect class="cls-4" x="568.98" y="386.02" width="7.69" height="54.4"/><path class="cls-4" d="M598.55,440.15c0,.83-11.65.32-26,.32s-26,.51-26-.32,11.65-7.41,26-7.41S598.55,439.32,598.55,440.15Z"/><path class="cls-5" d="M602.42,372.05,601.14,364a3.9,3.9,0,0,0-4.45-3.22l-13.3,2.12-22.78,3.64-7.41,1.18h16.07a1.48,1.48,0,0,1,1.48,1.48v1.17a1.48,1.48,0,0,1-1.48,1.48h-40.9a3.74,3.74,0,0,0-1.44,1.18,3.83,3.83,0,0,0-.73,2.93l.37,2.3L527,381l.48,3a3.88,3.88,0,0,0,4.43,3.22l10.57-1.69L573,380.68l26.23-4.19A3.89,3.89,0,0,0,602.42,372.05Z"/><path class="cls-5" d="M541.68,373a3.65,3.65,0,0,0-1.49-1.18H528.88a3.61,3.61,0,0,0-1.5,1.18,3.79,3.79,0,0,0-.81,2.36v45.06a3.88,3.88,0,0,0,3.87,3.88h8.18a3.88,3.88,0,0,0,3.87-3.88V375.37A3.79,3.79,0,0,0,541.68,373Z"/><path class="cls-5" d="M566.29,296.25l-.07-.1-5.08-6.25a3.68,3.68,0,0,0-1-.84,2.67,2.67,0,0,0-.63-.32,3.48,3.48,0,0,0-1-.25,3.27,3.27,0,0,0-.7,0h0a3.91,3.91,0,0,0-2.14.85l-10.41,8.45L531.9,308.63l-20,16.21L510.47,326h25.27l1.46-1.18,4.83-3.92.34-.28,23.34-18.92,0,0a3.7,3.7,0,0,0,1.1-1.44,4,4,0,0,0,.31-1.17A3.85,3.85,0,0,0,566.29,296.25Z"/><path class="cls-6" d="M566.22,296.15a9.67,9.67,0,0,0-2.11-4.32,9.5,9.5,0,0,0-3.93-2.77,7.26,7.26,0,0,0-.7-.24,10.16,10.16,0,0,0-1.64-.34h0a9.66,9.66,0,0,0-7,1.93l-18,13.77a3.82,3.82,0,0,0-1.27,2.7,3.77,3.77,0,0,0,.33,1.75,2.58,2.58,0,0,0,.19.37,3.58,3.58,0,0,0,.5.66l2.88,3.24,6.71,7.53.19.21.44.5a3.87,3.87,0,0,0,5.47.25h0l15.53-16.69a9.56,9.56,0,0,0,1.89-3A9.82,9.82,0,0,0,566.22,296.15Z"/><circle class="cls-7" cx="573.08" cy="245.1" r="29.64"/><path class="cls-5" d="M584.2,368l-.81-5.09-.48-3a3.88,3.88,0,0,0-4.44-3.22l-21.54,3.44-5.85.93-1.18.19v6.46h19.37a1.48,1.48,0,0,1,1.48,1.48v1.17a1.48,1.48,0,0,1-1.48,1.48H508v0l.36,2.3.92,5.77a3.88,3.88,0,0,0,4.44,3.21l10.57-1.68,2.3-.37L527,381l15.48-2.47L553,376.86l16.72-2.66.24,0,11-1.75A3.89,3.89,0,0,0,584.2,368Z"/><path class="cls-6" d="M613.42,346.22c0,24.16-2.45,38.61-40.3,34.48l-.15,0a112.79,112.79,0,0,1-20-3.82,60.11,60.11,0,0,1-9.84-3.85c-.74-.38-1.46-.78-2.16-1.18h28.25a1.48,1.48,0,0,0,1.48-1.48v-1.17a1.48,1.48,0,0,0-1.48-1.48H549.9V330.35a4.33,4.33,0,0,0-4.33-4.33H529.81c.13-.39.27-.79.42-1.18a98.2,98.2,0,0,1,5.24-11.94,91,91,0,0,1,9.81-15.12,63.1,63.1,0,0,1,8.77-9c5.93-4.9,12.39-7.93,18.94-7.93C597.16,280.87,613.42,322.06,613.42,346.22Z"/><path class="cls-3" d="M573.71,256.08l0-1.1c-2.06-.06-3.88-.19-5.24-1.19a3.36,3.36,0,0,1-1.32-2.5,1.93,1.93,0,0,1,.64-1.61c.9-.76,2.36-.52,3.42,0l.92.42-1.76-12.84-1.1.15,1.5,10.92a3.9,3.9,0,0,0-3.7.54,3,3,0,0,0-1,2.48,4.53,4.53,0,0,0,1.77,3.37C569.6,256,571.88,256,573.71,256.08Z"/><rect class="cls-3" x="557.91" y="238.32" width="5.97" height="1.11"/><rect class="cls-3" x="576.74" y="238.32" width="5.97" height="1.11"/><path class="cls-6" d="M596.74,237c-2.31-3.47-6.36-5-10.36-5.3-4.5-.41-8.85.46-13.25,1.31-4.84.92-10,1.79-14.83.62a14.63,14.63,0,0,1-9.94-8,18.73,18.73,0,0,1-1.09-12.47,22.61,22.61,0,0,1,7.42-11.25c7-6,16.5-8.7,25.63-8.45a43.38,43.38,0,0,1,25.13,8.84,40.78,40.78,0,0,1,14.48,22.69,42.5,42.5,0,0,1-2.06,26.76c-2,4.64-4.89,8.82-7.12,13.33-2.07,4.21-3.67,9.1-2.38,13.79a12.79,12.79,0,0,0,8.64,8.9,9.09,9.09,0,0,0,10.09-4.12c2.09-3.29,2.14-7.61-1-10.27a7.7,7.7,0,0,0-10.85.81l-.25.3a8,8,0,0,0-1.59,5.81c.16,1-1.44,1.5-1.6.44a9.37,9.37,0,0,1,17.48-6.05c1.89,3.56.87,7.84-1.53,10.88a10.6,10.6,0,0,1-10.82,3.89,14.31,14.31,0,0,1-9.62-8.56c-1.88-4.54-1-9.61.81-14,2-4.77,4.9-9,7.21-13.63a38.9,38.9,0,0,0,3.94-13.27,42,42,0,0,0-6-26.59A39.1,39.1,0,0,0,591.81,197a40.75,40.75,0,0,0-27,.72c-8.44,3.32-16.59,10.57-16.49,20.31a14.93,14.93,0,0,0,4.77,11.17c3.8,3.32,9.1,3.6,13.89,3.08s9.49-1.92,14.33-2.28c4.21-.32,8.74,0,12.5,2.1a12.42,12.42,0,0,1,4.34,4c.6.89-.84,1.72-1.43.84Z"/><path class="cls-5" d="M590.7,304.73l-2.34-1.64-4.37-3a3.88,3.88,0,0,0-5.4,1l-14.24,20.5-13.27,19.09-1.18,1.7V367.7H550a3.87,3.87,0,0,0,2.42-1.18,4,4,0,0,0,.37-.45l4.13-5.95,10.2-14.69,10.57-15.21,1-1.44,13-18.66a3.21,3.21,0,0,0,.19-.31,1.82,1.82,0,0,0,.16-.31A3.86,3.86,0,0,0,590.7,304.73Z"/><path class="cls-6" d="M590.75,296.61a10.51,10.51,0,0,0-1.32-.72,9.67,9.67,0,0,0-11.81,3.05l-13.46,18.25a3.86,3.86,0,0,0,1.24,5.32l.05,0,12.25,7.68.15.1.62.38a3.88,3.88,0,0,0,5.33-1.3l9.5-18.86.16-.31h0l.58-1.18A9.68,9.68,0,0,0,590.75,296.61Z"/><path class="cls-5" d="M508.34,371.83v44.52a3.88,3.88,0,0,0,3.88,3.87h8.17a3.88,3.88,0,0,0,3.88-3.87V371.83Z"/><path class="cls-4" d="M569.27,366.52H551.08V330.35a5.51,5.51,0,0,0-5.51-5.51H478.11a5.52,5.52,0,0,0-5.52,5.51v37.14a5.52,5.52,0,0,0,5.52,5.52h91.44l.24,0a2.67,2.67,0,0,0,2.15-2.61v-1.17A2.67,2.67,0,0,0,569.27,366.52Zm0,5.31H478.11a4.36,4.36,0,0,1-4.34-4.34V330.35a4.35,4.35,0,0,1,4.34-4.33h67.46a4.33,4.33,0,0,1,4.33,4.33V367.7h19.37a1.48,1.48,0,0,1,1.48,1.48v1.17A1.48,1.48,0,0,1,569.27,371.83Z"/><circle class="cls-7" cx="511.84" cy="348.92" r="4.55"/><circle class="cls-7" cx="173.83" cy="241.14" r="31.65"/><path class="cls-6" d="M167.66,360.19h-8.73a3.86,3.86,0,0,0-3.84,3.85v72.74a3.84,3.84,0,0,0,3.84,3.84h8.73a3.84,3.84,0,0,0,3.84-3.84V364A3.86,3.86,0,0,0,167.66,360.19Z"/><path class="cls-6" d="M186.1,360.19h-8.73a3.86,3.86,0,0,0-3.84,3.85v72.74a3.84,3.84,0,0,0,3.84,3.84h8.73a3.84,3.84,0,0,0,3.85-3.84h0V364a3.85,3.85,0,0,0-3.85-3.85Z"/><path class="cls-6" d="M192.42,289.38A24,24,0,0,0,149.5,304v64.42a2.78,2.78,0,0,0,.05.58,4.14,4.14,0,0,0,4.09,3.56H193.3a4.16,4.16,0,0,0,4.14-4.14V304A23.78,23.78,0,0,0,192.42,289.38Z"/><path class="cls-6" d="M200.55,255.13l0-1.18c2.2-.07,4.14-.2,5.6-1.27a3.65,3.65,0,0,0,1.41-2.68,2.06,2.06,0,0,0-.69-1.71c-1-.82-2.52-.55-3.65,0l-1,.45L204.08,235l1.18.16-1.6,11.67a4.18,4.18,0,0,1,4,.57,3.23,3.23,0,0,1,1.1,2.65,4.82,4.82,0,0,1-1.89,3.6C204.94,255,202.51,255.07,200.55,255.13Z"/><rect class="cls-6" x="190.94" y="236.16" width="6.37" height="1.18"/><path class="cls-7" d="M164.55,290.29a3.79,3.79,0,0,0-2.67-1.23l-6.88-.29-1.84-.08a3.85,3.85,0,0,0-4,3.68l-1.09,26.21-1.92,46.47a3.84,3.84,0,0,0,3.4,4,2.48,2.48,0,0,0,.27,0l5.27.22,3.46.14a4.52,4.52,0,0,0,.82-.05,3.91,3.91,0,0,0,1.94-1,3.79,3.79,0,0,0,1.23-2.68l.23-5.54,1.7-41,1.09-26.16A3.85,3.85,0,0,0,164.55,290.29Z"/><path class="cls-6" d="M159.51,284.56a10.52,10.52,0,0,0-2.24-.24,11,11,0,0,0-10.94,10.94v20.11a3.88,3.88,0,0,0,1.74,3.21,3.71,3.71,0,0,0,1.43.57,3.82,3.82,0,0,0,.68.06h14.29a3.85,3.85,0,0,0,3.74-3.84V295.26A10.94,10.94,0,0,0,159.51,284.56Z"/><path class="cls-7" d="M235.31,341.81a4.41,4.41,0,0,1-2.19-5.26l3.36-10.71-1-.82-25.82-21.36-17.26-14.28-2.1-1.74a3.85,3.85,0,0,0-5.41.51l-5.56,6.73a3.84,3.84,0,0,0,.5,5.4h0l17.58,14.55,2,1.65,36.47,30.17a3.84,3.84,0,0,0,4.81.07,3.09,3.09,0,0,0,.52-.5l.08-.08.7-.85Z"/><path class="cls-6" d="M208.44,299.55l-15.56-12.73A10.94,10.94,0,1,0,179,303.75l15.56,12.73a3.84,3.84,0,0,0,4.86,0,3.18,3.18,0,0,0,.55-.55l9-11a4,4,0,0,0,.7-1.3A3.88,3.88,0,0,0,208.44,299.55Z"/><path class="cls-6" d="M165.89,246.5c-1.64-2.76-2.93-5.79-2.32-9.05a6.41,6.41,0,0,1,5.66-5.48,19.67,19.67,0,0,1,5.39.62,20.27,20.27,0,0,0,4.4.28,21.86,21.86,0,0,0,8.55-2.16,21,21,0,0,0,11.27-13.21A22,22,0,0,0,195,198.19l1.48-.39-1.93,6.34a.9.9,0,0,1-1.11.61l-.19-.08a30.53,30.53,0,0,0-23.77-3.8,28.91,28.91,0,0,0-6.53,2.51c-1,.53-1.9-1-.89-1.54a32.38,32.38,0,0,1,25.38-1.94,30.46,30.46,0,0,1,6.7,3.24l-1.3.53,1.93-6.35a.91.91,0,0,1,1.11-.61,1,1,0,0,1,.37.22,23.79,23.79,0,0,1,4.88,18,22.42,22.42,0,0,1-9.72,15.56,23.88,23.88,0,0,1-18.06,3.63c-1.74-.33-3.71-.81-5.41-.08a4.68,4.68,0,0,0-2.51,3.08c-1,3.27.68,6.38,2.36,9.1Z"/><path class="cls-4" d="M281.35,312,252.1,295.09a5.64,5.64,0,0,0-8.18,3.17L235.5,325,232,336.19a5.61,5.61,0,0,0,2.77,6.67l6.48,3.37,21.15,11a5.69,5.69,0,0,0,2.59.63,5.61,5.61,0,0,0,1.95-.35l0,0a5.66,5.66,0,0,0,3.26-3.24l13.55-35.33A5.58,5.58,0,0,0,281.35,312Zm1.32,6.45L269.12,353.8a4.47,4.47,0,0,1-2.57,2.56h0a4.47,4.47,0,0,1-3.58-.22L242,345.3l-6.71-3.49a4.41,4.41,0,0,1-2.19-5.26l3.36-10.71,8.57-27.22a4.44,4.44,0,0,1,5.58-2.89,4.18,4.18,0,0,1,.87.38L280.75,313A4.41,4.41,0,0,1,282.67,318.47Z"/><path class="cls-8" d="M271.53,323.34a1.78,1.78,0,0,1-.84-.22l-19.52-10.64a1.78,1.78,0,0,1,1.7-3.12L272.39,320a1.76,1.76,0,0,1,.7,2.4,1.78,1.78,0,0,1-1.56.93Z"/><path class="cls-8" d="M268,331a1.79,1.79,0,0,1-.85-.22l-19.52-10.65a1.77,1.77,0,0,1,1.7-3.11l19.52,10.64A1.78,1.78,0,0,1,268,331Z"/><path class="cls-8" d="M265,339.3a1.78,1.78,0,0,1-.85-.21l-19.51-10.65a1.77,1.77,0,0,1,1.7-3.11L265.88,336a1.77,1.77,0,0,1-.85,3.33Z"/><path class="cls-4" d="M471.39,171.79h-82a4.46,4.46,0,0,1-4.45-4.45V63.56a4.45,4.45,0,0,1,4.45-4.45h82a4.45,4.45,0,0,1,4.45,4.45V167.34A4.46,4.46,0,0,1,471.39,171.79Zm-82-111.69a3.46,3.46,0,0,0-3.46,3.46V167.34a3.46,3.46,0,0,0,3.46,3.46h82a3.46,3.46,0,0,0,3.46-3.46V63.56a3.46,3.46,0,0,0-3.46-3.46Z"/><path class="cls-8" d="M423.55,109H405.49a2.21,2.21,0,0,1-2.22-2.22V85.46a2.21,2.21,0,0,1,2.22-2.22h18.06a2.21,2.21,0,0,1,2.22,2.22v21.31A2.21,2.21,0,0,1,423.55,109Z"/><path class="cls-9" d="M458.64,118.88H440.58a2.22,2.22,0,0,1-2.22-2.23V95.35a2.22,2.22,0,0,1,2.22-2.23h18.06a2.22,2.22,0,0,1,2.22,2.23v21.3A2.22,2.22,0,0,1,458.64,118.88Z"/><path class="cls-10" d="M430.47,149H412.41a2.21,2.21,0,0,1-2.22-2.22V125.49a2.21,2.21,0,0,1,2.22-2.22h18.06a2.21,2.21,0,0,1,2.22,2.22V146.8A2.21,2.21,0,0,1,430.47,149Z"/><path class="cls-4" d="M364.38,143.74a4.47,4.47,0,0,0-4.11-2.75h-82a4.44,4.44,0,0,0-4.45,4.44V249.21a4.45,4.45,0,0,0,4.45,4.45h82a4.45,4.45,0,0,0,4.45-4.45V145.43A4.25,4.25,0,0,0,364.38,143.74Zm-.65,105.47a3.46,3.46,0,0,1-3.46,3.46h-82a3.46,3.46,0,0,1-3.46-3.46V145.43a3.47,3.47,0,0,1,3.46-3.46h82a3.47,3.47,0,0,1,3.21,2.18,3,3,0,0,1,.13.39,3.35,3.35,0,0,1,.12.89Z"/><path class="cls-4" d="M347.26,165.49H322.55a2,2,0,1,1,0-4h24.71a2,2,0,1,1,0,4Z"/><path class="cls-4" d="M347.26,175.87H322.55a2,2,0,1,1,0-4h24.71a2,2,0,1,1,0,4Z"/><path class="cls-8" d="M309.87,181.78H291.81a2.24,2.24,0,0,1-2.22-2.23V158.24a2.22,2.22,0,0,1,2.22-2.22h18.06a2.23,2.23,0,0,1,2.23,2.22v21.31A2.25,2.25,0,0,1,309.87,181.78Z"/><path class="cls-9" d="M347.09,197.12H291.25a2,2,0,1,1,0-4h55.85a2,2,0,0,1,0,4Z"/><path class="cls-9" d="M347.09,207.49H291.25a2,2,0,1,1,0-4h55.85a2,2,0,1,1,0,4Z"/><path class="cls-9" d="M347.09,217.87H291.25a2,2,0,1,1,0-4h55.85a2,2,0,1,1,0,4Z"/><path class="cls-9" d="M347.09,228.25H291.25a2,2,0,1,1,0-3.95h55.85a2,2,0,1,1,0,3.95Z"/><path class="cls-9" d="M347.09,238.63H291.25a2,2,0,1,1,0-3.95h55.85a2,2,0,0,1,0,3.95Z"/><rect class="cls-11" x="371.24" y="205.25" width="64.57" height="0.99" transform="translate(-30.59 334.98) rotate(-43.59)"/><polygon class="cls-11" points="379.36 228.74 385.3 228.67 385.29 227.68 380.41 227.74 380.71 222.88 379.72 222.82 379.36 228.74"/><polygon class="cls-11" points="427.68 182.74 427.32 188.66 426.33 188.6 426.63 183.74 421.76 183.8 421.75 182.81 427.68 182.74"/><circle class="cls-11" cx="403.52" cy="205.74" r="5.44" transform="translate(125.19 563.08) rotate(-79.1)"/><rect class="cls-11" x="308.55" y="99.99" width="64.57" height="0.99" transform="translate(24.7 262.73) rotate(-43.59)"/><polygon class="cls-11" points="316.68 123.48 322.62 123.41 322.61 122.42 317.73 122.48 318.03 117.62 317.04 117.56 316.68 123.48"/><polygon class="cls-11" points="365 77.48 364.64 83.4 363.65 83.34 363.95 78.48 359.08 78.54 359.06 77.55 365 77.48"/><circle class="cls-11" cx="340.84" cy="100.48" r="5.44"/><rect class="cls-4" x="549.88" y="367.15" width="1.18" height="5.32"/></g></g></svg>