<svg xmlns="http://www.w3.org/2000/svg" viewBox="0 0 750 500"><defs><style>.cls-1{isolation:isolate;}.cls-2,.cls-8{fill:#1c313a;}.cls-2{mix-blend-mode:multiply;}.cls-3{fill:#f1f1f1;}.cls-4{fill:#e4e4e4;}.cls-5{fill:#cacaca;}.cls-6{fill:#ecb4b4;}.cls-7{fill:#323242;}.cls-9{fill:#413f56;}</style></defs><title>Illustrations</title><g class="cls-1"><g id="Speech_Bubble" data-name="Speech Bubble"><path class="cls-2" d="M351.05,204.72c2.87-3.16,7.61-2.23,10.76,0,4.06,2.87,5.22,8.11,5.82,12.76,1,7.87,1.31,19,10.24,22.29,4.12,1.52,8.84.26,12.32-2.21,3.8-2.69,6.18-6.84,7.77-11.14a93,93,0,0,0,4-16.22,140.4,140.4,0,0,0,1.88-16.87c.28-5.53.1-11-.12-16.55-.17-4.31-.24-8.84,1.22-13a11.17,11.17,0,0,1,9.39-7.75,15.88,15.88,0,0,1,12,4.41c7.58,7.13,7.94,18.77,9.63,28.34.89,5,2.2,10.11,4.92,14.48a28,28,0,0,0,9,8.85c7.24,4.51,16.48,5.82,24.52,2.72a29.24,29.24,0,0,0,16.9-17.59,26.65,26.65,0,0,0,1.3-6.05c.1-1-1.4-.95-1.5,0a27.39,27.39,0,0,1-14.24,20.87,26.12,26.12,0,0,1-25.3-.7,26.55,26.55,0,0,1-9.44-9c-2.79-4.55-4-9.85-4.86-15.06-1.57-9.4-2.28-20.2-9.33-27.42-5.47-5.6-15.53-7.85-21.4-1.61-6.05,6.42-4.24,16.77-4.05,24.74a137.25,137.25,0,0,1-3.59,34.75c-1.16,4.95-2.49,10.06-5.41,14.3-2.66,3.88-7,6.89-11.87,6.84s-8.23-3.6-9.95-7.84c-1.81-4.47-1.93-9.3-2.56-14-.57-4.33-1.62-9.12-4.87-12.29a11.92,11.92,0,0,0-9.83-3.49,7.53,7.53,0,0,0-4.38,2.38c-.65.72.41,1.78,1.06,1.06Z"/><path class="cls-3" d="M567.82,365.09c-.84-1.42-4.49.1-5.17-1.19s2.73-3.25,4.67-7.73c.35-.81,2.55-5.9.92-7.47-3.09-3-17.24,9.31-22.19,5.29-1.09-.89-1.85-2.65-5.14-5.51-1.3-1.14-2.09-1.65-2.86-1.46-1.09.27-1.17,1.73-2.34,4.58-1.74,4.29-2.78,4-3.8,7.45-.75,2.54-.58,4-1.47,4.31-1.26.4-2.41-2.29-4-2.05s-2.61,3.38-2.92,5.73c-.58,4.41,1,7.31,1.93,10.37,1,3.32,1.55,8.38-.7,15.53l-22.27,62.77c4.91-12.88,19.15-48.19,25.14-61.31,1.73-3.79,3.63-7.63,7.55-9.15s9-.58,15.55-2.17c.77-.19,2.91-.73,3.18-2,.22-1-1-1.62-.84-2.6.26-1.31,2.73-1.32,5.77-2.83a18,18,0,0,0,4.63-3.41c.35-.33,5.5-5.27,4.37-7.16Z"/><path class="cls-3" d="M480.18,398.13c-.94,0-1.25,2.24-2.08,2.19s-.81-2.27-2.45-4.51c-.29-.41-2.16-3-3.4-2.61-2.35.66-.4,11.15-3.8,12.41a38.71,38.71,0,0,0-4.19.94c-.93.31-1.41.55-1.54,1-.18.61.51,1.07,1.57,2.47,1.6,2.1,1.18,2.53,2.56,4,1,1.11,1.81,1.45,1.69,2-.16.73-1.82.52-2.16,1.38s.91,2.25,2,3.08c2,1.56,3.89,1.61,5.65,2.05a14.81,14.81,0,0,1,7.42,4.82l24.38,29c-4.91-6.13-18.13-23.3-22.84-30-1.36-1.94-2.7-4-2.31-6.35s2.29-4.56,3.42-8.26c.13-.43.48-1.64-.06-2.13s-1.1,0-1.52-.34.14-1.72.28-3.65a10.24,10.24,0,0,0-.34-3.26c-.06-.26-1-4.21-2.25-4.21Z"/><path class="cls-3" d="M499,402.35l-.57-5.07.26-.38a9.41,9.41,0,0,0,1.82-5.16c0-.26,0-.52,0-.79a8,8,0,0,1,.58-3.9c.38-.86,1.46-2.83,3.09-2.59a1.8,1.8,0,0,1,1,.5l.12-.18a5.13,5.13,0,0,1,1.29-1.42,6.58,6.58,0,0,0,1.08-1.1c.21-.26.38-.49.51-.68a2.38,2.38,0,0,1,1.94-1.27,2.54,2.54,0,0,1,1.93,1.47,11.83,11.83,0,0,1,1.12,2.21,3.69,3.69,0,0,0,.19.44c.34.49,3,0,4.06-.14,2.29-.38,4.27-.71,5.09.74.58,1,.15,2.39-1.33,4.16a8.6,8.6,0,0,1-1.39,1.3,1.72,1.72,0,0,1,.81,1.06h0c.31,1.23-.74,2.46-3.13,3.67a8.51,8.51,0,0,1-2.52.89,9.58,9.58,0,0,1-1.4.13,1.74,1.74,0,0,1-.21.75,2.5,2.5,0,0,1-2.61,1.05,21,21,0,0,1-3.69-.59,8.71,8.71,0,0,0-2.34-.35c-1.15.09-2,1-3.08,2.21l-2.6,3Z"/><path class="cls-3" d="M501.61,372.18,496.85,374l-.44-.15a9.29,9.29,0,0,0-5.45-.45c-.25.06-.5.14-.76.22a7.92,7.92,0,0,1-3.92.43c-.92-.15-3.11-.7-3.28-2.33a1.88,1.88,0,0,1,.22-1.11l-.2-.06a5.62,5.62,0,0,1-1.7-.89,6.45,6.45,0,0,0-1.34-.77c-.3-.14-.57-.24-.79-.32a2.38,2.38,0,0,1-1.72-1.55,2.57,2.57,0,0,1,.93-2.24,11.83,11.83,0,0,1,1.86-1.65,3.44,3.44,0,0,0,.37-.29c.39-.45-.73-3-1.15-3.89-1-2.12-1.78-4-.59-5.11.85-.83,2.28-.75,4.37.23a8.45,8.45,0,0,1,1.61,1,1.71,1.71,0,0,1,.82-1.06h0c1.11-.61,2.57.1,4.34,2.11a8.54,8.54,0,0,1,1.5,2.2,8.42,8.42,0,0,1,.48,1.33,1.72,1.72,0,0,1,.78,0c.85.21,1.43,1,1.68,2.26a20.53,20.53,0,0,1,.36,3.72,8.87,8.87,0,0,0,.26,2.35c.38,1.09,1.5,1.71,2.92,2.42l3.6,1.75Z"/><path class="cls-3" d="M499,357.24l-.57-5.06.26-.39a9.38,9.38,0,0,0,1.82-5.16c0-.26,0-.52,0-.79a8,8,0,0,1,.58-3.9c.38-.85,1.46-2.83,3.09-2.59a1.86,1.86,0,0,1,1,.5l.12-.18a5.45,5.45,0,0,1,1.29-1.42,6.84,6.84,0,0,0,1.08-1.09q.31-.41.51-.69a2.4,2.4,0,0,1,1.94-1.27,2.54,2.54,0,0,1,1.93,1.47,11.84,11.84,0,0,1,1.12,2.22,4.19,4.19,0,0,0,.19.43c.34.49,3,0,4.06-.13,2.29-.38,4.27-.72,5.09.73.58,1,.15,2.4-1.33,4.17a8.08,8.08,0,0,1-1.39,1.29,1.71,1.71,0,0,1,.81,1.07h0c.31,1.23-.74,2.46-3.13,3.66a8.78,8.78,0,0,1-2.52.9,9.45,9.45,0,0,1-1.4.12,1.71,1.71,0,0,1-.21.75,2.5,2.5,0,0,1-2.61,1.05,20.08,20.08,0,0,1-3.69-.59,9.13,9.13,0,0,0-2.34-.35c-1.15.09-2,1-3.08,2.21l-2.6,3Z"/><path class="cls-3" d="M504.16,455.62,503.1,455l-.26-1.23.26,1.23-1.24.14c0-.12-.08-.38-.19-.79a179.28,179.28,0,0,1-3.65-20,206.07,206.07,0,0,1-1.66-23.17c-.11-7.8.26-13.71.56-18.46.22-3.59.49-7,.76-10.32.71-8.88,1.38-17.27.88-26.55a24.61,24.61,0,0,0-2.86-11,23.38,23.38,0,0,0-6-7l1.56-2a25.83,25.83,0,0,1,6.62,7.79,26.86,26.86,0,0,1,3.17,12c.51,9.45-.17,17.91-.89,26.88-.26,3.31-.53,6.7-.75,10.27-.3,4.71-.66,10.57-.55,18.27A201.29,201.29,0,0,0,500.5,434a175.13,175.13,0,0,0,3.61,19.75c.29,1.19.35,1.44.05,1.91Z"/><path class="cls-3" d="M485.11,341.76h-.31c-2.13-.12-4.11-1.39-5.87-3.8-.83-1.13-1.25-2.42-2.1-5a32.18,32.18,0,0,1-1.15-5.17c-.25-1.81-.22-2.57.14-3.24a3.81,3.81,0,0,1,1.76-1.61,1.48,1.48,0,0,1,.1-.74c.43-1,1.56-.91,2.18-.84a6.15,6.15,0,0,0,1.11.07,3.18,3.18,0,0,0,1.55-.52,6.62,6.62,0,0,1,2.1-.83,7.52,7.52,0,0,1,3.94.31c2.71.91,4.05,3,5.59,5.45a19.22,19.22,0,0,1,2.07,4.72,5.66,5.66,0,0,1,.28,3.13c-.31,1.19-1,1.88-2.89,3.39a34,34,0,0,1-3.73,2.86c-1.93,1.12-3.15,1.82-4.77,1.82Z"/><path class="cls-4" d="M432.09,143.2H397.87a1.57,1.57,0,0,1,0-3.13h34.22a1.57,1.57,0,1,1,0,3.13Z"/><path class="cls-4" d="M485.09,234.2H450.87a1.57,1.57,0,0,1,0-3.13h34.22a1.57,1.57,0,1,1,0,3.13Z"/><path class="cls-4" d="M513.09,296.2H478.87a1.57,1.57,0,0,1,0-3.13h34.22a1.57,1.57,0,1,1,0,3.13Z"/><path class="cls-4" d="M357.09,109.2H322.87a1.57,1.57,0,0,1,0-3.13h34.22a1.57,1.57,0,1,1,0,3.13Z"/><path class="cls-5" d="M98.28,454.46a1.19,1.19,0,0,0,1.19,1.19H621.76a1.19,1.19,0,1,0,0-2.38H99.47A1.19,1.19,0,0,0,98.28,454.46Z"/><path class="cls-4" d="M495.53,278H340.43a1,1,0,0,1-1-1V129a1,1,0,0,1,2,0v60.39A86.61,86.61,0,0,0,428,276h67.49a1,1,0,0,1,0,2Z"/><path class="cls-4" d="M373.09,218.56H338.87a1.57,1.57,0,0,1,0-3.13h34.22a1.57,1.57,0,1,1,0,3.13Z"/><path id="uuid-5c502ea6-9d8d-47ac-9944-b5b4822d592a-436" class="cls-6" d="M339.16,223c5.43-1.8,8.9-6.05,7.76-9.5s-6.46-4.8-11.89-3a14.33,14.33,0,0,0-5.78,3.5l-22.9,7.88,3.93,10.67,22.15-8.91a14.36,14.36,0,0,0,6.73-.63Z"/><path id="uuid-ca9917be-6801-4c2d-b7fb-204f6c00dfb7-437" class="cls-6" d="M221.45,284.15c.18,5.71,3.28,10.25,6.92,10.13s6.43-4.84,6.24-10.56a14.22,14.22,0,0,0-1.72-6.53L231.8,253l-11.34.76,2.28,23.77a14.3,14.3,0,0,0-1.29,6.63Z"/><polygon class="cls-6" points="247.64 447.18 257.76 447.17 260.36 407.86 247.63 408.12 247.64 447.18"/><path class="cls-7" d="M282.32,447h0a8.55,8.55,0,0,1,.49,2.86h0a3.44,3.44,0,0,1-3.44,3.43H248a2.34,2.34,0,0,1-2.34-2.34v-1.31s-1.55-3.92,1.64-8.76c0,0,4,3.79,9.9-2.14l1.75-3.17,12.66,9.26,7,.86c1.53.19,2.89,0,3.68,1.31Z"/><polygon class="cls-6" points="271.64 447.18 281.76 447.17 284.36 407.86 271.63 408.12 271.64 447.18"/><path class="cls-7" d="M306.32,447h0a8.55,8.55,0,0,1,.49,2.86h0a3.44,3.44,0,0,1-3.44,3.43H272a2.34,2.34,0,0,1-2.34-2.34v-1.31s-1.55-3.92,1.64-8.76c0,0,4,3.79,9.9-2.14l1.75-3.17,12.66,9.26,7,.86c1.53.19,2.89,0,3.68,1.31Z"/><circle class="cls-6" cx="253.53" cy="139.49" r="14.89"/><polygon class="cls-2" points="232.92 263.36 239.92 363.36 243.92 430.36 262.92 429.36 260.92 356.36 264.92 311.36 270.92 429.36 286.04 429.36 291.92 264.36 259.42 259.86 232.92 263.36"/><path class="cls-7" d="M258.92,151.36c-4.24,4.08-14,1.38-19,0-2.74-.75-4.39-1.53-5-3-.42-1-.18-2-1-4-.48-1.18-.73-1.27-1-2-.75-2,.29-3.85,1-6,1.48-4.48-.29-5,1-8,1.94-4.52,7.2-6.37,9-7a17.3,17.3,0,0,1,17,3c2.43,1.92,3.62,4,6,8,2.07,3.53,2.22,4.89,2,6-.34,1.71-1.32,1.71-2,4-.77,2.61.11,3.91-1,5-.75.74-1.44.43-3,1A10.55,10.55,0,0,0,258.92,151.36Z"/><path class="cls-8" d="M270.92,166.36s-15-19-34-12l-6.15,12-2.06,1.95A35.78,35.78,0,0,0,218,200.1l8.92,54.26s-1,21,6,27c0,0,10-19,34-10s29,4,29,4l-8-57-17-52Z"/><path class="cls-8" d="M265.92,169.36l-5,11,19,64,52-19-7-12-25,7S280.92,164.36,265.92,169.36Z"/><polygon class="cls-8" points="230.42 269.86 219.42 269.86 217.42 189.86 230.42 216.86 230.42 269.86"/><circle class="cls-9" cx="350.92" cy="204.36" r="4.5" transform="translate(92.98 518.02) rotate(-80.78)"/><circle class="cls-9" cx="380.92" cy="239.36" r="4.5"/><circle class="cls-9" cx="414.92" cy="155.36" r="4.5"/><circle class="cls-9" cx="464.92" cy="215.36" r="4.5"/><circle class="cls-9" cx="493.92" cy="191.36" r="4.5"/><path class="cls-9" d="M485.35,95.89l8.23,3.9c-3.38-4.71-6.29-12.07-7.84-17.93C483.1,87.32,478.85,94,474.64,98l8.7-2.24c-5.36,26.27-25.52,45.12-48.6,45.12l-.33.95c24.11,0,45.47-18.59,50.94-45.92Z"/><path class="cls-2" d="M460.47,55.86h52a4,4,0,0,1,0,8h-52a4,4,0,0,1,0-8Z"/><path class="cls-4" d="M495.6,286.23a3.8,3.8,0,0,1-1.63-.37,3.75,3.75,0,0,1-2.18-3.27L491.25,271a3.8,3.8,0,0,1,6.11-3.2l7.91,6.06a3.79,3.79,0,0,1,0,6.05l-7.37,5.57A3.77,3.77,0,0,1,495.6,286.23Z"/><path class="cls-4" d="M349.63,130a3.8,3.8,0,0,1-.37,1.63,3.73,3.73,0,0,1-3.27,2.18l-11.62.54a3.8,3.8,0,0,1-3.2-6.1l6.06-7.92a3.8,3.8,0,0,1,6,0l5.57,7.38A3.78,3.78,0,0,1,349.63,130Z"/><path class="cls-2" d="M414.55,119.72a22.24,22.24,0,0,0-17.3,3.2,23.6,23.6,0,0,0-10,15.34c-2.46,12.83,5,25.65,16.89,30.76,12.45,5.36,27.27,1.76,36.31-8.2A32.7,32.7,0,0,0,448.57,143c.83-6.51-.12-14-4.06-19.45s-10.42-7.2-16.7-8.08c-6.1-.86-14.2-1.23-17.49,5.23a7.67,7.67,0,0,0-.86,3.93c.05,1,1.55,1,1.5,0-.15-3,1.86-5.54,4.44-6.89,3-1.58,6.6-1.44,9.86-1.09,5.88.63,12.57,1.76,16.81,6.28s5.5,11.37,5.23,17.34A30.93,30.93,0,0,1,408.71,169c-11.66-3.1-11.81-10-11.62-22.28.1-6.53-6.07-16.82-1-21.08a20.93,20.93,0,0,1,18.09-4.51c.94.23,1.34-1.22.4-1.44Z"/></g></g></svg>