<svg xmlns="http://www.w3.org/2000/svg" viewBox="0 0 750 500"><defs><style>.cls-1{isolation:isolate;}.cls-2{fill:#323242;}.cls-3{fill:#8f6169;}.cls-4{fill:#e4e4e4;}.cls-5{fill:#fff;}.cls-6{fill:#99ebb2;}.cls-7{fill:#413f56;}.cls-8{fill:#1c313a;mix-blend-mode:multiply;}.cls-9{fill:#efefef;}.cls-10{fill:#c8c8c8;}.cls-11{fill:#f1f1f1;}</style></defs><title>Illustrations</title><g class="cls-1"><g id="Speech_Bubble" data-name="Speech Bubble"><path class="cls-2" d="M587.47,143.06c4,28.31-15.13,23-29.09,20.79-3.32-.52-9.42,4-11.52,5.14-1.18-4.19-1.25-3.14-4.36-6.64,1.68,4.61-3.48,6.67-1.6,9.36-4.68-.33-6.74-10.28-2.55-32,1.85-9.55,6.66-24.17,26.35-20.94C586,122.31,586.22,134.2,587.47,143.06Z"/><circle class="cls-3" cx="559.23" cy="146.23" r="17.65"/><path class="cls-2" d="M535.48,139.93h0l8.45,1.3c3.73-2.34,5.15-5.8,5.33-9.88l-.85,10.56,4,.62c2.64-1.76,3.81-3.67,3.11-5.76l-.5,6.16c10.77,3.88,21.21,6.74,30,4.58h0a22.89,22.89,0,0,0-19.17-26.08h0l-4.36-.67a22.89,22.89,0,0,0-26.08,19.17Z"/><path class="cls-4" d="M507,256.11H102a9.48,9.48,0,0,1-9.46-9.46V162.77a9.48,9.48,0,0,1,9.46-9.46H507a9.48,9.48,0,0,1,9.46,9.46v83.88A9.48,9.48,0,0,1,507,256.11Z"/><path class="cls-5" d="M479.7,249.73H108.36a9.48,9.48,0,0,1-9.46-9.46V169.15a9.48,9.48,0,0,1,9.46-9.46h392.3a9.48,9.48,0,0,1,9.46,9.46v50.16A30.46,30.46,0,0,1,479.7,249.73Z"/><path class="cls-6" d="M430.73,191.94H317.64a2.44,2.44,0,0,1,0-4.88H430.73a2.44,2.44,0,0,1,0,4.88Z"/><path class="cls-4" d="M459.35,206.41H289a2.44,2.44,0,1,1,0-4.87H459.35a2.44,2.44,0,1,1,0,4.87Z"/><path class="cls-4" d="M459.35,222.36H289a2.44,2.44,0,1,1,0-4.87H459.35a2.44,2.44,0,1,1,0,4.87Z"/><polygon class="cls-7" points="316.13 167.3 314.75 167.3 314.75 113.77 415.26 113.77 415.26 115.16 316.13 115.16 316.13 167.3"/><path class="cls-8" d="M457.77,105H420.94a9,9,0,0,0,0,18.07h36.83a9,9,0,0,0,0-18.07Z"/><circle class="cls-4" cx="314.63" cy="168.09" r="8.3"/><polygon class="cls-3" points="615.34 449.06 607.67 449.06 604.02 419.48 615.34 419.48 615.34 449.06"/><path class="cls-2" d="M619.39,462.35h-5.5l-1-5.19-2.52,5.19H595.81a3.28,3.28,0,0,1-1.87-6l11.65-8.05v-5.25l12.26.73Z"/><polygon class="cls-3" points="562.53 449.06 554.86 449.06 551.21 419.48 562.53 419.48 562.53 449.06"/><path class="cls-2" d="M566.58,462.35h-5.5l-1-5.19-2.52,5.19H543a3.28,3.28,0,0,1-1.87-6l11.65-8.05v-5.25l12.26.73Z"/><path class="cls-3" d="M635.14,277.16a6.35,6.35,0,0,0-1.5-8.87,5.87,5.87,0,0,0-1-.57L614,213l-11.14,5.84L624,271.14a6.4,6.4,0,0,0,11.19,6Z"/><path class="cls-3" d="M518.19,301.59a6.36,6.36,0,0,0,4.28-7.92,5.76,5.76,0,0,0-.41-1L541,238l-12.38-2.24L513.08,290a6.4,6.4,0,0,0,5.11,11.63Z"/><path class="cls-8" d="M548,269s49.33-12.59,47.25-8.34h0s15.23-4.71,17.35,26.72L612,350.26l2.75,49.13s-1.68,4,.2,3.65.31,5.51.31,5.51-1.58,6.25.34,6.1.54,9.58.54,9.58H603.59l-24-107.71-10.76,39.3s.6,4.21-.41,4.35-.3,3.16-.3,3.16l-.37,4-5.19,54.84-11.82.7s-.09-1.21,0-4.17c.07-2.21.75-5.73-1-8.63-2-3.22-3.13-7-.82-11.05,1.6-2.85-.48-6.76-.73-10.46C546.63,365.19,545,334,545,308.58c0-1-1.59-3.55,0-3s0-2.29,0-3.41c0-2.09,2.18-5.72.14-6.1s.06-2,.1-3C545.69,282.78,546.55,274.31,548,269Z"/><path class="cls-7" d="M570.26,166.12l-20.15,2.09-2,9.39L529,189.28l6.62,17.9s-5.37,18.12,9.82,25.39l5.34,15.55-1.88,11-.52,3.07c1.33,2.47,1.56,4.29-.78,4.57l-.76,4.45c-3.36,1.95-3.25,5.41-1.62,9.53l67.4,6.94c2.77-9.05-12.19-38.94-20.15-41.69l1-44.66L595.25,172l-22.93,2.08Z"/><path class="cls-7" d="M590,173.31h0a7.64,7.64,0,0,1,11.56,3.25l12,28.62c2.26.82,6,7.8,4.64,9.58,0,1.89-.63.52,1.2,3.14,2.09.15,2.63,1,1.19,2.84l-.31,2.36.85.16c2.28.08,2.39.93,1,2.32h0a2.45,2.45,0,0,1,1.06,2.83l-1.52,4.73-11.81,5.56-19.43-36.44-3.14-20.15A7.66,7.66,0,0,1,590,173.31Z"/><path class="cls-7" d="M536.15,190.07h0a7,7,0,0,0-11.61,6c.94,10.11,1.93,20.87,1.93,20.87l-1.63,28,14.85,3.19.57-4,1.51-.85-1-2.32h0a1.62,1.62,0,0,0,1.77-1.46,1.78,1.78,0,0,0-.06-.65l-1-3.08h0a.91.91,0,0,0,1.43-1L542,232l3.94-27.62-8.51-12.88A6.75,6.75,0,0,0,536.15,190.07Z"/><polygon class="cls-7" points="366.17 242.77 364.78 242.77 364.78 296.31 465.29 296.31 465.29 294.92 366.17 294.92 366.17 242.77"/><path class="cls-8" d="M516.83,296.06a9,9,0,0,0-9-9H471a9,9,0,0,0,0,18.07H507.8A9,9,0,0,0,516.83,296.06Z"/><circle class="cls-4" cx="366.05" cy="239.66" r="8.3"/><polygon class="cls-7" points="217.08 243.47 218.47 243.47 218.47 297 117.95 297 117.95 295.61 217.08 295.61 217.08 243.47"/><path class="cls-8" d="M75.44,305.79h36.83a9,9,0,1,0,0-18.07H75.44a9,9,0,0,0,0,18.07Z"/><circle class="cls-4" cx="218.74" cy="239.2" r="8.3"/><path class="cls-9" d="M663.28,463.07H640.22l-.1-.18c-.3-.53-.58-1.1-.85-1.68-2.37-5.09-3.38-10.9-4.26-16l-.67-3.87A2.39,2.39,0,0,1,638.1,439l10.52,7.64c1.33,1,2.84,2.09,4.29,3.3.14-.68.29-1.37.44-2a2.38,2.38,0,0,1,4.36-.75l2.7,4.33c2,3.17,3.7,6.29,3.35,9.65a.49.49,0,0,1,0,.12,7.37,7.37,0,0,1-.39,1.62Z"/><path class="cls-10" d="M686.42,463.57l-219.13.21a.83.83,0,0,1,0-1.65l219.13-.21a.83.83,0,1,1,0,1.65Z"/><circle class="cls-11" cx="138.75" cy="204.58" r="25.02"/><path class="cls-6" d="M233.53,191.81H217a2.44,2.44,0,1,1,0-4.88h16.5a2.44,2.44,0,0,1,0,4.88Z"/><path class="cls-4" d="M262.16,206.28H188.4a2.44,2.44,0,0,1,0-4.88h73.76a2.44,2.44,0,0,1,0,4.88Z"/><path class="cls-4" d="M262.16,222.23H188.4a2.44,2.44,0,1,1,0-4.87h73.76a2.44,2.44,0,1,1,0,4.87Z"/></g></g></svg>