<svg xmlns="http://www.w3.org/2000/svg" viewBox="0 0 750 500"><defs><style>.cls-1{fill:#f1f1f1;}.cls-2{fill:#fff;}.cls-3{fill:#e4e4e4;}.cls-4{fill:#ecb4b4;}.cls-5{fill:#1c313a;}.cls-6{fill:#99ebb2;}.cls-7{fill:#323242;}.cls-8{fill:#efefef;}.cls-9{fill:#c8c8c8;}.cls-10{fill:#413f56;}</style></defs><title>Illustrations</title><g id="Speech_Bubble" data-name="Speech Bubble"><path class="cls-1" d="M464.11,203.76H132.34a11.16,11.16,0,0,1-11.15-11.15v-130a11.16,11.16,0,0,1,11.15-11.15H464.11a11.17,11.17,0,0,1,11.15,11.15V192.61A11.17,11.17,0,0,1,464.11,203.76Z"/><path class="cls-2" d="M386.73,196.64H185a56.76,56.76,0,0,1-56.7-56.7V115.23A56.76,56.76,0,0,1,185,58.53H411.44a56.76,56.76,0,0,1,56.7,56.7A81.5,81.5,0,0,1,386.73,196.64Z"/><path class="cls-3" d="M334.69,95.76H201.35a2.88,2.88,0,1,1,0-5.76H334.69a2.88,2.88,0,0,1,0,5.76Z"/><path class="cls-3" d="M402.19,126.44H201.35a2.88,2.88,0,1,1,0-5.75H402.19a2.88,2.88,0,1,1,0,5.75Z"/><path class="cls-3" d="M402.19,157.12H201.35a2.88,2.88,0,1,1,0-5.75H402.19a2.88,2.88,0,1,1,0,5.75Z"/><path class="cls-3" d="M402.19,157.12H201.35a2.88,2.88,0,1,1,0-5.75H402.19a2.88,2.88,0,1,1,0,5.75Z"/><path class="cls-4" d="M320.62,130a5.92,5.92,0,0,0,6.14,5.7,5.19,5.19,0,0,0,1-.13l11,18,4.66-9.9-11.12-15.57A6,6,0,0,0,320.62,130Z"/><path class="cls-5" d="M402.92,181.52,365.12,161,353.2,149.83s-5.18-1.38-3.27-3.07-3.53-3.31-3.53-3.31l-6.4-6-9.09,6.43,2.63,4.08s-.18,6.75,3.52,5.46,2.77,4.3,2.77,4.3L361.92,192Z"/><circle class="cls-6" cx="291.36" cy="125.29" r="36.91"/><polygon class="cls-4" points="403.03 450.39 395.36 450.39 391.7 420.79 403.03 420.79 403.03 450.39"/><path class="cls-5" d="M407.08,463.69h-5.5l-1-5.2-2.52,5.2h-14.6a3.28,3.28,0,0,1-1.86-6l11.66-8V444.4l12.26.74Z"/><polygon class="cls-4" points="341.65 450.39 333.97 450.39 330.32 420.79 341.65 420.79 341.65 450.39"/><path class="cls-5" d="M345.7,463.69h-5.51l-1-5.2-2.52,5.2h-14.6a3.28,3.28,0,0,1-1.86-6l11.66-8V444.4l12.26.74Z"/><rect class="cls-4" x="356.15" y="226.49" width="38.74" height="44.1"/><path class="cls-5" d="M357,248.25,350.49,256l-11.33,23.84-28.53,67.89-6,14.36,4.87,25.38s.79,17.88.79,20.81c0,6,5,9.26,5,9.26l3.66,19.05,35.46-1.49s-1.24-21-8.66-26.29-10.84-32.9-10.84-32.9l-4-12.24L370.16,317l.25,16.3.12,7.89s-5.76,51.31,1,61.27.13,8.78.13,8.78l.32,20.54,42,.3L404.69,373s-4.71-3.71-2.19-7.45-2.44-8.31-2.44-8.31L402.29,311s-2.47-8,.43-9,.38-7.9.38-7.9l.43-8.93-8.64-27.72Z"/><path class="cls-5" d="M395.49,226.49,399.66,214l3-4.18,1.19-11.92c0-32.18-7.18-26.82-7.18-26.82l-4.14-11.32-19.08-.6-12.21,11.63-10.14,3.57-4,20.62,7.24,22,1.79,11.92c-3.41,6.29-3.12,3.31-.3,8l33.68,9.24c11.92,4.17,11.92-6.56,9.53-9.24S395.49,226.49,395.49,226.49Z"/><circle class="cls-4" cx="380.51" cy="137.46" r="17.68"/><path class="cls-7" d="M404.11,161.06a2.18,2.18,0,0,1-.76,3,2.28,2.28,0,0,1-.45.2c-2.37.79-3.83,3.08-5.54,4.92s-4.43,3.35-6.6,2.1-2.31-4.4-4.13-6.12-4.69-1.47-6.77-.2l-.06,0a2.18,2.18,0,0,1-3-.64,2.15,2.15,0,0,1-.32-1.58q1.08-5.81,2.18-11.6a39,39,0,0,1-8.16,12.34,9,9,0,0,1-3.54,2.49c-1.24.39-2.45-.89-3.65-.65,3-2.62,13-19.39,11.25-30.6l-6.35.71a5.72,5.72,0,0,0-1.41-2.67,6.9,6.9,0,0,1-.37,2.88l-2.65.29a5.71,5.71,0,0,1-3.62-.38c-1.76-1.08-1.81-3.62-1.31-5.62a20.66,20.66,0,0,1,11.36-13.24c5.44-2.55,7.05,3.12,12.78,1.31,11.32-3.58,20,2.54,23.06,13.89C408.6,141.42,406.73,151.53,404.11,161.06Z"/><path class="cls-8" d="M453.06,464.08H431.41l-.1-.17c-.27-.51-.54-1-.79-1.58-2.23-4.78-3.17-10.24-4-15.06l-.63-3.63a2.24,2.24,0,0,1,3.53-2.19c3.29,2.39,6.58,4.79,9.87,7.17,1.25.91,2.67,2,4,3.1.13-.64.27-1.28.4-1.92a2.25,2.25,0,0,1,2.67-1.71,2.22,2.22,0,0,1,1.43,1l2.53,4.07c1.85,3,3.48,5.9,3.15,9.05a.49.49,0,0,1,0,.12,6.62,6.62,0,0,1-.37,1.52Z"/><path class="cls-9" d="M474.79,464.54l-205.73.2a.78.78,0,0,1,0-1.55l205.73-.2a.78.78,0,0,1,0,1.55Z"/><path class="cls-10" d="M288,175l-22.63-19.11a3.82,3.82,0,0,1-.45-5.38l4.16-4.93a3.83,3.83,0,0,1,5.39-.46L297.1,164.2a3.83,3.83,0,0,1,.45,5.39l-4.16,4.93A3.83,3.83,0,0,1,288,175Z"/><path class="cls-2" d="M266.56,150.88a2.06,2.06,0,0,0,.25,2.9l22.62,19.11a2.07,2.07,0,0,0,2.91-.25l4.16-4.93a2.07,2.07,0,0,0-.24-2.9L273.63,145.7a2.07,2.07,0,0,0-2.9.24Z"/><path class="cls-6" d="M279.85,158.3a.88.88,0,0,1-.69.37l-3.56.08a.87.87,0,1,1,0-1.74l2.33,0-2.29-6.05a.87.87,0,1,1,1.62-.61l2.73,7.19a.85.85,0,0,1-.09.79Z"/><path class="cls-4" d="M280.3,159.82a5.94,5.94,0,0,1,5,6.73,6.9,6.9,0,0,1-.25,1l16.69,12.86L291.4,184l-14.26-12.76a6,6,0,0,1,3.16-11.41Z"/><path class="cls-5" d="M367.2,166.18l-42.74,26.28s-17.23-6.38-13.86-9.33-7.35-4.95-7.35-4.95l-11.84-8-6.87,8s1.25,13,3.38,10.73,5.31,3.89,5.31,3.89.94,6.85,7,5.12,22.34,16.35,22.34,16.35l52.59-19.61Z"/><path class="cls-2" d="M290.06,140.1a3.19,3.19,0,0,1-2.55-1.28l-7.83-10.43a3.19,3.19,0,0,1,5.11-3.83h0l5.12,6.82,13.15-19.72a3.19,3.19,0,1,1,5.31,3.54l-15.66,23.48a3.19,3.19,0,0,1-2.56,1.42Z"/></g></svg>