<svg xmlns="http://www.w3.org/2000/svg" viewBox="0 0 750 500"><defs><style>.cls-1{fill:#ecb6b6;}.cls-2{fill:#323242;}.cls-3{fill:#1c313a;}.cls-4{fill:#99ebb2;}.cls-5{fill:#cacaca;}.cls-6{fill:#f1f1f1;}.cls-7{fill:#fff;}.cls-8{fill:#413f56;}</style></defs><title>Illustrations</title><g id="Speech_Bubble" data-name="Speech Bubble"><circle class="cls-1" cx="126.65" cy="226.61" r="15.52"/><polygon class="cls-1" points="74.22 412.54 78.15 419.21 105.77 407.24 99.97 397.39 74.22 412.54"/><path class="cls-2" d="M75.4,409.56l7.74,13.14h0A9.72,9.72,0,0,1,79.69,436h0l-.27.16L66.75,414.65Z"/><polygon class="cls-1" points="119.74 436.59 127.49 436.58 131.17 406.71 119.74 406.71 119.74 436.59"/><path class="cls-2" d="M117.77,434.06H133a9.72,9.72,0,0,1,9.72,9.72h0v.31h-25Z"/><path class="cls-3" d="M88.61,418.49a2.82,2.82,0,0,1-2.29-1.16l-7.47-10.15a2.84,2.84,0,0,1,.6-4l.11-.08,33.23-22.2L92.74,328.2l42.89,3.54,1.44,45.32a22.77,22.77,0,0,1-11.4,20.48L90,418.1A2.89,2.89,0,0,1,88.61,418.49Z"/><path class="cls-3" d="M120,430.52a2.84,2.84,0,0,1-2.84-2.74l-1.57-44.15,19.46-1-1.55,44.46a2.83,2.83,0,0,1-2.65,2.74l-10.66.7Z"/><path class="cls-4" d="M140.59,340.51c-5,0-22.25-5.57-28.25-7.56-.9.72-5.83,4.41-11.59,3.74-3.56-.42-6.69-2.43-9.3-6-5.78-7.85,1.35-41.48,8.36-68.31a21.65,21.65,0,0,1,25.6-15.72h0a21.84,21.84,0,0,1,16.48,16c1.32,5.37.19,11.69-.64,16.3a21.76,21.76,0,0,0-.59,4.72c.4,3.25,2.66,54.26,1.21,56.44C141.72,340.4,141.27,340.51,140.59,340.51Z"/><path class="cls-1" d="M122.48,340.6a6.77,6.77,0,0,0,.59-10.39l.31-61.81-14.56,2.42,4.28,60a6.82,6.82,0,0,0,9.38,9.78Z"/><path class="cls-4" d="M125.84,308.09H110.16a2.85,2.85,0,0,1-2.84-2.82l-.39-42.51a11.12,11.12,0,1,1,22.24-.2.89.89,0,0,1,0,.23l-.48,42.49A2.85,2.85,0,0,1,125.84,308.09Z"/><path class="cls-3" d="M122.7,242.06a15.76,15.76,0,0,1-15-12.6,18.16,18.16,0,0,1,.58-8.22,22.08,22.08,0,0,1,27.43-14.93,20.89,20.89,0,0,1,2.86,1.06,8.82,8.82,0,0,1,4.64,4c.87,1.9.32,4.54-1.58,5.4-1.24.56-2.81.28-3.91,1.08-1.58,1.15-1.18,3.6-.47,5.42s1.51,4,.32,5.6-3.31,1.4-5.05.86-3.46-1.47-5.28-1.28c-2.64.27-4.55,2.9-4.9,5.54s.48,5.28,1.3,7.81Z"/><path class="cls-5" d="M195.17,444.69h-163a.63.63,0,0,1-.63-.63.64.64,0,0,1,.63-.64h163a.64.64,0,0,1,.63.64A.63.63,0,0,1,195.17,444.69Z"/><path class="cls-6" d="M606.51,340.11H201.67a10.43,10.43,0,0,1-10.43-10.42V80.06a7.65,7.65,0,0,1,7.64-7.64H609.16a7.77,7.77,0,0,1,7.77,7.77v249.5A10.43,10.43,0,0,1,606.51,340.11Z"/><path class="cls-7" d="M593.42,327H216.12c-5.53,0-10-4.21-10-9.39V100.18a7.22,7.22,0,0,1,7.43-7H595.89a7.34,7.34,0,0,1,7.56,7.08V317.56C603.45,322.74,599,327,593.42,327Z"/><path class="cls-8" d="M616.79,81.36H191.1V76.05a10.48,10.48,0,0,1,10.46-10.46H606.32a10.48,10.48,0,0,1,10.47,10.46Z"/><circle class="cls-7" cx="210.11" cy="73.49" r="2.71"/><circle class="cls-7" cx="220.38" cy="73.49" r="2.71"/><circle class="cls-7" cx="230.65" cy="73.49" r="2.71"/><path class="cls-5" d="M395.82,140.74H322a4.15,4.15,0,1,1,0-8.29h73.79a4.15,4.15,0,1,1,0,8.29Z"/><path class="cls-5" d="M487.51,140.74H413.72a4.15,4.15,0,1,1,0-8.29h73.79a4.15,4.15,0,0,1,0,8.29Z"/><path class="cls-5" d="M487.51,156.46H359.14a4.15,4.15,0,1,1,0-8.3H487.51a4.15,4.15,0,1,1,0,8.3Z"/><path class="cls-5" d="M395.82,124.8H322a4.15,4.15,0,1,1,0-8.29h73.79a4.15,4.15,0,0,1,0,8.29Z"/><path class="cls-5" d="M436.42,125H415.47a4.15,4.15,0,1,1,0-8.29h20.95a4.15,4.15,0,1,1,0,8.29Z"/><path class="cls-5" d="M343,156.46H322a4.15,4.15,0,1,1,0-8.3h21a4.15,4.15,0,0,1,0,8.3Z"/><path class="cls-5" d="M395.82,287.94H322a4.15,4.15,0,0,1,0-8.3h73.79a4.15,4.15,0,0,1,0,8.3Z"/><path class="cls-5" d="M487.51,287.94H413.72a4.15,4.15,0,0,1,0-8.3h73.79a4.15,4.15,0,1,1,0,8.3Z"/><path class="cls-5" d="M487.51,303.65H359.14a4.15,4.15,0,1,1,0-8.29H487.51a4.15,4.15,0,1,1,0,8.29Z"/><path class="cls-5" d="M395.82,272H322a4.15,4.15,0,0,1,0-8.3h73.79a4.15,4.15,0,0,1,0,8.3Z"/><path class="cls-5" d="M436.42,272.22H415.47a4.15,4.15,0,0,1,0-8.3h20.95a4.15,4.15,0,0,1,0,8.3Z"/><path class="cls-5" d="M343,303.65H322a4.15,4.15,0,1,1,0-8.29h21a4.15,4.15,0,1,1,0,8.29Z"/><path class="cls-3" d="M376.54,243.4a5.9,5.9,0,0,1-4.18-1.71L344.62,214.3a5.79,5.79,0,0,1-.05-8.18l.05-.05,27.63-27.28a6.13,6.13,0,0,1,8.62,0h0a6.12,6.12,0,0,1,0,8.64L360.34,208a3.42,3.42,0,0,0,0,4.83l20.42,20.42a6,6,0,0,1,0,8.42,5.89,5.89,0,0,1-4.22,1.74Z"/><path class="cls-3" d="M420.74,243.4a6,6,0,0,1-4.21-10.16L437,212.82a3.42,3.42,0,0,0,0-4.83l-20.53-20.53a6.11,6.11,0,0,1,0-8.64h0a6.13,6.13,0,0,1,8.62,0l27.63,27.28a5.79,5.79,0,0,1,.05,8.18l-.05.05-27.74,27.39A5.92,5.92,0,0,1,420.74,243.4Z"/></g></svg>