<svg xmlns="http://www.w3.org/2000/svg" viewBox="0 0 750 500"><defs><style>.cls-1{isolation:isolate;}.cls-2{fill:#c8c8c8;}.cls-3{fill:#f1f1f1;}.cls-4{fill:#e4e4e4;}.cls-5{fill:#323242;}.cls-6{fill:#ecb6b6;}.cls-7{fill:#6963fa;}.cls-8{fill:#413f56;}.cls-9{fill:#99ebb2;}.cls-10{fill:#1c313a;mix-blend-mode:multiply;}</style></defs><title>Illustrations</title><g class="cls-1"><g id="Speech_Bubble" data-name="Speech Bubble"><path class="cls-2" d="M500.56,377.71h0a169.81,169.81,0,0,1-1.42-36.88l1.42-20.37h0c-7.86,15.65-6.08,36.25,0,57.25Z"/><path class="cls-2" d="M506.7,381.12h0a125.89,125.89,0,0,1-.69-22L506.7,347h0C502.91,356.36,503.77,368.62,506.7,381.12Z"/><path class="cls-3" d="M534,396.11v6.82a2.07,2.07,0,0,1-2.05,2.05h-3.41a.67.67,0,0,0-.68.67h0v55.89a2,2,0,0,1-2,2H484.21a2.05,2.05,0,0,1-2-2V405.66a.67.67,0,0,0-.68-.68h-4.09a2.05,2.05,0,0,1-2-2.05v-6.82a2,2,0,0,1,2-2h54.53A2.06,2.06,0,0,1,534,396.11Z"/><rect class="cls-4" x="482.23" y="406.41" width="45.67" height="2.04"/><path class="cls-4" d="M527.83,436.5c-15.28,6.32-30.73,6.39-46.35,0V422.09a72.8,72.8,0,0,1,46.35,0Z"/><circle class="cls-5" cx="308.37" cy="182.49" r="24.81"/><path class="cls-5" d="M315.28,158.36a24.81,24.81,0,0,1,21.84,36.58,24.8,24.8,0,1,0-38.75-31,25.48,25.48,0,0,0-2.46,3.72A24.76,24.76,0,0,1,315.28,158.36Z"/><circle class="cls-5" cx="262.01" cy="109.56" r="72.87"/><path class="cls-5" d="M204.82,64.35a72.86,72.86,0,0,1,101-7.64c-.59-.57-1.18-1.14-1.8-1.69a72.87,72.87,0,0,0-96.83,108.92c.61.56,1.25,1.07,1.88,1.6A72.86,72.86,0,0,1,204.82,64.35Z"/><circle class="cls-6" cx="261.4" cy="134.88" r="46.93"/><path class="cls-2" d="M285.37,194.56l-50.22,2.26s4.19,26-23,28.44-51.88-4.94-61.76,13.59-5.62,84.49-5.62,84.49,18.52,66.7,33.35,76.58,144.5-3.71,144.5-3.71l54.28-68.53-1.84-52.85c-1-27.6-26.16-48.32-53.3-43.21l-1.61.32c-.81.18-6-4.45-22.32-12.63C287.85,214.31,285.37,194.56,285.37,194.56Z"/><path class="cls-5" d="M176.35,224s11.93,21.66,7,52.54,15.79,96.19,15.79,96.19L214,369s-9.88-64.23-7.41-79.05,3.16-58.55-9.2-66S176.35,224,176.35,224Z"/><path class="cls-5" d="M319.3,235.38l5.2,136.75,9.88,6.17s14.2-150.06,6.79-150.06H326.09A6.79,6.79,0,0,0,319.3,235h0Z"/><circle class="cls-7" cx="205.93" cy="363.48" r="6.18"/><circle class="cls-7" cx="329.44" cy="369.66" r="6.18"/><polygon class="cls-5" points="221.25 76.21 221.25 123.15 232.13 123.15 245.96 108.33 244.1 123.15 292.15 123.15 289.19 108.33 295.11 123.15 302.77 123.15 302.77 76.21 221.25 76.21"/><ellipse class="cls-6" cx="213.84" cy="125" rx="3.71" ry="6.79"/><ellipse class="cls-6" cx="308.95" cy="125" rx="3.71" ry="6.79"/><path class="cls-8" d="M411.75,451.35v4.14a9.22,9.22,0,0,1-.62,3.32,11.37,11.37,0,0,1-.66,1.36,9.19,9.19,0,0,1-7.88,4.47H98.23a9.19,9.19,0,0,1-7.88-4.47,11.37,11.37,0,0,1-.66-1.36,9.22,9.22,0,0,1-.62-3.32v-4.14a9.15,9.15,0,0,1,9.15-9.15h17.55v-1.93a.38.38,0,0,1,.38-.38h9.16a.38.38,0,0,1,.38.38v1.93h5.72v-1.93a.38.38,0,0,1,.38-.38h9.15a.38.38,0,0,1,.38.38v1.93h5.73v-1.93a.38.38,0,0,1,.38-.38h9.15a.38.38,0,0,1,.39.38v1.93h5.72v-1.93a.37.37,0,0,1,.38-.38h9.15a.38.38,0,0,1,.38.38v1.93h5.72v-1.93a.38.38,0,0,1,.38-.38h9.16a.38.38,0,0,1,.38.38v1.93H194v-1.93a.38.38,0,0,1,.38-.38h9.16a.38.38,0,0,1,.38.38v1.93h5.72v-1.93a.38.38,0,0,1,.38-.38h71.71a.38.38,0,0,1,.38.38h0v1.93h5.72v-1.93a.38.38,0,0,1,.38-.38h9.16a.38.38,0,0,1,.38.38v1.93h5.72v-1.93a.38.38,0,0,1,.38-.38H313a.39.39,0,0,1,.39.38h0v1.93h5.71v-1.93a.38.38,0,0,1,.38-.38h9.16a.38.38,0,0,1,.38.38h0v1.93h5.73v-1.93a.38.38,0,0,1,.38-.38h9.15a.38.38,0,0,1,.38.38v1.93h5.72v-1.93a.38.38,0,0,1,.38-.38h9.16a.38.38,0,0,1,.38.38h0v1.93H366v-1.93a.38.38,0,0,1,.38-.38h9.15a.39.39,0,0,1,.39.38h0v1.93h26.69a9.14,9.14,0,0,1,9.16,9.15Z"/><path class="cls-8" d="M387.24,277.11H108.44a7.68,7.68,0,0,0-7.68,7.67h0V440.13a7.67,7.67,0,0,0,7.68,7.67h278.8a7.66,7.66,0,0,0,7.67-7.67V284.78a7.67,7.67,0,0,0-7.67-7.67Z"/><circle class="cls-9" cx="248.06" cy="331.34" r="17.04"/><polygon class="cls-8" points="353.55 218.77 439.57 132.07 480.18 132.07 480.18 130.71 439 130.71 438.8 130.91 352.58 217.81 353.55 218.77"/><rect class="cls-10" x="529.78" y="96.47" width="99.67" height="8.88"/><path class="cls-8" d="M517.64,111h-21.1V89.87h21.1Zm-19.74-1.36h18.37V91.23H497.9Z"/><rect class="cls-10" x="529.78" y="126.08" width="99.67" height="8.88"/><path class="cls-8" d="M517.64,140.57h-21.1v-21.1h21.1Zm-19.74-1.36h18.37V120.84H497.9Z"/><rect class="cls-10" x="529.78" y="155.68" width="99.67" height="8.88"/><path class="cls-8" d="M517.64,170.18h-21.1v-21.1h21.1Zm-19.74-1.37h18.37V150.44H497.9Z"/></g></g></svg>