<svg xmlns="http://www.w3.org/2000/svg" viewBox="0 0 750 500"><defs><style>.cls-1,.cls-10,.cls-5{fill:#9aedb4;}.cls-2{opacity:0.7;}.cls-3,.cls-6{fill:#fff;}.cls-4{fill:#c6ff00;}.cls-5{opacity:0.5;}.cls-10,.cls-6,.cls-7,.cls-8{stroke:#263238;}.cls-10,.cls-6,.cls-7,.cls-8,.cls-9{stroke-linecap:round;stroke-linejoin:round;stroke-width:0.75px;}.cls-7,.cls-9{fill:none;}.cls-8{fill:#263238;}.cls-9{stroke:#fff;}</style></defs><title>Illustrations</title><g id="Speech_Bubble" data-name="Speech Bubble"><path class="cls-1" d="M381.86,132.62V111c-16.57,4.12-31.78,11.38-46.7,21.6Z"/><rect class="cls-1" x="388.37" y="140.41" width="114.36" height="141.94"/><path class="cls-1" d="M381.86,140.41H324.45c-12.83,9.6-26,19.32-41.37,24.86-5.14,1.86-10.34,3.49-15.58,5V282.35H381.86Z"/><path class="cls-1" d="M525.35,163.12A92.74,92.74,0,0,0,509.24,142V282.35H521C539.08,246.18,545,198.77,525.35,163.12Z"/><path class="cls-1" d="M261,172.1c-6.23,1.71-12.5,3.32-18.79,5-49.18,13.15-79.71,57.37-74.06,105.25H261Z"/><path class="cls-1" d="M509.24,290.14v11.69q2.17-2.9,4.15-6c1.18-1.85,2.32-3.76,3.44-5.7Z"/><path class="cls-1" d="M502.73,290.14H388.37V350c9.51.12,18.94.88,28.56-.17,31.58-3.44,63.94-16.36,85.8-40.18Z"/><path class="cls-1" d="M388.37,132.62H498.31C476,116,447.07,107.74,419.69,107.08a144.62,144.62,0,0,0-31.32,2.49Z"/><path class="cls-1" d="M381.86,290.14H267.5v85.2c19.83.34,39.75-5.36,58.55-11.74,14.94-5.06,30-10.3,45.78-12.66a85.38,85.38,0,0,1,10-.86Z"/><path class="cls-1" d="M261,290.14H169.38c7.22,35,35.08,66.91,70.12,80.05A80.43,80.43,0,0,0,261,375Z"/><g class="cls-2"><path class="cls-3" d="M381.86,132.62V111c-16.57,4.12-31.78,11.38-46.7,21.6Z"/><rect class="cls-3" x="388.37" y="140.41" width="114.36" height="141.94"/><path class="cls-3" d="M381.86,140.41H324.45c-12.83,9.6-26,19.32-41.37,24.86-5.14,1.86-10.34,3.49-15.58,5V282.35H381.86Z"/><path class="cls-3" d="M525.35,163.12A92.74,92.74,0,0,0,509.24,142V282.35H521C539.08,246.18,545,198.77,525.35,163.12Z"/><path class="cls-3" d="M261,172.1c-6.23,1.71-12.5,3.32-18.79,5-49.18,13.15-79.71,57.37-74.06,105.25H261Z"/><path class="cls-3" d="M509.24,290.14v11.69q2.17-2.9,4.15-6c1.18-1.85,2.32-3.76,3.44-5.7Z"/><path class="cls-3" d="M502.73,290.14H388.37V350c9.51.12,18.94.88,28.56-.17,31.58-3.44,63.94-16.36,85.8-40.18Z"/><path class="cls-3" d="M388.37,132.62H498.31C476,116,447.07,107.74,419.69,107.08a144.62,144.62,0,0,0-31.32,2.49Z"/><path class="cls-3" d="M381.86,290.14H267.5v85.2c19.83.34,39.75-5.36,58.55-11.74,14.94-5.06,30-10.3,45.78-12.66a85.38,85.38,0,0,1,10-.86Z"/><path class="cls-3" d="M261,290.14H169.38c7.22,35,35.08,66.91,70.12,80.05A80.43,80.43,0,0,0,261,375Z"/></g><polygon class="cls-4" points="525.17 314.02 520.93 314.02 329.46 314.02 325.22 314.02 325.22 322.5 329.46 322.5 329.46 408.7 520.93 408.7 520.93 322.5 525.17 322.5 525.17 314.02"/><polygon class="cls-1" points="525.17 314.02 520.93 314.02 329.46 314.02 325.22 314.02 325.22 322.5 329.46 322.5 329.46 408.7 520.93 408.7 520.93 322.5 525.17 322.5 525.17 314.02"/><path class="cls-3" d="M334.58,359.06h52.23v-27.9H334.58Zm1.06-26.84h50.11V358H335.64Z"/><path class="cls-3" d="M399.44,359.06h52.22v-27.9H399.44Zm1.06-26.84h50.1V358H400.5Z"/><path class="cls-3" d="M464.29,331.16v27.9h52.22v-27.9ZM515.45,358h-50.1V332.22h50.1Z"/><path class="cls-3" d="M334.58,396.51h52.23V368.6H334.58Zm1.06-26.85h50.11v25.79H335.64Z"/><path class="cls-3" d="M399.44,396.51h52.22V368.6H399.44Zm1.06-26.85h50.1v25.79H400.5Z"/><path class="cls-3" d="M464.29,396.51h52.22V368.6H464.29Zm1.06-26.85h50.1v25.79h-50.1Z"/><ellipse class="cls-3" cx="361.25" cy="345.46" rx="8.48" ry="3.18"/><ellipse class="cls-3" cx="425.79" cy="345.46" rx="8.48" ry="3.18"/><ellipse class="cls-3" cx="492.21" cy="345.46" rx="8.48" ry="3.18"/><path class="cls-3" d="M361.25,379.73c-4.68,0-8.47,1.42-8.47,3.18s3.79,3.18,8.47,3.18,8.48-1.42,8.48-3.18S365.94,379.73,361.25,379.73Z"/><path class="cls-3" d="M425.79,379.73c-4.68,0-8.47,1.42-8.47,3.18s3.79,3.18,8.47,3.18,8.48-1.42,8.48-3.18S430.48,379.73,425.79,379.73Z"/><path class="cls-3" d="M492.21,379.73c-4.68,0-8.48,1.42-8.48,3.18s3.8,3.18,8.48,3.18,8.48-1.42,8.48-3.18S496.89,379.73,492.21,379.73Z"/><path class="cls-1" d="M252.36,306.62c-3.86,5.72-9.24,13.17-12.11,19.15,1.09-3.94,2.16-7.66,3.13-11,1.47-2.88,5.41-10.18,10-15,5.77-6.18,8.24-10.14,5.13-10.49-2.15-.24-8.45,8.15-12.4,16.49.86-2.85,1.54-5,1.95-6.3.19-.57.37-1.21.55-1.88a165.38,165.38,0,0,0,11.14-17.86c5.83-10.9,7.71-21.18,3.82-16.75-3.58,4.07-9.81,24.3-14.76,33.83.42-1.64.82-3.46,1.17-5.25.7-1.73,1.62-3.49,2.14-5.09.81-2.45,1.52-4.94,2.09-7.46a51.86,51.86,0,0,0,1.42-12,24.31,24.31,0,0,0-3.72-13.44c-.67-1-4.76-7.12-6-4a3.37,3.37,0,0,0-.09,1.61c.6,5.21,2.49,10,3.66,15.07,1.75,7.59.59,20.34,0,25.76-.22.85-.5,1.92-.83,3.15.81-9.45-3.28-20.64-7.07-22.59-4.69-2.42-.09,7.08,3.53,15.37a24.69,24.69,0,0,1,2.35,11.64c-.74,2.73-1.59,5.79-2.47,8.89-.17.43-.34.85-.5,1.27a26.55,26.55,0,0,0,.5-6.15c-.35-5.42-6.49-16.27-10.57-14.74s2.83,7.26,6.52,13.92A20.07,20.07,0,0,1,243,314.64c0,.24-.08.48-.11.72-.42,1.41-.84,2.78-1.25,4.07-1,3-1.85,5.88-2.7,8.66a43.32,43.32,0,0,0,1.36-12.35c-.51-7.95-5.16-15.45-9-16.47s3.49,11.93,5.95,19.21a26.12,26.12,0,0,1,.66,13.14c-1.19,3.94-2.31,7.82-3.46,11.94a99.4,99.4,0,0,0-.34-16.15c-.75-8.84-6-14.49-9.63-14.26s.16,5.25,5.38,16a35.93,35.93,0,0,1,3.56,18.18c-.47,1.74-1,3.52-1.44,5.38-.56,2.12-1,4.42-1.39,6.78-.53-2.1-1.31-5.18-2.22-8.58a76.25,76.25,0,0,1-2.3-11.48c-.49-4.51-1.68-10.13-6.1-12.48a2.49,2.49,0,0,0-3.7,1,4.91,4.91,0,0,0-.27,3.06,33.73,33.73,0,0,0,3,8.82,10.18,10.18,0,0,0-1.15,5.41c0,.71.06,1.41.11,2.1-.39-.71-.76-1.37-1.11-2a12.93,12.93,0,0,0-2.32-2.86,37.11,37.11,0,0,0,.34-5c0-2.2-2.57-7.78-4.89-3.64-.92,1.65-.75,4.91-.84,7.07-.63.59-.82,1.81-.29,3.74a48.17,48.17,0,0,0,.78,15l-.79-1.4a109.83,109.83,0,0,1-2-17.54C206.46,331,208,323,205.36,320s-4.13,7.55-3,19a48,48,0,0,0,4.14,15.17c-2.6-4.67-5.17-9.43-7.6-14-1-2.46-3.48-9.08-2.87-15.8.77-8.48,1.33-15.41-1.89-20.18s-3.89-1.68-2.31,8.26c1.08,6.83,2.23,15.95,4.22,22.28-1.89-3.63-3.66-7.08-5.24-10.21-.9-3.11-3-11.13-3-17.78,0-8.45-.91-13-3.41-11.17-1.74,1.3-.62,11.73,2.18,20.51-1.31-2.67-2.3-4.72-2.87-5.93-.26-.55-.55-1.13-.88-1.75a165.34,165.34,0,0,0-4.05-20.65c-3.17-12-8.81-20.74-8.64-14.86.16,5.42,9.42,24.46,12.31,34.8-.82-1.48-1.77-3.08-2.73-4.63-.67-1.74-1.2-3.65-1.91-5.18-1.09-2.34-2.26-4.65-3.57-6.88a51.59,51.59,0,0,0-7.16-9.76,24.29,24.29,0,0,0-11.9-7.28c-1.18-.28-8.34-2-7.12,1.2a3.5,3.5,0,0,0,1,1.24c4,3.4,8.64,5.61,13,8.52,6.46,4.35,14.31,14.46,17.55,18.84l1.54,2.88c-5.85-7.46-16.48-12.85-20.58-11.69-5.08,1.43,4.77,5.24,13.07,8.83a24.61,24.61,0,0,1,9.66,6.91c1.32,2.49,2.79,5.31,4.26,8.18.17.43.33.85.51,1.26a26.49,26.49,0,0,0-3.84-4.83c-3.95-3.72-15.85-7.46-17.78-3.56s7,3.37,14.26,5.72a20,20,0,0,1,9.71,7.28l.41.61c.66,1.32,1.28,2.6,1.87,3.83,1.36,2.86,2.66,5.55,3.94,8.17a43.27,43.27,0,0,0-7.44-10c-5.8-5.46-14.32-7.77-17.85-5.87s10.7,6.34,17.46,10a26.1,26.1,0,0,1,9.45,9.15c1.82,3.69,3.65,7.3,5.62,11.09a100.3,100.3,0,0,0-11.27-11.57c-6.58-5.94-14.28-6.48-16.77-3.85s3.7,3.73,14.84,8a36,36,0,0,1,15,10.86c.84,1.59,1.7,3.22,2.62,4.91a67,67,0,0,0,3.61,5.91c-1.82-1.18-4.5-2.9-7.48-4.76a75.48,75.48,0,0,1-9.51-6.82c-3.44-3-8.15-6.26-13-5a2.5,2.5,0,0,0-2,3.26,4.88,4.88,0,0,0,1.89,2.42c4.56,3.54,10.69,5.24,16,7.32a118.89,118.89,0,0,0,14.93,4.77c1.26,1.81,2.58,3.59,3.89,5.3l-2.38.07c-2.82.08-15.54-5.68-22-7.54s-12.5,1.66-5.73,5.3,25.18,2.83,25.18,2.83L217,373c1.25,1.6,2.48,3.11,3.63,4.5H195.41v7h5l4.05,24.88H238L242,384.52h5v-7H230.28a63.74,63.74,0,0,1,.24-9.06,21.26,21.26,0,0,1,3.69-3c7.34-5.07,19.78-5.49,23.09-15.25.8-2.36-.1-5.38-2.92-5.25-2,.1-4.17,1.87-5.43,3.33-4.2,4.85-7.36,9.88-12.82,13.55-.25.17-3.69,2.91-5.4,4.61.19-1.59.43-3.29.74-5.12a50.27,50.27,0,0,1,4.5-6.67c4.47-5.54,11.27-8.79,16.1-14.08,1.48-1.62,3.43-7.44-1.09-6-2,.65-4.38,3.69-5.95,5.09-4.44,4-9,8.26-11.9,13.52.12-.52.25-1,.37-1.57A111.6,111.6,0,0,1,244,337.45c6.42-7.31,13-12.09,13.11-16.08s-8.17,2.7-15.2,11.86a47.92,47.92,0,0,0-7.32,13.91c1.29-5.19,2.66-10.42,4-15.44.92-2.5,3.65-9,8.68-13.51,6.35-5.67,11.49-10.35,12.4-16S258,298.27,252.36,306.62Zm-35.51,64.32q-1.42-1.94-3-4.24a50,50,0,0,1-1.25-7.95,32.9,32.9,0,0,1,.31-6.87,78.63,78.63,0,0,0,5.43,6.06,30.22,30.22,0,0,1-.73,5.95C217.58,364.18,216.94,368.53,216.85,370.94Zm5.44,6.58c-1.29-1.37-2.7-3-4.23-5a21,21,0,0,1,.65-4.7,33.85,33.85,0,0,1,2.62-7c2.37,2.25,4.11,3.75,4.11,3.75l4,3.5c-.31,3.5-.49,6.77-.6,9.43Zm7.2-10.06-1.79-1.57c-1-.9-2.8-4.38-4.76-8.38a47.76,47.76,0,0,0,2.22-5.2c2.12,3.93,4,7,5.11,8.63C230,363.12,229.7,365.32,229.49,367.46Z"/><path class="cls-5" d="M252.36,306.62c-3.86,5.72-9.24,13.17-12.11,19.15,1.09-3.94,2.16-7.66,3.13-11,1.47-2.88,5.41-10.18,10-15,5.77-6.18,8.24-10.14,5.13-10.49-2.15-.24-8.45,8.15-12.4,16.49.86-2.85,1.54-5,1.95-6.3.19-.57.37-1.21.55-1.88a165.38,165.38,0,0,0,11.14-17.86c5.83-10.9,7.71-21.18,3.82-16.75-3.58,4.07-9.81,24.3-14.76,33.83.42-1.64.82-3.46,1.17-5.25.7-1.73,1.62-3.49,2.14-5.09.81-2.45,1.52-4.94,2.09-7.46a51.86,51.86,0,0,0,1.42-12,24.31,24.31,0,0,0-3.72-13.44c-.67-1-4.76-7.12-6-4a3.37,3.37,0,0,0-.09,1.61c.6,5.21,2.49,10,3.66,15.07,1.75,7.59.59,20.34,0,25.76-.22.85-.5,1.92-.83,3.15.81-9.45-3.28-20.64-7.07-22.59-4.69-2.42-.09,7.08,3.53,15.37a24.69,24.69,0,0,1,2.35,11.64c-.74,2.73-1.59,5.79-2.47,8.89-.17.43-.34.85-.5,1.27a26.55,26.55,0,0,0,.5-6.15c-.35-5.42-6.49-16.27-10.57-14.74s2.83,7.26,6.52,13.92A20.07,20.07,0,0,1,243,314.64c0,.24-.08.48-.11.72-.42,1.41-.84,2.78-1.25,4.07-1,3-1.85,5.88-2.7,8.66a43.32,43.32,0,0,0,1.36-12.35c-.51-7.95-5.16-15.45-9-16.47s3.49,11.93,5.95,19.21a26.12,26.12,0,0,1,.66,13.14c-1.19,3.94-2.31,7.82-3.46,11.94a99.4,99.4,0,0,0-.34-16.15c-.75-8.84-6-14.49-9.63-14.26s.16,5.25,5.38,16a35.93,35.93,0,0,1,3.56,18.18c-.47,1.74-1,3.52-1.44,5.38-.56,2.12-1,4.42-1.39,6.78-.53-2.1-1.31-5.18-2.22-8.58a76.25,76.25,0,0,1-2.3-11.48c-.49-4.51-1.68-10.13-6.1-12.48a2.49,2.49,0,0,0-3.7,1,4.91,4.91,0,0,0-.27,3.06,33.73,33.73,0,0,0,3,8.82,10.18,10.18,0,0,0-1.15,5.41c0,.71.06,1.41.11,2.1-.39-.71-.76-1.37-1.11-2a12.93,12.93,0,0,0-2.32-2.86,37.11,37.11,0,0,0,.34-5c0-2.2-2.57-7.78-4.89-3.64-.92,1.65-.75,4.91-.84,7.07-.63.59-.82,1.81-.29,3.74a48.17,48.17,0,0,0,.78,15l-.79-1.4a109.83,109.83,0,0,1-2-17.54C206.46,331,208,323,205.36,320s-4.13,7.55-3,19a48,48,0,0,0,4.14,15.17c-2.6-4.67-5.17-9.43-7.6-14-1-2.46-3.48-9.08-2.87-15.8.77-8.48,1.33-15.41-1.89-20.18s-3.89-1.68-2.31,8.26c1.08,6.83,2.23,15.95,4.22,22.28-1.89-3.63-3.66-7.08-5.24-10.21-.9-3.11-3-11.13-3-17.78,0-8.45-.91-13-3.41-11.17-1.74,1.3-.62,11.73,2.18,20.51-1.31-2.67-2.3-4.72-2.87-5.93-.26-.55-.55-1.13-.88-1.75a165.34,165.34,0,0,0-4.05-20.65c-3.17-12-8.81-20.74-8.64-14.86.16,5.42,9.42,24.46,12.31,34.8-.82-1.48-1.77-3.08-2.73-4.63-.67-1.74-1.2-3.65-1.91-5.18-1.09-2.34-2.26-4.65-3.57-6.88a51.59,51.59,0,0,0-7.16-9.76,24.29,24.29,0,0,0-11.9-7.28c-1.18-.28-8.34-2-7.12,1.2a3.5,3.5,0,0,0,1,1.24c4,3.4,8.64,5.61,13,8.52,6.46,4.35,14.31,14.46,17.55,18.84l1.54,2.88c-5.85-7.46-16.48-12.85-20.58-11.69-5.08,1.43,4.77,5.24,13.07,8.83a24.61,24.61,0,0,1,9.66,6.91c1.32,2.49,2.79,5.31,4.26,8.18.17.43.33.85.51,1.26a26.49,26.49,0,0,0-3.84-4.83c-3.95-3.72-15.85-7.46-17.78-3.56s7,3.37,14.26,5.72a20,20,0,0,1,9.71,7.28l.41.61c.66,1.32,1.28,2.6,1.87,3.83,1.36,2.86,2.66,5.55,3.94,8.17a43.27,43.27,0,0,0-7.44-10c-5.8-5.46-14.32-7.77-17.85-5.87s10.7,6.34,17.46,10a26.1,26.1,0,0,1,9.45,9.15c1.82,3.69,3.65,7.3,5.62,11.09a100.3,100.3,0,0,0-11.27-11.57c-6.58-5.94-14.28-6.48-16.77-3.85s3.7,3.73,14.84,8a36,36,0,0,1,15,10.86c.84,1.59,1.7,3.22,2.62,4.91a67,67,0,0,0,3.61,5.91c-1.82-1.18-4.5-2.9-7.48-4.76a75.48,75.48,0,0,1-9.51-6.82c-3.44-3-8.15-6.26-13-5a2.5,2.5,0,0,0-2,3.26,4.88,4.88,0,0,0,1.89,2.42c4.56,3.54,10.69,5.24,16,7.32a118.89,118.89,0,0,0,14.93,4.77c1.26,1.81,2.58,3.59,3.89,5.3l-2.38.07c-2.82.08-15.54-5.68-22-7.54s-12.5,1.66-5.73,5.3,25.18,2.83,25.18,2.83L217,373c1.25,1.6,2.48,3.11,3.63,4.5H195.41v7h5l4.05,24.88H238L242,384.52h5v-7H230.28a63.74,63.74,0,0,1,.24-9.06,21.26,21.26,0,0,1,3.69-3c7.34-5.07,19.78-5.49,23.09-15.25.8-2.36-.1-5.38-2.92-5.25-2,.1-4.17,1.87-5.43,3.33-4.2,4.85-7.36,9.88-12.82,13.55-.25.17-3.69,2.91-5.4,4.61.19-1.59.43-3.29.74-5.12a50.27,50.27,0,0,1,4.5-6.67c4.47-5.54,11.27-8.79,16.1-14.08,1.48-1.62,3.43-7.44-1.09-6-2,.65-4.38,3.69-5.95,5.09-4.44,4-9,8.26-11.9,13.52.12-.52.25-1,.37-1.57A111.6,111.6,0,0,1,244,337.45c6.42-7.31,13-12.09,13.11-16.08s-8.17,2.7-15.2,11.86a47.92,47.92,0,0,0-7.32,13.91c1.29-5.19,2.66-10.42,4-15.44.92-2.5,3.65-9,8.68-13.51,6.35-5.67,11.49-10.35,12.4-16S258,298.27,252.36,306.62Zm-35.51,64.32q-1.42-1.94-3-4.24a50,50,0,0,1-1.25-7.95,32.9,32.9,0,0,1,.31-6.87,78.63,78.63,0,0,0,5.43,6.06,30.22,30.22,0,0,1-.73,5.95C217.58,364.18,216.94,368.53,216.85,370.94Zm5.44,6.58c-1.29-1.37-2.7-3-4.23-5a21,21,0,0,1,.65-4.7,33.85,33.85,0,0,1,2.62-7c2.37,2.25,4.11,3.75,4.11,3.75l4,3.5c-.31,3.5-.49,6.77-.6,9.43Zm7.2-10.06-1.79-1.57c-1-.9-2.8-4.38-4.76-8.38a47.76,47.76,0,0,0,2.22-5.2c2.12,3.93,4,7,5.11,8.63C230,363.12,229.7,365.32,229.49,367.46Z"/><ellipse class="cls-1" cx="257.99" cy="425.59" rx="41.98" ry="9.09"/><ellipse class="cls-5" cx="257.99" cy="425.59" rx="41.98" ry="9.09"/><ellipse class="cls-1" cx="410.31" cy="424.73" rx="41.98" ry="9.09"/><ellipse class="cls-5" cx="410.31" cy="424.73" rx="41.98" ry="9.09"/><path class="cls-6" d="M339.85,259.63a14,14,0,0,1,4.24,4.13c1.26,2.29,6.54,3.78,6.54,3.78h1.95l.8,9.17a47.28,47.28,0,0,0-6,.58,19.64,19.64,0,0,1-3.56.45s-6.19-7.79-7.22-9.28-1.14-4.58-.68-5.16S339.85,259.63,339.85,259.63Z"/><path class="cls-6" d="M331.6,275.22s-3.44,1.15-2,2.07a4.05,4.05,0,0,0,4.59-.92C334.81,275.45,333,274.76,331.6,275.22Z"/><path class="cls-6" d="M327.82,264.68s10.2-3.67,10.66-3.33,1.26,3.44,1.26,3.44,7.1,4.24,7.68,5.85a20.89,20.89,0,0,1,0,7.56c-.35.58-2.29,1.26-3,1.49a4.53,4.53,0,0,1-2.18,0c-.34-.11-5.85-4-5.85-4s-5.61.57-6.87.57-2.53-.11-2.53-.11Z"/><path class="cls-7" d="M340.54,269s3.78,2.07,4.59,3.21,1.6,6.08,1.6,6.08"/><path class="cls-7" d="M338.94,271.1s4.47,2.4,4.92,3.55a36,36,0,0,1,1,4.47"/><path class="cls-6" d="M341.23,261.81s-4.93,5.5-6.08,6.08-1.37-.12-1.95-.58,3.67-6.64,3.56-7.1a3.35,3.35,0,0,1,4.12.11"/><path class="cls-6" d="M334,274l-.18.62a12.77,12.77,0,0,0-.63,3.39c.23.46,1.61.92,2.07.23s1.37-4.12,1.14-4.58S335.27,271.21,334,274Z"/><path class="cls-6" d="M338.36,273.5c-.36.45-1.95,5.39-1.6,6s2.06.81,2.52.12,2.06-5.05,1.6-6S340,271.55,338.36,273.5Z"/><path class="cls-6" d="M341.23,274.53l-.17.4c-.5,1.19-1.93,4.78-1.55,5.45s2.63,1,3.09-.11,2.07-5.39,1-6.42A1.35,1.35,0,0,0,341.23,274.53Z"/><path class="cls-6" d="M262.34,178.14s.6,3.69-.09,5.16-1.72,4.55-1.72,4.55l15.22,13.5s4.64-5.85,5.5-7,2-2.67,2-2.67-7.48-4.73-9-8.17-.77-7.82-4-8.51S263.29,176.08,262.34,178.14Z"/><path class="cls-8" d="M291.31,155.36s6.36-.09,5.07-6.19-16.16-7.4-18.91-4.56-2.32,4-2.32,4-12.81-.34-16.08,6.62-1.8,16,.35,20.72,5.76,5.24,7.65,4.64,3.26-1.72,3.26-3.44,1.21-5.84,2.67-4.81,3,1.37,5.59-1.12,6.27-5.59,4.9-8.08-3.7-2.58-2.41-3.7,8.6-2,9.28-2.75A5.72,5.72,0,0,0,291.31,155.36Z"/><path class="cls-9" d="M291,151.7s.9,1.81-7.66,4.06-23,2.7-23.43,8.11"/><path class="cls-9" d="M274.35,162.07s-10.36,3.15-12.62,6.76.91,6.75.91,6.75"/><path class="cls-6" d="M291.31,155.36s2.41,8.16,2.41,9.8-1.72,3.26-1,5.07,3.35,5.33,3.35,6.45-3.78,2.23-3.78,2.23-3.18,12-3.87,13.5-3,1.72-5.76,1-10-4.56-12-7.56-.52-8.09-.52-8.09-4-1.8-4.81-5.58,2.15-6.28,4.73-5.42a5.44,5.44,0,0,1,3.35,2.84s.26.94,1,.69,1.46-1.81,2.15-1.9,5.59-1.8,5-3.69-6.71-2-6.28-4.13S291.31,155.36,291.31,155.36Z"/><line class="cls-6" x1="283.66" y1="177.19" x2="281.17" y2="178.91"/><path class="cls-6" d="M282.71,178.31s.78,2.06,4,2.75"/><path d="M282.8,178.91s-1.46,4,.34,4.9,2.58-2.83,2.58-2.83Z"/><path class="cls-6" d="M292.51,170.88c-.1,2.09-.63,3.76-1.18,3.73s-.9-1.74-.79-3.83.63-3.75,1.18-3.73S292.62,168.79,292.51,170.88Z"/><line class="cls-6" x1="290.54" y1="168.77" x2="273" y2="168.77"/><path class="cls-6" d="M289.33,166.45a3.11,3.11,0,0,1,1.89-2.07c1.47-.43,1.72.35,1.72.35"/><path class="cls-6" d="M229.7,312.13l53.3-1.6s3.32,36.9,2.52,37.71-53.64,3-53.64,3-4.09.29-4.67-1.54S229.7,312.13,229.7,312.13Z"/><path class="cls-6" d="M229.7,312.13s-5,36.56-4.12,37.6,4.94,1.79,6.3,1.49C233.08,351,229.7,312.13,229.7,312.13Z"/><path class="cls-10" d="M245.4,412.31c-2.93,1.79-4.35,4.81-3.66,7.22s.91,2.64,2.75,3,10.08-.92,19-2.41,10.21-1.83,11-3.09,2.18-2.52-6.65-4-9.63-3.1-9.63-3.1S250.1,409.44,245.4,412.31Z"/><path class="cls-8" d="M274.25,414.69c-.6,1.23-2.48,3.44-8.39,4.15-6.25.75-17.56,1.88-23.53,2.39.41.85.91,1,2.16,1.28,1.83.34,10.08-.92,19-2.41s10.21-1.83,11-3.09C275,416.25,275.69,415.49,274.25,414.69Z"/><path class="cls-10" d="M261.22,415.4s9.17,4.36,14.22,5.39,6.3,1.15,5.73,2.75-.69,2.07-8.37,3.9-16.05-.23-19.72-.92-4.81.35-6.41-.34-1.15-4.13-1.15-4.13Z"/><path class="cls-8" d="M272.8,427.44c6.45-1.54,7.56-2.11,8.09-3.21-7,3-16.28,1.76-23.36.95-4.56-.53-8.91-1-12-1.25a2.57,2.57,0,0,0,1.17,2.25c1.6.69,2.75-.34,6.41.34S265.12,429.27,272.8,427.44Z"/><path class="cls-8" d="M250.91,331.16s-1.61,13.06-4.82,18.68-7.56,9.51-8.25,17.65,1.6,41.38,1.83,44.25-1,3.78.23,5.61a31.9,31.9,0,0,0,2.52,3.21l3.79-3.32s2.75-8.83,2.06-25.68-.57-28.19,2.41-39.43,3.55-14.21,2.17-18.57S250.91,331.16,250.91,331.16Z"/><path class="cls-8" d="M243.69,304.08s3.78,7.13,4.64,9,2.83,23.56,1.29,30.78-7.54,19.49-7,30.26,1,39.32,1,39.66a13,13,0,0,0,0,5.16c.57,3.09,2.29,4,2.29,4a57.4,57.4,0,0,1,9.05-3.32c5.62-1.61,7.22-3.9,7.22-3.9a41.34,41.34,0,0,0-1.72-4.36c-.8-1.6-2.17-4.12-1.94-4.93s1.72-27.16,4.7-35.87,4.69-17.88,7.22-25.91S279,315.11,279,309.61v-6.76l-35.76-.69Z"/><path class="cls-9" d="M246.64,355.44c-1,3.07-2.11,6.51-2.95,9.24-2,6.5,0,43,0,43a68.7,68.7,0,0,1,.19,8c-.19,3.31,0,4.62.82,5.51"/><path class="cls-9" d="M249.19,347.68s-.74,2.21-1.73,5.24"/><path class="cls-6" d="M259.42,184.76s4,1.37,10,6.62,12.12,10.23,10.83,12-3.7,8-3.7,8-2.23-3.7-8.85-9S256,192.32,256,192.32,258.73,185.88,259.42,184.76Z"/><path class="cls-1" d="M254.09,193.18s-12.81,9.11-15,17.88-3.1,13.07-2.92,29.83,1.2,27.34,1.2,28.11S234,300.9,234,301.24s6,5.85,22.78,6.19a202.13,202.13,0,0,0,34-2.66l-7.31-60.35s-2.84-25.71-5.76-30.52S254.09,193.18,254.09,193.18Z"/><path class="cls-1" d="M261.48,276.83s10.66,2.15,18-.52"/><path class="cls-1" d="M261.48,280s10.66,2.15,18-.51"/><polygon class="cls-6" points="325.98 262.96 328.62 264.22 327.01 276.14 324.38 275.68 325.98 262.96"/><path class="cls-10" d="M265.46,208.86a8.72,8.72,0,0,0-3.89,2.52c-1.72,2-11,13.52-10.32,18.57S264,253.44,268,259.18A41.76,41.76,0,0,0,288.27,275c10.09,3.67,36.34,1.84,36.34,1.84L326,262.61s-14.32-4.58-24.18-7.56a122.12,122.12,0,0,1-16.05-6s-2.29-5.62-3.9-6.53-1.83-1.49-1.83-1.49-3.09-16.85-4.7-22.36-3.78-6.87-3.78-6.87"/><path class="cls-10" d="M399.46,409.65a100.08,100.08,0,0,1-12.72,6.19c-5.85,2.18-7.23,3-6.08,4.24s11.12,2.18,16.73,1,7.8-1.94,10.32-1.83,6,.8,7.22-.92,1.72-2.06.8-4.93S399.46,409.65,399.46,409.65Z"/><path class="cls-8" d="M397.39,421.11c5.62-1.14,7.8-1.94,10.32-1.83s6,.8,7.22-.92c.9-1.23,1.39-1.76,1.26-3-4.08-.34-11.95.95-21.33,3a38.89,38.89,0,0,1-14.51.74.93.93,0,0,0,.31,1C381.81,421.34,391.78,422.26,397.39,421.11Z"/><path class="cls-10" d="M421.12,417.22a81.52,81.52,0,0,1-7.33,7c-3.79,3.09-10.32,7.34-9.63,9.17s5.38,3.55,15.24,1a57.44,57.44,0,0,0,17.65-8.25,4.42,4.42,0,0,0,2.75-1.72c.81-1.38-.11-3.55-.11-3.55Z"/><path class="cls-8" d="M419.4,434.41a57.44,57.44,0,0,0,17.65-8.25,4.42,4.42,0,0,0,2.75-1.72,4.32,4.32,0,0,0,0-3.3c-14.26,10.79-27.6,13-34.66,13.32C407,435.74,411.58,436.41,419.4,434.41Z"/><path class="cls-8" d="M404,283.68s-6.07.81-10.43-.8-8.48-2.86-8.48-2.86-2.41,31.29.23,43.9,9.63,28,9.74,31.52a75,75,0,0,0,1.49,12.6c.8,3.21,4.7,28,4.93,30.72a18.63,18.63,0,0,1,0,4.13s-2.75.92-2.75,1.72v5.84a38.24,38.24,0,0,0,7.11,2.87c4.24,1.26,10.2,2.29,10.2,2.29a62.74,62.74,0,0,0,1.14-7c0-1.6-1-5.84-1-8.14s.58-29.8.58-29.8,5.61,23.5,5.61,31.29-.11,10.32-.11,10.32-2.52-.8-2.52.92-.12,5.84-.12,5.84,8.94,2.29,13.18,3.55a16.84,16.84,0,0,0,7.8.46s2.29-8.71,2.06-11.57-3.09-5.28-3.09-6.88,1.49-17.42-.69-31.18-7.91-20.06-8.14-26.82,1-31.06,1.15-35,4.12-12.15,4.7-15.82.11-14.55.11-14.55S411,284.94,404,283.68Z"/><line class="cls-9" x1="393.04" y1="299.39" x2="399.23" y2="303.4"/><path class="cls-9" d="M415.38,367.16c.86,2.23,1.39,3.52,1.39,3.52"/><path class="cls-9" d="M397.17,302.37s4.12,24.18,9.05,39.31c2.53,7.76,5.24,15.2,7.28,20.59"/><path class="cls-8" d="M350.63,265.94c.11.34.68,12.84.68,12.84l32.9-3-.68-16.16Z"/><path class="cls-6" d="M415.16,200.47s-7.45,2.63-8.94,4.47S395.9,237.83,393,247s-3.78,36.91-3.78,36.91a31.47,31.47,0,0,0,4.93,1.38,25.27,25.27,0,0,0,5,.34s9.63-32.44,14.33-43.55,12.6-27.05,15.59-33.24,5.61-7.34,5.27-10.32-1.72-4.13-3.44-4.36S415.16,200.47,415.16,200.47Z"/><path class="cls-1" d="M416.09,199.56s-7.45,2.63-8.94,4.47S396.84,236.92,394,246.09,390.19,283,390.19,283a31.47,31.47,0,0,0,4.93,1.38,26.17,26.17,0,0,0,5,.34s9.63-32.44,14.33-43.56,12.61-27,15.59-33.24,5.61-7.33,5.27-10.31-1.72-4.13-3.44-4.36S416.09,199.56,416.09,199.56Z"/><path class="cls-8" d="M426.16,203.33a195,195,0,0,0-12.26,24.88c-4.7,12.15-8.48,23-13.3,39.2a82.23,82.23,0,0,0-2.86,30.83s2.29,3.9,15.82,4.36,30.49-3.9,30.49-3.9-2.3-13.76-2.53-21.89,6.31-36.68,9.06-44.13,8.71-14.9,3-22.12-19.37-15.36-19.37-15.36S427.65,200.81,426.16,203.33Z"/><path class="cls-8" d="M410.69,203.22s-3.55,4.47-6.76,14-9.17,34.85-11.92,45.62-4.13,34.73-4.13,34.73-1.49-.11-4.58-.11a13.85,13.85,0,0,1-5.85-1.49s2.18-23.5,4.13-34.5,7.68-30.61,8.71-38.29,1.37-9.62,2.75-10.66,12.15-7.56,14.33-9.05S410.69,203.22,410.69,203.22Z"/><path class="cls-9" d="M437.74,197.72s-6.53,12.95-8.25,15.36a31.17,31.17,0,0,0-2.64,4.35l-5.73,2.18,2.29,3.67S411.84,244,408.86,250.9s-6,14.33-6,14.33"/><path class="cls-9" d="M390.65,256.07c-.21,2.29-.25,3.2-.25,3.2"/><path class="cls-9" d="M404.85,207.23l-6.42,9.86,1.49,2.29-3.56,4.36s-3.78,15.7-4.81,24.18c-.2,1.65-.37,3.09-.5,4.34"/><polygon class="cls-6" points="406.11 202.99 404.85 209.06 411.38 204.71 406.11 202.99"/><path class="cls-6" d="M411.61,198.18c-.12.34-5.5,4.81-5.5,4.81l6.07,2.52,1.26-4.93Z"/><path class="cls-6" d="M409.43,152.44a15.11,15.11,0,0,0-5.85,6.76c-2.06,4.7-3.66,6.65-3.2,8.14a15.83,15.83,0,0,1,.68,3.1c0,.34-4.81,4.93-4.93,6.3s3.1,3.9,3.1,3.9.34,7.91.34,8.6.23,4.24,3.56,5.15a14.3,14.3,0,0,0,6.87-.11l2.18,11.23s15.25-9.4,16.85-10.2,3.55-1.83,3.67-3.09-.92-8.26-.92-8.26,8.14-7.45,8-16.16S435,153.59,426.51,151,409.43,152.44,409.43,152.44Z"/><path class="cls-8" d="M439.8,167.8c-.11-8.71-4.81-14.21-13.29-16.85s-17.08,1.49-17.08,1.49a12.1,12.1,0,0,0-1.88,1.39c2.8-.5,7.41-.85,10.71,1.25,5,3.21,1.83,6.42.11,8.14s-2.06,2.4-.8,4,3.67,1.6,3.09,3.09-2.29,3.56-.91,4.13,2.63-.69,3.21-2.41,3.43-1.72,4.58,1.84a6.79,6.79,0,0,1-2.41,7.45,4.72,4.72,0,0,1-3.21.91,29,29,0,0,0,6.19,2.3,11.58,11.58,0,0,0,3.71-.29c0-.18,0-.29,0-.29S439.92,176.51,439.8,167.8Z"/><path d="M406.45,172.27c0,.89-.28,1.61-.63,1.61s-.63-.72-.63-1.61.28-1.6.63-1.6S406.45,171.39,406.45,172.27Z"/><path class="cls-6" d="M403.47,167.46s.46-1.61,3-1.49,2.64,1.95,2.64,1.95"/><path class="cls-6" d="M399.23,180.64a4.63,4.63,0,0,0,4.24-.57c1.83-1.49.34-2.76.34-2.76"/><path class="cls-8" d="M399.69,182.47s6.07-3,8.82-3.09S414.13,184,413,188s-2.4,6-6.3,7.57-7.57,1.26-8.25-1.38,2.4-6.41,3.89-7.1,2.64-.8,2.41.46-.92,2.17,1.95,1.6,4.47-1.37,4.58-4.47-1-4.24-4-3.78-7.45,2.86-7.45,2.86Z"/><path class="cls-6" d="M402.09,184.88s4.82-.23,6.54-2.18"/><path class="cls-6" d="M421.47,182.13a6.33,6.33,0,0,1-2.3,4.93"/><path class="cls-6" d="M412.18,205.51l3.33,7.68s12.6-9.4,15.7-13.07,5.5-5.5,3.78-8-4.24-.46-4.7-.23S412.18,205.51,412.18,205.51Z"/><path class="cls-6" d="M387,273.25a120.62,120.62,0,0,1-3.43-14.15c-.69-4.39-1-8.86-1-8.86A49.52,49.52,0,0,1,366.56,246c-7.56-3.66-9.17-5-9.17-5s10.2,33.24,12.27,40.23,2.52,8.48,2.52,8.48a42.9,42.9,0,0,0,10.31,3.56,54.82,54.82,0,0,0,8.6.91Z"/><path class="cls-6" d="M398.43,273.25a27.9,27.9,0,0,1-7-2.29,17,17,0,0,0-5.38-1.95h-.46l1.37,4.24a24.62,24.62,0,0,1-5.15.58c-2.75,0-8.49-.92-8.71-.58a7.83,7.83,0,0,0-.23,2.52c0,.81,4.12,5.74,6.53,7.46s4.58,2.86,6.76,2.86,13.87-1.6,13.87-1.6Z"/><path class="cls-8" d="M431.78,228.55s.57,12.84.92,22.12.92,10.09.92,10.09-25.68,9.63-29.58,10.43-6.87,1.72-6.87,1.72l1.72,12.49a71.88,71.88,0,0,0,25-2.29c12.5-3.67,31.75-7.34,32.1-9.05s0-6.88,0-8-.35-25.79-.35-36.79.8-13.53-.57-15.82-8.37-3.44-12.38-1.15"/><polyline class="cls-9" points="412.39 268.13 433.62 260.76 431.74 232.47"/><line class="cls-9" x1="406.43" y1="270.2" x2="409.5" y2="269.14"/><path class="cls-9" d="M439.1,218.21s8-10,15.95-4.79"/><path class="cls-7" d="M373.32,274.4s5.28,3.55,8.83,4.13"/><path class="cls-7" d="M374.24,277.84a17.75,17.75,0,0,0,5.27,3.21l2.41.68"/><path class="cls-7" d="M380,283.57a15.83,15.83,0,0,0,4.24.92"/><path class="cls-10" d="M282.66,240.65s-1.58-16.15-3.44-27.53c-1-6.29-4.81-11.65-8.79-16.45-3.29-4-8.26-7.66-11-11.91-.95-1.46-5.93,9.1-5.94,9.11-1,2.25,10.85,9.38,12.45,11,2.1,2.1,4,4.58,5.91,6.84.87,1,3.16,4.81,4.47,5.13l2.12.53-1.59,4.77Z"/></g></svg>