<svg width="177" height="262" viewBox="0 0 177 262" fill="none" xmlns="http://www.w3.org/2000/svg">
<path d="M11 153L11.4495 152.781L11 153ZM69 199L69.4719 198.835L69 199ZM176.3 258.4C176.521 258.234 176.566 257.921 176.4 257.7L173.7 254.1C173.534 253.879 173.221 253.834 173 254C172.779 254.166 172.734 254.479 172.9 254.7L175.3 257.9L172.1 260.3C171.879 260.466 171.834 260.779 172 261C172.166 261.221 172.479 261.266 172.7 261.1L176.3 258.4ZM54.665 0.628803C54.4229 0.847248 54.1794 1.06882 53.9343 1.29349L54.6101 2.03056C54.8532 1.80766 55.0949 1.58786 55.335 1.3712L54.665 0.628803ZM52.4472 2.67844C51.9679 3.1316 51.4838 3.59587 50.9953 4.07107L51.6926 4.78786C52.1777 4.31592 52.6584 3.85492 53.1342 3.40506L52.4472 2.67844ZM49.5426 5.50379C49.0762 5.96997 48.6064 6.44561 48.1335 6.93054L48.8494 7.62872C49.3194 7.14681 49.7862 6.67419 50.2496 6.21103L49.5426 5.50379ZM46.7183 8.39991C46.2628 8.87879 45.8048 9.36594 45.3447 9.8612L46.0773 10.5418C46.5348 10.0494 46.9901 9.56516 47.4429 9.08914L46.7183 8.39991ZM43.9683 11.3602C43.5222 11.8517 43.0745 12.3506 42.6254 12.8567L43.3734 13.5204C43.82 13.0171 44.2652 12.521 44.7088 12.0323L43.9683 11.3602ZM41.2879 14.381C40.8505 14.885 40.4121 15.3958 39.973 15.913L40.7354 16.5602C41.1721 16.0457 41.6082 15.5377 42.0432 15.0364L41.2879 14.381ZM38.6741 17.4599C38.2452 17.9763 37.8158 18.4989 37.3862 19.0274L38.1622 19.6581C38.5895 19.1324 39.0167 18.6126 39.4434 18.0989L38.6741 17.4599ZM36.1253 20.5954C35.705 21.1237 35.2847 21.6577 34.8647 22.1972L35.6538 22.8115C36.0717 22.2747 36.4898 21.7435 36.9079 21.2179L36.1253 20.5954ZM33.6411 23.7859C33.2338 24.3205 32.8269 24.8602 32.4207 25.405L33.2224 26.0027C33.6265 25.4608 34.0313 24.9238 34.4365 24.392L33.6411 23.7859ZM31.222 27.0301C30.8274 27.571 30.4337 28.1166 30.041 28.6668L30.8549 29.2477C31.2456 28.7003 31.6373 28.1576 32.0299 27.6195L31.222 27.0301ZM28.8693 30.3267C28.4874 30.874 28.1066 31.4255 27.7272 31.9814L28.5532 32.5451C28.9306 31.9922 29.3094 31.4435 29.6893 30.8991L28.8693 30.3267ZM26.5934 33.6616C26.2212 34.2195 25.8505 34.7815 25.4816 35.3476L26.3193 35.8936C26.6863 35.3306 27.0551 34.7715 27.4253 34.2165L26.5934 33.6616ZM24.3883 37.0445C24.0259 37.6138 23.6653 38.187 23.3067 38.7639L24.1561 39.2917C24.5127 38.7179 24.8713 38.1478 25.2318 37.5816L24.3883 37.0445ZM22.2539 40.4786C21.9051 41.0538 21.5583 41.6326 21.2139 42.215L22.0746 42.7241C22.4172 42.1449 22.762 41.5693 23.1089 40.9972L22.2539 40.4786ZM20.1936 43.9623C19.8586 44.5435 19.526 45.128 19.1959 45.7159L20.0679 46.2055C20.3961 45.6209 20.7268 45.0397 21.06 44.4617L20.1936 43.9623ZM18.2136 47.4893C17.8917 48.0783 17.5725 48.6705 17.2562 49.2658L18.1392 49.7351C18.4537 49.1433 18.7711 48.5545 19.0911 47.9688L18.2136 47.4893ZM16.3182 51.0562C16.0087 51.6555 15.7022 52.2578 15.3988 52.863L16.2928 53.3111C16.5944 52.7095 16.899 52.1108 17.2067 51.515L16.3182 51.0562ZM14.506 54.6714C14.2115 55.277 13.9203 55.8855 13.6324 56.4967L14.5371 56.9228C14.8232 56.3153 15.1126 55.7106 15.4053 55.1086L14.506 54.6714ZM12.7816 58.3328C12.5029 58.9445 12.2276 59.5589 11.9558 60.1759L12.871 60.5789C13.141 59.9659 13.4146 59.3554 13.6916 58.7475L12.7816 58.3328ZM11.1517 62.0345C10.8885 62.6538 10.629 63.2757 10.3734 63.9L11.2988 64.2789C11.5527 63.6587 11.8105 63.0409 12.072 62.4256L11.1517 62.0345ZM9.61988 65.776C9.37266 66.4037 9.12943 67.0337 8.89034 67.6661L9.82571 68.0198C10.0632 67.3917 10.3048 66.7659 10.5503 66.1424L9.61988 65.776ZM8.18907 69.5605C7.9596 70.194 7.73435 70.8296 7.51348 71.4675L8.45843 71.7947C8.67774 71.1614 8.9014 70.5302 9.12928 69.9011L8.18907 69.5605ZM6.86461 73.3859C6.65359 74.025 6.44704 74.6663 6.24511 75.3095L7.19919 75.609C7.39965 74.9705 7.60469 74.3339 7.8142 73.6994L6.86461 73.3859ZM5.65329 77.2452C5.46102 77.8914 5.27349 78.5395 5.09085 79.1896L6.05357 79.4601C6.23482 78.815 6.42093 78.1717 6.61176 77.5304L5.65329 77.2452ZM4.55893 81.1405C4.38658 81.7927 4.21922 82.4467 4.05699 83.1024L5.02772 83.3426C5.18867 82.692 5.35472 82.0432 5.52574 81.3961L4.55893 81.1405ZM3.58687 85.0704C3.43559 85.7271 3.28954 86.3856 3.14886 87.0456L4.12689 87.2541C4.26642 86.5994 4.41129 85.9464 4.56135 85.2949L3.58687 85.0704ZM2.74307 89.0306C2.61367 89.6918 2.48974 90.3546 2.37142 91.0189L3.35593 91.1942C3.47324 90.5356 3.59613 89.8784 3.72445 89.2227L2.74307 89.0306ZM2.03366 93.0147C1.92678 93.6813 1.82563 94.3495 1.73035 95.019L2.72038 95.1599C2.81482 94.4962 2.91509 93.8339 3.02105 93.173L2.03366 93.0147ZM1.46333 97.0231C1.38023 97.6924 1.3031 98.3631 1.23206 99.035L2.22651 99.1402C2.29691 98.4743 2.37336 97.8097 2.45571 97.1463L1.46333 97.0231ZM1.03752 101.052C0.979088 101.723 0.926818 102.395 0.880845 103.069L1.87852 103.137C1.92407 102.47 1.97585 101.804 2.03375 101.139L1.03752 101.052ZM0.761948 105.092C0.728778 105.765 0.702007 106.44 0.681766 107.116L1.68132 107.146C1.70136 106.477 1.72788 105.808 1.76074 105.141L0.761948 105.092ZM0.640852 109.138C0.633779 109.813 0.633313 110.489 0.639585 111.166L1.63954 111.157C1.63333 110.487 1.63379 109.817 1.6408 109.149L0.640852 109.138ZM0.678496 113.191C0.698156 113.864 0.724574 114.538 0.757876 115.213L1.75666 115.163C1.72369 114.495 1.69754 113.828 1.67807 113.162L0.678496 113.191ZM0.878559 117.239C0.925447 117.91 0.979253 118.583 1.0401 119.256L2.03604 119.166C1.97581 118.499 1.92255 117.834 1.87613 117.169L0.878559 117.239ZM1.2431 121.269C1.31784 121.941 1.3997 122.613 1.48879 123.286L2.48013 123.155C2.39196 122.489 2.31094 121.823 2.23697 121.158L1.2431 121.269ZM1.775 125.287C1.87725 125.952 1.98669 126.618 2.10341 127.284L3.0884 127.112C2.97289 126.452 2.86459 125.793 2.76339 125.135L1.775 125.287ZM2.47559 129.284C2.60539 129.942 2.74242 130.601 2.8868 131.261L3.86365 131.047C3.72077 130.394 3.58517 129.742 3.45671 129.09L2.47559 129.284ZM3.34066 133.233C3.49931 133.891 3.66538 134.549 3.83898 135.207L4.80591 134.952C4.63412 134.301 4.46978 133.65 4.31278 132.999L3.34066 133.233ZM4.37386 137.152C4.55893 137.799 4.75135 138.445 4.95123 139.092L5.90662 138.796C5.70881 138.156 5.51838 137.517 5.33523 136.877L4.37386 137.152ZM5.57337 141.032C5.78464 141.667 6.00321 142.303 6.2292 142.939L7.17142 142.604C6.94775 141.975 6.73143 141.345 6.52234 140.716L5.57337 141.032ZM6.92615 144.837C7.16588 145.469 7.41305 146.102 7.66776 146.734L8.59536 146.361C8.34322 145.735 8.09856 145.109 7.86127 144.482L6.92615 144.837ZM8.44088 148.599C8.70382 149.216 8.97402 149.832 9.25158 150.448L10.1633 150.037C9.88853 149.427 9.62101 148.817 9.3607 148.207L8.44088 148.599ZM10.1064 152.296C10.2526 152.604 10.4006 152.911 10.5505 153.219L11.4495 152.781C11.301 152.476 11.1545 152.172 11.0097 151.867L10.1064 152.296ZM10.5505 153.219C10.6999 153.526 10.8501 153.83 11.0011 154.132L11.8957 153.685C11.7461 153.386 11.5974 153.085 11.4495 152.781L10.5505 153.219ZM11.9173 155.92C12.2259 156.508 12.5377 157.087 12.8527 157.657L13.7281 157.174C13.4165 156.609 13.108 156.037 12.8025 155.455L11.9173 155.92ZM13.8242 159.373C14.1645 159.96 14.5081 160.537 14.855 161.104L15.7083 160.583C15.3654 160.022 15.0256 159.451 14.6891 158.872L13.8242 159.373ZM15.9055 162.78C16.2646 163.338 16.6269 163.887 16.9924 164.427L17.8204 163.866C17.4594 163.333 17.1014 162.791 16.7465 162.239L15.9055 162.78ZM18.1424 166.08C18.5291 166.62 18.9189 167.152 19.3118 167.673L20.1103 167.071C19.7226 166.556 19.3377 166.032 18.956 165.498L18.1424 166.08ZM20.5277 169.242C20.9482 169.77 21.3721 170.288 21.799 170.794L22.5638 170.15C22.1428 169.65 21.7249 169.14 21.31 168.619L20.5277 169.242ZM23.0888 172.283C23.5375 172.786 23.9894 173.279 24.4442 173.76L25.1709 173.073C24.7228 172.599 24.2775 172.114 23.8353 171.618L23.0888 172.283ZM25.8357 175.188C26.3056 175.657 26.7784 176.113 27.2539 176.559L27.9378 175.829C27.4697 175.391 27.0042 174.941 26.5414 174.48L25.8357 175.188ZM28.7448 177.913C29.2446 178.352 29.747 178.779 30.2518 179.195L30.8875 178.423C30.391 178.014 29.8967 177.594 29.405 177.161L28.7448 177.913ZM31.8178 180.442C32.349 180.85 32.8827 181.247 33.4185 181.631L34.0011 180.818C33.4744 180.44 32.9498 180.051 32.4275 179.649L31.8178 180.442ZM35.0521 182.759C35.6127 183.133 36.1754 183.493 36.7399 183.841L37.2645 182.99C36.7101 182.648 36.1572 182.294 35.6064 181.927L35.0521 182.759ZM38.4408 184.849C39.0282 185.183 39.6171 185.503 40.2073 185.811L40.6698 184.925C40.0903 184.622 39.5119 184.307 38.9351 183.979L38.4408 184.849ZM41.9814 186.696C42.5895 186.986 43.1985 187.262 43.8082 187.525L44.2046 186.607C43.6062 186.349 43.0084 186.078 42.4115 185.793L41.9814 186.696ZM45.6476 188.28C46.2736 188.523 46.8998 188.753 47.526 188.97L47.8535 188.025C47.2389 187.812 46.6243 187.587 46.01 187.348L45.6476 188.28ZM49.4195 189.587C50.0609 189.783 50.7018 189.965 51.3419 190.135L51.598 189.168C50.9699 189.002 50.3409 188.823 49.7115 188.631L49.4195 189.587ZM53.2774 190.61C53.9313 190.757 54.5839 190.891 55.2347 191.013L55.4181 190.03C54.7794 189.91 54.139 189.779 53.4973 189.634L53.2774 190.61ZM57.2001 191.342C57.8634 191.44 58.5244 191.525 59.1827 191.598L59.2925 190.604C58.6465 190.533 57.9978 190.449 57.3469 190.352L57.2001 191.342ZM61.1657 191.78C61.8352 191.829 62.5013 191.865 63.1636 191.889L63.1995 190.89C62.5495 190.866 61.8958 190.831 61.2387 190.783L61.1657 191.78ZM65.1518 191.924C65.8244 191.923 66.4925 191.91 67.1554 191.885L67.1173 190.886C66.4667 190.91 65.8111 190.923 65.1509 190.924L65.1518 191.924ZM69.1364 191.773C69.809 191.722 70.4756 191.659 71.1356 191.585L71.0233 190.591C70.3757 190.664 69.7215 190.726 69.0614 190.776L69.1364 191.773ZM73.1082 191.324C73.7737 191.224 74.4315 191.111 75.0811 190.987L74.8939 190.005C74.2568 190.126 73.6115 190.237 72.9586 190.335L73.1082 191.324ZM77.0356 190.575C77.6888 190.424 78.3326 190.262 78.9661 190.089L78.7026 189.124C78.0818 189.294 77.4508 189.453 76.8104 189.601L77.0356 190.575ZM80.8916 189.52C81.5316 189.317 82.1598 189.102 82.7753 188.878L82.4323 187.938C81.8302 188.158 81.2154 188.368 80.5886 188.567L80.8916 189.52ZM84.6419 188.149C85.2689 187.888 85.8805 187.615 86.4759 187.334L86.0478 186.43C85.4671 186.705 84.8699 186.97 84.2573 187.226L84.6419 188.149ZM88.2552 186.436C88.856 186.113 89.437 185.78 89.997 185.437L89.4754 184.584C88.9317 184.917 88.3668 185.241 87.7819 185.555L88.2552 186.436ZM91.6854 184.333C92.2482 183.939 92.7845 183.534 93.2925 183.122L92.6622 182.346C92.1733 182.743 91.656 183.132 91.1116 183.514L91.6854 184.333ZM94.8022 181.792C95.3028 181.312 95.7662 180.823 96.1899 180.326L95.4292 179.677C95.0286 180.146 94.5882 180.612 94.1099 181.071L94.8022 181.792ZM97.4163 178.701C97.8066 178.108 98.1398 177.507 98.4113 176.901L97.4987 176.492C97.2511 177.045 96.9445 177.599 96.5808 178.152L97.4163 178.701ZM99.0687 174.924C99.2194 174.225 99.2825 173.525 99.2504 172.83L98.2515 172.876C98.2793 173.479 98.2249 174.093 98.0912 174.713L99.0687 174.924ZM98.8597 170.762C98.7467 170.43 98.6093 170.101 98.4472 169.776L97.5528 170.224C97.6949 170.508 97.8147 170.795 97.9128 171.084L98.8597 170.762ZM98.4472 169.776C98.2854 169.453 98.1153 169.14 97.9373 168.838L97.0756 169.345C97.2418 169.627 97.401 169.92 97.5528 170.224L98.4472 169.776ZM96.7367 167.1C96.2816 166.537 95.7934 166.024 95.2764 165.562L94.6098 166.307C95.0862 166.733 95.5373 167.207 95.959 167.728L96.7367 167.1ZM93.5749 164.282C92.9691 163.902 92.3371 163.578 91.6843 163.309L91.3035 164.234C91.9049 164.482 92.4866 164.78 93.0438 165.129L93.5749 164.282ZM89.6611 162.664C88.976 162.505 88.2762 162.399 87.5671 162.345L87.491 163.342C88.1512 163.393 88.8008 163.491 89.435 163.638L89.6611 162.664ZM85.452 162.334C84.7577 162.379 84.0595 162.47 83.3619 162.606L83.5534 163.587C84.21 163.459 84.8657 163.374 85.5159 163.332L85.452 162.334ZM81.3267 163.132C80.6677 163.345 80.0131 163.597 79.3669 163.889L79.7781 164.8C80.391 164.524 81.0107 164.285 81.6336 164.084L81.3267 163.132ZM77.5018 164.853C76.906 165.202 76.321 165.585 75.7502 166.002L76.3402 166.81C76.8839 166.412 77.4406 166.047 78.0071 165.716L77.5018 164.853ZM74.1242 167.318C73.6103 167.776 73.1122 168.265 72.6327 168.783L73.3665 169.462C73.8244 168.968 74.2999 168.501 74.7902 168.063L74.1242 167.318ZM71.2855 170.381C70.867 170.927 70.4678 171.498 70.0906 172.095L70.9359 172.629C71.297 172.058 71.6788 171.511 72.079 170.99L71.2855 170.381ZM69.054 173.908C68.74 174.517 68.4477 175.149 68.1792 175.802L69.1041 176.182C69.3617 175.556 69.642 174.95 69.943 174.366L69.054 173.908ZM67.4673 177.762C67.2605 178.413 67.0765 179.083 66.9169 179.771L67.8911 179.997C68.0447 179.335 68.2217 178.691 68.4204 178.064L67.4673 177.762ZM66.5244 181.815C66.4212 182.489 66.3406 183.178 66.2842 183.883L67.281 183.962C67.3355 183.282 67.4133 182.617 67.5129 181.967L66.5244 181.815ZM66.1894 185.962C66.1814 186.645 66.1955 187.34 66.2327 188.047L67.2313 187.994C67.1952 187.308 67.1816 186.635 67.1894 185.974L66.1894 185.962ZM66.4033 190.104C66.479 190.776 66.5752 191.458 66.6927 192.15L67.6786 191.983C67.5641 191.309 67.4706 190.645 67.397 189.992L66.4033 190.104ZM67.0938 194.184C67.243 194.849 67.4117 195.523 67.6003 196.206L68.5642 195.939C68.3798 195.273 68.2152 194.614 68.0696 193.965L67.0938 194.184ZM68.1912 198.168C68.2988 198.499 68.4111 198.831 68.5281 199.165L69.4719 198.835C69.3574 198.507 69.2474 198.182 69.1421 197.858L68.1912 198.168ZM68.5281 199.165C68.638 199.479 68.7523 199.792 68.8709 200.103L69.8054 199.747C69.69 199.445 69.5788 199.14 69.4719 198.835L68.5281 199.165ZM69.6334 201.955C69.9026 202.563 70.1882 203.165 70.4895 203.762L71.3822 203.312C71.0883 202.729 70.81 202.142 70.5477 201.55L69.6334 201.955ZM71.4335 205.525C71.7605 206.102 72.1022 206.674 72.4582 207.241L73.3051 206.709C72.9569 206.155 72.6229 205.596 72.3035 205.032L71.4335 205.525ZM73.5555 208.908C73.9316 209.454 74.3209 209.994 74.7228 210.53L75.5229 209.93C75.1288 209.405 74.7473 208.875 74.3789 208.34L73.5555 208.908ZM75.9467 212.1C76.3642 212.615 76.7934 213.126 77.2338 213.632L77.9881 212.975C77.5553 212.478 77.1337 211.976 76.7237 211.47L75.9467 212.1ZM78.5607 215.107C79.0131 215.594 79.4757 216.076 79.9482 216.554L80.6592 215.851C80.1939 215.38 79.7384 214.905 79.2932 214.426L78.5607 215.107ZM81.3588 217.94C81.8381 218.397 82.3263 218.851 82.823 219.3L83.4938 218.559C83.0036 218.115 82.5221 217.668 82.0495 217.216L81.3588 217.94ZM84.3093 220.611C84.8101 221.041 85.3186 221.468 85.8345 221.89L86.4682 221.117C85.9583 220.699 85.4559 220.278 84.9613 219.852L84.3093 220.611ZM87.3867 223.133C87.9051 223.539 88.4302 223.94 88.9616 224.339L89.5612 223.538C89.0353 223.144 88.5158 222.747 88.003 222.345L87.3867 223.133ZM90.5701 225.519C91.1032 225.902 91.6421 226.281 92.1864 226.657L92.7548 225.834C92.2155 225.462 91.6816 225.086 91.1536 224.707L90.5701 225.519ZM93.8352 227.774C94.3833 228.139 94.9363 228.5 95.4939 228.857L96.0336 228.015C95.4805 227.661 94.9322 227.303 94.3888 226.942L93.8352 227.774ZM97.1732 229.915C97.7352 230.262 98.3013 230.606 98.8714 230.947L99.3846 230.089C98.8188 229.751 98.257 229.409 97.6994 229.064L97.1732 229.915ZM100.578 231.951C101.15 232.282 101.726 232.61 102.305 232.935L102.794 232.063C102.219 231.74 101.647 231.415 101.079 231.086L100.578 231.951ZM104.039 233.892C104.619 234.207 105.201 234.519 105.787 234.828L106.253 233.943C105.672 233.637 105.092 233.326 104.516 233.013L104.039 233.892ZM107.547 235.743C108.134 236.044 108.724 236.342 109.315 236.636L109.761 235.741C109.173 235.448 108.587 235.152 108.003 234.853L107.547 235.743ZM111.095 237.51C111.69 237.798 112.286 238.083 112.884 238.365L113.31 237.461C112.716 237.18 112.123 236.897 111.531 236.61L111.095 237.51ZM114.68 239.201C115.281 239.477 115.882 239.749 116.485 240.019L116.893 239.106C116.294 238.838 115.695 238.566 115.097 238.292L114.68 239.201ZM118.299 240.82C118.904 241.084 119.509 241.344 120.115 241.602L120.507 240.682C119.904 240.425 119.301 240.166 118.698 239.903L118.299 240.82ZM121.945 242.371C122.556 242.624 123.167 242.875 123.777 243.122L124.152 242.195C123.545 241.949 122.937 241.7 122.329 241.447L121.945 242.371ZM125.615 243.858C126.232 244.102 126.848 244.342 127.463 244.58L127.824 243.647C127.211 243.411 126.597 243.171 125.983 242.928L125.615 243.858ZM129.306 245.283C129.929 245.519 130.55 245.75 131.17 245.979L131.516 245.041C130.898 244.813 130.279 244.582 129.659 244.348L129.306 245.283ZM133.027 246.656C133.651 246.881 134.274 247.103 134.894 247.321L135.226 246.378C134.608 246.16 133.988 245.939 133.366 245.715L133.027 246.656ZM136.767 247.973C137.391 248.188 138.013 248.4 138.632 248.608L138.951 247.661C138.334 247.453 137.715 247.242 137.092 247.028L136.767 247.973ZM140.522 249.238C141.149 249.444 141.772 249.647 142.391 249.846L142.697 248.894C142.08 248.696 141.46 248.494 140.835 248.288L140.522 249.238ZM144.293 250.451C144.924 250.65 145.551 250.845 146.173 251.036L146.467 250.081C145.848 249.89 145.223 249.696 144.593 249.497L144.293 250.451ZM148.077 251.615C148.714 251.807 149.345 251.994 149.969 252.178L150.251 251.218C149.629 251.036 149 250.849 148.365 250.658L148.077 251.615ZM151.876 252.732C152.517 252.916 153.151 253.095 153.776 253.271L154.046 252.308C153.423 252.133 152.791 251.954 152.151 251.77L151.876 252.732ZM155.69 253.801C156.335 253.977 156.969 254.148 157.592 254.314L157.85 253.348C157.229 253.183 156.597 253.012 155.954 252.836L155.69 253.801ZM159.521 254.822C160.165 254.99 160.795 255.151 161.411 255.307L161.656 254.338C161.043 254.183 160.415 254.021 159.773 253.855L159.521 254.822ZM163.362 255.794C164.021 255.956 164.661 256.111 165.279 256.258L165.511 255.286C164.895 255.139 164.258 254.985 163.601 254.823L163.362 255.794ZM167.19 256.707C167.875 256.865 168.527 257.012 169.146 257.15L169.363 256.173C168.747 256.037 168.097 255.89 167.414 255.732L167.19 256.707ZM171.091 257.572C171.804 257.723 172.454 257.856 173.035 257.972L173.23 256.991C172.654 256.876 172.008 256.744 171.298 256.593L171.091 257.572ZM174.952 258.335C175.36 258.407 175.688 258.46 175.929 258.495L176.071 257.505C175.844 257.473 175.528 257.421 175.126 257.35L174.952 258.335Z" fill="black"/>
</svg>
