<svg width="34" height="34" viewBox="0 0 34 34" fill="none" xmlns="http://www.w3.org/2000/svg">
<rect y="0.171875" width="33.3759" height="33.3759" rx="15" fill="#002D38"/>
<path d="M10.1979 23.3493H15.0653C15.0653 23.7796 15.2362 24.1923 15.5405 24.4966C15.8447 24.8008 16.2574 24.9718 16.6877 24.9718C17.118 24.9718 17.5307 24.8008 17.8349 24.4966C18.1392 24.1923 18.3101 23.7796 18.3101 23.3493H23.1775C23.3926 23.3493 23.599 23.2639 23.7511 23.1117C23.9032 22.9596 23.9887 22.7533 23.9887 22.5381C23.9887 22.323 23.9032 22.1166 23.7511 21.9645C23.599 21.8124 23.3926 21.7269 23.1775 21.7269V16.0484C23.1775 14.3272 22.4937 12.6765 21.2767 11.4594C20.0596 10.2423 18.4089 9.55859 16.6877 9.55859C14.9665 9.55859 13.3158 10.2423 12.0987 11.4594C10.8817 12.6765 10.1979 14.3272 10.1979 16.0484V21.7269C9.98279 21.7269 9.77645 21.8124 9.62432 21.9645C9.47219 22.1166 9.38672 22.323 9.38672 22.5381C9.38672 22.7533 9.47219 22.9596 9.62432 23.1117C9.77645 23.2639 9.98279 23.3493 10.1979 23.3493V23.3493ZM11.8204 16.0484C11.8204 14.7575 12.3332 13.5194 13.246 12.6066C14.1588 11.6938 15.3968 11.181 16.6877 11.181C17.9786 11.181 19.2166 11.6938 20.1294 12.6066C21.0422 13.5194 21.555 14.7575 21.555 16.0484V21.7269H11.8204V16.0484Z" fill="#F3F2F7"/>
</svg>
