<svg width="31" height="19" viewBox="0 0 31 19" fill="none" xmlns="http://www.w3.org/2000/svg">
<path d="M0 9.5C1.45699 6.64085 3.67579 4.24036 6.41118 2.56383C9.14658 0.887298 12.2921 0 15.5 0C18.7079 0 21.8534 0.887298 24.5888 2.56383C27.3242 4.24036 29.543 6.64085 31 9.5C29.543 12.3591 27.3242 14.7596 24.5888 16.4362C21.8534 18.1127 18.7079 19 15.5 19C12.2921 19 9.14658 18.1127 6.41118 16.4362C3.67579 14.7596 1.45699 12.3591 0 9.5ZM15.5 15.8291C17.1779 15.8291 18.7871 15.1623 19.9735 13.9754C21.16 12.7884 21.8265 11.1786 21.8265 9.5C21.8265 7.82141 21.16 6.21158 19.9735 5.02464C18.7871 3.8377 17.1779 3.17089 15.5 3.17089C13.8221 3.17089 12.2129 3.8377 11.0265 5.02464C9.84001 6.21158 9.17347 7.82141 9.17347 9.5C9.17347 11.1786 9.84001 12.7884 11.0265 13.9754C12.2129 15.1623 13.8221 15.8291 15.5 15.8291ZM15.5 12.6646C14.6611 12.6646 13.8565 12.3311 13.2632 11.7377C12.67 11.1442 12.3367 10.3393 12.3367 9.5C12.3367 8.66071 12.67 7.85579 13.2632 7.26232C13.8565 6.66885 14.6611 6.33544 15.5 6.33544C16.339 6.33544 17.1435 6.66885 17.7368 7.26232C18.33 7.85579 18.6633 8.66071 18.6633 9.5C18.6633 10.3393 18.33 11.1442 17.7368 11.7377C17.1435 12.3311 16.339 12.6646 15.5 12.6646Z" fill="#002D38"/>
</svg>
