<svg width="9" height="9" viewBox="0 0 9 9" fill="none" xmlns="http://www.w3.org/2000/svg">
<path d="M9 4.5C9 5.69347 8.52589 6.83807 7.68198 7.68198C6.83807 8.52589 5.69347 9 4.5 9C3.30653 9 2.16193 8.52589 1.31802 7.68198C0.474106 6.83807 0 5.69347 0 4.5C0 3.30653 0.474106 2.16193 1.31802 1.31802C2.16193 0.474107 3.30653 0 4.5 0C5.69347 0 6.83807 0.474107 7.68198 1.31802C8.52589 2.16193 9 3.30653 9 4.5ZM4.5 6.38C4.33424 6.38 4.17527 6.44585 4.05806 6.56306C3.94085 6.68027 3.875 6.83924 3.875 7.005C3.875 7.17076 3.94085 7.32973 4.05806 7.44694C4.17527 7.56415 4.33424 7.63 4.5 7.63C4.66576 7.63 4.82473 7.56415 4.94194 7.44694C5.05915 7.32973 5.125 7.17076 5.125 7.005C5.125 6.83924 5.05915 6.68027 4.94194 6.56306C4.82473 6.44585 4.66576 6.38 4.5 6.38ZM4.5 1.503C3.452 1.503 2.636 2.321 2.647 3.458C2.64766 3.52366 2.66124 3.58855 2.68697 3.64896C2.71271 3.70937 2.75009 3.76412 2.79698 3.81009C2.84387 3.85605 2.89936 3.89233 2.96028 3.91685C3.02119 3.94137 3.08634 3.95366 3.152 3.953C3.21766 3.95234 3.28255 3.93876 3.34296 3.91303C3.40337 3.88729 3.45812 3.84991 3.50409 3.80302C3.55005 3.75612 3.58633 3.70064 3.61085 3.63972C3.63537 3.57881 3.64766 3.51366 3.647 3.448C3.641 2.869 4.007 2.503 4.5 2.503C4.972 2.503 5.353 2.895 5.353 3.453C5.353 3.655 5.283 3.768 4.993 3.997L4.716 4.212C4.21 4.616 4 4.929 4 5.5C3.99977 5.62495 4.04633 5.74545 4.13051 5.83778C4.21469 5.93012 4.33039 5.98759 4.45482 5.99888C4.57926 6.01017 4.70341 5.97446 4.80283 5.89878C4.90225 5.8231 4.96974 5.71295 4.992 5.59L5.003 5.434C5.02 5.286 5.103 5.18 5.349 4.986L5.626 4.771C6.139 4.361 6.353 4.039 6.353 3.453C6.353 2.349 5.531 1.503 4.5 1.503Z" fill="black"/>
</svg>
