<svg width="23" height="23" viewBox="0 0 23 23" fill="none" xmlns="http://www.w3.org/2000/svg">
<path id="Vector" d="M22.6475 20.6913L17.4335 15.4774C18.6888 13.8062 19.3664 11.7721 19.3642 9.68208C19.3642 4.34341 15.0207 0 9.68208 0C4.34341 0 0 4.34341 0 9.68208C0 15.0207 4.34341 19.3642 9.68208 19.3642C11.7721 19.3664 13.8062 18.6888 15.4774 17.4335L20.6913 22.6475C20.9553 22.8834 21.2995 23.0094 21.6534 22.9995C22.0073 22.9896 22.3439 22.8446 22.5942 22.5942C22.8446 22.3439 22.9896 22.0073 22.9995 21.6534C23.0094 21.2995 22.8834 20.9553 22.6475 20.6913ZM2.76631 9.68208C2.76631 8.31427 3.17191 6.97718 3.93183 5.83988C4.69174 4.70259 5.77184 3.81618 7.03553 3.29274C8.29922 2.7693 9.68975 2.63235 11.0313 2.89919C12.3728 3.16604 13.6051 3.8247 14.5723 4.79189C15.5395 5.75908 16.1981 6.99135 16.465 8.33288C16.7318 9.67441 16.5949 11.0649 16.0714 12.3286C15.548 13.5923 14.6616 14.6724 13.5243 15.4323C12.387 16.1922 11.0499 16.5979 9.68208 16.5979C7.84858 16.5956 6.0908 15.8663 4.79432 14.5698C3.49784 13.2734 2.76851 11.5156 2.76631 9.68208Z" fill="black"/>
</svg>
