<svg width="404" height="471" viewBox="0 0 404 471" fill="none" xmlns="http://www.w3.org/2000/svg">
<g clip-path="url(#clip0_1716_1072)">
<path d="M390.891 173.562H12.7675C5.69977 173.562 0.113995 167.864 0 160.799V12.6497C0 5.69804 5.69977 0 12.7675 0H391.005C398.072 0 403.658 5.69804 403.772 12.7636V160.913C403.658 167.864 397.958 173.562 390.891 173.562Z" fill="#F1F1F1"/>
<path d="M302.658 165.471H72.7292C37.0486 165.471 8.09375 136.525 8.09375 100.855V72.7071C8.09375 37.0374 37.0486 8.09131 72.7292 8.09131H330.815C366.496 8.09131 395.45 37.0374 395.45 72.7071C395.45 123.989 353.956 165.471 302.658 165.471Z" fill="white"/>
<path d="M243.38 50.4847H91.424C89.6001 50.4847 88.1182 49.0032 88.1182 47.1799C88.1182 45.3565 89.6001 43.875 91.424 43.875H243.38C245.204 43.875 246.686 45.3565 246.686 47.1799C246.686 49.1172 245.204 50.4847 243.38 50.4847Z" fill="#E4E4E4"/>
<path d="M320.327 85.4706H91.424C89.6001 85.4706 88.1182 83.9891 88.1182 82.1657C88.1182 80.3423 89.6001 78.8608 91.424 78.8608H320.327C322.151 78.8608 323.633 80.3423 323.633 82.1657C323.633 83.9891 322.151 85.4706 320.327 85.4706Z" fill="#E4E4E4"/>
<path d="M320.327 120.456H91.424C89.6001 120.456 88.1182 118.975 88.1182 117.152C88.1182 115.328 89.6001 113.847 91.424 113.847H320.327C322.151 113.847 323.633 115.328 323.633 117.152C323.633 118.975 322.151 120.456 320.327 120.456Z" fill="#E4E4E4"/>
<path d="M320.327 120.456H91.424C89.6001 120.456 88.1182 118.975 88.1182 117.152C88.1182 115.328 89.6001 113.847 91.424 113.847H320.327C322.151 113.847 323.633 115.328 323.633 117.152C323.633 118.975 322.151 120.456 320.327 120.456Z" fill="#E4E4E4"/>
<path d="M227.307 89.4593C227.421 93.22 230.613 96.069 234.261 95.955C234.603 95.955 235.059 95.8411 235.401 95.8411L247.94 116.354L253.298 105.072L240.645 87.294C239.619 83.6473 235.857 81.596 232.209 82.6216C229.245 83.5333 227.193 86.3823 227.307 89.4593Z" fill="#ECB4B4"/>
<path d="M321.126 148.263L278.035 124.901L264.47 112.137C264.47 112.137 258.542 110.542 260.708 108.605C262.874 106.667 256.718 104.844 256.718 104.844L249.422 98.0063L239.049 105.3L242.013 109.972C242.013 109.972 241.785 117.722 246.003 116.24C250.22 114.759 249.194 121.14 249.194 121.14L274.387 160.115L321.126 148.263Z" fill="#1C313A"/>
<path d="M194.02 126.269C217.252 126.269 236.085 107.441 236.085 84.2171C236.085 60.9926 217.252 42.1655 194.02 42.1655C170.789 42.1655 151.956 60.9926 151.956 84.2171C151.956 107.441 170.789 126.269 194.02 126.269Z" fill="#99EBB2"/>
<path d="M321.239 454.704H312.575L308.357 420.971H321.239V454.704Z" fill="#ECB4B4"/>
<path d="M325.913 469.861H319.643L318.503 463.935L315.653 469.861H299.01C296.958 469.861 295.248 468.151 295.248 466.1C295.248 464.846 295.818 463.707 296.844 463.023L310.181 453.792V447.866L324.203 448.664L325.913 469.861Z" fill="#1C313A"/>
<path d="M251.36 454.704H242.582L238.364 420.971H251.36V454.704Z" fill="#ECB4B4"/>
<path d="M255.92 469.861H249.65L248.51 463.935L245.66 469.861H229.017C226.965 469.861 225.255 468.151 225.255 466.1C225.255 464.846 225.825 463.707 226.851 463.023L240.188 453.792V447.866L254.21 448.664L255.92 469.861Z" fill="#1C313A"/>
<path d="M312.006 199.545H267.89V249.802H312.006V199.545Z" fill="#ECB4B4"/>
<path d="M268.915 224.275L261.392 233.05L248.51 260.287L216.021 337.666L209.182 354.076L214.767 383.022C214.767 383.022 215.679 403.421 215.679 406.726C215.679 413.564 221.379 417.325 221.379 417.325L225.597 438.977L266.065 437.268C266.065 437.268 264.697 413.336 256.148 407.296C247.598 401.256 243.836 369.803 243.836 369.803L239.276 355.9L284.077 302.794L284.419 321.37L284.533 330.372C284.533 330.372 277.921 388.834 285.673 400.23C293.424 411.626 285.787 410.259 285.787 410.259L286.129 433.621L334.007 433.963L323.405 366.612C323.405 366.612 318.047 362.395 320.897 358.065C323.747 353.734 318.161 348.606 318.161 348.606L320.669 295.956C320.669 295.956 317.819 286.839 321.125 285.7C324.431 284.56 321.581 276.697 321.581 276.697L322.037 266.554L312.234 234.987L268.915 224.275Z" fill="#1C313A"/>
<path d="M312.689 199.545L317.477 185.3L320.897 180.514L322.265 166.952C322.265 130.257 314.057 136.411 314.057 136.411L309.384 123.533L287.61 122.85L273.589 136.069L262.075 140.172L257.516 163.648L265.723 188.719L267.775 202.28C263.899 209.46 264.241 206.041 267.433 211.397L305.85 221.882C319.415 226.668 319.415 214.36 316.679 211.397C314.057 208.32 312.689 199.545 312.689 199.545Z" fill="#1C313A"/>
<path d="M295.59 118.291C306.734 118.291 315.767 109.26 315.767 98.1203C315.767 86.9801 306.734 77.9492 295.59 77.9492C284.447 77.9492 275.413 86.9801 275.413 98.1203C275.413 109.26 284.447 118.291 295.59 118.291Z" fill="#ECB4B4"/>
<path d="M322.493 125.015C323.177 126.155 322.835 127.75 321.581 128.434C321.467 128.548 321.239 128.662 321.125 128.662C318.39 129.573 316.794 132.194 314.856 134.246C312.918 136.297 309.84 138.006 307.332 136.639C304.824 135.271 304.71 131.625 302.658 129.687C300.606 127.75 297.3 127.978 294.906 129.459H294.792C293.653 130.257 292.057 129.915 291.373 128.776C291.031 128.206 290.917 127.636 291.031 126.952C291.829 122.508 292.741 118.177 293.539 113.733C291.373 118.975 288.181 123.761 284.191 127.75C283.051 129.004 281.683 130.029 280.201 130.599C278.833 131.055 277.465 129.573 276.097 129.801C279.517 126.838 291.031 107.693 288.979 94.9293C286.585 95.1572 284.191 95.4991 281.797 95.727C281.569 94.5874 280.999 93.5618 280.201 92.6501C280.315 93.7897 280.201 94.9293 279.745 95.9549C278.719 96.0689 277.693 96.1829 276.667 96.2968C275.299 96.4108 273.703 96.6387 272.563 95.841C270.511 94.5874 270.511 91.7384 271.081 89.4592C272.791 82.8495 277.807 77.2654 284.077 74.4164C290.233 71.5673 292.171 77.9491 298.668 75.8978C311.55 71.7953 321.467 78.7469 325.001 91.7384C327.623 102.565 325.457 114.075 322.493 125.015Z" fill="#323242"/>
<path d="M378.351 470.316H353.728L353.614 470.088C353.272 469.519 353.044 468.949 352.702 468.265C350.194 462.795 349.054 456.641 348.142 451.057L347.458 446.954C347.23 445.587 348.142 444.219 349.51 443.991C350.194 443.877 350.878 443.991 351.448 444.447C355.209 447.182 358.971 449.917 362.733 452.652C364.101 453.678 365.811 454.932 367.293 456.185C367.407 455.501 367.635 454.704 367.749 454.02C368.091 452.652 369.459 451.741 370.827 452.083C371.511 452.196 372.081 452.652 372.423 453.222L375.273 457.894C377.325 461.313 379.263 464.618 378.807 468.265V468.379C378.693 468.949 378.579 469.519 378.351 470.088V470.316Z" fill="#EFEFEF"/>
<path d="M403.088 470.772L168.599 471C168.143 471 167.688 470.544 167.688 470.088C167.688 469.632 168.029 469.177 168.599 469.177L403.088 468.949C403.544 468.949 404 469.405 404 469.86C404 470.43 403.544 470.772 403.088 470.772Z" fill="#C8C8C8"/>
<path d="M190.145 140.855L164.382 119.089C162.558 117.493 162.33 114.758 163.812 112.935L168.599 107.351C170.195 105.527 172.931 105.3 174.755 106.781L200.518 128.548C202.342 130.143 202.57 132.878 201.088 134.701L196.3 140.286C194.704 142.109 191.969 142.337 190.145 140.855Z" fill="#413F56"/>
<path d="M165.749 113.391C164.951 114.417 165.065 115.898 165.977 116.696L191.74 138.462C192.766 139.26 194.248 139.146 195.046 138.234L199.834 132.65C200.632 131.625 200.518 130.143 199.606 129.345L173.843 107.579C172.817 106.781 171.335 106.895 170.537 107.807L165.749 113.391Z" fill="white"/>
<path d="M180.911 121.824C180.683 122.052 180.455 122.28 180.113 122.28L176.009 122.394C175.439 122.394 174.983 121.938 174.983 121.482C174.983 120.912 175.439 120.456 175.895 120.456L178.517 120.342L175.895 113.505C175.667 113.049 176.009 112.365 176.465 112.251C176.921 112.023 177.605 112.365 177.719 112.821L180.797 121.026C181.139 121.14 181.025 121.482 180.911 121.824Z" fill="#99EBB2"/>
<path d="M181.367 123.534C185.014 124.103 187.636 127.522 187.066 131.169C186.952 131.511 186.952 131.967 186.838 132.309L205.876 147.01L194.02 151.112L177.833 136.525C174.413 135.158 172.703 131.169 174.071 127.636C175.211 124.787 178.289 123.078 181.367 123.534Z" fill="#ECB4B4"/>
<path d="M280.429 130.827L231.752 160.685C231.752 160.685 212.145 153.391 215.907 150.087C219.783 146.668 207.471 144.502 207.471 144.502L194.02 135.386L186.154 144.502C186.154 144.502 187.636 159.317 190.03 156.696C192.424 154.189 196.072 161.141 196.072 161.141C196.072 161.141 197.098 169.004 204.052 166.953C211.005 164.901 229.473 185.528 229.473 185.528L289.434 163.192L280.429 130.827Z" fill="#1C313A"/>
<path d="M192.538 101.083C191.399 101.083 190.259 100.513 189.575 99.6017L180.683 87.7498C179.429 86.1543 179.771 83.8751 181.367 82.6215C182.963 81.368 185.243 81.7098 186.497 83.3053L192.311 91.0546L207.358 68.6044C208.498 66.8949 210.778 66.4391 212.374 67.5787C214.084 68.7183 214.54 70.9975 213.4 72.593L195.502 99.3738C194.932 100.399 193.792 101.083 192.538 101.083Z" fill="white"/>
</g>
<defs>
<clipPath id="clip0_1716_1072">
<rect width="404" height="471" fill="white"/>
</clipPath>
</defs>
</svg>
