<svg id="Layer_1" data-name="Layer 1" xmlns="http://www.w3.org/2000/svg" xmlns:xlink="http://www.w3.org/1999/xlink" viewBox="0 0 828 680"><defs><style>.cls-1{fill:none;}.cls-2{clip-path:url(#clip-path);}.cls-3{fill:#fff;}.cls-4{fill:#2f2e41;}.cls-5{fill:#002d38;}.cls-6{fill:#e6e7e8;}.cls-7{fill:#f2f2f3;}.cls-8{fill:#a0616a;}.cls-9{fill:#403d56;}.cls-10{fill:#cccccb;}</style><clipPath id="clip-path"><rect class="cls-1" width="828" height="680"/></clipPath></defs><title>Sign Up</title><g class="cls-2"><rect class="cls-3" width="828" height="680"/><polygon class="cls-4" points="349.71 251.42 478.32 141.23 478.92 142.85 350.76 252.65 349.71 251.42"/><ellipse class="cls-5" cx="489.26" cy="147.29" rx="18.85" ry="18.88"/><path class="cls-5" d="M648.12,189.09H476a5.63,5.63,0,0,1-2.14-.42,5.61,5.61,0,0,1-3.05-3,5.71,5.71,0,0,1,0-4.3,5.61,5.61,0,0,1,3.05-3,5.63,5.63,0,0,1,2.14-.42h172.1a5.64,5.64,0,0,1,2.15.42,5.76,5.76,0,0,1,1.82,1.22,5.54,5.54,0,0,1,1.22,1.83,5.59,5.59,0,0,1,0,4.3,5.54,5.54,0,0,1-1.22,1.83,5.76,5.76,0,0,1-1.82,1.22A5.64,5.64,0,0,1,648.12,189.09Z"/><path class="cls-5" d="M648.12,211.31H476a5.63,5.63,0,0,1,0-11.25H648.12a5.63,5.63,0,0,1,0,11.25Z"/><path class="cls-5" d="M550.62,233.52H476a5.62,5.62,0,1,1,0-11.24h74.59a5.62,5.62,0,1,1,0,11.24Z"/><ellipse class="cls-6" cx="521.03" cy="290.47" rx="12.92" ry="12.94"/><path class="cls-6" d="M629.91,319.12H512a3.59,3.59,0,0,1-1.48-.29,3.83,3.83,0,0,1-2.08-5,3.79,3.79,0,0,1,.83-1.26,3.9,3.9,0,0,1,1.25-.83,3.94,3.94,0,0,1,1.48-.29h118a3.94,3.94,0,0,1,1.48.29,4,4,0,0,1,1.25.83,4,4,0,0,1,.83,1.26,3.72,3.72,0,0,1,.3,1.47,3.77,3.77,0,0,1-.3,1.48,3.9,3.9,0,0,1-.83,1.25,3.85,3.85,0,0,1-1.25.83A3.59,3.59,0,0,1,629.91,319.12Z"/><path class="cls-6" d="M541.25,334.35H512a3.86,3.86,0,0,1,0-7.71h29.29a3.86,3.86,0,0,1,0,7.71Z"/><ellipse class="cls-6" cx="479.8" cy="419.88" rx="12.92" ry="12.94"/><path class="cls-6" d="M588.68,448.53h-118a3.86,3.86,0,0,1-2.72-1.12,4,4,0,0,1-.84-1.26,3.85,3.85,0,0,1-.29-1.47,3.94,3.94,0,0,1,.29-1.48A4,4,0,0,1,468,442a3.74,3.74,0,0,1,1.25-.83,3.57,3.57,0,0,1,1.47-.29h118a3.51,3.51,0,0,1,1.47.29,3.65,3.65,0,0,1,1.25.83,3.88,3.88,0,0,1,.84,1.25,3.94,3.94,0,0,1,.29,1.48,3.85,3.85,0,0,1-.29,1.47,3.83,3.83,0,0,1-2.09,2.09A3.85,3.85,0,0,1,588.68,448.53Z"/><path class="cls-6" d="M541.6,463.76H470.72a3.86,3.86,0,0,1,0-7.71H541.6a3.89,3.89,0,0,1,2.73,1.13,3.88,3.88,0,0,1,0,5.45A3.89,3.89,0,0,1,541.6,463.76Z"/><path class="cls-6" d="M521.86,479H470.72a3.86,3.86,0,0,1-2.72-6.58,3.81,3.81,0,0,1,2.72-1.13h51.14a3.84,3.84,0,0,1,3.84,3.85,3.84,3.84,0,0,1-3.84,3.86Z"/><path class="cls-7" d="M130.41,522.08c-20.18-9.58-35.21-28.85-32.86-50,18.1,14.68,42.74,22.88,68.18,22.68,9.91-.07,21-1.08,28.21,4.49,4.48,3.46,6.5,9,6.75,14.45s-1.07,11-2.39,16.51l.4,1.3C175,533,150.58,531.65,130.41,522.08Z"/><path class="cls-3" d="M98,472c7.81,15.25,21.34,28,38.15,35.4a40.45,40.45,0,0,0,11.63,3.43,26.44,26.44,0,0,0,12.11-1.59c3.65-1.31,7.25-3,11.13-3.54a14.19,14.19,0,0,1,10.76,2.9c3.58,2.79,5.72,6.65,7.66,10.5,2.14,4.28,4.3,8.76,8.51,11.67.51.35-.2,1.09-.71.74-7.32-5.07-8.38-14.24-14.2-20.38a13.66,13.66,0,0,0-11-4.61c-4,.29-7.67,2.05-11.36,3.41a28.06,28.06,0,0,1-11.81,1.94,37.85,37.85,0,0,1-11.78-3A81.59,81.59,0,0,1,114.85,495a76.12,76.12,0,0,1-17.8-22.65C96.78,471.83,97.78,471.48,98,472Z"/><path class="cls-3" d="M130.56,505.26a15.75,15.75,0,0,1-17.76,4.52c-.59-.24-.11-1.1.48-.86a14.62,14.62,0,0,0,16.51-4.23C130.2,504.18,131,504.76,130.56,505.26Z"/><path class="cls-3" d="M158.15,510.13A21.3,21.3,0,0,0,149,495.29c-.51-.35.2-1.09.7-.73A22.16,22.16,0,0,1,159.2,510C159.27,510.61,158.22,510.72,158.15,510.13Z"/><path class="cls-3" d="M108.73,488a7.21,7.21,0,0,0,2.77-6.44c-.08-.58,1-.69,1-.11a8.08,8.08,0,0,1-.61,4,8,8,0,0,1-2.43,3.17.6.6,0,0,1-.74.08.53.53,0,0,1-.12-.14.41.41,0,0,1,0-.18.52.52,0,0,1,0-.18A.42.42,0,0,1,108.73,488Z"/><path class="cls-7" d="M164.11,427.29c.07.37.13.73.2,1.1a79.51,79.51,0,0,0,3.94,14.38c.13.36.26.72.41,1.08a86.67,86.67,0,0,0,19.83,30,91.11,91.11,0,0,0,11.35,9.5c5.62,4,12.11,7.88,15.67,13.25a15.63,15.63,0,0,1,1,1.73l-16,32.49-.22.18-.58,1.32-.67-.41-.39-.24-.25-.16-.08,0-.22-.13-3.81-2.44v0c-9.61-6.29-18.66-13.41-26.09-21.62-.22-.25-.45-.5-.67-.76a80.78,80.78,0,0,1-8.83-11.9,70.2,70.2,0,0,1-3.76-7.13,57.61,57.61,0,0,1-5-20c-.9-13.87,3.21-28.21,13.41-39.31Z"/><path class="cls-3" d="M164.52,427.51c-4.46,17.15-2.92,35.24,4.64,50.63a31.68,31.68,0,0,0,6.39,9.19,21.42,21.42,0,0,0,10.13,5.19c3.63.86,7.48,1.35,10.73,3a11.31,11.31,0,0,1,6.1,8.28c.79,4.3-.21,8.72-1.37,13-1.28,4.79-2.69,9.75-1.51,14.5.14.57-.88.81-1,.24-2-8.26,3.35-16.6,3.14-25-.09-3.9-1.51-7.7-5.12-9.85-3.16-1.89-7.13-2.41-10.81-3.25a23.07,23.07,0,0,1-10.15-4.73,29.68,29.68,0,0,1-6.79-8.9,69.43,69.43,0,0,1-7.3-23.81,76.91,76.91,0,0,1,2-28.82C163.7,426.67,164.68,426.93,164.52,427.51Z"/><path class="cls-3" d="M166.39,473.28c-6.59,2.07-13.59-.41-16.35-5.76-.27-.53.67-1,.94-.47,2.59,5,9.06,7.26,15.23,5.33C166.86,472.17,167,473.08,166.39,473.28Z"/><path class="cls-3" d="M183.76,492.31A22.63,22.63,0,0,0,187,474.79c-.14-.58.89-.82,1-.24a23.5,23.5,0,0,1-3.36,18.22C184.28,493.32,183.42,492.84,183.76,492.31Z"/><path class="cls-3" d="M161.71,446.85a8.85,8.85,0,0,0,6.42-4c.34-.54,1.19-.07.86.47a10,10,0,0,1-3.07,3,9.78,9.78,0,0,1-4,1.41c-.29,0-.55-.06-.61-.33a.5.5,0,0,1,.1-.37A.57.57,0,0,1,161.71,446.85Z"/><path class="cls-8" d="M212.19,209.83l27.28,29L303,262.17,310.6,248l-48.87-26s-22-23.05-35.1-27.8Z"/><ellipse class="cls-8" cx="309.56" cy="256.37" rx="9.42" ry="9.43"/><path class="cls-9" d="M233.36,195.75,213.86,213l-.09,0c-9.07,2.32-22.16-8.39-31.55-17.79a17.23,17.23,0,0,1,16.7-28.83l15.85,4.38Z"/><polygon class="cls-8" points="255.16 538.3 268.6 538.3 275 486.38 255.16 486.38 255.16 538.3"/><path class="cls-4" d="M251.74,533.9h3.78l14.77-6,7.91,6h0a16.88,16.88,0,0,1,16.87,16.9v.55H251.74Z"/><polygon class="cls-8" points="195.53 538.3 208.97 538.3 215.37 486.38 195.53 486.38 195.53 538.3"/><path class="cls-4" d="M192.11,533.9h3.78l14.77-6,7.91,6h0a16.88,16.88,0,0,1,16.87,16.9v.55H192.11Z"/><path class="cls-4" d="M175,314.66s-1.57,18.86,2.36,36.93,3.92,69,3.92,69l8.63,99.2,25.89-2.36,7.06-165.83L248,407.39l-2.35,7.86,3.13,2s-2.35,15.32-.78,15.32,5.49,2.36,5.49,2.36l-3.13,81,26.67-.79,9.42-113.95-10.2-65.23-.79-12.58-3.53.15-1.8-5.26-3.3-9Z"/><path class="cls-9" d="M173.69,318.62l-.14-.2c-7.47-10.47,3.76-35.64,5.46-39.29l-7.14-2.32,1.61-13.68.76-6.1-5.46-5.46v-.14l-3.14-27.5-4.56-18.27a40.13,40.13,0,0,1,11.36-38.87l10.55-10,12.82-19h20.67l7.09,13.41a30.15,30.15,0,0,1,23.31,30.81l-1.6,35.17L251.55,261v7.93l7.08,7.88-1.55,7.74,5.39,2.31L264.85,298c1,1.3,7.48,10,7.48,12.35,0,.36-.26.7-.82,1.09-4.43,3-28.9,9.12-39.73,4.78-11.53-4.62-57.39,2.31-57.85,2.38Z"/><path class="cls-10" d="M343.21,551.06a.86.86,0,0,1-.07.36.69.69,0,0,1-.2.3.9.9,0,0,1-.3.21.86.86,0,0,1-.36.07H122.36a1,1,0,0,1-.66-.27,1,1,0,0,1,0-1.33,1,1,0,0,1,.66-.27H342.28a.92.92,0,0,1,.93.93Z"/><ellipse class="cls-8" cx="208.81" cy="104.27" rx="27.38" ry="27.42"/><path class="cls-4" d="M211.43,132.14a74.44,74.44,0,0,1-12.64-1.22c-4.13-.95-13.24-8-15.72-12.18-1.85-3.09-2.95-7.88-3.56-11.36a33.36,33.36,0,0,1,6.5-26.3,10.55,10.55,0,0,1,4.34-3.52,4.26,4.26,0,0,1,.47-.15,13,13,0,0,0,6.56-3.83,10.19,10.19,0,0,1,1.1-1.08,15.93,15.93,0,0,1,6.75-3.18c4-1,9.7.24,17,3.58,3.65,1.67,7.71,1.21,10.83.61a1,1,0,0,1,.52,0,1.08,1.08,0,0,1,.43.3,7.18,7.18,0,0,0,4.82,2.08c1.11.07,2.23,1.64,3.59,3.69.31.46.67,1,.93,1.33l.05-.62.61.71a8.73,8.73,0,0,1-4.3,14.11,17.14,17.14,0,0,1-3.42.45c-.7,0-1.43.09-2.13.2a13.05,13.05,0,0,0-6.07,2.82,13.19,13.19,0,0,0-3.9,5.45,3.42,3.42,0,0,1-5.22,1.54,5.71,5.71,0,0,0-2.44-1.17,5.61,5.61,0,0,0-2.7.09,3.75,3.75,0,0,0-1.71,1.85,5.07,5.07,0,0,1-1.92,2.13c-2.85,1.38-3.21,7.81-2.34,13.2.84,5.19,2.67,9,4.45,9.22,1.37.17,1.52.28,1.61.52l.09.22-.16.2A5.58,5.58,0,0,1,211.43,132.14Z"/><ellipse class="cls-5" cx="345.73" cy="291.48" rx="48.48" ry="48.56"/><path class="cls-3" d="M341.5,310.52h-.32A6.45,6.45,0,0,1,336.4,308l-7.64-9.84a6.5,6.5,0,0,1,1.13-9.09l.27-.21a6.47,6.47,0,0,1,9.07,1.13,3.86,3.86,0,0,0,2.88,1.5,3.78,3.78,0,0,0,3-1.21l15.52-16.4a6.45,6.45,0,0,1,9.13-.25l.26.24a6.48,6.48,0,0,1,.24,9.15L346.19,308.5a6.55,6.55,0,0,1-2.14,1.49A6.37,6.37,0,0,1,341.5,310.52Z"/><path class="cls-8" d="M217.73,210.84l19,35,55.5,38.72,11-11.79-40.65-37.62s-15.45-27.91-26.89-35.83Z"/><ellipse class="cls-8" cx="300.09" cy="280.65" rx="9.42" ry="9.43"/><path class="cls-9" d="M219.45,215.51l-12-28.75,4.32-15.89a17.22,17.22,0,0,1,33.29.32c3.27,12.88,5.79,29.63-.83,36.25l-.07.07Z"/><path class="cls-3" d="M486.18,158h-.13a2.61,2.61,0,0,1-1.09-.3,2.69,2.69,0,0,1-.88-.73l-3.14-4a2.73,2.73,0,0,1-.54-2,2.66,2.66,0,0,1,1-1.77l.11-.09a2.65,2.65,0,0,1,3.73.47,1.66,1.66,0,0,0,1.18.61,1.46,1.46,0,0,0,.68-.11,1.64,1.64,0,0,0,.56-.38l6.38-6.75a2.69,2.69,0,0,1,1.86-.83,2.62,2.62,0,0,1,1.9.73l.1.09a2.65,2.65,0,0,1,.83,1.86,2.68,2.68,0,0,1-.72,1.91l-9.91,10.47a2.75,2.75,0,0,1-.88.62A2.7,2.7,0,0,1,486.18,158Z"/><path class="cls-6" d="M636,453.79c5.61,3.82,11.85,8.11,13.66,15.07a11.56,11.56,0,0,1,.32,4.57,11.38,11.38,0,0,1-1.49,4.34,26.75,26.75,0,0,1-5.67,6.11,41.54,41.54,0,0,0-6.92,7c-.89,1.24,1.16,2.42,2,1.19,3.57-5,9.52-7.83,12.66-13.2,3.72-6.36,1.24-13.89-3.37-19-2.88-3.21-6.49-5.66-10-8.06C635.93,450.9,634.75,452.94,636,453.79Z"/><path class="cls-6" d="M655.61,453.79c5.61,3.82,11.84,8.11,13.65,15.07a11.38,11.38,0,0,1,.33,4.57,11.55,11.55,0,0,1-1.49,4.34,26.8,26.8,0,0,1-5.68,6.11,41.92,41.92,0,0,0-6.92,7c-.88,1.24,1.16,2.42,2,1.19,3.57-5,9.51-7.83,12.66-13.2,3.72-6.36,1.23-13.89-3.38-19-2.87-3.21-6.48-5.66-10-8.06C655.54,450.9,654.36,452.94,655.61,453.79Z"/><path class="cls-6" d="M468.9,281c1.25-.85.07-2.89-1.19-2-3.54,2.4-7.15,4.85-10,8.06-4.61,5.14-7.09,12.67-3.37,19,3.15,5.37,9.09,8.2,12.66,13.2.88,1.23,2.92.05,2-1.19a41.48,41.48,0,0,0-6.91-7,26.58,26.58,0,0,1-5.68-6.11,11.55,11.55,0,0,1-1.49-4.34,11.38,11.38,0,0,1,.33-4.57C457.05,289.12,463.29,284.83,468.9,281Z"/><path class="cls-6" d="M449.28,281c1.25-.85.07-2.89-1.19-2-3.54,2.4-7.14,4.85-10,8.06-4.61,5.14-7.1,12.67-3.37,19,3.14,5.37,9.08,8.2,12.66,13.2.87,1.23,2.91.05,2-1.19a41.54,41.54,0,0,0-6.92-7,26.8,26.8,0,0,1-5.68-6.11,11.55,11.55,0,0,1-1.49-4.34,11.38,11.38,0,0,1,.33-4.57C437.44,289.12,443.67,284.83,449.28,281Z"/></g></svg>