<svg width="34" height="35" viewBox="0 0 34 35" fill="none" xmlns="http://www.w3.org/2000/svg">
<circle cx="16.625" cy="17.5" r="16.625" fill="#002D38"/>
<path d="M26.871 5.92188C23.6947 8.4175 21.1242 10.2767 19.3433 11.5223C17.0609 13.1172 15.6532 14.0066 15.4444 15.606C15.2176 17.3076 16.4983 18.7119 15.6713 19.8826C15.5041 20.1136 15.2878 20.3046 15.0379 20.4419C14.788 20.5792 14.5107 20.6594 14.2261 20.6767C12.3306 20.7391 9.71926 17.3133 10.2014 14.0746C10.6063 11.3589 13.0248 9.86155 14.1569 9.30117C14.4666 9.14889 14.7913 9.02914 15.1257 8.94385L26.871 5.92188Z" fill="white"/>
<path d="M6.37842 29.0748C9.55466 26.5792 12.124 24.72 13.9061 23.4755C16.1885 21.8795 17.5962 20.9901 17.805 19.3918C18.0318 17.6902 16.7511 16.2859 17.5781 15.1152C17.7453 14.8842 17.9616 14.6932 18.2115 14.5559C18.4614 14.4186 18.7387 14.3384 19.0233 14.3212C20.9177 14.2588 23.5301 17.6846 23.0469 20.9243C22.5285 24.4103 18.6875 25.8895 18.5094 25.953L6.37842 29.0748Z" fill="white"/>
</svg>
