<svg id="Layer_1" data-name="Layer 1" xmlns="http://www.w3.org/2000/svg" viewBox="0 0 389 96"><defs><style>.cls-1{font-size:73.31px;font-family:CreatoDisplay-ExtraBold, Creato Display;font-weight:800;}.cls-1,.cls-2{fill:#fff;}</style></defs><title>white</title><text class="cls-1" transform="translate(136.95 72.67)">killas</text><path class="cls-2" d="M137,13.15c-9.69,7.63-17.52,13.28-23,17.08-7,4.86-11.25,7.57-11.89,12.45-.67,5.18,3.22,9.46.69,13a5.9,5.9,0,0,1-4.41,2.42C92.62,58.33,84.65,47.88,86.12,38c1.24-8.28,8.61-12.85,12.06-14.55a15,15,0,0,1,3-1.09Z"/><path class="cls-2" d="M74.47,83.75c9.69-7.62,17.52-13.27,23-17.07,6.95-4.87,11.25-7.58,11.88-12.45.68-5.18-3.21-9.47-.68-13A5.91,5.91,0,0,1,113,38.76c5.77-.19,13.74,10.26,12.27,20.14C123.72,69.53,112,74,111.49,74.23Z"/></svg>